<svg width="40" height="40" viewBox="0 0 40 40" fill="none" xmlns="http://www.w3.org/2000/svg">
<path d="M34.8584 19.9865C34.8584 23.7215 34.8584 27.457 34.8584 31.1928C34.8678 31.2789 34.8494 31.3656 34.8061 31.4406C34.7628 31.5155 34.6968 31.5747 34.6176 31.6096C29.8108 34.3769 25.0076 37.1495 20.2078 39.9273C20.1409 39.9746 20.0609 40 19.9789 40C19.8969 40 19.817 39.9746 19.75 39.9273C14.9529 37.1495 10.1514 34.3769 5.3455 31.6096C5.26598 31.5742 5.19965 31.5146 5.15594 31.4393C5.11224 31.364 5.09337 31.2768 5.10203 31.1902C5.10909 23.7299 5.10909 16.2692 5.10203 8.80803C5.0942 8.72118 5.11354 8.63403 5.1574 8.55865C5.20125 8.48327 5.26745 8.42338 5.34682 8.38725C10.1527 5.61821 14.9564 2.84652 19.7579 0.0721865C19.8248 0.0252088 19.9045 0 19.9862 0C20.0679 0 20.1476 0.0252088 20.2144 0.0721865C25.023 2.85358 29.8346 5.63233 34.6494 8.40842C34.7201 8.44094 34.7788 8.49483 34.8172 8.56248C34.8557 8.63014 34.872 8.70815 34.8637 8.78554C34.8576 12.5179 34.8558 16.2515 34.8584 19.9865ZM31.3016 8.87684V9.23808C31.3016 15.7395 31.3016 22.2408 31.3016 28.7422C31.3127 28.8424 31.2921 28.9435 31.2428 29.0313C31.1934 29.1191 31.1177 29.1893 31.0264 29.2318C27.4184 31.3057 23.814 33.3863 20.2131 35.4734C20.1424 35.5239 20.0578 35.551 19.971 35.551C19.8841 35.551 19.7995 35.5239 19.7288 35.4734C16.127 33.3863 12.5226 31.3053 8.91553 29.2305C8.83323 29.191 8.76558 29.1264 8.7223 29.0461C8.67903 28.9657 8.66236 28.8737 8.6747 28.7832C8.6747 22.2625 8.6747 15.7421 8.6747 9.2222V8.87155C8.14542 9.17324 7.66774 9.46699 7.16889 9.73164C7.07523 9.76998 6.9965 9.83763 6.9445 9.92446C6.8925 10.0113 6.87002 10.1126 6.88043 10.2133C6.88837 16.7411 6.88837 23.269 6.88043 29.7968C6.87015 29.888 6.88893 29.98 6.93408 30.0599C6.97923 30.1397 7.04844 30.2033 7.13184 30.2414C11.3397 32.6611 15.5435 35.087 19.7434 37.5191C19.814 37.5695 19.8987 37.5967 19.9855 37.5967C20.0723 37.5967 20.157 37.5695 20.2277 37.5191C24.4293 35.087 28.6336 32.6611 32.8405 30.2414C32.9231 30.2029 32.9914 30.1393 33.0358 30.0597C33.0802 29.9802 33.0985 29.8887 33.088 29.7982C33.0827 23.2703 33.0827 16.7425 33.088 10.2146C33.0847 10.167 33.0847 10.1193 33.088 10.0717C33.0975 10.021 33.0895 9.96862 33.0655 9.92299C33.0415 9.87736 33.0028 9.84117 32.9557 9.82029C32.4131 9.51595 31.8799 9.20764 31.3016 8.87684ZM22.1424 3.58399V3.94655V19.8C22.1424 20.541 22.1424 21.282 22.1424 22.023C22.1424 22.1143 22.1715 22.2161 22.0643 22.2783C21.711 22.4808 21.3564 22.6846 21.0057 22.8897C20.9078 22.9466 20.8734 22.9174 20.8734 22.8103C20.8734 22.7335 20.8734 22.6581 20.8734 22.5814C20.8734 16.1373 20.8783 9.6937 20.888 3.25054C20.888 2.95811 20.7887 2.81653 20.5545 2.64848C20.1456 2.35737 19.8148 2.36399 19.4112 2.64848C19.1969 2.8033 19.091 2.92636 19.091 3.20291C19.1043 9.65754 19.1109 16.1113 19.1109 22.5642C19.1109 22.621 19.1109 22.6779 19.1109 22.7348C19.1241 22.9135 19.0725 22.9624 18.9058 22.8592C18.6411 22.6965 18.3765 22.5311 18.0907 22.3921C17.9977 22.3547 17.9194 22.2879 17.8679 22.2019C17.8163 22.1159 17.7942 22.0155 17.8049 21.9158C17.8155 15.956 17.8203 9.99672 17.8194 4.03785C17.8194 3.97169 17.8194 3.90553 17.8194 3.83805C17.8393 3.64221 17.7837 3.60252 17.6064 3.70573C17.1499 3.97831 16.6894 4.2456 16.2236 4.49966C16.1607 4.52881 16.1085 4.57717 16.0748 4.6378C16.041 4.69842 16.0274 4.76819 16.0357 4.83707C16.0428 10.9018 16.0428 16.9656 16.0357 23.0286C16.0294 23.0972 16.0445 23.166 16.0792 23.2256C16.1138 23.2851 16.1662 23.3324 16.2289 23.3607C17.4075 24.0329 18.5838 24.7104 19.7579 25.3932C19.8226 25.4387 19.8998 25.4632 19.9789 25.4632C20.058 25.4632 20.1352 25.4387 20.1999 25.3932C21.3471 24.7236 22.497 24.0567 23.6561 23.4084C23.7394 23.3696 23.8082 23.3054 23.8527 23.225C23.8971 23.1447 23.9149 23.0523 23.9036 22.9611C23.9036 16.9458 23.9036 10.9296 23.9036 4.9125C23.9036 4.8556 23.9036 4.7987 23.9036 4.7418C23.9086 4.6995 23.8996 4.65672 23.8778 4.6201C23.856 4.58349 23.8227 4.5551 23.7831 4.53935C23.2605 4.23369 22.7285 3.92406 22.145 3.58664L22.1424 3.58399ZM9.93705 13.9196H9.94499C9.94499 15.7721 9.94499 17.6246 9.94499 19.4771C9.93572 19.5553 9.95198 19.6344 9.99132 19.7026C10.0307 19.7708 10.091 19.8244 10.1633 19.8555C10.6304 20.1069 11.0896 20.3742 11.5461 20.6495C11.5934 20.686 11.6511 20.7065 11.7108 20.7079C11.7706 20.7093 11.8292 20.6916 11.8782 20.6574C12.7674 20.1369 13.6601 19.6231 14.5564 19.1159C14.6235 19.0851 14.6794 19.0341 14.7161 18.9701C14.7529 18.906 14.7688 18.8321 14.7615 18.7586C14.7615 15.5379 14.7641 12.3181 14.7694 9.09914C14.7766 9.02976 14.7617 8.95989 14.7271 8.89936C14.6924 8.83883 14.6397 8.79069 14.5762 8.76172C13.6853 8.25625 12.7978 7.74373 11.9139 7.22415C11.8538 7.18154 11.7816 7.15944 11.708 7.16111C11.6343 7.16277 11.5632 7.18813 11.5051 7.23341C11.0578 7.49805 10.6066 7.7627 10.1474 8.01411C10.0756 8.04565 10.0158 8.09949 9.977 8.16765C9.93815 8.23581 9.92229 8.31467 9.93175 8.39255C9.93969 10.2331 9.93705 12.0764 9.93705 13.9196ZM28.2582 11.1858C28.8405 10.8498 29.3869 10.5322 29.9374 10.2199C30.0353 10.1643 30.0221 10.0876 30.0221 9.99893C30.0221 9.43921 30.0221 8.87817 30.0221 8.31712C30.0271 8.25676 30.0128 8.19636 29.9812 8.14472C29.9495 8.09307 29.9022 8.05288 29.8461 8.02999C29.3662 7.76534 28.8894 7.49012 28.4157 7.2043C28.3669 7.1688 28.308 7.14968 28.2477 7.14968C28.1873 7.14968 28.1285 7.1688 28.0796 7.2043C27.1798 7.73359 26.2765 8.25581 25.3697 8.77098C25.3186 8.79273 25.2757 8.82999 25.2469 8.87748C25.2182 8.92497 25.2051 8.9803 25.2096 9.03563C25.2149 12.2943 25.2175 15.5538 25.2175 18.8142C25.2129 18.8741 25.2271 18.934 25.2582 18.9855C25.2892 19.037 25.3356 19.0775 25.3908 19.1013C26.2906 19.6121 27.1891 20.1241 28.0796 20.6495C28.1323 20.6862 28.1953 20.7052 28.2595 20.7038C28.3238 20.7023 28.3859 20.6805 28.4369 20.6415C28.8855 20.3769 29.3353 20.1122 29.7932 19.8595C29.8653 19.8275 29.9253 19.7733 29.9644 19.7047C30.0034 19.6361 30.0195 19.5568 30.0102 19.4784C30.0102 16.9643 30.0102 14.4423 30.0102 11.9242C30.0102 11.8461 30.0459 11.7562 29.9546 11.6675C29.1951 12.1086 28.4338 12.5496 27.6707 12.9907C27.6377 13.0088 27.6107 13.0363 27.5933 13.0698C27.5758 13.1032 27.5687 13.1411 27.5728 13.1786C27.5728 13.7582 27.5728 14.3377 27.5728 14.9173C27.5728 15.0774 27.635 15.0668 27.7422 15.0033C27.8957 14.912 28.0518 14.8273 28.2331 14.7268V18.7043C27.8547 18.486 27.512 18.2769 27.1587 18.0877C27.0953 18.0585 27.0429 18.01 27.0089 17.9492C26.9749 17.8883 26.9611 17.8182 26.9694 17.749C26.9756 15.2014 26.9791 12.6546 26.98 10.1088C26.98 10.0188 26.9496 9.92086 27.0607 9.85734C27.4458 9.64033 27.8282 9.41671 28.2516 9.17589L28.2582 11.1858ZM19.1281 29.9927C18.6239 29.4912 18.1833 29.0479 17.7361 28.6126C17.6209 28.5001 17.5958 28.4419 17.7599 28.3479C18.3328 28.0145 18.9018 27.6704 19.4655 27.3224C19.6508 27.2086 19.6812 27.2642 19.6785 27.4547C19.6719 28.1865 19.6785 28.9182 19.6719 29.65C19.6719 29.9146 19.7738 30.0019 20.0279 29.9966C20.5982 29.986 21.1685 29.9874 21.7388 29.9966C21.9271 30.0008 22.1121 29.9462 22.2681 29.8405C23.1634 29.2512 24.0623 28.6672 24.9648 28.0886C25.0375 28.0423 25.0971 27.9562 25.2294 27.988V30.0707C25.6343 29.8273 26.0061 29.601 26.3793 29.3787C26.45 29.3398 26.5087 29.2822 26.5488 29.2122C26.589 29.1422 26.6091 29.0624 26.6069 28.9817C26.6069 28.4022 26.6069 27.8226 26.6069 27.243C26.6069 27.1345 26.5804 26.9929 26.4653 26.9956C26.0101 27.0035 25.539 26.8408 25.1064 27.1186C23.8493 27.9337 22.5923 28.7493 21.3352 29.5653C21.2548 29.6427 21.152 29.6927 21.0414 29.7082V29.507C21.0414 28.7846 21.0414 28.0621 21.0414 27.3396C21.0414 27.0088 20.9978 26.9678 20.659 26.9665C20.0887 26.9665 19.5184 26.9665 18.9494 26.9665C18.7549 26.9649 18.564 27.0201 18.4003 27.1253C17.2743 27.8094 16.1416 28.4855 15.0116 29.1617C14.9414 29.204 14.87 29.294 14.7879 29.257C14.7059 29.2199 14.7496 29.1021 14.7482 29.0228C14.7482 28.4339 14.7482 27.8451 14.7482 27.2563C14.7647 27.1484 14.7496 27.0381 14.7046 26.9387C14.3076 27.1782 13.9279 27.4071 13.5494 27.6373C13.4812 27.681 13.4266 27.743 13.392 27.8163C13.3573 27.8895 13.344 27.9711 13.3536 28.0515C13.3536 28.5927 13.3536 29.1352 13.3536 29.6764C13.3536 29.9133 13.4541 29.99 13.6804 29.9953C14.9785 30.0231 14.9785 30.0257 16.1006 29.3522C16.2223 29.2781 16.352 29.2199 16.4645 29.1313C16.5769 29.0426 16.6603 29.0651 16.7556 29.1657C16.9699 29.3933 17.1975 29.6103 17.4172 29.8273C17.4559 29.8754 17.5046 29.9146 17.5598 29.9422C17.6151 29.9699 17.6756 29.9853 17.7374 29.9874C18.1688 29.9913 18.5988 29.9927 19.1281 29.9927Z" fill="#010101"/>
<path d="M31.3016 8.87673C31.8772 9.20754 32.4105 9.51584 32.9464 9.81886C32.9935 9.83974 33.0322 9.87592 33.0563 9.92155C33.0803 9.96718 33.0882 10.0196 33.0787 10.0703C33.0754 10.1178 33.0754 10.1656 33.0787 10.2132C33.0787 16.741 33.0787 23.2689 33.0787 29.7967C33.0892 29.8872 33.071 29.9787 33.0265 30.0583C32.9821 30.1379 32.9138 30.2014 32.8313 30.24C28.6226 32.6588 24.4183 35.0847 20.2184 37.5177C20.1477 37.5681 20.0631 37.5952 19.9762 37.5952C19.8894 37.5952 19.8048 37.5681 19.7341 37.5177C15.5342 35.0856 11.3304 32.6597 7.12256 30.24C7.03916 30.2018 6.96995 30.1383 6.9248 30.0584C6.87965 29.9786 6.86087 29.8865 6.87115 29.7954C6.87821 23.2675 6.87821 16.7397 6.87115 10.2119C6.86074 10.1112 6.88322 10.0099 6.93522 9.92303C6.98722 9.8362 7.06595 9.76855 7.15961 9.73021C7.65846 9.46556 8.14143 9.17181 8.66542 8.87012V9.22209C8.66542 15.7429 8.66542 22.2632 8.66542 28.7831C8.65562 28.874 8.67494 28.9657 8.7206 29.0449C8.76626 29.1241 8.83591 29.1867 8.91948 29.2238C12.531 31.2986 16.1367 33.3778 19.7367 35.4614C19.8074 35.5118 19.8921 35.5389 19.9789 35.5389C20.0657 35.5389 20.1504 35.5118 20.221 35.4614C23.8211 33.3751 27.4255 31.2946 31.0343 29.2198C31.1257 29.1772 31.2013 29.1071 31.2507 29.0193C31.3001 28.9315 31.3207 28.8304 31.3096 28.7302C31.3025 22.2297 31.3025 15.7283 31.3096 9.22606L31.3016 8.87673Z" fill="#FEFEFE"/>
<path d="M22.1451 3.58651C22.7286 3.92393 23.2605 4.23224 23.7951 4.5379C23.8347 4.55365 23.868 4.58204 23.8897 4.61865C23.9115 4.65527 23.9206 4.69805 23.9155 4.74035C23.9155 4.79725 23.9155 4.85415 23.9155 4.91105C23.9155 10.9281 23.9155 16.9443 23.9155 22.9597C23.9269 23.0508 23.9091 23.1432 23.8646 23.2236C23.8202 23.3039 23.7513 23.3681 23.6681 23.4069C22.5089 24.0579 21.3591 24.7301 20.2118 25.3917C20.1472 25.4373 20.07 25.4617 19.9909 25.4617C19.9118 25.4617 19.8346 25.4373 19.7699 25.3917C18.5975 24.7081 17.4212 24.0306 16.2409 23.3593C16.1781 23.3309 16.1258 23.2837 16.0911 23.2241C16.0565 23.1646 16.0413 23.0957 16.0477 23.0271C16.0477 16.9633 16.0477 10.8995 16.0477 4.83562C16.0384 4.76792 16.0506 4.69902 16.0823 4.63853C16.1141 4.57804 16.164 4.52899 16.225 4.4982C16.6908 4.24282 17.1513 3.97554 17.6078 3.70428C17.7851 3.59842 17.8407 3.63812 17.8208 3.8366C17.8142 3.90276 17.8208 3.96892 17.8208 4.0364C17.8208 9.99615 17.816 15.9555 17.8062 21.9143C17.7941 22.0152 17.8157 22.1173 17.8676 22.2047C17.9196 22.292 17.9989 22.3598 18.0934 22.3973C18.3739 22.5362 18.6412 22.7016 18.9085 22.8644C19.0752 22.9676 19.1268 22.9186 19.1136 22.74C19.1136 22.6831 19.1136 22.6262 19.1136 22.5693C19.1136 16.1156 19.107 9.66182 19.0937 3.20807C19.0937 2.93152 19.1996 2.81111 19.414 2.65365C19.8109 2.36519 20.1483 2.35857 20.5572 2.65365C20.7914 2.8217 20.892 2.96328 20.8907 3.25571C20.8783 9.69975 20.8735 16.1433 20.8761 22.5865C20.8761 22.6633 20.8761 22.7387 20.8761 22.8154C20.8761 22.9226 20.9171 22.9477 21.0084 22.8948C21.3604 22.6897 21.715 22.4859 22.067 22.2835C22.1742 22.2213 22.1451 22.1194 22.1451 22.0281C22.1451 21.2871 22.1451 20.5461 22.1451 19.8051V3.95172V3.58651Z" fill="#5DC0C0"/>
<path d="M9.93712 13.9198C9.93712 12.0765 9.93712 10.2333 9.93712 8.38876C9.92765 8.31088 9.94352 8.23202 9.98236 8.16386C10.0212 8.0957 10.081 8.04186 10.1528 8.01032C10.612 7.76288 11.0632 7.49956 11.5104 7.22962C11.5685 7.18434 11.6397 7.15898 11.7133 7.15731C11.787 7.15565 11.8592 7.17775 11.9193 7.22036C12.8014 7.7417 13.6889 8.25423 14.5816 8.75793C14.645 8.7869 14.6978 8.83504 14.7325 8.89557C14.7671 8.9561 14.7819 9.02597 14.7748 9.09535C14.7686 12.316 14.766 15.5359 14.7668 18.7548C14.7734 18.8287 14.7566 18.9028 14.7189 18.9666C14.6811 19.0305 14.6243 19.0809 14.5565 19.1107C13.6593 19.6171 12.7666 20.1309 11.8783 20.6523C11.8293 20.6865 11.7706 20.7042 11.7109 20.7028C11.6512 20.7013 11.5934 20.6809 11.5461 20.6444C11.091 20.3718 10.6305 20.1045 10.1634 19.8504C10.0911 19.8193 10.0307 19.7656 9.99139 19.6975C9.95204 19.6293 9.93579 19.5502 9.94506 19.472C9.94506 17.6195 9.94506 15.767 9.94506 13.9145L9.93712 13.9198ZM11.7182 9.1721V9.49761L11.7102 18.3314C11.7102 18.3883 11.7102 18.4452 11.7102 18.5021C11.7023 18.6516 11.7486 18.6939 11.8889 18.6106C12.2157 18.4161 12.5425 18.2242 12.8746 18.0403C12.9911 17.9768 12.9951 17.8855 12.9937 17.7756L12.9858 10.0811C12.9858 9.9991 13.003 9.90913 12.9077 9.85487C12.5227 9.63787 12.1403 9.41557 11.7182 9.1721Z" fill="#5DC0C0"/>
<path d="M28.2581 11.1859V9.17196C27.8387 9.41279 27.4563 9.63641 27.0672 9.85342C26.9561 9.91693 26.9865 10.0148 26.9865 10.1048C26.9865 12.6507 26.983 15.1974 26.9759 17.7451C26.9676 17.8143 26.9814 17.8844 27.0154 17.9452C27.0494 18.0061 27.1018 18.0546 27.1651 18.0838C27.5184 18.273 27.8612 18.4808 28.2396 18.7004V14.7228C28.0583 14.8234 27.9022 14.9081 27.7487 14.9994C27.6415 15.0629 27.578 15.0735 27.5793 14.9134C27.5793 14.3338 27.5793 13.7542 27.5793 13.1747C27.5752 13.1372 27.5823 13.0993 27.5997 13.0659C27.6172 13.0324 27.6441 13.0049 27.6772 12.9868C28.4412 12.5457 29.2025 12.1046 29.9611 11.6636C30.0524 11.7522 30.0167 11.8422 30.0167 11.9203C30.0167 14.4344 30.0167 16.9564 30.0167 19.4745C30.026 19.5529 30.0099 19.6322 29.9709 19.7007C29.9318 19.7693 29.8718 19.8236 29.7997 19.8556C29.3418 20.103 28.8919 20.3703 28.4434 20.6376C28.3923 20.6766 28.3302 20.6984 28.266 20.6998C28.2018 20.7013 28.1388 20.6822 28.0861 20.6455C27.1956 20.1163 26.2971 19.6081 25.3973 19.0974C25.3421 19.0736 25.2957 19.0331 25.2646 18.9816C25.2336 18.9301 25.2194 18.8702 25.224 18.8102C25.224 15.5463 25.2214 12.2868 25.2161 9.0317C25.2116 8.97637 25.2247 8.92105 25.2534 8.87355C25.2822 8.82606 25.3251 8.78881 25.3762 8.76706C26.2812 8.24836 27.1846 7.72613 28.0861 7.20037C28.1349 7.16487 28.1938 7.14575 28.2542 7.14575C28.3145 7.14575 28.3734 7.16487 28.4222 7.20037C28.8959 7.48178 29.3727 7.75701 29.8526 8.02606C29.9077 8.04981 29.9539 8.09037 29.9845 8.14194C30.0152 8.19351 30.0287 8.25345 30.0233 8.3132C30.0153 8.87424 30.0233 9.43528 30.0233 9.995C30.0233 10.0784 30.0365 10.1604 29.9386 10.216C29.3815 10.5322 28.835 10.8498 28.2581 11.1859Z" fill="#5DC0C0"/>
<path d="M19.128 29.9924C18.5987 29.9924 18.166 29.9924 17.732 29.9924C17.6703 29.9903 17.6097 29.9749 17.5544 29.9472C17.4992 29.9196 17.4505 29.8804 17.4118 29.8323C17.1921 29.61 16.9645 29.393 16.7502 29.1707C16.6549 29.0701 16.5768 29.0476 16.4591 29.1363C16.3413 29.2249 16.2169 29.2832 16.0952 29.3573C14.9731 30.0308 14.9731 30.0281 13.675 30.0003C13.4488 30.0003 13.3456 29.9183 13.3482 29.6814C13.3575 29.1402 13.3482 28.5977 13.3482 28.0565C13.3381 27.9761 13.3509 27.8945 13.3851 27.821C13.4192 27.7475 13.4734 27.6852 13.5414 27.641C13.9198 27.4108 14.2996 27.1819 14.6966 26.9424C14.7415 27.0418 14.7567 27.1521 14.7402 27.26C14.7402 27.8488 14.7402 28.4376 14.7402 29.0264C14.7402 29.1058 14.6913 29.2183 14.7799 29.2607C14.8686 29.303 14.9334 29.2077 15.0035 29.1654C16.1415 28.4853 17.2755 27.8091 18.4002 27.125C18.5675 27.018 18.7628 26.9632 18.9613 26.9675C19.5302 26.9768 20.1006 26.9675 20.6709 26.9675C21.0096 26.9675 21.0519 27.0099 21.0533 27.3407C21.0533 28.0631 21.0533 28.7856 21.0533 29.5081V29.7026C21.1638 29.6871 21.2666 29.6371 21.347 29.5597C22.6058 28.7464 23.8629 27.9308 25.1182 27.1131C25.5469 26.8352 26.0219 26.998 26.4771 26.99C26.5922 26.99 26.6187 27.129 26.6187 27.2375C26.6187 27.817 26.6187 28.3966 26.6187 28.9762C26.6209 29.0569 26.6008 29.1366 26.5607 29.2066C26.5205 29.2766 26.4618 29.3343 26.3911 29.3731C26.018 29.5954 25.6461 29.8217 25.2412 30.0652V27.9877C25.1089 27.9507 25.0454 28.042 24.9766 28.0883C24.075 28.6687 23.1761 29.2527 22.2799 29.8402C22.1239 29.9459 21.939 30.0005 21.7506 29.9964C21.1803 29.9871 20.61 29.9858 20.0397 29.9964C19.7856 29.9964 19.6798 29.9117 19.6837 29.6497C19.6943 28.9179 19.6837 28.1862 19.6904 27.4545C19.6904 27.2639 19.6626 27.2084 19.4773 27.3221C18.9136 27.6702 18.3446 28.0142 17.7717 28.3476C17.6076 28.4416 17.6328 28.4998 17.7479 28.6123C18.1859 29.0476 18.6265 29.4909 19.128 29.9924Z" fill="#FEFEFE"/>
<path d="M11.718 9.17163C12.1415 9.4151 12.5239 9.6374 12.9089 9.85706C13.0042 9.91131 12.987 10.0013 12.987 10.0833L12.995 17.7778C12.995 17.885 12.995 17.9763 12.8759 18.0424C12.5437 18.2264 12.2143 18.4182 11.8901 18.6128C11.7498 18.6961 11.7035 18.6538 11.7114 18.5043C11.7114 18.4474 11.7114 18.3905 11.7114 18.3336L11.718 9.49714V9.17163Z" fill="#010101"/>
</svg>
