<svg width="40" height="40" viewBox="0 0 40 40" fill="none" xmlns="http://www.w3.org/2000/svg">
<path d="M32.1767 23.5286C32.7857 24.2794 33.331 25.0769 33.9073 25.8511C35.8949 28.5192 37.878 31.1904 39.8568 33.8648C39.8971 33.919 39.9356 33.9751 39.9999 34.0659H39.7326C36.5034 34.0659 33.2739 34.0676 30.0439 34.0709C29.9676 34.0748 29.8917 34.0581 29.8241 34.0225C29.7566 33.9868 29.6998 33.9337 29.6599 33.8685C27.9968 31.6355 26.331 29.4046 24.6624 27.1757C24.4373 26.8744 24.1889 26.59 23.9948 26.2666C24.1 26.167 24.2331 26.2036 24.3547 26.2036C25.3313 26.2105 26.3053 26.2067 27.2706 26.0144C28.943 25.6973 30.4999 24.9375 31.7789 23.8142C31.9006 23.7076 32.0115 23.5784 32.1767 23.5286Z" fill="#FE0A07"/>
<path d="M32.1767 23.5288C31.6962 24.0132 31.159 24.4379 30.5767 24.7935C29.521 25.4515 28.3481 25.8994 27.1225 26.1124C26.3029 26.2593 25.4688 26.2807 24.6353 26.265C24.4229 26.2605 24.2098 26.265 23.9973 26.265L23.2881 25.3193C23.3593 25.2449 23.4507 25.2752 23.534 25.2745C24.0534 25.2714 24.5736 25.2884 25.0918 25.2695C26.3401 25.2228 27.5417 24.9744 28.6853 24.4499C29.6638 24.0004 30.559 23.4368 31.3389 22.6929C31.3873 22.6532 31.4387 22.6174 31.4927 22.5857L32.1767 23.5288Z" fill="#CB0507"/>
<path d="M34.2963 13.7952C33.4326 9.01387 29.1658 5.89568 24.9525 5.90009C17.4451 5.91102 9.93774 5.91228 2.43038 5.90387C2.37994 5.90387 2.32257 5.88181 2.2652 5.9417C2.31942 6.01483 2.37364 6.08923 2.42848 6.16236C4.1639 8.48871 5.90057 10.8142 7.6385 13.1389C7.68594 13.1938 7.717 13.2609 7.72814 13.3325C7.73929 13.4042 7.73008 13.4776 7.70155 13.5443C7.34345 14.616 6.99313 15.6903 6.65059 16.7671C6.59826 16.9335 6.5245 16.9777 6.35428 16.9771C4.33685 16.9682 2.31942 16.964 0.301984 16.9644H0C0.105915 17.047 0.163286 17.0949 0.223809 17.1391C1.85835 18.3298 3.49373 19.5192 5.12995 20.7074C5.26487 20.8051 5.30143 20.882 5.24469 21.0504C4.76807 22.4809 4.30407 23.9132 3.83627 25.345L3.26509 27.097L8.59489 23.2437V23.5444C8.59489 26.9673 8.59258 30.3898 8.58796 33.8119C8.58796 34.0187 8.63398 34.0716 8.84455 34.071C11.6572 34.0634 14.4694 34.0634 17.2812 34.071C17.505 34.071 17.5296 33.9985 17.529 33.8068C17.5233 31.0449 17.529 28.2829 17.5208 25.5215C17.5208 25.3273 17.5668 25.2737 17.7648 25.2744C19.5218 25.2826 21.2782 25.2794 23.0353 25.2794C23.1204 25.2794 23.2087 25.2649 23.2875 25.3185C24.1745 25.3387 25.0622 25.3815 25.9473 25.2731C27.8834 25.0398 29.5844 24.2694 31.0741 23.0224C31.2286 22.8963 31.4001 22.7753 31.4915 22.5843C31.5438 22.5263 31.5942 22.4664 31.6478 22.4102C33.9603 19.9786 34.8991 17.105 34.2963 13.7952ZM13.6259 18.1938C12.6802 18.8823 11.7307 19.5732 10.7756 20.2522C10.6382 20.3499 10.6243 20.43 10.6728 20.5775C11.041 21.6953 11.4004 22.8156 11.7629 23.9353C11.7818 23.9939 11.8209 24.0494 11.7925 24.12C11.7137 24.1282 11.6715 24.0633 11.6191 24.0255C10.6703 23.337 9.72087 22.6504 8.78214 21.9525C8.64155 21.8485 8.55707 21.8586 8.42341 21.957C7.47774 22.6504 6.52576 23.3326 5.57568 24.0191C5.51894 24.0601 5.46031 24.0992 5.35691 24.1705C5.483 23.7777 5.59522 23.4316 5.70807 23.0861C5.98043 22.2507 6.25026 21.4148 6.52765 20.5819C6.57935 20.4281 6.56989 20.3417 6.42489 20.2377C5.41554 19.5178 4.41313 18.7795 3.40442 18.045C3.46242 17.9675 3.5387 18.0053 3.60049 18.0053C4.78194 18.0053 5.96277 18.0053 7.14423 18.011C7.31319 18.011 7.38822 17.9656 7.44117 17.7998C7.79927 16.6782 8.16871 15.5611 8.535 14.4427C8.55643 14.3796 8.57976 14.3128 8.6157 14.2075C8.8332 14.877 9.03999 15.5094 9.24614 16.143C9.42456 16.6952 9.60928 17.2456 9.77446 17.8023C9.82426 17.9713 9.90496 18.0154 10.0708 18.0154C11.2686 18.0116 12.4665 18.0154 13.6643 18.0192H13.8055C13.7671 18.127 13.6858 18.1509 13.6259 18.1938ZM25.4449 16.8068C25.2176 16.9355 24.9601 17.0008 24.699 16.996C20.0758 16.9913 15.4539 16.9873 10.8336 16.984C10.6943 16.984 10.6268 16.9468 10.5814 16.8081C10.3293 15.9992 10.0714 15.1923 9.8022 14.3891C9.73915 14.2043 9.77131 14.1703 9.9617 14.1703C12.4415 14.1762 14.9212 14.1774 17.401 14.1741C19.8496 14.1741 22.2985 14.1741 24.7476 14.1741C25.0583 14.1704 25.3611 14.2719 25.6067 14.4621C25.8524 14.6524 26.0264 14.9202 26.1005 15.2219C26.1797 15.5214 26.1584 15.8386 26.04 16.1249C25.9216 16.4112 25.7125 16.6508 25.4449 16.8068Z" fill="#FE0A07"/>
</svg>
