<svg width="40" height="40" viewBox="0 0 40 40" fill="none" xmlns="http://www.w3.org/2000/svg">
<path d="M5.00309 13.7178C5.00309 10.5963 5.00206 7.4747 5 4.35296C5 4.19994 5.03431 4.1471 5.19694 4.15053C6.02038 4.16529 6.84381 4.15774 7.66519 4.10764C8.75213 4.04108 9.83632 3.94056 10.9147 3.77758C12.2843 3.57172 13.6372 3.29278 14.9598 2.87798C16.2437 2.47484 17.4765 1.95882 18.5867 1.18719C19.0561 0.861242 19.5172 0.521231 19.86 0.0511858C19.9416 -0.0606644 19.9855 0.0388343 20.0281 0.0854957C20.5204 0.638228 21.1016 1.07877 21.7264 1.4651C22.895 2.1856 24.1624 2.67212 25.4785 3.04781C26.7617 3.41424 28.0686 3.66265 29.3899 3.84277C30.3454 3.97281 31.3037 4.06647 32.2671 4.11725C33.1008 4.1598 33.9346 4.18896 34.769 4.17112C34.8812 4.16872 34.9282 4.19788 34.9134 4.31213C34.9105 4.35783 34.9105 4.40367 34.9134 4.44937C34.9134 10.3154 34.9149 16.1814 34.9179 22.0473C34.9221 22.7594 34.8639 23.4705 34.7439 24.1724C34.5009 25.5941 34.0621 26.9753 33.4402 28.2766C32.7197 29.7797 31.7885 31.1442 30.6954 32.3975C28.4388 34.9814 25.7204 36.9762 22.7324 38.6268C21.8575 39.1099 20.9352 39.4949 20.0562 39.967C19.9855 40.0047 19.9114 40.0157 19.8452 39.9701C19.5337 39.7546 19.1841 39.6132 18.8444 39.4527C16.206 38.2114 13.7511 36.6129 11.5487 34.7021C9.87201 33.2464 8.43099 31.5967 7.27818 29.7025C6.28319 28.0707 5.59699 26.3171 5.24703 24.4369C5.10714 23.6849 5.03651 22.9216 5.03603 22.1567C5.03328 19.9268 5.02916 17.6966 5.02367 15.4663C5.02367 14.8832 5.02367 14.3 5.02367 13.7165L5.00309 13.7178Z" fill="#CD9240"/>
<path d="M34.5316 16.3589C34.5879 17.021 34.5642 17.6843 34.5659 18.3471C34.5682 19.3078 34.5682 20.2685 34.5659 21.2292C34.5659 21.9377 34.5659 22.6486 34.4894 23.3526C34.3428 24.7012 34.006 26.0223 33.4893 27.2766C32.7949 28.977 31.8232 30.5083 30.6368 31.9043C28.1616 34.8176 25.119 36.9942 21.7381 38.7282C21.206 39.0027 20.6632 39.2515 20.1156 39.4927C20.0714 39.5155 20.0225 39.5277 19.9727 39.5281C19.9229 39.5285 19.8737 39.5172 19.8291 39.4951C16.7268 38.1227 13.8935 36.332 11.3776 34.048C9.46035 32.3054 7.87455 30.3103 6.7684 27.9542C6.14599 26.6343 5.72491 25.2286 5.51918 23.7839C5.4087 23.0074 5.39154 22.2238 5.384 21.4422C5.36993 19.9388 5.37542 18.4353 5.37851 16.9318C5.37851 16.7503 5.32807 16.5702 5.36616 16.3884C5.45913 16.3256 5.56481 16.3451 5.66637 16.3451C8.8334 16.3451 12.0005 16.3451 15.1678 16.3451C15.2309 16.3451 15.2937 16.3421 15.3565 16.3451C15.4763 16.3513 15.5421 16.2947 15.5902 16.1863C15.9473 15.3817 16.2966 14.5737 16.6459 13.7657C16.9499 13.0627 17.2511 12.359 17.5832 11.668C17.6216 11.5881 17.647 11.4622 17.7424 11.4622C17.8378 11.4622 17.8553 11.5932 17.8869 11.6759C18.5614 13.4377 19.2215 15.2047 19.8868 16.9699C20.6162 18.9064 21.3412 20.8449 22.0881 22.7748C22.1107 22.8489 22.1443 22.9191 22.188 22.9831C22.2796 22.7892 22.3447 22.5988 22.4233 22.4156C23.1987 20.6081 23.982 18.8045 24.7536 16.9946C24.8274 16.821 24.9094 16.6515 24.9801 16.4762C25.0268 16.3596 25.1067 16.3047 25.2302 16.3091C25.2817 16.3091 25.3331 16.3091 25.3846 16.3091C28.3353 16.3091 31.2852 16.3091 34.2345 16.3091C34.335 16.3112 34.4421 16.2854 34.5316 16.3589Z" fill="black"/>
<path d="M5.34299 14.372V5.72763C5.34299 5.38453 5.35054 5.04143 5.3399 4.69834C5.3351 4.54977 5.38759 4.51787 5.52552 4.52027C5.99419 4.52782 6.46286 4.52679 6.93222 4.52233C7.54225 4.51649 8.14816 4.44684 8.75545 4.39607C9.24882 4.35455 9.74186 4.30583 10.2308 4.24407C11.0375 4.14297 11.8394 4.01122 12.6366 3.84882C13.681 3.64016 14.71 3.36081 15.7166 3.01269C16.9517 2.58039 18.121 2.01976 19.1685 1.22583C19.3941 1.0606 19.6089 0.881013 19.8115 0.688195C19.9302 0.571198 19.9954 0.61683 20.0914 0.695743C20.4918 1.02615 20.8922 1.35758 21.3287 1.64029C22.4444 2.3608 23.6617 2.8607 24.925 3.25286C25.8172 3.5271 26.7244 3.75025 27.642 3.92122C28.3512 4.05571 29.0655 4.1583 29.7816 4.25265C30.5323 4.35112 31.2871 4.40739 32.0399 4.4815C32.7339 4.55012 33.4325 4.52164 34.1293 4.52233C34.5321 4.52233 34.5325 4.52233 34.5325 4.92272L34.5345 14.1699C34.5345 14.2385 34.5328 14.3072 34.5318 14.3758C34.4398 14.4444 34.3331 14.4183 34.2326 14.4183C30.8771 14.4197 27.5216 14.4197 24.1661 14.4183C24.1091 14.4183 24.0518 14.4218 23.9945 14.4183C23.8628 14.4091 23.7846 14.4636 23.7334 14.5899C23.3169 15.6051 22.8633 16.6049 22.4413 17.6177C22.4324 17.639 22.4447 17.6133 22.4345 17.6335C22.4001 17.7021 22.3851 17.8071 22.2914 17.8051C22.1977 17.803 22.1885 17.6963 22.16 17.626C21.3908 15.636 20.6445 13.6405 19.8924 11.6454C19.2316 9.89125 18.5704 8.13664 17.9086 6.38158C17.9057 6.37139 17.9004 6.36202 17.8932 6.35422C17.886 6.34642 17.8771 6.3404 17.8671 6.33663C17.7182 6.64302 17.582 6.95421 17.4431 7.26712C16.4515 9.48457 15.5028 11.7209 14.5102 13.938C14.4797 14.0066 14.4355 14.0687 14.4162 14.1397C14.3535 14.3703 14.1977 14.4211 13.9754 14.4204C11.1848 14.4154 8.39531 14.414 5.60683 14.4163C5.51694 14.4173 5.42224 14.4351 5.34299 14.372Z" fill="#DD2027"/>
<path d="M5.34314 14.3722C8.27092 14.3756 11.198 14.3801 14.1244 14.3856C14.2551 14.3856 14.287 14.317 14.3268 14.2254C15.2875 12.0387 16.2496 9.85223 17.213 7.66601C17.4058 7.22855 17.6038 6.79385 17.8004 6.35811C17.823 6.30802 17.8505 6.26033 17.8875 6.18896C19.3536 10.0749 20.8111 13.9389 22.2874 17.8519C22.4398 17.4944 22.5715 17.1856 22.7036 16.8768C23.035 16.1032 23.3702 15.3312 23.6952 14.5547C23.7514 14.4202 23.8159 14.3712 23.9676 14.3712C27.4901 14.3762 31.0117 14.3774 34.5326 14.3746C34.5326 15.0361 34.5326 15.6975 34.5326 16.3588C31.4447 16.3588 28.3575 16.3577 25.271 16.3557C25.13 16.3557 25.0652 16.3992 25.0109 16.5272C24.1319 18.576 23.2506 20.6237 22.367 22.6704C22.3032 22.8183 22.2569 22.9734 22.1876 23.1672C20.6704 19.2521 19.2438 15.3466 17.741 11.4332C17.5328 11.8944 17.3334 12.3253 17.1423 12.7614C16.6359 13.9146 16.1321 15.0689 15.631 16.2243C15.5805 16.3402 15.5236 16.3907 15.3832 16.3907C12.0959 16.3879 8.80867 16.3894 5.52155 16.3951C5.47009 16.3951 5.41862 16.392 5.36716 16.3907C5.29408 15.7995 5.30369 15.2066 5.32496 14.6134C5.32702 14.5314 5.33628 14.4522 5.34314 14.3722Z" fill="#FEFEFE"/>
<path d="M20.0678 25.4153C20.8792 25.4153 21.691 25.4181 22.5038 25.4122C22.6294 25.4122 22.6753 25.4397 22.6678 25.5721C22.656 25.7833 22.656 25.995 22.6678 26.2062C22.676 26.3492 22.6314 26.3884 22.488 26.3877C21.2306 26.3822 19.9731 26.3842 18.716 26.3856C18.4432 26.3856 18.4799 26.3547 18.4782 26.6213C18.4762 26.8958 18.4782 26.8958 18.7448 26.8958C19.9909 26.8958 21.2367 26.8982 22.4846 26.8934C22.6218 26.8934 22.6788 26.9212 22.6692 27.0704C22.6563 27.2761 22.6563 27.4823 22.6692 27.688C22.6784 27.83 22.6246 27.8554 22.4956 27.8547C21.2261 27.8506 19.9566 27.8547 18.6889 27.8479C18.5173 27.8479 18.4659 27.8877 18.4748 28.062C18.4902 28.3708 18.4789 28.3708 18.7959 28.3708C20.0246 28.3708 21.2535 28.3739 22.4825 28.367C22.6383 28.367 22.6784 28.4119 22.6692 28.5602C22.6563 28.7597 22.6563 28.96 22.6692 29.1596C22.6788 29.303 22.6229 29.3277 22.4942 29.3273C21.3681 29.3229 20.2421 29.3249 19.1164 29.3249C18.6247 29.3249 18.1331 29.3187 17.641 29.328C17.4928 29.3308 17.4616 29.28 17.4623 29.1424C17.4671 27.9482 17.4671 26.7539 17.4623 25.5594C17.4623 25.426 17.4966 25.3796 17.6338 25.3879C18.4446 25.426 19.2564 25.4126 20.0678 25.4153Z" fill="#DD2027"/>
<path d="M14.9049 27.8863L16.9604 29.2779C16.9463 29.3307 16.9137 29.3204 16.888 29.3208C16.3733 29.3208 15.8587 29.3256 15.344 29.3228C15.132 29.3228 14.9258 29.2909 14.7426 29.166C14.1813 28.7835 13.6241 28.3961 13.0744 27.9968C12.9372 27.8979 12.8926 27.771 12.8919 27.6152C12.8919 27.3926 12.8974 27.1692 12.8864 26.9469C12.8802 26.8192 12.9176 26.7832 13.0473 26.7842C13.8931 26.7904 14.7388 26.7873 15.5845 26.7873H15.7777C15.7804 26.6796 15.7228 26.5959 15.707 26.5036C15.6871 26.3842 15.6068 26.3863 15.5169 26.3863C14.7109 26.3863 13.9051 26.3863 13.0995 26.3863C12.9166 26.3863 12.7334 26.3935 12.5505 26.3839C12.4267 26.3773 12.3985 26.4247 12.3992 26.5406C12.4033 27.4035 12.3975 28.2664 12.4047 29.1293C12.4047 29.2834 12.3704 29.3386 12.2081 29.3297C11.9518 29.3153 11.6934 29.3221 11.4368 29.3276C11.3387 29.3297 11.3102 29.2954 11.3105 29.1993C11.3133 27.9765 11.3133 26.7536 11.3105 25.5306C11.3105 25.4383 11.3449 25.4149 11.4303 25.4153C12.837 25.418 14.242 25.4153 15.6477 25.4208C16.1644 25.4208 16.8272 25.9299 16.7994 26.5952C16.784 26.9661 16.7912 27.338 16.7994 27.7092C16.8018 27.8317 16.7607 27.863 16.6437 27.8616C16.0892 27.8557 15.5348 27.8578 14.9807 27.8571H14.9186L14.9049 27.8863Z" fill="#DD2027"/>
<path d="M25.7183 29.3247C24.981 29.3247 24.243 29.3213 23.5067 29.3278C23.376 29.3278 23.3454 29.2907 23.3465 29.1645C23.3529 28.4614 23.3529 27.7585 23.3465 27.0558C23.3465 26.9275 23.3808 26.8877 23.5084 26.8932C23.7486 26.9035 23.9887 26.9041 24.2289 26.8932C24.3631 26.887 24.3915 26.935 24.3891 27.0592C24.3819 27.4133 24.3922 27.7677 24.3854 28.1228C24.3833 28.2436 24.4228 28.2772 24.5415 28.2769C25.4271 28.273 26.3129 28.273 27.1988 28.2769C27.2928 28.2769 27.3395 28.2453 27.3789 28.1599C27.7869 27.2767 27.7649 27.4322 27.3848 26.6056C27.324 26.4736 27.2475 26.4413 27.1103 26.442C25.9557 26.4471 24.8015 26.4451 23.647 26.4451C23.3475 26.4451 23.3475 26.4451 23.3478 26.1363C23.3478 25.9421 23.3526 25.7476 23.3478 25.553C23.3451 25.4563 23.3622 25.4124 23.4762 25.4124C24.9734 25.4165 26.4707 25.4165 27.968 25.4124C28.0541 25.4124 28.1001 25.4367 28.1341 25.5197C28.3736 26.1046 28.6164 26.6879 28.8625 27.2695C28.8747 27.2979 28.8807 27.3286 28.88 27.3595C28.8793 27.3905 28.8719 27.4208 28.8584 27.4486C28.6134 28.0374 28.3674 28.6258 28.1303 29.218C28.0905 29.3172 28.0315 29.3233 27.9468 29.3233C27.2041 29.3236 26.4612 29.324 25.7183 29.3247Z" fill="#DD2027"/>
<path d="M27.9128 31.5886C27.6273 31.5886 27.3415 31.5852 27.055 31.591C26.9555 31.591 26.914 31.5721 26.9161 31.4606C26.9226 31.0551 26.9205 30.6492 26.9161 30.2436C26.9161 30.1534 26.9322 30.1119 27.0362 30.1126C27.6188 30.1174 28.2015 30.1174 28.7843 30.1126C28.9002 30.1126 28.914 30.1589 28.9105 30.2546C28.9006 30.5507 28.9376 30.4975 28.6652 30.5003C28.2655 30.5044 27.8654 30.5003 27.4644 30.504C27.4091 30.504 27.3251 30.4749 27.3271 30.5802C27.3292 30.6855 27.415 30.6488 27.4688 30.6505C27.8974 30.654 28.3266 30.6636 28.7544 30.6505C28.9544 30.6444 28.8972 30.7693 28.9078 30.8725C28.9201 30.9936 28.8975 31.0561 28.7479 31.0523C28.3197 31.0424 27.8902 31.0496 27.4623 31.0523C27.4067 31.0523 27.3213 31.0249 27.3285 31.1299C27.335 31.2215 27.4132 31.1885 27.4626 31.1892C27.8967 31.1954 28.331 31.206 28.7664 31.1981C28.9761 31.194 28.8913 31.3354 28.9078 31.4308C28.927 31.5388 28.8996 31.5965 28.7675 31.592C28.4844 31.5817 28.1986 31.5886 27.9128 31.5886Z" fill="#DD2027"/>
<path d="M20.5901 31.0847L21.2327 31.5523L21.2245 31.5866C20.9939 31.5866 20.7637 31.5866 20.5331 31.5866C20.482 31.5866 20.4505 31.5523 20.4141 31.5259C20.2057 31.3752 19.9978 31.2241 19.7903 31.0727C19.7265 31.0257 19.6795 30.7193 19.7272 30.661C19.7615 30.6201 19.8119 30.6342 19.8562 30.6342C20.1249 30.6325 20.3935 30.6342 20.6625 30.6308C20.7074 30.6308 20.7757 30.6555 20.7795 30.5724C20.7836 30.4805 20.7109 30.498 20.658 30.498C20.3379 30.498 20.0178 30.5011 19.6974 30.4952C19.5927 30.4932 19.5749 30.5374 19.5762 30.628C19.5807 30.8963 19.5721 31.1653 19.5804 31.4339C19.5838 31.552 19.5529 31.5935 19.4294 31.5883C19.1432 31.5763 19.1776 31.6202 19.1758 31.3276C19.1738 30.9673 19.1758 30.6071 19.1758 30.2468C19.1758 30.1782 19.1649 30.1096 19.2743 30.1096C19.8497 30.122 20.4275 30.053 20.9998 30.1762C21.137 30.2057 21.2104 30.2448 21.1946 30.404C21.1831 30.5808 21.1825 30.7582 21.1926 30.9351C21.1946 31.0161 21.1675 31.0473 21.0852 31.0452C20.926 31.0408 20.7668 31.0452 20.6079 31.0452L20.5901 31.0847Z" fill="#DD2027"/>
<path d="M16.1998 30.115C16.4335 30.115 16.6675 30.1188 16.9011 30.1129C16.9986 30.1109 17.0428 30.1291 17.0411 30.2419C17.0342 30.6468 17.0349 31.0517 17.0411 31.4565C17.0411 31.5632 17.0085 31.5921 16.9039 31.591C16.4194 31.5862 15.9348 31.5862 15.4501 31.591C15.3578 31.591 15.3187 31.5715 15.3201 31.4692C15.3251 31.0589 15.3251 30.6484 15.3201 30.2378C15.3201 30.1394 15.3506 30.1112 15.4467 30.1133C15.6979 30.1188 15.9487 30.115 16.1998 30.115Z" fill="#DD2027"/>
<path d="M12.3352 30.1153C12.6152 30.1153 12.8951 30.1194 13.1751 30.1133C13.2839 30.1109 13.3388 30.1253 13.3377 30.257C13.3367 30.3888 13.2784 30.3908 13.1806 30.3901C12.7466 30.3871 12.3122 30.3946 11.8768 30.3857C11.7434 30.3829 11.7156 30.4251 11.7193 30.5497C11.7279 30.8478 11.7217 30.8475 12.0206 30.8475C12.4035 30.8475 12.7864 30.854 13.1689 30.8475C13.3285 30.8441 13.3305 30.9257 13.3357 31.0482C13.3419 31.1927 13.2636 31.1855 13.1641 31.1855C12.7414 31.1831 12.3184 31.1896 11.8947 31.1817C11.7633 31.1793 11.7142 31.2119 11.7169 31.3505C11.7214 31.5807 11.5979 31.6572 11.3687 31.5907C11.3052 31.5728 11.3097 31.5303 11.3097 31.4857C11.3097 31.063 11.3121 30.6399 11.3076 30.2162C11.3076 30.1085 11.368 30.115 11.4397 30.115C11.741 30.1157 12.0381 30.1153 12.3352 30.1153Z" fill="#DD2027"/>
<path d="M23.9583 31.5889C23.6728 31.5889 23.387 31.5858 23.1005 31.5889C23.0045 31.5889 22.9715 31.5618 22.9726 31.4633C22.9774 31.0516 22.9767 30.6399 22.9726 30.2282C22.9726 30.139 22.999 30.1102 23.0892 30.1109C23.6663 30.1143 24.2434 30.1153 24.8202 30.1109C24.9347 30.1109 24.9323 30.1695 24.932 30.2498C24.9317 30.3301 24.9344 30.3905 24.8198 30.3891C24.3738 30.3833 23.9277 30.3929 23.4817 30.3833C23.3407 30.3802 23.3078 30.4268 23.315 30.5572C23.3258 30.7454 23.3258 30.9341 23.315 31.1223C23.3067 31.2626 23.3469 31.3103 23.4937 31.3072C23.9219 31.298 24.3515 31.3072 24.779 31.3021C24.8998 31.3021 24.932 31.3364 24.9341 31.4558C24.9361 31.5838 24.8757 31.59 24.7783 31.5886C24.5069 31.5865 24.2328 31.5893 23.9583 31.5889Z" fill="#DD2027"/>
<path d="M16.1507 31.3146C16.0207 31.2957 15.811 31.3866 15.7208 31.2772C15.6439 31.1839 15.6951 30.9828 15.6944 30.8294C15.6944 30.3834 15.6944 30.3796 16.1473 30.3834C16.3116 30.3834 16.5271 30.3127 16.6276 30.4102C16.7353 30.5158 16.6598 30.7341 16.6619 30.9029C16.6671 31.3146 16.6636 31.3146 16.2468 31.3146H16.1507Z" fill="black"/>
</svg>
