<svg width="40" height="40" viewBox="0 0 40 40" fill="none" xmlns="http://www.w3.org/2000/svg">
<g clip-path="url(#clip0_383_2916)">
<path d="M17.5643 0H17.8838C17.9493 0.0630978 18.0316 0.0319482 18.1075 0.0399353C18.1682 0.0399353 18.2337 0.0527146 18.2832 0H18.5228C18.785 0.0655027 19.0593 0.0655027 19.3215 0L20.839 0C21.0199 0.0638857 21.2172 0.0638857 21.3981 0H21.7975C21.831 0.0282199 21.8735 0.0436935 21.9173 0.0436935C21.9611 0.0436935 22.0036 0.0282199 22.0371 0L22.2767 0C22.9069 0.159741 23.5618 0.0918512 24.2008 0.230027C27.1725 0.874408 29.9612 2.17894 32.3604 4.04704C34.2172 5.47779 35.8015 7.23091 37.0376 9.22266C38.401 11.4071 39.3802 13.7473 39.778 16.3088C39.8466 16.7513 39.7899 17.2081 39.9193 17.6442V17.8838C39.8911 17.9174 39.8756 17.9598 39.8756 18.0036C39.8756 18.0475 39.8911 18.0899 39.9193 18.1234V18.3631C39.8562 18.5166 39.8562 18.6888 39.9193 18.8423V21.0787C39.8562 21.2322 39.8562 21.4044 39.9193 21.5579V21.7975C39.8911 21.831 39.8756 21.8735 39.8756 21.9173C39.8756 21.9611 39.8911 22.0036 39.9193 22.0371V22.3566C39.7788 22.7647 39.8395 23.1952 39.7796 23.6129C39.5447 25.2176 39.0384 26.7399 38.3786 28.2111C37.3521 30.5273 35.89 32.6246 34.072 34.3891C31.1072 37.2556 27.5921 39.0815 23.5291 39.8203C23.0874 39.9002 22.6313 39.9066 22.1809 39.9201C21.97 39.9265 21.7584 39.9201 21.5571 40H21.1577C21.0866 39.9321 20.998 39.9704 20.9181 39.9601C20.8382 39.9704 20.7488 39.9321 20.6785 40H20.2791C20.0436 39.9377 19.7959 39.9377 19.5603 40H19.2408C19.1697 39.9321 19.0811 39.9704 19.0012 39.9601C18.9213 39.9704 18.8319 39.9321 18.7616 40H18.2824C17.8032 39.8562 17.3104 39.9257 16.8255 39.8682C15.5125 39.7085 14.2473 39.3602 13.0109 38.9098C10.7979 38.097 8.74367 36.9042 6.94076 35.3851C5.00236 33.7556 3.39336 31.7706 2.20044 29.537C1.25843 27.8218 0.585019 25.9723 0.20367 24.053C0.137239 23.6336 0.0958991 23.2106 0.0798706 22.7863C0.0670913 22.6138 0.119806 22.4309 0 22.2751V17.6426C0.119806 17.4893 0.0670913 17.308 0.0798706 17.137C0.123799 15.6994 0.527945 14.3376 1.01675 13.0005C1.83001 10.7872 3.02364 8.73294 4.54384 6.93037C6.15717 5.01599 8.11745 3.42343 10.3217 2.23638C12.0586 1.27896 13.932 0.593431 15.8767 0.20367C16.2808 0.123799 16.6922 0.112618 17.1019 0.081468C17.2592 0.0694874 17.4198 0.0798706 17.5643 0Z" fill="#FEC800"/>
<path d="M0 17.1657L0.150157 17.1553C0.150157 17.3326 0.214053 17.5315 0 17.6441V17.1657Z" fill="#ECDC9A"/>
<path d="M0.150157 22.7629L0 22.7541V22.2749C0.214053 22.3875 0.146962 22.5872 0.150157 22.7629Z" fill="#ECDC99"/>
<path d="M19.3214 0C19.197 0.0605285 19.0604 0.0919814 18.9221 0.0919814C18.7837 0.0919814 18.6471 0.0605285 18.5227 0L19.3214 0Z" fill="#F7CA0E"/>
<path d="M19.5604 40C19.6705 39.9395 19.7942 39.9077 19.9198 39.9077C20.0455 39.9077 20.1691 39.9395 20.2793 40H19.5604Z" fill="#FCCF2B"/>
<path d="M21.3975 0C21.3155 0.057173 21.2179 0.0878258 21.1179 0.0878258C21.018 0.0878258 20.9204 0.057173 20.8384 0L21.3975 0Z" fill="#F6CA13"/>
<path d="M39.9194 18.8423C39.8647 18.7744 39.8348 18.6898 39.8348 18.6026C39.8348 18.5155 39.8647 18.4309 39.9194 18.363V18.8423Z" fill="#F0CA27"/>
<path d="M39.9194 21.5571C39.8647 21.4893 39.8348 21.4047 39.8348 21.3175C39.8348 21.2303 39.8647 21.1458 39.9194 21.0779V21.5571Z" fill="#F0CA27"/>
<path d="M39.9192 22.0355C39.797 21.9556 39.8273 21.8758 39.9192 21.7959V22.0355Z" fill="#EDDC9C"/>
<path d="M39.9192 18.1234C39.8273 18.0435 39.797 17.9637 39.9192 17.8838V18.1234Z" fill="#EDDC9C"/>
<path d="M18.1186 0.0646952C18.0339 0.0646952 17.9349 0.119806 17.8838 0H18.1234C18.1788 0.0266235 18.1772 0.0481886 18.1186 0.0646952Z" fill="#F1DF9B"/>
<path d="M22.0355 0C21.9556 0.121403 21.8758 0.0926499 21.7959 0H22.0355Z" fill="#F1DF9A"/>
<path d="M18.7625 40.0002C18.8128 39.8844 18.9118 39.9275 18.9973 39.9291C19.054 39.949 19.0556 39.973 19.0021 40.0002H18.7625Z" fill="#E7D591"/>
<path d="M19.0021 39.9997C19.0021 39.9757 19.0021 39.9518 18.9973 39.9286C19.0892 39.9174 19.1794 39.9102 19.2417 39.9997H19.0021Z" fill="#E8CD67"/>
<path d="M20.6783 40.0001C20.7406 39.9107 20.8309 39.9203 20.922 39.9282C20.9731 39.9554 20.9715 39.9786 20.918 40.0001H20.6783Z" fill="#E8CD67"/>
<path d="M20.9181 40C20.9181 39.9761 20.9181 39.9521 20.9221 39.9281C21.0083 39.9281 21.1074 39.8826 21.1577 40H20.9181Z" fill="#E7D591"/>
<path d="M18.1187 0.0646952L18.1234 0H18.2832C18.2673 0.0279857 18.2423 0.0496769 18.2124 0.0614513C18.1824 0.0732258 18.1493 0.0743708 18.1187 0.0646952Z" fill="#EFD571"/>
<path d="M17.2457 1.11823C18.1299 1.05194 19.0109 0.952103 19.9006 0.949707C20.8295 0.949707 21.7504 1.04555 22.6745 1.11823C22.724 1.0799 22.7704 1.06632 22.8063 1.13581C24.204 1.40177 25.5954 1.70608 26.9101 2.26438C33.4594 5.04494 37.3997 9.93196 38.7309 16.9254C38.7466 16.9891 38.766 17.0518 38.7892 17.1131C38.8539 17.1515 38.8451 17.1986 38.8044 17.2489C38.8699 18.1203 38.9705 18.9885 38.9745 19.8647C38.9745 20.8071 38.8811 21.7424 38.8044 22.6793C38.8451 22.7296 38.8531 22.7759 38.7892 22.8143C38.5328 24.105 38.2677 25.3949 37.7709 26.6185C35.0521 33.3186 30.1406 37.3547 23.0363 38.7269C22.9565 38.7413 22.8838 38.7676 22.8079 38.7884C22.772 38.8563 22.728 38.8443 22.6745 38.806C21.7376 38.8819 20.8032 38.9793 19.8607 38.9745C18.9821 38.9705 18.1163 38.8715 17.2457 38.806C17.1954 38.8443 17.1491 38.8563 17.1131 38.7884C15.7154 38.5224 14.3368 38.1894 13.0086 37.6654C9.0761 36.1198 5.7703 33.3086 3.61289 29.6756C1.45549 26.0425 0.56933 21.7945 1.09428 17.6019C1.10865 17.4837 1.10865 17.3623 1.11504 17.2449C1.07431 17.1954 1.06472 17.1483 1.13102 17.1107C1.3858 15.82 1.65177 14.5309 2.14857 13.3065C4.86949 6.60322 9.78154 2.56709 16.8847 1.1981C16.9646 1.18293 17.0373 1.15737 17.1131 1.1366C17.1483 1.06312 17.1954 1.0751 17.2457 1.11823Z" fill="black"/>
<path d="M0.8569 19.1292V20.7753H0.824951V19.1299L0.8569 19.1292Z" fill="#FED400"/>
<path d="M1.13092 17.1105L1.11495 17.2447C1.01591 17.132 1.03508 17.005 1.10137 16.8796L1.13092 17.1105Z" fill="#FED500"/>
<path d="M22.6746 38.8059L22.8079 38.7883L23.0795 38.8243C23.0187 38.8643 22.9468 38.8841 22.874 38.8808C22.8013 38.8775 22.7315 38.8513 22.6746 38.8059Z" fill="#FED500"/>
<path d="M17.1129 38.7883L17.2455 38.8059C17.1313 38.9026 17.0059 38.8858 16.8805 38.8187L17.1129 38.7883Z" fill="#FED500"/>
<path d="M17.2457 1.11797L17.1131 1.13634L16.8152 1.09481C17.0165 1.02133 17.1331 1.02612 17.2457 1.11797Z" fill="#FED500"/>
<path d="M22.8063 1.13177L22.6746 1.1182C22.78 1.02555 22.9006 1.03833 23.0443 1.0559C22.9709 1.15334 22.8758 1.10222 22.8063 1.13177Z" fill="#FED500"/>
<path d="M38.7899 22.8103C38.7947 22.7655 38.8003 22.72 38.8051 22.6753C38.834 22.7156 38.8561 22.7604 38.8706 22.8079C38.877 22.8558 38.9161 22.9269 38.8283 22.9532L38.7899 22.8103Z" fill="#FDD700"/>
<path d="M38.8051 17.245C38.8003 17.1994 38.7947 17.1547 38.7899 17.1092C38.8163 17.0644 38.8083 16.9406 38.8474 16.9782C38.9265 17.0509 38.873 17.1627 38.8051 17.245Z" fill="#FDD700"/>
<path d="M2.71547 16.6859C2.90236 15.388 3.32089 14.158 3.83845 12.9607C6.8911 5.90014 14.109 1.71012 21.8716 2.48567C29.3491 3.23246 35.6525 8.96637 37.1788 16.4119C37.1885 16.4773 37.1941 16.5431 37.1956 16.6092C37.19 16.6555 37.1022 16.7154 37.2156 16.7442C37.5542 18.2457 37.5878 19.7657 37.4823 21.292C37.4384 21.9254 37.3913 22.5603 37.2164 23.1762C37.1014 23.2049 37.1908 23.2648 37.1956 23.3119C36.8418 25.3814 36.0694 27.2935 34.984 29.0794C31.2117 35.2885 24.1208 38.4977 16.9045 37.2749C9.90382 36.0888 4.22662 30.5818 2.75141 23.5483C2.72984 23.4453 2.72585 23.3391 2.71387 23.2337C2.73729 23.207 2.75206 23.1739 2.7562 23.1386C2.7411 23.1541 2.72321 23.1665 2.70348 23.1754C2.36723 21.6738 2.33129 20.1546 2.43831 18.6291C2.48224 17.9965 2.52857 17.3608 2.70428 16.7458C2.72388 16.754 2.74156 16.7663 2.7562 16.7817C2.75233 16.7465 2.73817 16.7131 2.71547 16.6859Z" fill="#FCC600"/>
<path d="M37.2197 16.7441C37.211 16.824 37.2022 16.8967 37.1878 17.0157C37.1483 16.9547 37.1283 16.8832 37.1304 16.8105C37.1325 16.7379 37.1567 16.6677 37.1998 16.6091C37.203 16.6539 37.2094 16.6994 37.2197 16.7441Z" fill="#FED300"/>
<path d="M37.1957 23.3119C37.1527 23.2532 37.1285 23.1828 37.1264 23.1101C37.1242 23.0373 37.1442 22.9657 37.1837 22.9045C37.1981 23.0236 37.2069 23.0994 37.2164 23.1761C37.2093 23.2216 37.2029 23.2664 37.1957 23.3119Z" fill="#FED300"/>
<path d="M2.70355 23.1753L2.7379 22.8926C2.81377 23.0563 2.79141 23.1482 2.71394 23.2336C2.70921 23.2307 2.70515 23.2267 2.70203 23.2221C2.69891 23.2175 2.69679 23.2123 2.69581 23.2068C2.69483 23.2013 2.69501 23.1956 2.69635 23.1902C2.69768 23.1848 2.70014 23.1797 2.70355 23.1753Z" fill="#FED500"/>
<path d="M2.71558 16.686C2.78746 16.7659 2.81622 16.8546 2.74912 17.0151C2.72916 16.8921 2.71798 16.8186 2.70599 16.7459C2.70239 16.7415 2.69976 16.7363 2.69828 16.7308C2.6968 16.7253 2.69651 16.7195 2.69741 16.7138C2.69832 16.7082 2.7004 16.7028 2.70353 16.698C2.70666 16.6932 2.71077 16.6891 2.71558 16.686Z" fill="#FED500"/>
<path d="M17.6442 2.95038C19.1838 2.78216 20.7371 2.78216 22.2767 2.95038C22.327 2.90965 22.3742 2.90166 22.4133 2.96556C23.7711 3.21954 25.1217 3.51906 26.3956 4.07256C32.0611 6.53471 35.536 10.7889 36.8204 16.8351C36.8367 16.8986 36.857 16.961 36.8811 17.022C36.9497 17.0795 36.9266 17.1697 36.9609 17.24C36.945 17.3758 37.0512 17.5068 36.9753 17.6442C37.1424 19.1838 37.1424 20.737 36.9753 22.2767C37.0512 22.414 36.945 22.5458 36.9609 22.6808C36.9282 22.7511 36.9513 22.8406 36.8811 22.8989C36.5815 24.291 36.1982 25.6544 35.6159 26.9603C32.6184 33.6782 25.4644 37.8315 18.2632 37.024C10.6412 36.1654 4.5686 30.6439 3.13413 23.2687C2.69065 21.0036 2.70877 18.6724 3.18738 16.4145C3.66599 14.1567 4.59527 12.0186 5.91958 10.1283C7.24388 8.238 8.93599 6.63435 10.8946 5.41334C12.8532 4.19234 15.0381 3.37908 17.3184 3.02226C17.3824 3.00817 17.4454 2.98948 17.5068 2.96635C17.546 2.90246 17.5931 2.90965 17.6442 2.95038Z" fill="#010000"/>
<path d="M36.9697 17.6443C36.9185 17.5157 36.8546 17.3895 36.897 17.2449C36.9015 17.2273 36.91 17.211 36.9217 17.1972C36.9335 17.1833 36.9482 17.1723 36.9649 17.165C37.0193 17.2328 37.0494 17.3169 37.0503 17.4038C37.0511 17.4907 37.0227 17.5754 36.9697 17.6443Z" fill="#FDD500"/>
<path d="M36.9004 22.675C36.8572 22.5296 36.9219 22.4034 36.973 22.2756C37.026 22.3445 37.0543 22.4292 37.0534 22.5161C37.0525 22.603 37.0226 22.687 36.9682 22.7549C36.9516 22.7476 36.9368 22.7366 36.925 22.7228C36.9133 22.709 36.9048 22.6926 36.9004 22.675Z" fill="#FDD500"/>
<path d="M36.9001 22.6753L36.968 22.7552C36.9716 22.8062 36.9716 22.8575 36.968 22.9085C36.9592 22.9522 36.9463 22.995 36.9297 23.0363C36.9137 22.99 36.8977 22.9445 36.8826 22.8989L36.9001 22.6753Z" fill="#FED400"/>
<path d="M22.4123 2.96565L22.2758 2.95047C22.3892 2.86581 22.5098 2.84584 22.6831 2.92971L22.4123 2.96565Z" fill="#FED500"/>
<path d="M36.9649 17.1664L36.897 17.2463C36.8907 17.172 36.8835 17.0986 36.8771 17.0243L36.925 16.8877C37.0073 16.9692 36.9466 17.073 36.9649 17.1664Z" fill="#FED400"/>
<path d="M17.6441 2.95047L17.5067 2.96645L17.236 2.92971C17.4117 2.84584 17.5299 2.86581 17.6441 2.95047Z" fill="#FED500"/>
<path d="M20.6778 3.35451C21.5424 3.35278 22.4038 3.45795 23.2425 3.66761C23.2425 3.72032 23.189 3.65403 23.2249 3.69316C23.2608 3.7323 23.2824 3.68438 23.3112 3.67799C25.1454 4.01099 26.9 4.68853 28.482 5.67475C32.6736 8.25085 35.2784 11.9515 36.2965 16.7768C36.3083 16.8562 36.3155 16.9362 36.3181 17.0164C36.275 17.0635 36.2989 17.1306 36.2678 17.1817C36.293 17.1764 36.3168 17.1655 36.3373 17.1498C36.4973 17.8385 36.5727 18.5442 36.5617 19.2512C36.5024 19.7285 36.5024 20.2114 36.5617 20.6888C36.5727 21.3919 36.4987 22.0937 36.3413 22.779C36.3204 22.7635 36.2964 22.7526 36.271 22.7471C36.3021 22.7982 36.2782 22.8653 36.3213 22.9132C36.055 24.68 35.4589 26.381 34.5641 27.9275C31.549 33.1606 27.0283 36.0591 20.9957 36.5679C20.8647 36.5783 20.7313 36.5679 20.5964 36.5679C20.1728 36.5031 19.7419 36.5031 19.3184 36.5679C17.1723 36.5444 15.057 36.0538 13.1197 35.1302C7.81893 32.6111 4.62411 28.4594 3.53521 22.6752C3.52118 22.5693 3.51372 22.4626 3.51284 22.3557C3.52722 22.3102 3.61987 22.2543 3.49687 22.2247C3.38489 21.717 3.33712 21.1973 3.3547 20.6776C3.41314 20.2002 3.41314 19.7174 3.3547 19.24C3.33631 18.7207 3.38354 18.2011 3.49527 17.6937C3.61827 17.6649 3.52562 17.609 3.51204 17.5635C3.66606 16.1617 4.04019 14.7929 4.62065 13.5077C6.92891 8.3182 10.8466 5.0507 16.3736 3.70515C16.4528 3.69112 16.5329 3.68205 16.6132 3.67799C16.8041 3.67799 16.9966 3.69077 17.1683 3.58214C17.8483 3.41988 18.546 3.34393 19.245 3.35611C19.7208 3.41522 20.2021 3.41468 20.6778 3.35451Z" fill="#FDC800"/>
<path d="M36.5632 20.6777C36.4399 20.2064 36.4399 19.7113 36.5632 19.24C36.6145 19.7178 36.6145 20.1998 36.5632 20.6777Z" fill="#FED500"/>
<path d="M3.35447 19.2417C3.47734 19.713 3.47734 20.208 3.35447 20.6794C3.30404 20.2015 3.30404 19.7196 3.35447 19.2417Z" fill="#FED400"/>
<path d="M20.6777 3.35451C20.2065 3.4786 19.7112 3.4786 19.24 3.35451C19.718 3.30728 20.1996 3.30728 20.6777 3.35451Z" fill="#FED500"/>
<path d="M19.3214 36.5663C19.7379 36.4392 20.1829 36.4392 20.5993 36.5663C20.1745 36.6111 19.7462 36.6111 19.3214 36.5663Z" fill="#FED500"/>
<path d="M17.1626 3.5822C17.0029 3.75153 16.8216 3.81383 16.6075 3.67805C16.783 3.60458 16.9727 3.57181 17.1626 3.5822Z" fill="#FED400"/>
<path d="M36.3196 22.9131C36.292 22.872 36.2712 22.8267 36.2581 22.7789C36.2525 22.731 36.211 22.6567 36.3028 22.6423C36.3175 22.6872 36.3298 22.7328 36.3395 22.7789C36.3324 22.8236 36.326 22.8684 36.3196 22.9131Z" fill="#FED300"/>
<path d="M3.49756 22.2241C3.52392 22.1778 3.52312 22.0548 3.55587 22.0875C3.63574 22.1674 3.58302 22.2728 3.51353 22.3551L3.49756 22.2241Z" fill="#FED600"/>
<path d="M23.3127 3.67812C23.2753 3.71555 23.2252 3.73749 23.1723 3.73956C23.1195 3.74164 23.0678 3.72369 23.0276 3.6893L23.244 3.66774C23.2548 3.66101 23.2677 3.65837 23.2803 3.66027C23.2929 3.66217 23.3044 3.6685 23.3127 3.67812Z" fill="#FED400"/>
<path d="M3.51433 17.5652C3.54295 17.6059 3.56554 17.6506 3.58142 17.6978C3.58282 17.7463 3.57717 17.7947 3.56465 17.8415C3.48079 17.8208 3.52471 17.7425 3.49756 17.6954L3.51433 17.5652Z" fill="#FED600"/>
<path d="M36.3411 17.1407C36.3163 17.1862 36.3219 17.3084 36.2851 17.2741C36.2052 17.2006 36.258 17.0912 36.3219 17.0073L36.3411 17.1407Z" fill="#FED300"/>
<path d="M35.9225 19.9775C35.9161 28.7936 28.7533 35.9332 19.9228 35.9228C11.1315 35.9117 3.99344 28.7465 3.99744 19.9431C4.00463 11.127 11.1682 3.98816 19.9971 3.99855C28.7885 4.00893 35.9289 11.1725 35.9225 19.9775Z" fill="black"/>
<path d="M22.4349 5.03745C22.5505 5.01703 22.6696 5.03977 22.7696 5.10134C22.8039 5.20757 22.863 5.1269 22.9126 5.12051C25.2088 5.53424 27.2982 6.45116 29.1057 7.9056C34.0849 11.9127 36.1056 17.1299 34.6767 23.3526C33.271 29.4707 29.2455 33.2374 23.1474 34.7741C23.0695 34.7888 22.9908 34.7987 22.9118 34.8036C22.8919 34.79 22.8694 34.7808 22.8457 34.7767C22.822 34.7726 22.7977 34.7736 22.7744 34.7797C22.7225 34.79 22.7049 34.8236 22.7488 34.794C22.7927 34.7645 22.7488 34.8739 22.7704 34.8228C22.67 34.8848 22.5503 34.9075 22.4341 34.8867C22.387 34.8803 22.3279 34.7876 22.2975 34.9051C20.7519 35.1858 19.1684 35.1858 17.6227 34.9051C17.5916 34.7868 17.5325 34.8811 17.4853 34.8867C17.3692 34.9075 17.2495 34.8848 17.1491 34.8228C17.1155 34.7166 17.0564 34.7964 17.0069 34.8036C14.9838 34.4474 13.1452 33.6407 11.4543 32.4938C6.45202 29.0961 3.84983 22.9948 5.09741 17.1482C6.4616 10.749 10.436 6.76984 16.7729 5.15086C16.8507 5.13555 16.9294 5.12541 17.0085 5.12051C17.0286 5.13391 17.0513 5.14296 17.0751 5.14709C17.0989 5.15122 17.1233 5.15033 17.1467 5.14447C17.1994 5.13409 17.217 5.10214 17.1723 5.13089C17.1275 5.15965 17.1722 5.05102 17.1507 5.10134C17.2511 5.04006 17.3703 5.01736 17.4861 5.03745C17.5333 5.03745 17.5932 5.14128 17.6235 5.01908C19.1692 4.73876 20.7527 4.73876 22.2983 5.01908C22.3279 5.14048 22.3878 5.03904 22.4349 5.03745Z" fill="#FEC800"/>
<path d="M22.2975 34.9034L22.0236 34.8707C22.1993 34.7828 22.3191 34.8052 22.4341 34.885L22.2975 34.9034Z" fill="#FDD600"/>
<path d="M17.4852 34.8826C17.6002 34.8027 17.7248 34.7804 17.8966 34.8682L17.6226 34.901L17.4852 34.8826Z" fill="#FDD600"/>
<path d="M22.9126 5.12024C22.858 5.1465 22.8011 5.16736 22.7425 5.18254C22.7049 5.18973 22.6402 5.2073 22.6378 5.13941C22.6378 5.12823 22.7241 5.11385 22.7696 5.10107L22.9126 5.12024Z" fill="#FED600"/>
<path d="M17.1499 5.10107C17.1922 5.12663 17.3152 5.10986 17.2737 5.15778C17.2082 5.23766 17.0916 5.18254 17.0077 5.12024L17.1499 5.10107Z" fill="#FED600"/>
<path d="M22.4347 5.03741C22.3934 5.06472 22.3481 5.08547 22.3005 5.09891C22.2526 5.1045 22.1815 5.14364 22.1552 5.05738L22.2973 5.01904L22.4347 5.03741Z" fill="#FDD800"/>
<path d="M17.6226 5.01904C17.6673 5.0446 17.7895 5.03582 17.7528 5.07575C17.6809 5.15562 17.5691 5.10131 17.4852 5.03741L17.6226 5.01904Z" fill="#FDD800"/>
<path d="M17.007 34.7997C17.0618 34.7734 17.1191 34.7522 17.1779 34.7366C17.2146 34.7302 17.2801 34.7118 17.2817 34.7805C17.2817 34.7925 17.1955 34.8061 17.1491 34.8188L17.007 34.7997Z" fill="#FED600"/>
<path d="M22.7704 34.8186C22.7281 34.7931 22.6051 34.8082 22.6466 34.7619C22.7129 34.682 22.8279 34.7372 22.9118 34.7995L22.7704 34.8186Z" fill="#FED600"/>
<path d="M5.92554 19.9676C5.92554 12.2202 12.2193 5.92156 19.9628 5.92236C27.7063 5.92316 34.0009 12.2266 33.9953 19.9724C33.9897 27.7183 27.6855 34.0081 19.938 33.9977C12.2122 33.9881 5.92873 27.6967 5.92554 19.9676Z" fill="black"/>
<path d="M16.0403 30.4155C16.4285 29.7366 16.8172 29.058 17.2064 28.3796C17.4269 27.9978 17.4285 28.0002 17.6785 28.3844C17.7247 28.4485 17.7745 28.5098 17.8278 28.5681C17.8869 28.648 17.9716 28.6216 18.0483 28.6216C19.561 28.6216 21.0743 28.6216 22.5881 28.6216C22.664 28.6216 22.7479 28.6448 22.8078 28.5681C23.0689 28.2007 23.3141 27.8253 23.4691 27.3988C23.3389 27.2958 23.1863 27.3477 23.0458 27.3477C19.4005 27.3445 15.7552 27.3424 12.1099 27.3413C11.9462 27.3413 11.7105 27.4435 11.6698 27.1472C12.0132 26.4955 12.3711 25.8525 12.7768 25.2375C12.9174 25.2998 13.0659 25.2679 13.2097 25.2679H23.9427C24.0491 25.2619 24.1558 25.2619 24.2622 25.2679C20.6193 25.2679 16.9141 25.2679 13.2081 25.2679C13.0651 25.2679 12.9158 25.3054 12.7776 25.2319C12.8974 25.0722 13.0707 25.1521 13.2153 25.1521C16.9229 25.1465 20.6313 25.1409 24.3389 25.1576C24.7127 25.1576 24.9259 25.0474 25.0705 24.7192C25.1703 24.4931 25.3101 24.2855 25.4579 24.0211H14.6849C14.1554 24.0211 13.8007 23.4101 14.0731 22.9556C14.3039 22.5714 14.4868 22.1569 14.7728 21.8071C18.581 21.7863 22.3892 21.8071 26.1943 21.7959C26.35 21.7959 26.5058 21.8877 26.6623 21.8015C27.6024 21.8814 28.3156 22.5603 28.4195 23.474C28.4307 23.7399 28.3955 24.0067 28.4195 24.2727C28.2885 25.3014 27.6934 26.0378 26.9155 26.6592C26.7949 26.7551 26.6216 26.8014 26.5904 26.9859C26.5984 27.1728 26.5353 27.3597 26.5904 27.545C26.5106 28.9978 24.9778 30.5657 23.4755 30.7398C21.1395 30.7398 18.8033 30.7398 16.4668 30.7398C16.2432 30.7374 15.974 30.7901 16.0403 30.4155Z" fill="#FEC800"/>
<path d="M25.629 17.161C25.3934 17.1203 25.2648 16.9446 25.1713 16.7569C24.5957 15.6089 24.0265 14.4579 23.4637 13.3041C23.3647 13.1012 23.304 12.8824 23.4637 12.6707C23.7576 12.4734 24.0899 12.5429 24.4102 12.5365C24.6841 12.5309 24.9581 12.5325 25.2312 12.5365C25.4517 12.6036 25.5044 12.8105 25.5931 12.9822C25.8039 13.3903 26.0068 13.8033 26.24 14.2689C26.4844 13.7793 26.7097 13.3464 26.9165 12.9047C27.0691 12.5765 27.3039 12.4255 27.6689 12.4439C27.9732 12.4606 28.2791 12.4439 28.5834 12.4503C28.8063 12.4567 28.9988 12.5229 29.0627 12.7697C29.0384 12.8749 29.0384 12.9841 29.0627 13.0892C29.0627 13.3137 28.9205 13.4838 28.8286 13.6715C28.3526 14.647 27.8718 15.6203 27.3862 16.5916C27.2632 16.84 27.1466 17.0971 26.8271 17.1602C26.4277 17.1626 26.0284 17.1722 25.629 17.161Z" fill="#FEC800"/>
<path d="M16.4326 20.4316C17.5764 19.7639 18.7196 19.0953 19.8623 18.426C19.9423 18.3789 20.0338 18.3548 20.1266 18.3565H25.6585L24.3606 20.541C23.2424 20.5801 22.1242 20.553 21.0108 20.557C19.6264 20.5628 18.2433 20.5628 16.8615 20.557C16.7114 20.5562 16.5333 20.6145 16.4326 20.4316Z" fill="#FEC800"/>
<path d="M12.9478 12.9072C13.0636 13.3864 12.9853 13.8752 12.9957 14.3592C13.0101 15.0892 12.9957 15.0781 13.7473 15.094C14.2033 15.1052 14.6658 15.0142 15.1163 15.1563C14.5188 15.2785 13.9182 15.1691 13.3168 15.2067C13.2633 15.1979 13.3208 15.2865 13.3168 15.2362C13.9334 15.1563 14.5556 15.2674 15.1722 15.1771C15.2594 15.2008 15.3367 15.2517 15.393 15.3223C15.4493 15.393 15.4816 15.4798 15.4853 15.5701C15.4307 15.9676 15.4307 16.3706 15.4853 16.7681C15.4826 16.8594 15.4508 16.9474 15.3944 17.0193C15.3381 17.0912 15.2602 17.1431 15.1722 17.1675C13.9222 17.1675 12.6722 17.1922 11.4222 17.1539C11.0309 16.9942 10.852 16.6899 10.8488 16.2865C10.8408 15.2216 10.8408 14.1596 10.8488 13.1005C10.8488 12.6907 11.0884 12.4711 11.4981 12.4559C11.7497 12.4471 12.0029 12.4631 12.2545 12.4519C12.574 12.4375 12.8136 12.547 12.9342 12.8601C12.8359 13.499 12.9462 14.15 12.8974 14.6124C12.8974 14.3065 12.8927 13.8201 12.8974 13.3345C12.899 13.1883 12.8431 13.0366 12.9478 12.9072Z" fill="#FEC800"/>
<path d="M17.0068 17.1572C16.7465 17.0526 16.673 16.8377 16.673 16.5821C16.673 15.4261 16.673 14.2701 16.673 13.1141C16.673 12.8601 16.7449 12.6437 17.006 12.5399C17.5108 12.5399 18.0156 12.5159 18.5236 12.5542C18.5877 12.5765 18.6442 12.6165 18.6866 12.6695C18.7289 12.7224 18.7555 12.7863 18.7632 12.8538C18.7632 14.1844 18.7632 15.5159 18.7632 16.8473C18.7544 16.9142 18.7274 16.9773 18.6852 17.0299C18.6429 17.0824 18.587 17.1223 18.5236 17.1452C18.0148 17.186 17.5108 17.162 17.0068 17.1572Z" fill="#FEC800"/>
<path d="M21.9557 12.5396C22.043 12.5651 22.1201 12.6174 22.1761 12.689C22.2322 12.7607 22.2643 12.8481 22.268 12.9389C22.1945 13.7017 22.2432 14.4669 22.2392 15.2304C22.2392 15.7432 22.1953 16.2576 22.2664 16.7696C22.2625 16.8597 22.2303 16.9463 22.1744 17.0171C22.1185 17.088 22.0417 17.1394 21.9549 17.1641C21.4757 17.1737 20.9965 17.1641 20.5172 17.1729C20.4396 17.1569 20.3687 17.1179 20.3136 17.0609C20.2586 17.0039 20.2221 16.9315 20.2089 16.8534C20.2282 16.8109 20.2391 16.7651 20.2409 16.7184C20.2409 15.4772 20.2409 14.2363 20.2409 12.9957C20.2397 12.9491 20.2285 12.9033 20.2081 12.8615C20.2174 12.795 20.2446 12.7323 20.2868 12.6801C20.329 12.6279 20.3847 12.5881 20.4477 12.5652C20.9469 12.5108 21.4517 12.5444 21.9557 12.5396Z" fill="#FEC800"/>
<path d="M17.4037 11.6611C16.8806 11.5453 16.5747 11.2154 16.4589 10.7027C16.51 10.5158 16.4589 10.3313 16.4485 10.1436C16.5395 9.58447 16.855 9.24023 17.4069 9.11004C17.6202 9.11802 17.8334 9.10205 18.0459 9.10205C18.6585 9.23783 19.0651 9.71626 19.0842 10.3273C19.1074 10.9662 18.7456 11.4646 18.1194 11.6555C17.883 11.6611 17.6434 11.6491 17.4037 11.6611Z" fill="#FEC800"/>
<path d="M21.5563 9.10525C22.0787 9.22106 22.3934 9.54214 22.5084 10.0637C22.4716 10.2753 22.5331 10.4878 22.5084 10.7027C22.395 11.225 22.0835 11.5501 21.5571 11.6611C21.3175 11.6483 21.0779 11.6611 20.8383 11.6499C20.6237 11.6046 20.4267 11.4984 20.2709 11.344C20.115 11.1896 20.007 10.9935 19.9597 10.7793C19.9597 10.5134 19.9597 10.2482 19.9597 9.98063C20.0971 9.49182 20.4094 9.1923 20.9126 9.10205C21.1298 9.11323 21.3431 9.10525 21.5563 9.10525Z" fill="#FEC800"/>
<path d="M26.6664 21.7997C26.5258 21.9091 26.3613 21.8748 26.2047 21.8748C22.5482 21.8748 18.892 21.8748 15.2361 21.8748C15.0763 21.8748 14.9166 21.9091 14.7728 21.8053C14.887 21.7007 15.0268 21.7534 15.153 21.7526C18.8196 21.7494 22.4865 21.7494 26.1536 21.7526C26.3245 21.7526 26.4955 21.7829 26.6664 21.7997Z" fill="#FED800"/>
<path d="M16.0405 30.4155C16.1004 30.6655 16.2849 30.6623 16.4933 30.6615C18.6541 30.6557 20.8143 30.6557 22.974 30.6615C23.1418 30.6615 23.3207 30.6192 23.4724 30.7414C23.3097 30.8006 23.1364 30.8251 22.9636 30.8133C20.641 30.8133 18.3184 30.8133 15.9957 30.8133C15.9518 30.8098 15.9081 30.8039 15.8647 30.7957C15.8772 30.6524 15.9393 30.5179 16.0405 30.4155Z" fill="#FCCE00"/>
<path d="M11.6699 27.1475C11.8097 27.3455 12.0198 27.3072 12.2155 27.3072C15.7889 27.3072 19.3626 27.3072 22.9365 27.3072C23.1162 27.3072 23.3127 27.2489 23.4692 27.3982C19.5822 27.3982 15.6952 27.4017 11.8081 27.4086C11.5709 27.4094 11.4559 27.3743 11.6699 27.1475Z" fill="#FCD100"/>
<path d="M16.4326 20.4319C16.5924 20.5189 16.7625 20.5197 16.9358 20.5197C19.3751 20.5123 21.8138 20.5062 24.252 20.5014C24.2905 20.5081 24.3276 20.5216 24.3614 20.5413C24.3262 20.614 24.2592 20.6132 24.1929 20.614H16.1707C16.1986 20.5666 16.2365 20.5258 16.2818 20.4943C16.327 20.4629 16.3784 20.4416 16.4326 20.4319Z" fill="#FECE00"/>
<path d="M20.2074 12.8542H20.2777C20.3655 13.1258 20.3136 13.4046 20.316 13.6793C20.324 14.605 20.3208 15.5315 20.316 16.4572C20.316 16.5866 20.3512 16.7224 20.2761 16.8454H20.2074C20.1762 16.7733 20.1552 16.6972 20.1451 16.6193C20.1403 15.4399 20.1403 14.2597 20.1451 13.0787C20.1561 13.0015 20.1771 12.9261 20.2074 12.8542Z" fill="#FED500"/>
<path d="M18.7609 16.8465C18.6977 16.7596 18.6692 16.6522 18.6811 16.5454C18.6811 15.4155 18.6811 14.2853 18.6811 13.1549C18.6687 13.048 18.6972 12.9404 18.7609 12.8538C18.7753 12.8761 18.8009 12.8985 18.8017 12.9209C18.8448 14.2068 18.8472 15.4935 18.8017 16.7794C18.8001 16.8026 18.7745 16.8241 18.7609 16.8465Z" fill="#FED400"/>
<path d="M11.4214 17.1476C11.5811 17.0509 11.7576 17.0877 11.927 17.0877C12.8551 17.0845 13.7829 17.0845 14.7105 17.0877C14.8702 17.0877 15.0299 17.0533 15.1713 17.1619C15.0755 17.2562 14.9525 17.2466 14.8335 17.2466C13.8356 17.2466 12.8383 17.2466 11.8415 17.2466C11.6945 17.2591 11.5473 17.2244 11.4214 17.1476Z" fill="#FED000"/>
<path d="M22.8077 28.5679C22.8173 28.7108 22.7039 28.6589 22.6432 28.6589C21.0937 28.6626 19.5442 28.6626 17.9947 28.6589C17.9324 28.6589 17.8214 28.7084 17.8278 28.5671C19.4875 28.5314 21.1475 28.5317 22.8077 28.5679Z" fill="#FED900"/>
<path d="M22.2663 16.7654C22.2382 16.7208 22.2182 16.6716 22.2072 16.62C22.204 15.4406 22.204 14.2604 22.2072 13.0794C22.2183 13.028 22.2386 12.979 22.2671 12.9348C22.3204 14.2122 22.3201 15.4891 22.2663 16.7654Z" fill="#FED500"/>
<path d="M25.2288 12.5396C25.0251 12.677 24.7951 12.6059 24.5771 12.6139C24.2049 12.6274 23.8303 12.5995 23.4589 12.673C23.4757 12.6216 23.5076 12.5765 23.5503 12.5433C23.5929 12.5102 23.6446 12.4905 23.6985 12.4869C24.2112 12.4533 24.7256 12.3655 25.2288 12.5396Z" fill="#FDD100"/>
<path d="M21.9557 12.5398C21.4541 12.6828 20.9493 12.6381 20.4437 12.5622C20.9453 12.3753 21.4501 12.4032 21.9557 12.5398Z" fill="#FED100"/>
<path d="M18.5203 12.5543C18.0148 12.6406 17.51 12.6733 17.0028 12.54C17.4978 12.3862 18.0284 12.3912 18.5203 12.5543Z" fill="#FED100"/>
<path d="M17.007 17.1568C17.5093 17.0306 18.0133 17.0602 18.5181 17.144C18.0275 17.3023 17.5002 17.3068 17.007 17.1568Z" fill="#FED000"/>
<path d="M20.5172 17.1722C20.9872 17.0423 21.4833 17.0393 21.9549 17.1634C21.4857 17.2995 20.988 17.3025 20.5172 17.1722Z" fill="#FED100"/>
<path d="M12.9478 12.9073V14.9599C12.903 14.2579 12.7569 13.5534 12.931 12.8538C12.9361 12.8556 12.9407 12.8586 12.9445 12.8625C12.9483 12.8664 12.9511 12.8712 12.9527 12.8763C12.9543 12.8815 12.9547 12.887 12.9539 12.8924C12.953 12.8978 12.9509 12.9029 12.9478 12.9073Z" fill="#FED900"/>
<path d="M25.6289 17.1607C26.0185 17.0359 26.4374 17.0359 26.827 17.1607C26.4383 17.2915 26.0176 17.2915 25.6289 17.1607Z" fill="#FED100"/>
<path d="M15.169 15.1755C14.4965 15.3352 13.82 15.2082 13.1443 15.1547H15.1163C15.121 15.1521 15.1263 15.1506 15.1317 15.1502C15.1371 15.1499 15.1425 15.1507 15.1475 15.1527C15.1526 15.1547 15.1571 15.1578 15.1608 15.1617C15.1645 15.1656 15.1673 15.1704 15.169 15.1755Z" fill="#FED200"/>
<path d="M19.9678 9.98364C20.0256 10.1088 20.0556 10.2451 20.0556 10.383C20.0556 10.5209 20.0256 10.6572 19.9678 10.7824C19.9084 10.6576 19.8776 10.5212 19.8776 10.383C19.8776 10.2448 19.9084 10.1084 19.9678 9.98364Z" fill="#FED200"/>
<path d="M28.4203 24.2711C28.361 24.1464 28.3302 24.0099 28.3302 23.8718C28.3302 23.7336 28.361 23.5972 28.4203 23.4724C28.505 23.7319 28.505 24.0116 28.4203 24.2711Z" fill="#FED900"/>
<path d="M20.8391 11.6485C20.9509 11.5922 21.0747 11.5638 21.1999 11.5658C21.3251 11.5677 21.4479 11.5999 21.5579 11.6597C21.4444 11.7096 21.3214 11.7345 21.1973 11.7326C21.0732 11.7306 20.9511 11.702 20.8391 11.6485Z" fill="#FED800"/>
<path d="M17.4038 11.6611C17.5141 11.6018 17.6371 11.5701 17.7623 11.5689C17.8876 11.5676 18.0112 11.5968 18.1226 11.6539C18.0103 11.7066 17.888 11.7345 17.764 11.7357C17.64 11.737 17.5171 11.7115 17.4038 11.6611Z" fill="#FED800"/>
<path d="M18.0459 9.09713C17.9501 9.1562 17.8401 9.18814 17.7276 9.18955C17.615 9.19096 17.5042 9.16177 17.407 9.10512C17.5066 9.05771 17.6153 9.03244 17.7256 9.03107C17.8359 9.02969 17.9452 9.05222 18.0459 9.09713Z" fill="#FED300"/>
<path d="M15.4821 16.7657C15.3634 16.3752 15.3634 15.9582 15.4821 15.5676C15.5382 15.965 15.5382 16.3683 15.4821 16.7657Z" fill="#FED200"/>
<path d="M21.5563 9.10502C21.4597 9.1631 21.3489 9.19338 21.2362 9.19253C21.1234 9.19169 21.0131 9.15975 20.9174 9.10023C21.0178 9.05462 21.127 9.03142 21.2374 9.03225C21.3477 9.03308 21.4566 9.05791 21.5563 9.10502Z" fill="#FED300"/>
<path d="M22.5091 10.698C22.4542 10.6005 22.4254 10.4905 22.4254 10.3786C22.4254 10.2667 22.4542 10.1566 22.5091 10.0591C22.5525 10.16 22.5749 10.2687 22.5749 10.3786C22.5749 10.4884 22.5525 10.5971 22.5091 10.698Z" fill="#FED900"/>
<path d="M26.5889 27.5449C26.5304 27.4635 26.4989 27.3657 26.4989 27.2654C26.4989 27.1651 26.5304 27.0673 26.5889 26.9858C26.6485 27.1674 26.6485 27.3633 26.5889 27.5449Z" fill="#FED600"/>
<path d="M16.4487 10.1387C16.5026 10.2215 16.5321 10.3179 16.5339 10.4167C16.5358 10.5156 16.5098 10.6129 16.459 10.6978C16.383 10.5198 16.3793 10.3193 16.4487 10.1387Z" fill="#FCDA00"/>
<path d="M29.0608 13.0939C29.0383 13.0738 29.0203 13.0492 29.008 13.0217C28.9956 12.9941 28.9893 12.9643 28.9893 12.9342C28.9893 12.904 28.9956 12.8742 29.008 12.8466C29.0203 12.8191 29.0383 12.7945 29.0608 12.7744C29.0926 12.8216 29.1096 12.8772 29.1096 12.9342C29.1096 12.9911 29.0926 13.0467 29.0608 13.0939Z" fill="#FED900"/>
<path d="M12.7793 25.2312H24.7223C24.6257 25.347 24.5306 25.3111 24.4507 25.3111C20.6106 25.318 16.7704 25.3238 12.9302 25.3286C12.8551 25.3286 12.8016 25.3183 12.7769 25.2416L12.7793 25.2312Z" fill="#FECE00"/>
<path d="M25.3191 23.8611H14.5214V23.822H25.3334L25.3191 23.8611Z" fill="#FBC300"/>
<path d="M20.2777 16.8456V12.8521C20.3421 12.9381 20.3707 13.0457 20.3576 13.1524C20.3576 14.2828 20.3576 15.4132 20.3576 16.5437C20.3716 16.6509 20.3429 16.7593 20.2777 16.8456Z" fill="#FAC400"/>
</g>
<defs>
<clipPath id="clip0_383_2916">
<rect width="40" height="40" fill="white"/>
</clipPath>
</defs>
</svg>
