<svg width="25" height="24" viewBox="0 0 25 24" fill="none" xmlns="http://www.w3.org/2000/svg">
<g clip-path="url(#clip0_124:1877)">
<path d="M12.1689 23.159C11.9055 22.6929 11.637 22.2319 11.5812 22.1305C11.5204 22.0292 11.2215 21.5175 10.9175 20.9855C10.269 19.8659 9.5547 18.6246 8.91127 17.5151C8.66303 17.0845 8.24759 16.3651 7.9892 15.9192C7.73082 15.4734 7.25459 14.6425 6.92528 14.07C6.26159 12.925 6.14 12.6008 6.14 12.003C6.14 11.5014 6.24639 11.1265 6.52504 10.63C6.6517 10.402 6.76316 10.2196 6.77329 10.2196C6.78849 10.2196 7.04687 10.6604 7.78655 11.9422C7.98414 12.2917 8.45531 13.1023 8.82515 13.7407C9.19499 14.3841 9.66109 15.1897 9.86374 15.5392C10.0664 15.8888 10.4869 16.6184 10.801 17.1605C11.1151 17.7026 11.409 18.2193 11.4596 18.3004C11.9511 19.1566 12.5286 20.1597 12.6097 20.2915L12.7161 20.4637L12.8579 20.2155C12.9897 19.9824 13.2531 19.5264 13.4355 19.2123C13.9067 18.4017 14.5045 17.3682 14.6869 17.049C14.8085 16.8312 14.9199 16.6538 14.9301 16.6538C14.9402 16.6538 15.0466 16.821 15.1631 17.0186C15.462 17.5252 15.5735 17.9103 15.5735 18.4017C15.5735 19.0907 15.5785 19.0857 13.9928 21.8215C13.6787 22.3636 13.2734 23.0779 13.0859 23.4022C12.9035 23.7315 12.7313 24 12.7009 24C12.6755 24 12.4324 23.62 12.1689 23.159Z" fill="#F3F3F3"/>
<path d="M12.6047 18.7716C12.5692 18.7057 12.2653 18.1889 11.941 17.6164C11.6117 17.0439 11.1912 16.3144 11.0037 15.9952C10.8163 15.676 10.3046 14.7844 9.86382 14.0194C9.42305 13.2543 9.00254 12.5248 8.92655 12.3981C8.1514 11.1518 7.87275 9.8903 8.0906 8.56292C8.24259 7.62058 8.1666 7.77764 11.1152 2.67079C11.6877 1.68285 12.2653 0.679721 12.402 0.44667C12.5388 0.213619 12.6756 0.0109664 12.706 0.000833792C12.782 -0.0244978 13.0911 0.532798 13.2279 0.933037C13.3596 1.32314 13.3748 2.0223 13.2583 2.3972C13.1569 2.71132 12.8935 3.20275 12.093 4.55546C12.0677 4.60106 11.8853 4.9101 11.6978 5.23941C11.5104 5.56872 11.3027 5.92843 11.2368 6.03989C11.1709 6.15135 10.9531 6.52626 10.7504 6.87583C9.91955 8.31974 9.86382 8.48186 9.86888 9.43433C9.87395 10.4527 9.79796 10.2905 11.8903 13.9079C12.5388 15.0377 12.701 15.2809 12.7516 15.2251C12.7871 15.1897 13.0404 14.7742 13.3089 14.298C13.5825 13.8268 14.0638 12.9909 14.3728 12.4488C14.687 11.9067 15.0923 11.1974 15.2797 10.8782C15.4621 10.5591 15.6394 10.2956 15.6749 10.2956C15.756 10.2956 16.065 10.8377 16.2069 11.2329C16.369 11.6939 16.3639 12.2309 16.1967 12.7325C16.0853 13.0669 16.0245 13.1935 15.7813 13.5887C15.7458 13.6444 15.5736 13.9535 15.3861 14.2727C15.2037 14.5918 15.0011 14.9465 14.9352 15.0579C14.8693 15.1694 14.6414 15.5595 14.4336 15.9243C14.2209 16.2891 14.0081 16.6589 13.9574 16.745C13.9067 16.8312 13.6838 17.2162 13.466 17.6012C12.9948 18.422 12.7162 18.883 12.6959 18.883C12.6858 18.883 12.6452 18.8324 12.6047 18.7716Z" fill="#F3F3F3"/>
<path d="M16.3385 17.505C16.1916 17.3125 15.9636 16.8362 15.8673 16.5069C15.7711 16.2029 15.7559 16.0611 15.7812 15.7216C15.8167 15.215 15.9281 14.8908 16.2726 14.298C16.8907 13.2442 17.0478 12.7882 17.0529 12.0435C17.0579 11.471 16.9414 10.9492 16.6982 10.4729C16.5513 10.1791 15.842 8.94289 15.7153 8.75037C15.6596 8.66424 15.6596 8.66931 15.4063 9.10501C15.3303 9.23167 15.0618 9.69777 14.8034 10.1436C14.545 10.5894 14.2866 11.0403 14.2258 11.1417C13.7496 11.9726 13.4102 12.5653 13.2835 12.7781C13.1974 12.92 13.0454 13.1834 12.9441 13.3709C12.8377 13.5634 12.7313 13.7154 12.7009 13.7154C12.6755 13.7154 12.4577 13.381 12.2246 12.9656C11.9865 12.5552 11.6015 11.8915 11.3684 11.4862C10.6338 10.2297 10.6237 10.2044 10.6237 9.43433C10.6237 8.66931 10.6186 8.68451 11.2924 7.50912C13.4051 3.81577 14.1397 2.56946 14.1954 2.56946C14.2917 2.56946 14.6615 3.29394 14.7527 3.66885C14.8794 4.15015 14.8794 4.37814 14.7578 4.85437C14.6767 5.16342 14.16 6.20708 13.9421 6.49586C13.9219 6.52626 13.8459 6.64785 13.78 6.77451C13.7091 6.90116 13.4406 7.36727 13.1822 7.8131C12.9238 8.25894 12.6097 8.80103 12.4881 9.01382L12.2601 9.40899L12.3969 9.64711C12.4729 9.7839 12.5692 9.95616 12.6148 10.0322C12.6553 10.1132 12.7059 10.1588 12.7313 10.1335C12.7515 10.1132 12.8934 9.8751 13.0454 9.61165C13.1974 9.3482 13.5622 8.70984 13.8611 8.19308C14.16 7.67631 14.6818 6.76944 15.0213 6.18175C15.3607 5.58899 15.6596 5.11275 15.6849 5.11782C15.7305 5.13302 16.0649 5.70045 17.1592 7.61045C17.4126 8.05629 17.7925 8.71997 18.0053 9.07968C18.4309 9.8143 18.5981 10.2044 18.745 10.8022C19.0034 11.8459 18.9071 12.9808 18.4664 13.994C18.3346 14.3031 17.9648 14.9617 16.9819 16.6538C16.7793 17.0034 16.5817 17.3479 16.5412 17.429C16.4601 17.581 16.4094 17.5962 16.3385 17.505Z" fill="#F3F3F3"/>
</g>
<defs>
<clipPath id="clip0_124:1877">
<rect width="24" height="24" fill="white" transform="translate(0.5)"/>
</clipPath>
</defs>
</svg>
