<svg width="32" height="32" viewBox="0 0 32 32" fill="none" xmlns="http://www.w3.org/2000/svg">
<g clip-path="url(#clip0_256_4537)" filter="url(#filter0_d_256_4537)">
<path d="M15.6122 23.7588C15.4359 23.629 14.935 23.3322 14.4991 23.1003C14.0631 22.8591 13.6921 22.655 13.6735 22.6365C13.655 22.6272 13.9147 22.3211 14.2486 21.9686L14.8608 21.3379L15.3154 21.8109C15.5658 22.0707 15.8162 22.3675 15.8719 22.4695C15.9832 22.655 15.9925 22.6458 16.1502 22.4231C16.2337 22.2933 16.4934 21.9872 16.7253 21.746L17.152 21.2915L17.7363 21.9594C18.061 22.3211 18.3114 22.6272 18.2929 22.6458C18.2743 22.655 17.9682 22.8313 17.6065 23.0261C17.254 23.2209 16.7624 23.5177 16.5119 23.6846C16.2708 23.8609 16.0481 24 16.0018 24C15.9647 23.9907 15.7884 23.8887 15.6122 23.7588Z" fill="#F3F3F3"/>
<path d="M12.2727 22.2469C10.5938 21.6161 9.19318 20.7349 8.00588 19.5476C4.52746 16.0692 3.66481 10.7078 5.87245 6.29253C8.67373 0.717788 15.4451 -1.59188 20.9456 1.16303C23.1811 2.27612 25.2124 4.36317 26.2328 6.58936C27.6427 9.65964 27.6427 13.203 26.2328 16.2733C25.5 17.878 24.0994 19.5847 22.6245 20.6793C21.8361 21.2636 20.1479 22.1356 19.3594 22.3582L18.8864 22.4973L18.3855 21.9964C18.0515 21.6532 17.9402 21.4863 18.033 21.4584C18.1072 21.4399 18.4782 21.3286 18.8585 21.2173C22.0772 20.2711 24.7208 17.5997 25.6762 14.3068C27.2624 8.81554 23.988 2.96253 18.5339 1.56188C12.6252 0.0406557 6.78147 3.99214 5.9652 10.0678C5.29735 15.021 8.39546 19.8723 13.1076 21.2173C13.4879 21.3286 13.8589 21.4399 13.9331 21.4584C14.0259 21.4863 13.9145 21.6625 13.5713 22.0057C13.2931 22.284 13.0426 22.5159 13.0148 22.5159C12.987 22.5066 12.653 22.386 12.2727 22.2469Z" fill="#F3F3F3"/>
<path d="M15.5284 21.746C15.0832 21.273 15.0368 21.1802 15.1296 21.0225C15.2316 20.8648 15.213 20.8463 14.9719 20.8463C14.8327 20.8463 14.2947 20.7442 13.7938 20.6144C11.0389 19.9187 8.74782 18.0172 7.53269 15.4292C5.82595 11.7746 6.6515 7.37784 9.56409 4.59511C11.5769 2.6843 14.0443 1.81238 16.8363 2.03499C19.9437 2.27616 22.8285 4.2148 24.2755 7.02536C25.0917 8.61152 25.4071 10.0771 25.3236 11.923C25.2216 14.2512 24.3033 16.3754 22.68 18.0357C21.2423 19.5106 19.3593 20.4938 17.4485 20.7813C16.7899 20.8741 16.7435 20.8927 16.8641 21.0318C16.9847 21.1709 16.9754 21.208 16.7621 21.4121C16.623 21.5327 16.4096 21.7831 16.2705 21.9686L16.0293 22.2933L15.5284 21.746ZM15.5191 19.8445C15.5191 19.492 14.6565 16.7649 14.5452 16.7649C14.5359 16.7649 14.2855 16.867 13.9886 16.9968L13.4599 17.2287L13.8681 17.7018C14.5545 18.4995 14.944 19.0746 15.1574 19.594C15.3522 20.0671 15.5191 20.1877 15.5191 19.8445ZM17.1795 18.8334C17.3465 18.5273 17.6897 18.0357 17.9401 17.7574L18.3946 17.2473L17.4949 16.7649C14.8606 15.3828 12.7735 13.5277 11.8552 11.7375C11.1966 10.476 11.0482 9.77099 11.0389 7.96222L11.0297 6.44099L10.7328 6.79347C10.0835 7.57263 9.4064 8.94545 9.39713 9.49272C9.38785 10.578 10.6957 12.5537 12.4396 14.1028C13.2187 14.7985 15.213 16.1713 16.3076 16.7742C16.6879 16.9783 17.0218 17.1823 17.0496 17.2194C17.0682 17.2565 16.9476 17.8038 16.7714 18.4346C16.4096 19.7054 16.4003 19.8352 16.558 19.9929C16.6508 20.0857 16.6972 20.03 16.7714 19.7517C16.8363 19.5569 17.0125 19.1488 17.1795 18.8334ZM16.2519 17.6832C16.2612 17.5719 15.7418 17.2287 15.5655 17.2287C15.5284 17.2287 15.8067 18.1006 15.9551 18.4346C15.9922 18.5273 16.0479 18.4531 16.1313 18.2027C16.1963 17.9986 16.2519 17.7667 16.2519 17.6832ZM13.2837 16.5887L13.6083 16.4125L12.8199 16.1806C11.345 15.7353 11.0389 15.6518 11.1039 15.726C11.2801 15.893 12.7086 16.7464 12.8292 16.7557C12.9034 16.7557 13.1167 16.6815 13.2837 16.5887ZM20.1385 16.2455C20.6115 15.9579 20.9919 15.7168 20.9733 15.6889C20.9548 15.6704 20.6672 15.7353 20.3425 15.8374C20.0086 15.9301 19.4242 16.0971 19.0439 16.2084L18.3575 16.4125L18.6729 16.5887C18.8491 16.6815 19.0625 16.7557 19.1367 16.7649C19.2109 16.7649 19.6561 16.533 20.1385 16.2455ZM17.4207 14.5758C17.9679 12.4888 18.3946 11.487 19.1552 10.5409C19.415 10.2255 19.6005 9.90086 19.6005 9.77099C19.6005 9.1959 18.1998 6.32968 17.3836 5.22586C16.8549 4.51163 16.1684 3.77884 16.0293 3.77884C15.8902 3.77884 14.7678 5.08673 14.2484 5.86589C13.6733 6.71926 13.0703 7.90656 12.6993 8.89907C12.5138 9.39069 12.3654 9.85448 12.3654 9.92868C12.3654 10.0029 12.5973 10.3646 12.8755 10.745C13.5156 11.6076 13.9144 12.4146 14.0814 13.203C14.2298 13.9265 14.4617 14.2048 15.4728 14.9005C16.1592 15.3736 17.0125 15.8559 17.0682 15.8003C17.0867 15.7817 17.2444 15.2252 17.4207 14.5758ZM19.7396 15.1417C20.2034 14.8727 21.1217 14.2512 21.7803 13.7689C23.1438 12.7763 23.1067 12.8413 23.116 11.385C23.116 10.8099 23.0975 10.7171 23.0047 10.8655C21.7896 12.7949 20.7692 13.9544 19.2758 15.1231C18.3297 15.8559 18.5059 15.8652 19.7396 15.1417ZM12.8755 15.3457C11.2894 14.075 10.1114 12.7856 9.3693 11.5056C9.15596 11.1438 8.95189 10.8655 8.91479 10.8841C8.8313 10.9397 8.81275 12.5073 8.89623 12.7207C8.95189 12.8506 9.75888 13.4628 11.4842 14.6779C12.6251 15.4849 13.664 15.9858 12.8755 15.3457ZM18.6544 14.7521C20.7971 13.0824 22.0493 11.5148 22.4296 10.0307C22.5595 9.51127 22.5595 9.41852 22.4203 9.01038C22.1884 8.32397 21.6597 7.34074 21.2701 6.90478L20.9176 6.5152L20.8713 8.0457C20.7971 10.6336 20.3054 11.9323 18.7564 13.5648C18.4225 13.9173 18.0793 14.344 18.0051 14.4924C17.8566 14.7985 17.7175 15.3736 17.801 15.3736C17.8288 15.3736 18.2091 15.0953 18.6544 14.7521Z" fill="#F3F3F3"/>
<path d="M15.9181 14.279C15.7047 14.1862 15.4821 14.0749 15.4357 14.0285C15.3801 13.9729 15.2966 13.4905 15.2502 12.9433C15.0925 11.2551 14.7679 10.2718 13.896 8.82481L13.7197 8.53726L14.3598 7.53548L14.9905 6.54297L15.1296 6.80269C15.2039 6.9511 15.4357 7.35924 15.6398 7.71172L16.0016 8.35175L16.3819 7.4891L16.7622 6.62645L17.1332 7.03459C17.6341 7.59113 18.0237 8.22189 18.0237 8.47233C18.0237 8.58364 17.8567 9.00105 17.6527 9.40919C17.0776 10.513 16.7344 11.7096 16.5581 13.1659C16.4746 13.8708 16.3819 14.4459 16.354 14.4367C16.3262 14.4367 16.1314 14.3625 15.9181 14.279Z" fill="#F3F3F3"/>
<path d="M17.0313 13.0545C17.0684 12.4145 17.1705 11.793 17.3282 11.2457C17.5693 10.4295 18.163 9.15869 18.3114 9.15869C18.4505 9.15869 18.7659 9.65031 18.7659 9.86365C18.7659 9.97496 18.5155 10.5408 18.2186 11.1252C17.9125 11.7002 17.5508 12.5536 17.4116 13.0081C17.0499 14.1954 16.9664 14.214 17.0313 13.0545Z" fill="#F3F3F3"/>
<path d="M14.6381 13.7038C14.601 13.6481 14.499 13.3235 14.397 12.9617C14.1744 12.1548 13.8497 11.422 13.3674 10.615L12.9871 9.97495L13.1911 9.55754L13.3952 9.13086L13.6271 9.35348C14.1001 9.79871 14.666 11.2365 14.87 12.5258C14.9999 13.3792 14.87 14.0748 14.6381 13.7038Z" fill="#F3F3F3"/>
</g>
<defs>
<filter id="filter0_d_256_4537" x="0" y="0" width="32" height="32" filterUnits="userSpaceOnUse" color-interpolation-filters="sRGB">
<feFlood flood-opacity="0" result="BackgroundImageFix"/>
<feColorMatrix in="SourceAlpha" type="matrix" values="0 0 0 0 0 0 0 0 0 0 0 0 0 0 0 0 0 0 127 0" result="hardAlpha"/>
<feOffset dy="4"/>
<feGaussianBlur stdDeviation="2"/>
<feComposite in2="hardAlpha" operator="out"/>
<feColorMatrix type="matrix" values="0 0 0 0 0 0 0 0 0 0 0 0 0 0 0 0 0 0 0.25 0"/>
<feBlend mode="normal" in2="BackgroundImageFix" result="effect1_dropShadow_256_4537"/>
<feBlend mode="normal" in="SourceGraphic" in2="effect1_dropShadow_256_4537" result="shape"/>
</filter>
<clipPath id="clip0_256_4537">
<rect width="24" height="24" fill="white" transform="translate(4)"/>
</clipPath>
</defs>
</svg>
