<svg width="18" height="18" viewBox="0 0 18 18" fill="none" xmlns="http://www.w3.org/2000/svg">
<path d="M15.3625 15.3625C11.8462 18.8789 6.15431 18.8794 2.63748 15.3625C-0.878896 11.8462 -0.879423 6.15432 2.63748 2.63745C6.15375 -0.878887 11.8457 -0.879414 15.3625 2.63745C18.8789 6.15379 18.8794 11.8456 15.3625 15.3625ZM14.9864 3.9201C14.566 4.29603 14.1163 4.62873 13.6423 4.91544C13.9556 5.99768 14.1412 7.18861 14.1851 8.42658H16.8305C16.7109 6.75791 16.0698 5.19259 14.9864 3.9201ZM1.16943 8.42658H3.81485C3.85872 7.18861 4.04434 5.99768 4.35764 4.91544C3.88363 4.62873 3.43393 4.29603 3.01352 3.9201C1.93019 5.19259 1.28907 6.75791 1.16943 8.42658ZM3.01356 14.0799C3.43396 13.7039 3.88367 13.3712 4.35768 13.0845C4.04437 12.0023 3.85876 10.8114 3.81489 9.57339H1.16943C1.28907 11.242 1.93019 12.8073 3.01356 14.0799ZM8.42661 12.966C7.49144 13.0329 6.58975 13.2632 5.75382 13.6432C6.23999 14.8951 7.13623 16.3966 8.42661 16.7687V12.966ZM8.42661 11.8171V9.57335H4.96215C5.00185 10.6206 5.15023 11.6262 5.397 12.5463C6.34695 12.131 7.3686 11.883 8.42661 11.8171ZM8.42661 8.42658V6.18288C7.3686 6.11694 6.34695 5.86894 5.397 5.45366C5.15023 6.37376 5.00185 7.37936 4.96215 8.42658H8.42661ZM8.42661 5.03392V1.23122C7.1363 1.60333 6.24006 3.10468 5.75382 4.35674C6.58975 4.73671 7.49144 4.96704 8.42661 5.03392ZM9.57339 5.03392C10.5086 4.96704 11.4102 4.73671 12.2462 4.35674C11.76 3.10479 10.8638 1.60333 9.57339 1.23122V5.03392ZM9.57339 6.18288V8.42658H13.0378C12.9981 7.37936 12.8498 6.37376 12.603 5.45366C11.653 5.86894 10.6314 6.11694 9.57339 6.18288ZM9.57339 9.57335V11.8171C10.6314 11.883 11.653 12.131 12.603 12.5463C12.8498 11.6262 12.9981 10.6206 13.0378 9.57335H9.57339ZM9.57339 12.966V16.7687C10.8638 16.3966 11.76 14.8951 12.2462 13.6432C11.4102 13.2632 10.5086 13.0329 9.57339 12.966ZM12.1489 16.1962C12.8829 15.8748 13.5677 15.439 14.1816 14.8982C13.8894 14.6406 13.5811 14.407 13.2591 14.1981C12.9732 14.906 12.608 15.5939 12.1489 16.1962ZM4.74085 14.1981C4.4189 14.407 4.11062 14.6406 3.8184 14.8982C4.43225 15.439 5.11703 15.8748 5.85102 16.1962C5.39197 15.5939 5.02675 14.9059 4.74085 14.1981ZM4.74088 3.80183C5.02675 3.09397 5.39204 2.406 5.85106 1.8037C5.11706 2.12512 4.43229 2.56094 3.81843 3.1017C4.11062 3.35932 4.41894 3.59292 4.74088 3.80183ZM13.2591 3.80183C13.5811 3.59292 13.8894 3.35932 14.1816 3.10173C13.5677 2.56098 12.8829 2.12515 12.1489 1.80373C12.608 2.40596 12.9732 3.09393 13.2591 3.80183ZM14.1851 9.57335C14.1413 10.8113 13.9557 12.0023 13.6424 13.0845C14.1164 13.3712 14.566 13.7039 14.9865 14.0798C16.0698 12.8073 16.7109 11.242 16.8306 9.57335H14.1851Z" fill="white" fill-opacity="0.95"/>
</svg>
