<svg width="18" height="18" viewBox="0 0 18 18" fill="none" xmlns="http://www.w3.org/2000/svg">
<path d="M5.66082 16.3517C12.4536 16.3517 16.1683 10.7208 16.1683 5.83793C16.1683 5.67802 16.1651 5.51884 16.1579 5.36031C16.8807 4.837 17.5045 4.18905 18 3.44685C17.3383 3.7412 16.6262 3.93932 15.8792 4.02864C16.6417 3.57119 17.227 2.84748 17.5032 1.98483C16.7783 2.41513 15.9852 2.71847 15.1582 2.88177C14.4843 2.16351 13.5248 1.71429 12.4625 1.71429C10.4231 1.71429 8.76926 3.36912 8.76926 5.40895C8.76926 5.69895 8.80171 5.98094 8.86507 6.25151C5.79574 6.09698 3.07409 4.62658 1.25261 2.39076C0.924545 2.95468 0.751988 3.59558 0.752561 4.24802C0.752561 5.53003 1.40451 6.66176 2.39598 7.32388C1.80951 7.30596 1.23592 7.14746 0.723439 6.8617C0.72289 6.87722 0.72289 6.89233 0.72289 6.90891C0.72289 8.69844 1.99584 10.1926 3.68565 10.5311C3.36828 10.6176 3.04079 10.6614 2.71185 10.6612C2.4743 10.6612 2.24279 10.6378 2.01779 10.5946C2.48795 12.0628 3.85127 13.1312 5.46765 13.161C4.20366 14.1523 2.61143 14.7428 0.880902 14.7428C0.586518 14.743 0.292374 14.7259 0 14.6916C1.63441 15.7398 3.57494 16.3517 5.66082 16.3517Z" fill="white" fill-opacity="0.95"/>
</svg>
