<svg width="50" height="50" viewBox="0 0 50 50" fill="none" xmlns="http://www.w3.org/2000/svg">
<path d="M49.1015 24.9778C49.1015 31.1405 49.1015 37.304 49.1015 43.4682C49.1168 43.6101 49.0866 43.7533 49.0152 43.877C48.9437 44.0006 48.8348 44.0983 48.7041 44.1559C40.7729 48.7219 32.8475 53.2966 24.9279 57.8801C24.8174 57.9581 24.6855 58 24.5502 58C24.415 58 24.283 57.9581 24.1725 57.8801C16.2573 53.2966 8.33486 48.7219 0.405115 44.1559C0.273904 44.0974 0.164465 43.999 0.092348 43.8748C0.0202306 43.7505 -0.0108972 43.6067 0.00338733 43.4638C0.0150316 31.1543 0.0150316 18.8442 0.00338733 6.53326C-0.00953644 6.38994 0.0223888 6.24615 0.0947481 6.12177C0.167107 5.99739 0.276325 5.89857 0.407298 5.83897C8.33705 1.27005 16.2632 -3.30324 24.1856 -7.88089C24.2959 -7.95841 24.4274 -8 24.5622 -8C24.6971 -8 24.8286 -7.95841 24.9389 -7.88089C32.873 -3.29159 40.8122 1.29334 48.7565 5.8739C48.8731 5.92756 48.97 6.01647 49.0335 6.1281C49.0969 6.23973 49.1238 6.36846 49.1102 6.49614C49.1 12.6545 49.0971 18.8151 49.1015 24.9778ZM43.2327 6.64679V7.24283C43.2327 17.9701 43.2327 28.6974 43.2327 39.4247C43.251 39.5899 43.2171 39.7567 43.1356 39.9016C43.0541 40.0466 42.9293 40.1623 42.7786 40.2325C36.8255 43.6545 30.8782 47.0873 24.9367 50.5311C24.8201 50.6144 24.6804 50.6591 24.5371 50.6591C24.3939 50.6591 24.2542 50.6144 24.1376 50.5311C18.1946 47.0873 12.2473 43.6537 6.29566 40.2303C6.15987 40.1652 6.04824 40.0586 5.97684 39.926C5.90544 39.7934 5.87794 39.6416 5.8983 39.4924C5.8983 28.7331 5.8983 17.9745 5.8983 7.21663V6.63806C5.02498 7.13585 4.23681 7.62054 3.4137 8.0572C3.25916 8.12047 3.12927 8.23209 3.04347 8.37535C2.95767 8.51862 2.92058 8.68582 2.93774 8.85192C2.95084 19.6229 2.95084 30.3938 2.93774 41.1648C2.92079 41.3152 2.95177 41.4671 3.02627 41.5988C3.10076 41.7305 3.21496 41.8354 3.35257 41.8984C10.2955 45.8909 17.2318 49.8936 24.1616 53.9065C24.2782 53.9897 24.4179 54.0345 24.5612 54.0345C24.7044 54.0345 24.8441 53.9897 24.9607 53.9065C31.8934 49.8936 38.8305 45.8909 45.7719 41.8984C45.9081 41.8347 46.0209 41.7299 46.0941 41.5986C46.1674 41.4673 46.1975 41.3163 46.1802 41.167C46.1715 30.396 46.1715 19.6251 46.1802 8.8541C46.1747 8.7756 46.1747 8.69681 46.1802 8.61831C46.1958 8.53468 46.1828 8.44822 46.1432 8.37293C46.1035 8.29764 46.0397 8.23793 45.9619 8.20348C45.0667 7.70132 44.1868 7.19261 43.2327 6.64679ZM28.1199 -2.08641V-1.48819V24.6699C28.1199 25.8926 28.1199 27.1152 28.1199 28.3379C28.1199 28.4885 28.168 28.6566 27.9911 28.7593C27.4082 29.0933 26.8231 29.4295 26.2445 29.7679C26.0829 29.8618 26.0261 29.8138 26.0261 29.6369C26.0261 29.5103 26.0261 29.3859 26.0261 29.2592C26.0261 18.6266 26.0342 7.99461 26.0502 -2.6366C26.0502 -3.11911 25.8864 -3.35273 25.5 -3.63001C24.8253 -4.11033 24.2795 -4.09942 23.6136 -3.63001C23.2599 -3.37456 23.0852 -3.17151 23.0852 -2.7152C23.1071 7.93494 23.118 18.5836 23.118 29.2309C23.118 29.3247 23.118 29.4186 23.118 29.5125C23.1398 29.8072 23.0547 29.888 22.7796 29.7177C22.3429 29.4492 21.9063 29.1763 21.4347 28.947C21.2812 28.8852 21.1521 28.775 21.067 28.6332C20.9819 28.4913 20.9454 28.3255 20.9631 28.161C20.9805 18.3274 20.9885 8.49459 20.9871 -1.33754C20.9871 -1.44671 20.9871 -1.55587 20.9871 -1.66722C21.0198 -1.99035 20.9281 -2.05585 20.6356 -1.88555C19.8823 -1.43579 19.1226 -0.994762 18.354 -0.575569C18.2501 -0.527468 18.1641 -0.447668 18.1084 -0.347635C18.0527 -0.247602 18.0302 -0.132486 18.044 -0.0188265C18.0556 9.98797 18.0556 19.9933 18.044 29.9972C18.0335 30.1104 18.0585 30.224 18.1157 30.3222C18.1728 30.4205 18.2592 30.4984 18.3628 30.5452C20.3074 31.6543 22.2483 32.7722 24.1856 33.8988C24.2923 33.9739 24.4197 34.0143 24.5502 34.0143C24.6808 34.0143 24.8081 33.9739 24.9148 33.8988C26.8078 32.794 28.7051 31.6936 30.6176 30.6238C30.755 30.5598 30.8686 30.4539 30.9419 30.3213C31.0153 30.1887 31.0447 30.0362 31.0259 29.8858C31.0259 19.9606 31.0259 10.0338 31.0259 0.105621C31.0259 0.0117397 31.0259 -0.0821424 31.0259 -0.176024C31.0343 -0.245819 31.0193 -0.316416 30.9834 -0.37683C30.9474 -0.437244 30.8925 -0.484087 30.8272 -0.510069C29.9648 -1.01441 29.0871 -1.5253 28.1243 -2.08205L28.1199 -2.08641ZM7.98117 14.9673H7.99427C7.99427 18.024 7.99427 21.0806 7.99427 24.1372C7.97898 24.2662 8.0058 24.3967 8.07072 24.5092C8.13564 24.6218 8.23518 24.7103 8.35451 24.7616C9.12522 25.1765 9.88282 25.6175 10.6361 26.0716C10.7141 26.1319 10.8093 26.1657 10.9079 26.168C11.0065 26.1704 11.1032 26.1412 11.1841 26.0847C12.6512 25.2259 14.1242 24.3781 15.6031 23.5412C15.7138 23.4904 15.806 23.4063 15.8667 23.3006C15.9273 23.1949 15.9535 23.0729 15.9415 22.9517C15.9415 17.6375 15.9458 12.3248 15.9546 7.01358C15.9663 6.8991 15.9419 6.78382 15.8847 6.68395C15.8276 6.58407 15.7405 6.50465 15.6358 6.45684C14.1657 5.62282 12.7015 4.77716 11.243 3.91985C11.1439 3.84955 11.0247 3.81307 10.9032 3.81582C10.7816 3.81858 10.6643 3.86041 10.5684 3.93513C9.83042 4.37179 9.08592 4.80845 8.32831 5.22328C8.20979 5.27533 8.11119 5.36416 8.04709 5.47663C7.98299 5.58909 7.95682 5.7192 7.97243 5.8477C7.98553 8.88467 7.98117 11.926 7.98117 14.9673ZM38.2111 10.4566C39.1718 9.90209 40.0735 9.3781 40.9818 8.86284C41.1433 8.77114 41.1215 8.64451 41.1215 8.49823C41.1215 7.57469 41.1215 6.64897 41.1215 5.72325C41.1298 5.62366 41.1062 5.524 41.0539 5.43878C41.0017 5.35357 40.9236 5.28725 40.8311 5.24948C40.0393 4.81282 39.2526 4.35869 38.471 3.8871C38.3904 3.82852 38.2933 3.79697 38.1937 3.79697C38.0941 3.79697 37.997 3.82852 37.9164 3.8871C36.4318 4.76042 34.9413 5.62209 33.445 6.47213C33.3607 6.50801 33.2899 6.56948 33.2425 6.64784C33.1951 6.7262 33.1735 6.81749 33.1808 6.90878C33.1896 12.2855 33.1939 17.6637 33.1939 23.0434C33.1863 23.1423 33.2097 23.2412 33.261 23.3261C33.3123 23.4111 33.3888 23.4778 33.4799 23.5172C34.9646 24.3599 36.447 25.2048 37.9164 26.0716C38.0034 26.1322 38.1073 26.1636 38.2133 26.1612C38.3192 26.1589 38.4217 26.1229 38.5059 26.0585C39.246 25.6219 39.9884 25.1852 40.7438 24.7682C40.8628 24.7154 40.9618 24.6259 41.0263 24.5127C41.0907 24.3996 41.1172 24.2687 41.1018 24.1394C41.1018 19.9911 41.1018 15.8298 41.1018 11.6749C41.1018 11.5461 41.1608 11.3977 41.0101 11.2514C39.7569 11.9791 38.5008 12.7069 37.2418 13.4347C37.1872 13.4646 37.1427 13.51 37.1139 13.5652C37.0852 13.6203 37.0734 13.6828 37.0802 13.7447C37.0802 14.701 37.0802 15.6573 37.0802 16.6136C37.0802 16.8777 37.1828 16.8603 37.3597 16.7555C37.6129 16.6048 37.8706 16.4651 38.1697 16.2992V22.8622C37.5452 22.5019 36.9798 22.157 36.3968 21.8447C36.2923 21.7966 36.2058 21.7166 36.1497 21.6161C36.0936 21.5157 36.0708 21.4 36.0846 21.2858C36.0948 17.0822 36.1006 12.8801 36.1021 8.67944C36.1021 8.53098 36.0519 8.36941 36.2353 8.26461C36.8706 7.90655 37.5016 7.53758 38.2002 7.14021L38.2111 10.4566ZM23.1464 41.4879C22.3145 40.6604 21.5875 39.929 20.8495 39.2107C20.6596 39.0251 20.6181 38.9291 20.8888 38.7741C21.8342 38.2239 22.773 37.6562 23.7031 37.082C24.0088 36.8942 24.059 36.9859 24.0546 37.3003C24.0437 38.5077 24.0546 39.7151 24.0437 40.9224C24.0437 41.3591 24.2118 41.5032 24.631 41.4944C25.572 41.477 26.513 41.4792 27.454 41.4944C27.7648 41.5013 28.07 41.4112 28.3273 41.2368C29.8047 40.2645 31.2879 39.301 32.7769 38.3461C32.897 38.2697 32.9952 38.1278 33.2136 38.1802V41.6167C33.8817 41.215 34.4952 40.8416 35.1109 40.4748C35.2276 40.4107 35.3244 40.3157 35.3906 40.2001C35.4569 40.0846 35.49 39.953 35.4864 39.8199C35.4864 38.8636 35.4864 37.9073 35.4864 36.951C35.4864 36.772 35.4427 36.5384 35.2528 36.5427C34.5017 36.5558 33.7245 36.2873 33.0105 36.7458C30.9364 38.0907 28.8623 39.4363 26.7881 40.7827C26.6555 40.9104 26.4858 40.993 26.3034 41.0185V40.6866C26.3034 39.4945 26.3034 38.3025 26.3034 37.1104C26.3034 36.5646 26.2314 36.4969 25.6725 36.4947C24.7315 36.4947 23.7904 36.4947 22.8516 36.4947C22.5306 36.492 22.2157 36.5831 21.9456 36.7567C20.0876 37.8855 18.2187 39.0011 16.3541 40.1168C16.2384 40.1867 16.1205 40.3351 15.9851 40.274C15.8498 40.2129 15.9218 40.0185 15.9196 39.8875C15.9196 38.916 15.9196 37.9444 15.9196 36.9728C15.9468 36.7949 15.9218 36.6129 15.8476 36.4488C15.1926 36.844 14.566 37.2217 13.9416 37.6016C13.829 37.6737 13.7389 37.776 13.6818 37.8969C13.6246 38.0177 13.6027 38.1522 13.6184 38.285C13.6184 39.178 13.6184 40.0731 13.6184 40.9661C13.6184 41.3569 13.7844 41.4835 14.1577 41.4923C16.2995 41.5381 16.2995 41.5425 18.151 40.4312C18.3518 40.3089 18.5658 40.2129 18.7514 40.0666C18.937 39.9203 19.0745 39.9574 19.2317 40.1233C19.5854 40.4989 19.9609 40.8569 20.3234 41.215C20.3873 41.2944 20.4676 41.3591 20.5587 41.4047C20.6499 41.4503 20.7498 41.4757 20.8517 41.4792C21.5635 41.4857 22.2731 41.4879 23.1464 41.4879Z" fill="#010101"/>
</svg>
