<svg width="24" height="24" viewBox="0 0 24 24" fill="none" xmlns="http://www.w3.org/2000/svg">
<path d="M20.1681 0C19.3819 1.49663 19.0207 3.12198 18.7054 4.85009C18.4161 4.40908 18.1517 4.02894 17.9192 3.62984C17.8693 3.54503 17.9192 3.38838 17.9481 3.27064C18.1307 2.55026 18.3203 1.83188 18.5139 1.08855H5.45124C5.63782 1.79596 5.80744 2.46446 5.99502 3.13196C6.08082 3.43727 6.07085 3.69569 5.85234 3.9591C5.63383 4.2225 5.48915 4.51086 5.27364 4.8471C4.92642 3.13894 4.61911 1.48566 3.78 0H20.1681Z" fill="#F3F3F3"/>
<path d="M18.3472 12.2665C18.4839 12.8821 18.5916 13.4638 18.7463 14.0375C18.9548 14.8177 19.2931 15.5261 19.8917 16.1028C19.9965 16.2026 20.0124 16.5269 19.9316 16.6676C19.6648 17.1591 19.35 17.623 18.9917 18.0524C17.5081 19.7486 15.759 21.1565 13.997 22.5424C13.4103 23.0043 12.7997 23.4403 12.212 23.9003C12.0683 24.012 11.9536 24.045 11.7879 23.9203C9.41627 22.1343 7.05359 20.3383 5.05109 18.1273C4.67095 17.7062 4.37361 17.2074 4.06331 16.7304C3.88172 16.4491 3.92861 16.2106 4.204 15.9502C4.89045 15.2986 5.16184 14.4206 5.36738 13.5276C5.46117 13.1175 5.52103 12.7005 5.60485 12.2385C5.88621 12.5588 6.15461 12.8372 6.3811 13.1365C6.44816 13.2641 6.46558 13.4119 6.42999 13.5516C6.21048 14.6222 5.86626 15.6469 5.09699 16.5788C5.66671 17.1984 6.18454 17.8758 6.81612 18.4266C8.43049 19.8334 10.0947 21.1844 11.741 22.5553C11.8618 22.6551 11.9705 22.7549 12.1591 22.6122C14.2913 20.9869 16.4056 19.3416 18.2125 17.342C18.2454 17.3051 18.2773 17.2672 18.3123 17.2293C18.8301 16.6217 18.8301 16.6217 18.418 15.9402C17.9471 15.161 17.6847 14.3069 17.526 13.4169C17.5079 13.3241 17.5265 13.2279 17.5779 13.1485C17.8154 12.8571 18.0748 12.5718 18.3472 12.2665Z" fill="#F3F3F3"/>
<path d="M17.7864 4.50293C19.4038 6.75886 19.6572 9.49969 17.9999 11.7866C17.2419 12.818 16.3072 13.7071 15.2391 14.4126C14.9149 13.9956 14.6455 13.5496 14.2803 13.2064C13.8952 12.8452 13.4142 12.5877 12.9832 12.2715C12.8894 12.2026 12.7767 12.0809 12.7737 11.9811C12.7537 11.3964 12.7637 10.8107 12.7637 10.1852C13.6487 10.3328 14.3661 10.7259 14.8849 11.4134C15.1224 11.7297 15.294 11.7127 15.5714 11.5042C16.658 10.688 17.2776 9.57552 17.6288 8.29341C17.964 7.07415 17.9929 5.83593 17.7864 4.50293Z" fill="#F3F3F3"/>
<path d="M6.08478 4.57788C5.86128 7.39255 6.24342 9.9478 8.76874 11.7907C9.39533 10.9276 10.1446 10.3709 11.2013 10.1843C11.2013 10.8308 11.2013 11.4584 11.1953 12.085C11.1953 12.1389 11.1185 12.2147 11.0596 12.2406C10.0399 12.6946 9.3195 13.4639 8.76475 14.4577C7.03764 13.1706 5.47615 11.7976 4.97727 9.60557C4.63105 8.082 4.92539 6.64024 5.6757 5.28828C5.8084 5.04583 5.94809 4.81235 6.08478 4.57788Z" fill="#F3F3F3"/>
<path d="M11.9855 18.5663C11.7859 18.1622 11.6293 17.798 11.4397 17.4498C11.061 16.7466 10.5417 16.1289 9.91415 15.6349C9.72258 15.4842 9.67568 15.3635 9.79042 15.141C10.1302 14.474 10.6279 13.9003 11.2402 13.4697C11.5145 13.2762 11.764 13.0467 11.9825 12.8711C12.202 13.0487 12.4654 13.2812 12.7478 13.4867C13.3634 13.9327 13.8623 14.4775 14.1706 15.1759C14.2175 15.2837 14.1855 15.5122 14.1037 15.575C13.1698 16.3313 12.5253 17.2892 12.0773 18.3907C12.0613 18.4316 12.0334 18.4725 11.9855 18.5663Z" fill="#F3F3F3"/>
<path d="M11.7192 3.92627H12.3608C12.3388 4.2256 12.3029 4.52492 12.2989 4.81926C12.2899 5.52966 12.262 6.24306 12.3069 6.95047C12.3478 7.59302 12.0315 7.94822 11.5017 8.20664C11.9507 6.79183 11.6624 5.37401 11.7192 3.92627Z" fill="#F3F3F3"/>
<path d="M9.29957 3.93311H9.998C9.95314 4.12179 9.92246 4.31356 9.9062 4.50682C9.89423 5.07853 9.9062 5.65025 9.89922 6.22096C9.89922 6.49235 10.0209 6.62007 10.2814 6.59911C10.5677 6.57417 10.8521 6.52428 11.1434 6.48437C11.1374 6.72583 10.9858 6.8735 10.6695 6.86951C10.1856 6.86352 9.70166 6.86951 9.2866 6.86951C9.35588 5.89207 9.36022 4.91111 9.29957 3.93311Z" fill="#F3F3F3"/>
<path d="M14.0248 3.94592C13.9749 4.13585 13.9396 4.32931 13.9191 4.52462C13.9031 4.98359 13.9131 5.44455 13.9131 5.90451C13.9131 6.58099 14.3701 6.83941 14.9827 6.50816C15.0564 6.46098 15.1273 6.40968 15.1952 6.3545C15.1633 6.68575 15.0495 6.87533 14.7073 6.86934C14.2234 6.86136 13.7395 6.86934 13.2865 6.86934C13.3953 5.89888 13.4013 4.91965 13.3045 3.94792L14.0248 3.94592Z" fill="#F3F3F3"/>
<path d="M8.17017 16.6285L8.73989 17.0486L8.51739 17.7101H7.81896L7.60245 17.0456C7.77107 16.9199 7.98459 16.7622 8.17017 16.6285Z" fill="#F3F3F3"/>
<path d="M12.3607 20.7534H11.6384L11.4388 20.0799L12.0035 19.6609L12.5693 20.0879L12.3607 20.7534Z" fill="#F3F3F3"/>
<path d="M14.5796 18.6748L14.3452 19.3353H13.6467C13.5909 19.1437 13.517 18.8933 13.4472 18.6658L14.0089 18.2438C14.1815 18.3735 14.3821 18.5261 14.5796 18.6748Z" fill="#F3F3F3"/>
<path d="M9.99006 18.2592L10.5648 18.6672C10.4939 18.8788 10.4141 19.1182 10.3423 19.3308H9.63086L9.42233 18.6662L9.99006 18.2592Z" fill="#F3F3F3"/>
<path d="M16.3936 17.0538L16.1681 17.7123H15.4637C15.4069 17.5227 15.332 17.2733 15.2642 17.0368L15.8359 16.6377L16.3936 17.0538Z" fill="#F3F3F3"/>
</svg>
