<svg width="25" height="14" viewBox="0 0 25 14" fill="none" xmlns="http://www.w3.org/2000/svg">
<path d="M2.56932 9.69526C3.70541 7.48394 4.71978 5.69865 4.82122 5.75951C5.08495 5.92181 6.60651 8.23457 6.60651 8.45774C6.60651 8.57946 6.40363 9.08664 6.16019 9.59383C5.91674 10.0807 5.77472 10.5473 5.83559 10.6082C5.89645 10.6691 6.82967 10.6893 7.9049 10.6691L9.87278 10.6082L7.7426 7.46365C6.56593 5.73923 5.653 4.29882 5.69358 4.25825C5.75444 4.1771 17.3994 12.9615 18.0689 13.5702C18.1703 13.6716 14.4577 13.7527 9.3656 13.7527H0.5L2.56932 9.69526Z" fill="#F3F3F3"/>
<path d="M10.8059 6.30723C6.48467 3.00038 2.99524 0.261581 3.03581 0.221007C3.07639 0.180432 5.51087 1.33681 8.45254 2.8178C11.3942 4.27849 14.7416 5.92177 15.898 6.46953L17.9673 7.44333L18.5759 6.24637C18.9208 5.57689 19.1846 4.94798 19.1846 4.82625C19.1846 4.68424 18.4948 4.62338 17.1964 4.64366L15.2082 4.66395L12.1854 3.1424L9.14231 1.60055H16.8109L24.4999 1.58026L21.7611 6.89557C20.2801 9.81696 18.9614 12.2312 18.86 12.2717C18.7585 12.292 15.1474 9.61408 10.8059 6.30723Z" fill="#F3F3F3"/>
</svg>
