<svg width="24" height="24" viewBox="0 0 24 24" fill="none" xmlns="http://www.w3.org/2000/svg">
<path d="M5.98633 8.99617C6.61678 8.63197 6.70369 8.61128 7.55211 8.59473C7.15067 9.17689 6.6899 9.35071 5.98633 8.99617Z" fill="#F3F3F3"/>
<path d="M10.5155 1.31199C10.8149 1.33544 11.1473 1.20162 11.5516 1.60031H8.84351C9.35946 1.26646 10.0092 1.70102 10.5155 1.31199Z" fill="#F3F3F3"/>
<path d="M13.1047 18.9689C13.7614 18.7868 14.4636 19.1068 15.1106 18.7951L15.6003 18.7854C15.7038 18.9813 15.5465 19.0172 15.4196 19.0723C14.6484 19.0475 13.8676 19.2062 13.1047 18.9689Z" fill="#F3F3F3"/>
<path d="M15.4197 19.072L15.6004 18.7851C15.7999 18.7351 16.0109 18.7612 16.1922 18.8582C15.9867 19.1617 15.7094 19.1355 15.4197 19.072Z" fill="#F3F3F3"/>
<path d="M23.8984 9.24297C23.6956 8.83739 23.337 8.58493 23.0114 8.29522C22.6458 7.96827 22.2706 7.64959 21.9271 7.30057C21.1821 6.5432 20.8621 5.6658 21.2635 4.62562C21.3463 4.41042 21.4015 4.23797 21.2221 4.0338C19.1321 1.73685 16.5689 0.360062 13.2428 0L14.294 0.664942C14.3451 1.05122 14.1299 0.892568 13.9602 0.82497C13.5739 0.711847 13.1697 0.629074 12.7931 0.481462C11.0066 -0.216589 9.318 0.0965683 7.51769 0.94499C8.62132 1.08295 9.58701 1.0319 10.5154 1.31195C10.7914 1.45818 10.6534 1.51336 10.4616 1.5382C9.92362 1.60441 9.3787 1.49543 8.84343 1.60028C6.67616 1.77548 4.52407 1.97551 3.16797 4.04621L4.92276 3.74823C5.41801 3.51509 5.95466 3.84342 6.41957 3.68063C6.37138 3.70745 6.3199 3.72786 6.26644 3.74133C6.13404 3.75933 6.01107 3.81985 5.91603 3.91378C5.73669 3.97172 5.55735 4.03104 5.37663 4.08622C3.31972 4.7084 1.35938 5.44646 0.755141 7.83445C0.744105 7.87446 0.730309 7.91171 0.716514 7.95172C0.960694 8.10347 1.11934 7.85515 1.32214 7.83583C1.34665 7.83376 1.37134 7.83671 1.39468 7.84451C1.41801 7.85232 1.43951 7.8648 1.45785 7.88121C1.47619 7.89761 1.49099 7.91759 1.50134 7.93991C1.51169 7.96224 1.51737 7.98644 1.51803 8.01104C1.17176 8.5532 0.475093 8.80428 0.33024 9.51888C0.0200432 10.9009 -0.0235019 12.3295 0.201942 13.7279C1.28489 19.8655 5.93672 23.066 10.263 23.7172C10.5154 23.7558 10.8783 23.6234 11.0204 24H11.1845C11.7722 23.7724 12.4027 24.0483 12.9931 23.8469C16.5606 23.6317 20.3475 21.3444 21.1324 19.6227C21.1104 19.6227 21.08 19.6117 21.0648 19.6227C20.7669 19.8131 20.473 20.0103 20.1737 20.198C17.5525 21.8438 14.6941 22.4259 11.6301 21.9734C11.437 21.9459 11.0107 22.0548 11.0783 21.6975C11.1335 21.4133 11.2452 20.9733 11.7501 21.034C11.9667 21.0602 12.1861 21.0754 12.404 21.085C14.8252 21.1995 17.1276 20.827 19.3446 19.4627C19.1896 19.4367 19.0326 19.4252 18.8755 19.4282C18.7189 19.4619 18.5642 19.5038 18.412 19.5537C16.561 20.0569 14.6219 20.1463 12.7324 19.8158C12.1061 19.7096 11.8508 19.4985 12.0757 18.8722L13.1187 18.9633C13.5114 19.0436 13.9152 19.0552 14.312 18.9978C14.5879 18.9715 14.959 19.2419 15.1245 18.7894C13.6663 18.5687 12.2454 18.3107 11.0038 17.3851C9.83119 16.5118 8.20056 17.0871 7.66668 18.5135C7.49423 18.9715 7.36594 19.0033 7.01691 18.7398C6.26782 18.1742 5.82084 17.4127 5.55045 16.5325C5.48009 16.3049 5.42215 16.0704 5.79877 15.9903C7.39353 15.6524 7.93017 13.921 6.84723 12.7098C6.27609 12.0683 5.60563 12.0366 4.83447 12.2242C4.1033 12.4008 4.83447 12.9953 4.44819 13.2975C3.98328 12.9884 4.04122 12.3649 3.67151 12.0172C3.06864 11.4516 3.31696 10.5825 2.92241 9.93827C2.83688 9.80031 2.97759 9.59752 3.139 9.54923C4.73238 9.07881 6.03743 7.84825 7.7798 7.69926C8.56908 7.63624 9.36133 7.61873 10.1526 7.64684C11.5749 7.6896 12.9476 8.1683 14.3837 8.0745C14.6913 8.0538 15.119 7.95999 15.2638 8.29522C15.4087 8.63045 15.0142 8.86636 14.7244 9.11192C16.0829 9.86731 17.3104 10.8372 18.3596 11.9841C19.1707 12.8574 19.5129 12.9181 20.5958 12.3759C20.8607 12.238 21.1062 12.0724 21.3615 11.9193C21.4042 11.5717 21.1297 11.6365 20.9379 11.5992L20.8565 11.5799C21.1441 11.6237 21.4382 11.5754 21.6967 11.442C22.3865 11.2171 23.0169 10.9246 23.3025 10.1755C23.428 9.83204 24.2282 9.90791 23.8984 9.24297ZM20.5627 6.09071C19.5708 6.05208 19.3418 5.59683 19.2728 4.84911C19.7901 5.16365 20.0688 5.5651 20.5627 6.09071ZM20.7172 11.0847C20.4634 11.2861 20.4647 11.4668 20.7724 11.562C19.23 11.2061 18.2644 10.1438 17.518 8.82911C17.3884 8.59872 17.2642 8.29522 17.4739 8.06346C17.6836 7.8317 17.9898 7.99448 18.2244 8.11174C19.2687 8.63597 20.055 9.46094 20.8055 10.3273C21.0455 10.6032 21.0152 10.8474 20.7172 11.0847Z" fill="#F3F3F3"/>
<path d="M11.3253 1.91763H8.76489V1.85693H11.3239L11.3253 1.91763Z" fill="#F3F3F3"/>
<path d="M8.39771 7.22314H10.3291C9.69434 7.37583 9.03244 7.37583 8.39771 7.22314Z" fill="#F3F3F3"/>
<path d="M16.6241 20.2793C16.0446 20.4724 15.6722 20.6435 15.2266 20.2793H16.6241Z" fill="#F3F3F3"/>
<path d="M13.7657 20.8671H12.6814V20.7856H13.785L13.7657 20.8671Z" fill="#F3F3F3"/>
<path d="M14.5963 20.3252C14.2563 20.4312 13.892 20.4312 13.552 20.3252C13.8918 20.2178 14.2565 20.2178 14.5963 20.3252V20.3252Z" fill="#F3F3F3"/>
<path d="M9.18408 17.4141C9.64209 17.2761 9.89869 17.2871 10.1622 17.4141H9.18408Z" fill="#F3F3F3"/>
</svg>
