<svg width="24" height="24" viewBox="0 0 24 24" fill="none" xmlns="http://www.w3.org/2000/svg">
<path d="M7.76204 15.7995C8.12993 16.1549 8.63189 16.2422 9.05071 16.4958C9.11618 16.5363 9.17126 16.6361 9.25856 16.5997C9.38223 16.5446 9.21906 16.4386 9.31052 16.344C9.54019 16.4687 9.8239 16.5301 10.0297 16.7452C10.171 16.8917 10.2905 17.0663 10.5212 17.0881C10.5867 17.0954 10.6002 17.1484 10.5753 17.2108C10.5005 17.3957 10.5545 17.482 10.7613 17.5121C10.9016 17.5441 11.0256 17.6257 11.1105 17.7418C11.389 18.0744 11.7527 18.3248 12.0313 18.6605C12.0676 18.7042 12.1352 18.7956 12.2069 18.7374C12.2599 18.6958 12.2672 18.6065 12.29 18.5368C12.4272 18.1211 12.1861 17.7501 12.1747 17.3542C12.1747 17.1931 11.998 17.1162 11.919 16.9884C12.2027 16.8065 12.2027 16.8065 11.9398 16.4594C12.1196 16.4168 12.2911 16.3648 12.4657 16.3388C12.6974 16.3035 12.6558 16.1777 12.5509 16.0676C12.4332 15.945 12.2984 15.84 12.1508 15.7558C12.0354 15.6883 11.972 15.6041 12.0469 15.5064C12.1217 15.4087 12.2235 15.5168 12.2911 15.5739C12.3971 15.6812 12.5293 15.7589 12.6746 15.7995C12.5873 15.2123 12.0167 14.8101 11.4711 14.9338C11.2207 14.9909 10.9775 15.0772 10.7083 15.0179C10.3498 14.94 10.0941 14.7768 10.0546 14.3944C10.488 14.2416 10.9255 14.1003 11.3942 14.1221C11.4209 14.1257 11.4479 14.1189 11.4696 14.103C11.4913 14.0871 11.506 14.0634 11.5106 14.0369C11.5171 14.0017 11.5121 13.9653 11.4964 13.9331C11.4807 13.901 11.4551 13.8747 11.4233 13.8581C11.2317 13.7418 11.025 13.6523 10.8091 13.5921C10.7161 13.5608 10.6308 13.5099 10.5591 13.4428C10.4874 13.3758 10.4309 13.2942 10.3934 13.2034C10.2423 12.8792 10.0487 12.5765 9.81767 12.3034C9.55578 12.0052 9.62333 11.6113 9.57968 11.2528C9.57951 11.2159 9.59083 11.1798 9.61206 11.1497C9.63329 11.1195 9.66338 11.0967 9.69816 11.0844C9.84469 11.0241 9.97148 10.9732 9.90601 10.7653C9.87379 10.6697 9.98395 10.6926 10.0359 10.6905C10.3841 10.6749 10.7332 10.6593 11.0814 10.6542C12.4885 10.6313 13.8926 10.6718 15.2976 10.7352C16.1113 10.7726 16.923 10.8329 17.7357 10.888C17.7617 10.888 17.7887 10.888 17.8157 10.888C18.0807 10.8953 18.2366 10.967 18.2688 11.2933C18.3995 12.5836 18.6078 13.8649 18.8924 15.1302C18.7001 15.0626 18.5681 14.9161 18.3811 14.8995C18.2636 14.888 18.1337 14.861 18.0693 14.9816C17.9851 15.1281 18.1867 15.1011 18.2148 15.1894C18.2428 15.2778 18.3478 15.3017 18.4226 15.3432C18.5453 15.4097 18.7105 15.4472 18.5962 15.6488C18.5421 15.7454 18.7001 15.7839 18.6668 15.8982C18.4902 15.8878 18.3104 15.682 18.1254 15.8982C18.0994 15.9283 18.0298 15.7849 18.0048 15.7163C17.9012 15.4158 17.7074 15.1545 17.4499 14.9681C17.401 14.9317 17.3626 14.8641 17.2961 14.9192C17.2296 14.9743 17.2753 15.0283 17.3086 15.0876C17.4364 15.3152 17.612 15.5241 17.6318 15.84C17.2254 15.5022 17.1838 14.9743 16.8565 14.6251C17.0727 15.0093 17.1805 15.445 17.1683 15.8857C16.8467 15.8359 16.5536 15.6726 16.3421 15.4253C16.2236 15.2965 16.0947 15.179 15.969 15.0574C15.8432 14.9358 15.7975 14.9535 15.7736 15.1302C15.7532 15.2261 15.7557 15.3254 15.7809 15.4201C15.8193 15.5345 15.8515 15.628 15.6769 15.6467C15.5938 15.656 15.6021 15.735 15.6104 15.7974C15.6176 15.9137 15.6671 16.0234 15.7496 16.1058C15.8322 16.1881 15.942 16.2374 16.0583 16.2443C16.1026 16.2493 16.1461 16.2591 16.1882 16.2734C16.2392 16.291 16.3036 16.3139 16.2922 16.3773C16.2807 16.4407 16.2194 16.4407 16.1664 16.449C16.0802 16.4604 15.9523 16.3866 15.9305 16.5425C15.9128 16.6714 16.0251 16.6932 16.1093 16.7441C16.5125 16.9873 16.525 17.509 16.1342 17.8208C15.3776 18.4236 14.6564 19.0679 13.9622 19.7403C13.268 20.4127 12.6008 21.137 12.0749 21.9664C12.0084 22.0703 11.971 22.1077 11.8962 21.9809C11.0887 20.6881 9.97356 19.6769 8.84805 18.6792C8.5581 18.4225 8.43859 18.0775 8.24321 17.773C8.22644 17.7516 8.2173 17.7253 8.21723 17.6982C8.27959 17.3396 8.28686 17.3344 8.07693 17.033C7.87199 16.7276 7.74987 16.3741 7.72255 16.0073C7.72255 15.9543 7.71528 15.9034 7.71216 15.8493L7.76204 15.7995ZM12.105 13.0423C12.105 12.9259 12.105 12.8106 12.105 12.6942C12.105 12.6485 12.0967 12.5996 12.0437 12.5903C11.9907 12.5809 11.9398 12.6287 11.9398 12.6859C11.9398 12.8397 11.9066 12.9363 11.7143 12.9311C11.5418 12.9311 11.5002 12.847 11.5064 12.6994C11.5064 12.6443 11.4857 12.5871 11.415 12.5955C11.3443 12.6038 11.3547 12.6744 11.3547 12.7254C11.3547 12.9124 11.3547 13.0995 11.3547 13.2866C11.3547 13.3479 11.3017 13.4487 11.4181 13.4528C11.522 13.4528 11.522 13.3603 11.5096 13.2918C11.4909 13.112 11.5522 13.034 11.7465 13.0371C11.9544 13.0371 11.9346 13.1754 11.9377 13.3094C11.9377 13.3832 11.9492 13.4653 12.0479 13.4539C12.1466 13.4424 12.104 13.3603 12.105 13.3032C12.1071 13.2169 12.1061 13.1276 12.105 13.0392V13.0423ZM16.6403 13.3229C16.7347 13.3178 16.8233 13.2759 16.887 13.2061C16.9508 13.1363 16.9846 13.0443 16.9812 12.9498C16.9699 12.8609 16.9255 12.7794 16.8569 12.7215C16.7883 12.6637 16.7005 12.6338 16.6109 12.6377C16.5213 12.6417 16.4364 12.6791 16.3731 12.7427C16.3098 12.8063 16.2728 12.8914 16.2693 12.981C16.2736 13.0751 16.3151 13.1637 16.3847 13.2272C16.4543 13.2907 16.5462 13.324 16.6403 13.3198V13.3229ZM12.3119 12.6381C12.3285 12.8916 12.2152 13.1161 12.4262 13.2751C12.4816 13.3125 12.5476 13.3311 12.6144 13.3281C12.6812 13.3251 12.7453 13.3007 12.7972 13.2585C12.9136 13.0943 12.8731 12.8823 12.818 12.6599C12.687 12.7638 12.7421 12.8771 12.7265 12.9717C12.7109 13.0662 12.7369 13.2304 12.5623 13.2201C12.4116 13.2117 12.4345 13.0808 12.4231 12.9758C12.4116 12.8709 12.4729 12.7607 12.3119 12.635V12.6381ZM14.8185 12.344C14.9152 12.2484 14.8933 12.0457 15.0264 12.0426C15.176 12.0426 15.043 12.2702 15.1989 12.344C15.1708 12.1455 15.2176 11.8888 15.0721 11.8181C14.9079 11.7381 14.9453 12.0488 14.7998 12.1133C14.6959 12.0582 14.6959 11.9335 14.6335 11.8534C14.5712 11.7734 14.5067 11.7495 14.4787 11.8534C14.4392 12.0083 14.3748 12.1652 14.4267 12.3481C14.5618 12.2619 14.4174 12.0426 14.5712 12.0363C14.7032 12.0363 14.6751 12.2442 14.779 12.3221C14.7917 12.3294 14.8049 12.3356 14.8185 12.3408V12.344ZM13.7471 12.0062C13.9268 12.0467 13.9663 12.3294 14.1316 12.2494C14.2158 12.2089 14.1877 11.9698 14.142 11.8212C14.142 11.8212 14.1264 11.8212 14.1056 11.8108C13.985 11.8493 14.117 12.0249 13.9445 12.0779C13.8884 12.0104 13.825 11.922 13.7491 11.8462C13.6951 11.7911 13.6057 11.7537 13.5964 11.8721C13.5829 12.0395 13.5413 12.2161 13.6307 12.399C13.7647 12.2806 13.6566 12.1195 13.7471 12.0062ZM15.7684 11.9657C15.8578 12.0696 15.9284 12.1621 16.0074 12.2442C16.0479 12.2858 16.1332 12.3481 16.1446 12.2442C16.1612 12.1029 16.2121 11.9449 16.1009 11.79C16.0064 12.1018 16.0064 12.1018 15.7892 11.894C15.7661 11.8671 15.7404 11.8427 15.7123 11.8212C15.653 11.7828 15.6011 11.8067 15.599 11.8721C15.599 12.0436 15.5574 12.2182 15.6271 12.4011C15.7757 12.2837 15.653 12.1247 15.7684 11.9657V11.9657ZM15.6832 13.2803C15.8131 13.2107 15.6946 12.9987 15.9128 12.9904C16.1311 12.9821 16.0396 13.2128 16.1851 13.2845C16.216 13.0772 16.21 12.8661 16.1675 12.6609C15.971 12.9997 15.8765 12.9987 15.6717 12.6443C15.6374 12.8781 15.6104 13.0694 15.6832 13.2803ZM14.3249 12.8958C14.488 12.9509 14.5462 13.2159 14.7042 13.1369C14.8081 13.086 14.751 12.8615 14.7385 12.7129C14.7385 12.7035 14.7125 12.6952 14.6948 12.6838C14.5774 12.7295 14.673 12.8729 14.5785 12.9343C14.4641 12.9 14.4163 12.7815 14.3249 12.7171C14.2594 12.6693 14.1835 12.635 14.1731 12.7514C14.148 12.9326 14.1547 13.1169 14.1929 13.2959C14.3394 13.1681 14.2282 13.0101 14.3197 12.8958H14.3249ZM16.8191 12.4053C16.8635 12.1967 16.861 11.9809 16.8118 11.7734C16.7307 11.8919 16.7318 12.0166 16.5738 12.0187C16.4158 12.0208 16.4356 11.8607 16.2922 11.8108C16.3556 12.0093 16.2631 12.1891 16.3587 12.3814C16.4366 12.266 16.3774 12.0987 16.578 12.0977C16.7785 12.0966 16.7131 12.2712 16.818 12.4053H16.8191ZM17.6016 13.2886C17.584 13.0621 17.4728 12.8916 17.3813 12.715C17.3767 12.6993 17.3671 12.6855 17.354 12.6757C17.3408 12.6659 17.3249 12.6606 17.3086 12.6606C17.2922 12.6606 17.2763 12.6659 17.2631 12.6757C17.25 12.6855 17.2404 12.6993 17.2358 12.715C17.1414 12.8931 17.0794 13.0867 17.0529 13.2866C17.242 12.9675 17.242 12.9675 17.6006 13.2886H17.6016ZM13.9986 13.2554C13.5829 13.2772 13.9029 12.9769 13.8032 12.848C13.7159 12.7358 13.9507 12.7856 13.984 12.6557C13.8676 12.6557 13.72 12.5986 13.6722 12.7004C13.5995 12.8728 13.5973 13.0668 13.666 13.2408C13.7086 13.35 13.8593 13.3209 13.9975 13.2554H13.9986ZM17.7554 13.0028C17.7554 13.1068 17.7554 13.2169 17.7554 13.324C17.7554 13.378 17.7554 13.4414 17.8303 13.4435C17.9051 13.4456 17.9124 13.3832 17.9124 13.3292C17.9124 13.1213 17.9124 12.9187 17.9124 12.7139C17.9124 12.6578 17.8988 12.5975 17.8334 12.5944C17.7679 12.5913 17.7544 12.6547 17.7533 12.7087C17.7523 12.8064 17.7544 12.9052 17.7544 13.0028H17.7554ZM15.042 12.6589C15.3537 12.7898 15.095 13.1172 15.2799 13.297C15.3963 13.0891 15.2134 12.8137 15.5398 12.6589H15.042ZM13.2815 12.4188C13.1775 12.2899 13.0653 12.2047 13.2378 12.107C13.2576 12.0956 13.3012 12.0738 13.269 12.054C12.9645 11.8638 13.3802 11.9023 13.348 11.7817C13.2347 11.8098 13.0362 11.6778 13.0539 11.9148C13.0643 12.0758 12.8845 12.3544 13.2804 12.4188H13.2815ZM12.3576 11.6778C12.2287 12.0582 12.2932 12.3762 12.5114 12.3866C12.3223 12.1829 12.5176 11.9044 12.3576 11.6778ZM13.0175 12.688C13.1126 12.8711 13.1872 13.0642 13.2399 13.2637C13.4166 12.9675 13.2202 12.8272 13.0206 12.688H13.0175ZM12.8585 11.7526C12.7799 11.9671 12.7825 12.203 12.8658 12.4157C12.9447 12.2011 12.9432 11.9652 12.8616 11.7516L12.8585 11.7526Z" fill="#F3F3F3"/>
<path d="M13.5724 6.63125C15.2259 6.70296 16.9282 6.73517 18.618 6.96693C19.1937 7.04591 19.7767 7.07085 20.3546 7.14152C20.5624 7.1675 20.5832 7.24544 20.5531 7.42211C20.3681 8.48907 20.1869 9.55707 20.0095 10.6261C19.9846 10.7778 19.9212 10.8641 19.7632 10.8277C19.2717 10.7124 18.7593 10.7654 18.2688 10.6199C18.01 10.5398 17.719 10.5575 17.4426 10.543C16.3348 10.4837 15.228 10.4099 14.117 10.3808C12.9084 10.3486 11.6997 10.3382 10.4921 10.359C9.03717 10.385 7.5895 10.4058 6.15223 10.6012C5.52868 10.6864 4.89162 10.7186 4.26704 10.8288C4.11946 10.8547 3.99268 10.8693 3.95526 10.651C3.79106 9.57993 3.61647 8.50951 3.43148 7.43978C3.39511 7.23193 3.43772 7.16646 3.65804 7.13632C5.7643 6.86706 7.88299 6.70611 10.0058 6.65411C11.1791 6.61462 12.3576 6.62397 13.5724 6.63125ZM9.62954 7.93342C9.71164 8.23272 9.69813 8.49877 9.72515 8.75858C9.73451 8.84796 9.73659 8.94461 9.86857 8.93941C10.0006 8.93421 9.98497 8.82509 9.97977 8.74195C9.95898 8.38445 9.933 8.02695 9.90598 7.67049C9.89767 7.5728 9.89767 7.46264 9.75425 7.46264C9.63474 7.46264 9.52666 7.45641 9.4695 7.60086C9.39779 7.78065 9.35622 8.10178 9.22632 8.0997C9.03717 8.0997 9.00704 7.7952 8.91454 7.61853C8.8894 7.5662 8.84678 7.52428 8.79404 7.49999C8.7413 7.47571 8.68174 7.47059 8.62563 7.48551C8.46247 7.50421 8.49365 7.631 8.49365 7.73181C8.49365 8.06333 8.48741 8.39485 8.49365 8.72636C8.49365 8.83029 8.44273 8.99241 8.63291 8.98202C8.79503 8.97267 8.75034 8.82821 8.75242 8.72948C8.75242 8.4863 8.75242 8.24416 8.75242 8.00201L8.82829 7.99162C8.90207 8.14127 8.97378 8.29196 9.04861 8.44057C9.08498 8.51332 9.12863 8.58503 9.22528 8.58399C9.32193 8.58295 9.35103 8.50085 9.3874 8.4281C9.4643 8.28053 9.48405 8.10905 9.62954 7.93342ZM14.54 8.47383C14.4412 8.42602 14.4361 8.33977 14.3966 8.26598C14.2864 8.0415 14.169 7.81911 14.0671 7.59047C13.9975 7.43147 13.8759 7.41588 13.7356 7.43978C13.5953 7.46368 13.6317 7.58735 13.6317 7.67777C13.6161 8.0176 13.6057 8.35743 13.5953 8.6983C13.5953 8.80223 13.5652 8.9311 13.7314 8.93421C13.8977 8.93733 13.8582 8.81678 13.8634 8.72636C13.8759 8.47175 13.8884 8.21714 13.9019 7.95317C14.0287 7.98954 14.0349 8.09035 14.0744 8.16102C14.1856 8.3751 14.301 8.58918 14.3986 8.8095C14.4641 8.95915 14.5774 8.96747 14.7104 8.95292C14.8434 8.93837 14.8289 8.8199 14.832 8.72636C14.8434 8.38653 14.8559 8.04566 14.8601 7.70583C14.8601 7.62269 14.9307 7.4907 14.7645 7.47719C14.5982 7.46368 14.6169 7.59982 14.6065 7.70063C14.5764 7.95421 14.6086 8.21298 14.54 8.47383ZM15.7019 9.03294C16.0791 9.03294 16.2371 8.92902 16.2651 8.64323C16.2932 8.35743 16.1685 8.20986 15.8068 8.13503C15.7455 8.12152 15.6821 8.11945 15.6218 8.10386C15.4992 8.07164 15.3558 8.03839 15.3807 7.87315C15.4057 7.70791 15.5553 7.7183 15.6811 7.72246C15.8068 7.72661 15.9502 7.73597 16.0136 7.89393C16.0194 7.9136 16.0293 7.93179 16.0427 7.94728C16.0561 7.96276 16.0727 7.97517 16.0913 7.98366C16.11 7.99214 16.1302 7.9965 16.1507 7.99644C16.1712 7.99638 16.1914 7.9919 16.21 7.98331C16.314 7.9407 16.2734 7.84613 16.2537 7.77546C16.2425 7.71782 16.2149 7.66467 16.1741 7.62242C16.1334 7.58018 16.0812 7.55067 16.024 7.53747C15.8595 7.49341 15.6887 7.4776 15.5189 7.4907C15.2934 7.51565 15.1261 7.59463 15.1126 7.86379C15.0991 8.13296 15.23 8.26494 15.468 8.32418C15.5886 8.35432 15.7143 8.36783 15.8349 8.40004C15.8836 8.40837 15.9275 8.43438 15.9582 8.47308C15.9889 8.51178 16.0042 8.56045 16.0013 8.60977C15.9983 8.65908 15.9773 8.70557 15.9421 8.74031C15.907 8.77506 15.8603 8.79563 15.811 8.79807C15.6114 8.80743 15.3797 8.86147 15.3277 8.56216C15.3121 8.47279 15.2571 8.44681 15.1739 8.45824C15.0617 8.46759 15.0534 8.54761 15.0554 8.63179C15.0549 8.70396 15.0764 8.77457 15.1171 8.83418C15.1577 8.8938 15.2156 8.93957 15.283 8.96539C15.4157 9.01797 15.5583 9.04102 15.7008 9.03294H15.7019ZM13.3812 8.14023C13.3812 8.05086 13.3812 7.96148 13.3812 7.87211C13.3947 7.76843 13.3671 7.66359 13.3044 7.57993C13.2417 7.49627 13.1488 7.44039 13.0455 7.42419C12.687 7.33274 12.2848 7.4138 12.1788 7.61126C12.1491 7.66601 12.132 7.72674 12.1289 7.78897C12.1289 8.03942 12.1196 8.29092 12.1289 8.54034C12.1352 8.74819 12.2547 8.86147 12.4553 8.91031C13.1162 9.07139 13.3823 8.8677 13.3823 8.19427L13.3812 8.14023ZM18.8892 7.73804C18.7198 7.68608 18.6512 7.80456 18.6377 8.01552C18.6169 8.346 18.5774 8.67544 18.5494 9.00592C18.5411 9.09945 18.5026 9.21377 18.6533 9.23455C18.804 9.25534 18.8258 9.12439 18.8175 9.02047C18.7926 8.72117 18.9391 8.66505 19.1916 8.73052C19.2442 8.74221 19.2979 8.74813 19.3517 8.74819C19.6583 8.76274 19.8058 8.62971 19.8422 8.30859C19.8786 7.98746 19.7726 7.86067 19.4598 7.80871C19.2935 7.78065 19.1231 7.7661 18.8892 7.73804V7.73804ZM10.2323 8.17868H10.225C10.2354 8.38653 10.2448 8.59438 10.2552 8.79495C10.2552 8.8729 10.2801 8.94149 10.3747 8.93629C10.3927 8.93633 10.4106 8.93266 10.4272 8.92551C10.4438 8.91837 10.4587 8.90789 10.4711 8.89474C10.4834 8.88159 10.493 8.86604 10.4991 8.84906C10.5052 8.83207 10.5078 8.81401 10.5067 8.79599C10.515 8.66609 10.4381 8.50293 10.5555 8.41563C10.6729 8.32833 10.833 8.39796 10.9712 8.3803C11.0416 8.37299 11.1111 8.35943 11.1791 8.33977C11.2488 8.31984 11.3103 8.27792 11.3543 8.22024C11.3983 8.16257 11.4225 8.09222 11.4233 8.01968C11.4347 7.83365 11.4711 7.61853 11.2778 7.50837C10.966 7.3265 10.5981 7.38886 10.2863 7.47512C10.1097 7.525 10.2448 7.8295 10.2281 8.0176C10.2281 8.0706 10.2323 8.12464 10.2323 8.17868V8.17868ZM6.89113 8.37198H6.8849C6.87346 8.17453 6.86099 7.97811 6.84956 7.78169C6.84333 7.67777 6.81527 7.60294 6.69264 7.6123C6.57 7.62165 6.58144 7.70687 6.58871 7.78897C6.59599 7.87107 6.60118 7.95005 6.6043 8.03007C6.60742 8.11009 6.63028 8.21194 6.51908 8.22649C6.34345 8.24831 6.15119 8.29196 5.98907 8.24519C5.82694 8.19843 5.91216 7.99474 5.88514 7.86275C5.88356 7.84512 5.88356 7.82738 5.88514 7.80975C5.87787 7.72349 5.83422 7.67881 5.74484 7.68816C5.72664 7.68828 5.70869 7.69241 5.69227 7.70026C5.67585 7.70811 5.66137 7.71949 5.64985 7.73359C5.63834 7.74768 5.63008 7.76415 5.62566 7.7818C5.62124 7.79946 5.62077 7.81788 5.62429 7.83573C5.65963 8.2452 5.69773 8.655 5.73861 9.06516C5.7378 9.0833 5.74137 9.10136 5.74901 9.11783C5.75664 9.13431 5.76813 9.1487 5.78249 9.1598C5.79686 9.17091 5.81368 9.1784 5.83155 9.18164C5.84941 9.18488 5.86779 9.18378 5.88514 9.17844C5.9766 9.16493 6.0005 9.10569 5.98907 9.02463C5.97867 8.90823 5.96724 8.79288 5.95789 8.67648C5.95061 8.59126 5.95789 8.52787 6.06181 8.49461C6.49206 8.35951 6.63028 8.44473 6.67185 8.88641C6.67289 8.90406 6.67289 8.92176 6.67185 8.93941C6.67185 9.02878 6.69679 9.10153 6.80591 9.09841C6.91503 9.0953 6.9379 9.02567 6.93166 8.93317C6.91711 8.74715 6.9036 8.56009 6.89113 8.37198ZM17.4675 8.75235C17.4675 8.8095 17.4613 8.84484 17.4603 8.88121C17.4603 8.98514 17.4052 9.12024 17.5715 9.12959C17.7201 9.13894 17.6941 9.00176 17.7024 8.91135C17.7357 8.55489 17.7616 8.19843 17.7928 7.84197C17.8022 7.74636 17.8032 7.65802 17.6806 7.63412C17.534 7.61126 17.5517 7.72557 17.5455 7.80871C17.5112 8.23792 17.5663 8.22441 17.0955 8.20155C16.8492 8.18908 16.7775 8.09762 16.8201 7.87315C16.8279 7.81104 16.8279 7.74819 16.8201 7.68608C16.8209 7.66798 16.8175 7.64993 16.8104 7.63328C16.8032 7.61664 16.7924 7.60182 16.7787 7.58994C16.765 7.57806 16.7488 7.56941 16.7313 7.56464C16.7139 7.55988 16.6955 7.55911 16.6777 7.56241C16.5998 7.56241 16.5738 7.61645 16.5665 7.68712C16.5395 8.09728 16.5132 8.50778 16.4875 8.91862C16.4823 9.00176 16.5145 9.05892 16.6081 9.05788C16.626 9.05984 16.6442 9.0579 16.6614 9.05219C16.6785 9.04649 16.6942 9.03715 16.7075 9.02482C16.7207 9.0125 16.7311 8.99746 16.738 8.98075C16.7448 8.96404 16.748 8.94604 16.7473 8.92798C16.7536 8.81262 16.7588 8.69623 16.7671 8.57983C16.7671 8.52787 16.7608 8.44993 16.8159 8.43746C17.009 8.40033 17.2082 8.40995 17.3969 8.46551C17.5538 8.50916 17.4499 8.66817 17.4675 8.75235ZM4.75236 9.30314C4.88653 9.30551 5.02032 9.288 5.14936 9.25118C5.37903 9.19922 5.47048 9.04333 5.47152 8.81886C5.47152 8.74091 5.47152 8.64323 5.36136 8.63595C5.2512 8.62868 5.21899 8.69415 5.2221 8.7908C5.22634 8.84028 5.21405 8.88976 5.18716 8.93151C5.16027 8.97326 5.12029 9.00491 5.07349 9.02151C4.70872 9.18155 4.4832 9.05269 4.44994 8.66297C4.44163 8.55905 4.42916 8.46655 4.42188 8.36886C4.41149 8.22441 4.38759 8.06541 4.57985 8.02176C4.77211 7.97811 4.97165 7.89081 5.11922 8.10074C5.17949 8.18492 5.22834 8.293 5.34162 8.21298C5.45489 8.13296 5.37279 8.02072 5.32499 7.9303C5.29849 7.88309 5.2607 7.84319 5.21499 7.81417C5.16929 7.78515 5.1171 7.76792 5.0631 7.76402C4.83989 7.7335 4.6126 7.75812 4.4011 7.83573C4.32642 7.85633 4.26131 7.90243 4.21708 7.96602C4.17285 8.02962 4.15228 8.1067 4.15896 8.18388C4.17454 8.41563 4.19325 8.64842 4.22755 8.87705C4.27535 9.21481 4.38655 9.30211 4.75236 9.30314ZM7.18004 9.08283C7.22705 9.08165 7.27206 9.06355 7.3068 9.03186C7.34155 9.00017 7.3637 8.95701 7.36918 8.91031C7.39932 8.7326 7.5126 8.68791 7.67576 8.68168C7.87114 8.67336 8.05197 8.65466 8.11432 8.90823C8.13927 9.01216 8.23695 9.0319 8.33464 9.00592C8.40843 8.98721 8.40219 8.93421 8.37725 8.87913C8.19019 8.46344 8.0104 8.04774 7.80879 7.63204C7.7966 7.59996 7.77442 7.57265 7.74553 7.55413C7.71663 7.53562 7.68255 7.52688 7.64831 7.52921C7.61408 7.53154 7.58149 7.54481 7.55537 7.56707C7.52925 7.58933 7.51098 7.61939 7.50325 7.65283C7.35775 8.0758 7.23097 8.50501 7.09898 8.93317C7.07092 9.01008 7.0782 9.07867 7.18004 9.08283V9.08283ZM11.6301 8.16517C11.6301 8.36263 11.6301 8.56009 11.6301 8.7565C11.6301 8.84484 11.6519 8.92174 11.761 8.91862C11.8504 8.91862 11.8847 8.85731 11.8847 8.77521C11.8847 8.37198 11.8847 7.96876 11.8847 7.56553C11.8847 7.46888 11.8379 7.4138 11.7361 7.42004C11.6342 7.42627 11.6322 7.50006 11.6322 7.57488C11.6301 7.7713 11.6301 7.96876 11.6301 8.16517ZM18.3353 8.2109H18.3301C18.3395 8.11321 18.3509 8.01552 18.3571 7.91783C18.3634 7.82014 18.3945 7.70998 18.2532 7.69128C18.1119 7.67257 18.1098 7.78585 18.1015 7.88666C18.0713 8.25039 18.0402 8.61413 18.0059 8.97682C17.9975 9.06828 17.9799 9.16181 18.1098 9.17636C18.2397 9.19091 18.2522 9.10257 18.2615 9.008C18.2813 8.74195 18.3062 8.47695 18.3322 8.21298L18.3353 8.2109ZM12.1237 9.97969C12.1237 9.77184 12.1331 9.564 12.1237 9.36446C12.117 9.31563 12.0915 9.27133 12.0528 9.24089C12.014 9.21045 11.9649 9.19626 11.9159 9.2013C11.7881 9.2013 11.6436 9.14206 11.5355 9.25014C11.4597 9.32601 11.5168 9.88512 11.6072 9.99944C11.6893 9.90487 11.5729 9.69806 11.8088 9.68767C12.0447 9.67727 11.9782 9.87577 12.1237 9.97969ZM10.3373 10.0244C10.5451 10.0119 10.7072 9.96514 10.6896 9.75002C10.6761 9.58894 10.5368 9.54737 10.3944 9.53282C10.303 9.52346 10.1866 9.50372 10.2126 9.39252C10.2385 9.28132 10.3674 9.30418 10.463 9.33224C10.487 9.34373 10.5091 9.3588 10.5285 9.37693C10.5649 9.40187 10.6054 9.43617 10.6428 9.38732C10.6802 9.33848 10.6501 9.30003 10.6158 9.27093C10.5558 9.2239 10.484 9.19428 10.4083 9.1853C10.3326 9.17632 10.2559 9.18832 10.1866 9.22001C10.1428 9.23201 10.1053 9.2601 10.0814 9.29864C10.0575 9.33719 10.049 9.38334 10.0577 9.42785C10.0775 9.58062 10.1939 9.62323 10.3206 9.65129C10.3739 9.65704 10.426 9.67034 10.4755 9.69078C10.5794 9.74482 10.5711 9.81653 10.4755 9.86849C10.4361 9.89035 10.3911 9.89986 10.3462 9.89578C10.3014 9.8917 10.2588 9.87423 10.224 9.84563C10.1751 9.8103 10.1325 9.68974 10.0639 9.79055C10.0109 9.86849 10.0962 9.9402 10.1679 9.97554C10.2226 9.99616 10.2794 10.0108 10.3373 10.0192V10.0244ZM13.5974 9.18675C13.4217 9.18675 13.2783 9.21273 13.2524 9.37693C13.2264 9.54113 13.3376 9.61804 13.4872 9.64506C13.5226 9.65233 13.5579 9.65857 13.5911 9.66792C13.6587 9.68767 13.7512 9.69702 13.7283 9.79471C13.7055 9.8924 13.614 9.89863 13.5309 9.8924C13.4996 9.89017 13.4693 9.88121 13.4418 9.86614C13.4144 9.85107 13.3905 9.83025 13.3719 9.8051C13.3417 9.77184 13.3002 9.73755 13.2679 9.79055C13.2601 9.80546 13.256 9.82204 13.256 9.83887C13.256 9.85571 13.2601 9.87229 13.2679 9.8872C13.3656 10.0472 13.5226 10.0317 13.6743 10.0098C13.7036 10.0081 13.7322 10.0006 13.7586 9.98773C13.7849 9.97485 13.8084 9.95687 13.8278 9.93482C13.8471 9.91278 13.8619 9.88711 13.8712 9.85931C13.8805 9.83151 13.8843 9.80213 13.8821 9.77288C13.8769 9.62219 13.7668 9.56503 13.6317 9.54009C13.5454 9.52658 13.4446 9.54009 13.4072 9.43617C13.405 9.41953 13.4069 9.40262 13.4127 9.38688C13.4185 9.37113 13.428 9.35702 13.4405 9.34575C13.4788 9.32257 13.5232 9.31129 13.5679 9.31332C13.6127 9.31536 13.6559 9.33062 13.692 9.35719C13.7377 9.38525 13.7959 9.4715 13.8374 9.37174C13.8676 9.30522 13.8021 9.25534 13.7439 9.2304C13.6968 9.20927 13.6477 9.19291 13.5974 9.18155V9.18675ZM13.0923 9.60245C13.0757 9.5349 13.0268 9.54425 12.9884 9.53801C12.899 9.5245 12.7598 9.57751 12.7546 9.43409C12.7494 9.29067 12.8917 9.33848 12.979 9.32393C13.0341 9.31458 13.1058 9.34471 13.1308 9.26054C12.9458 9.18051 12.7005 9.17324 12.6361 9.24495C12.5716 9.31666 12.5737 9.93501 12.6361 9.97242C12.7134 10.0107 12.7983 10.0313 12.8846 10.0327C12.9708 10.0342 13.0564 10.0164 13.1349 9.98073C13.1173 9.94436 13.1141 9.92461 13.1027 9.91526C12.9988 9.83212 12.767 9.98073 12.7514 9.77704C12.7338 9.53594 13.0092 9.71469 13.0923 9.59413V9.60245ZM11.3734 9.96618C11.3503 9.93373 11.3186 9.9083 11.2819 9.89271C11.2452 9.87712 11.205 9.87198 11.1655 9.87785C11.0803 9.87161 10.966 9.89759 10.9629 9.76561C10.9598 9.63362 11.0606 9.6409 11.1552 9.63674C11.2082 9.63674 11.2819 9.66584 11.309 9.58062C11.2591 9.49644 11.1791 9.53698 11.1136 9.52866C11.0481 9.52035 10.9629 9.51203 10.9671 9.41434C10.9712 9.31665 11.0543 9.32081 11.1261 9.31042C11.1978 9.30003 11.2871 9.34264 11.3464 9.26157C11.1967 9.17012 10.9307 9.15765 10.8631 9.23352C10.8216 9.28132 10.8008 9.89967 10.8548 9.94228C11.0128 10.067 11.1791 10.0254 11.3734 9.96618ZM12.4459 9.61492C12.396 9.48709 12.5145 9.24391 12.3648 9.24391C12.2152 9.24391 12.2973 9.48293 12.2952 9.61284C12.2931 9.74275 12.2183 9.95995 12.3617 9.95995C12.5051 9.95995 12.4012 9.73443 12.4459 9.61492V9.61492Z" fill="#F3F3F3"/>
<path d="M7.98647 4.98108C7.71627 4.94679 7.47516 5.00499 7.24341 4.91561C7.12286 4.86885 7.09792 5.05279 6.99711 5.09644C7.05842 4.43444 7.2777 4.24634 7.93243 4.28999C8.34813 4.31805 8.45205 4.25569 8.6599 3.8348C8.45205 3.99692 8.29305 4.15592 8.03635 4.10916C8.0509 4.00523 8.1621 4.0177 8.20367 3.95535C8.20367 3.85142 8.06234 3.91066 8.03635 3.80258C8.32838 3.86909 8.4427 3.64877 8.6599 3.45443L7.8867 3.35986C7.95633 3.14162 8.19848 3.34219 8.27122 3.14266C8.06337 3.05952 8.09767 2.94832 8.23277 2.79659C8.25537 2.77389 8.27292 2.74667 8.28428 2.71672C8.29564 2.68677 8.30055 2.65475 8.29869 2.62278C8.29682 2.5908 8.28823 2.55957 8.27347 2.53114C8.25871 2.50271 8.23811 2.47772 8.21303 2.4578C8.1091 2.34868 8.24732 2.17408 8.17769 1.9548C8.05922 2.22085 7.84409 2.33516 7.71627 2.53158C7.65936 2.64438 7.56799 2.73611 7.45542 2.79347C7.43028 2.80224 7.408 2.81769 7.39098 2.83816C7.2231 3.15846 6.97174 3.42742 6.66351 3.61655C6.45566 3.75893 6.24781 3.89403 6.13557 4.13618C6.09816 3.93456 6.2977 3.84415 6.34342 3.65397C6.14774 3.7236 5.96457 3.82431 5.80094 3.95223C5.66272 4.05616 5.62115 4.01355 5.59932 3.86597C5.55983 3.60824 5.50579 3.35259 5.67415 3.1146C5.68142 3.10525 5.87161 2.94728 5.62634 2.99716C5.58477 3.00444 5.61179 2.92026 5.62634 2.88389C5.86953 2.30607 6.09504 1.72097 6.47645 1.21174C6.52653 1.13497 6.59977 1.07616 6.68555 1.04383C6.77132 1.0115 6.86516 1.00734 6.95346 1.03195C8.6412 1.31151 10.3331 1.57236 12.0458 1.56612C12.5737 1.56612 13.1006 1.5152 13.6285 1.4861C13.7075 1.4861 13.7875 1.45388 13.8634 1.50273C13.9673 1.56924 14.0785 1.76774 14.1492 1.47363C14.1596 1.42894 14.2365 1.42998 14.2656 1.46116C14.409 1.61809 14.6543 1.69707 14.6252 1.98078C14.6096 2.13667 14.674 2.29256 14.8029 2.46715C14.8174 2.29775 14.8257 2.18551 14.8372 2.07328C14.8372 2.03067 14.8559 1.95168 14.8663 1.95064C15.149 1.95064 15.0024 1.78333 14.9806 1.64718C15.2205 1.86404 15.4164 2.12516 15.5574 2.41623C15.6239 2.54821 15.6405 2.675 15.8504 2.60849C15.9814 2.56692 16.1092 2.66668 16.1736 2.80075C16.3638 3.1967 16.6538 3.55316 16.5374 4.04784C16.4885 4.25569 16.5374 4.4968 16.58 4.71504C16.6245 4.8839 16.6257 5.06125 16.5836 5.23072C16.5415 5.40019 16.4573 5.55631 16.3389 5.68465C16.2144 5.81854 16.138 5.99 16.1217 6.17206C16.2942 6.06813 16.4335 5.98811 16.5592 5.89666C16.7265 5.77611 16.8835 5.66803 17.1121 5.67218C17.1515 5.6735 17.1907 5.66593 17.2268 5.65006C17.2628 5.63418 17.2949 5.61039 17.3205 5.58046C17.3462 5.55052 17.3648 5.5152 17.3749 5.47711C17.3851 5.43902 17.3865 5.39914 17.3792 5.36041C17.37 5.32535 17.3682 5.28877 17.3739 5.25298C17.3796 5.21719 17.3928 5.18299 17.4124 5.15256C17.6889 5.57449 17.6982 6.17622 17.4415 6.49007C17.399 6.54725 17.342 6.5921 17.2765 6.62004C17.2109 6.64798 17.1391 6.658 17.0684 6.64907C15.0222 6.49526 12.9717 6.44122 10.9203 6.47656C9.69395 6.4963 8.46868 6.56697 7.24341 6.61374C7.13949 6.61374 7.01374 6.69064 6.95242 6.56801C6.92651 6.51462 6.91525 6.45531 6.91982 6.39614C6.92439 6.33697 6.9446 6.28008 6.9784 6.2313C7.16131 5.98292 7.26212 5.69505 7.3941 5.42172C7.44991 5.31864 7.54051 5.23871 7.64975 5.19621C7.76511 5.16191 7.89917 5.14425 7.98647 4.98108ZM15.3817 5.19933L15.4732 5.20452C15.4732 5.40406 15.4732 5.60463 15.4732 5.80417C15.4732 5.90809 15.467 6.01202 15.6135 6.01202C15.76 6.01202 15.7174 5.89354 15.7174 5.81144C15.7174 5.50798 15.7029 5.20348 15.6956 4.90002C15.6956 4.80753 15.6956 4.71504 15.5657 4.70672C15.4555 4.69841 15.3578 4.70049 15.2986 4.82831C15.2362 4.97277 15.1947 5.22739 15.0793 5.22323C14.9172 5.21699 14.9203 4.96238 14.8455 4.81792C14.8223 4.77454 14.7856 4.73985 14.741 4.71906C14.6964 4.69826 14.6463 4.69247 14.5982 4.70257C14.5275 4.70257 14.4724 4.7327 14.4693 4.80649C14.4527 5.17231 14.4371 5.53396 14.4256 5.90393C14.424 5.91709 14.4252 5.93045 14.4292 5.9431C14.4331 5.95575 14.4398 5.9674 14.4487 5.97726C14.4575 5.98711 14.4684 5.99495 14.4806 6.00023C14.4928 6.00551 14.5059 6.00811 14.5192 6.00786C14.5459 6.01284 14.5736 6.00774 14.5968 5.99354C14.62 5.97934 14.6372 5.95704 14.6449 5.93095C14.6647 5.8447 14.6657 5.75532 14.6792 5.66699C14.701 5.5111 14.6532 5.34378 14.7488 5.1536C14.8022 5.29947 14.8632 5.4424 14.9317 5.58177C15.0149 5.7335 15.124 5.73869 15.2092 5.58177C15.2778 5.46641 15.3256 5.33339 15.3817 5.19933ZM12.8117 5.49863L12.741 5.51733C12.6205 5.28974 12.4947 5.06526 12.3804 4.83455C12.3565 4.78068 12.3137 4.73745 12.2601 4.71312C12.2064 4.68878 12.1457 4.68502 12.0894 4.70257C11.9637 4.72439 11.9959 4.83871 11.9938 4.92185C11.9938 5.22635 11.9938 5.53084 11.9938 5.83534C11.9938 5.9216 11.9782 6.03072 12.1144 6.02968C12.2183 6.02968 12.2359 5.94239 12.2359 5.85717C12.2359 5.64932 12.2359 5.44147 12.2359 5.2014C12.2778 5.21917 12.3153 5.24571 12.3459 5.27924C12.3766 5.31278 12.3997 5.35251 12.4137 5.39574C12.502 5.56098 12.5903 5.72726 12.6724 5.89562C12.6954 5.94485 12.735 5.98447 12.7841 6.00763C12.8333 6.03078 12.889 6.03601 12.9416 6.02241C13.0871 6.00474 13.0611 5.88627 13.0632 5.79377C13.0632 5.48928 13.0632 5.18478 13.0632 4.88028C13.0632 4.79922 13.0632 4.70776 12.9509 4.70568C12.8387 4.70361 12.8138 4.79298 12.8148 4.88963C12.8127 5.0954 12.8117 5.29494 12.8117 5.49863ZM14.3082 5.90809C14.3082 5.88938 14.2978 5.8634 14.2885 5.83846L13.9164 4.83455C13.9052 4.79527 13.881 4.76095 13.8478 4.73718C13.8146 4.7134 13.7743 4.70157 13.7335 4.70361C13.6368 4.70361 13.5963 4.76908 13.5662 4.85014C13.4498 5.16191 13.3282 5.46745 13.218 5.77922C13.1931 5.84885 13.0912 5.94862 13.218 6.00786C13.3303 6.05878 13.4009 5.98707 13.4384 5.87795C13.4633 5.80417 13.4768 5.70648 13.5818 5.70959C13.7636 5.70959 13.9912 5.61918 14.0546 5.91744C14.0744 6.01202 14.1523 6.038 14.2427 6.02137C14.2947 6.00474 14.3124 5.96629 14.3082 5.90809V5.90809ZM9.83945 5.35833C9.83945 5.51941 9.83945 5.6805 9.83945 5.84054C9.83945 5.9216 9.83945 6.01721 9.95168 6.01929C10.1834 6.02553 10.4162 6.01929 10.648 6.01929C10.6619 6.02038 10.6759 6.01845 10.689 6.01361C10.7021 6.00878 10.714 6.00116 10.7239 5.99128C10.7338 5.9814 10.7414 5.9695 10.7462 5.95639C10.7511 5.94329 10.753 5.92929 10.7519 5.91537C10.7519 5.83327 10.6937 5.81144 10.6272 5.81144C10.5014 5.81144 10.3767 5.80313 10.252 5.81144C10.1273 5.81975 10.0577 5.7574 10.0587 5.6223C10.0598 5.4872 10.12 5.429 10.2551 5.43523C10.3705 5.44043 10.4869 5.43523 10.6033 5.43523C10.6187 5.43549 10.6339 5.43232 10.6479 5.42597C10.6619 5.41962 10.6743 5.41024 10.6843 5.39851C10.6942 5.38678 10.7014 5.37299 10.7054 5.35814C10.7094 5.34328 10.71 5.32773 10.7072 5.3126C10.701 5.24609 10.6553 5.22323 10.5971 5.22219C10.4931 5.22219 10.383 5.22219 10.2759 5.22219C10.1689 5.22219 10.0504 5.2357 10.0566 5.06942C10.0629 4.90314 10.1793 4.92185 10.2874 4.92081C10.3954 4.91977 10.5202 4.92081 10.6355 4.92081C10.6906 4.92081 10.7477 4.9021 10.7519 4.83559C10.7561 4.76908 10.6968 4.73167 10.6303 4.73167C10.5856 4.73167 10.5409 4.73167 10.4962 4.73167C9.84256 4.70153 9.84256 4.70153 9.84256 5.35833H9.83945ZM8.8584 5.56618L8.79604 5.57449C8.70147 5.32611 8.60482 5.07773 8.51337 4.82831C8.47595 4.72959 8.40944 4.67035 8.30552 4.71296C8.20159 4.75557 8.26083 4.83871 8.28266 4.90002C8.40217 5.22842 8.52688 5.55371 8.65055 5.88003C8.66007 5.91952 8.68253 5.95469 8.71436 5.97993C8.74619 6.00517 8.78556 6.01903 8.82618 6.01929C8.93011 6.01929 8.96232 5.95278 8.99246 5.87276C9.10989 5.56098 9.23357 5.25544 9.34269 4.94367C9.36867 4.87196 9.46012 4.76284 9.34269 4.70984C9.22525 4.65684 9.1525 4.75037 9.11301 4.86573C9.03195 5.10475 8.94673 5.33651 8.86152 5.57034L8.8584 5.56618ZM11.2487 5.46849C11.2487 5.60359 11.2487 5.73765 11.2487 5.87172C11.2487 5.94446 11.2549 6.02241 11.3526 6.02449C11.4503 6.02656 11.4887 5.9559 11.4898 5.86548C11.4898 5.64204 11.4981 5.41861 11.4898 5.19517C11.4825 5.02058 11.4991 4.88963 11.7246 4.91561C11.7995 4.92393 11.8774 4.90522 11.8774 4.81169C11.8774 4.71815 11.8067 4.69841 11.7288 4.69737C11.4783 4.69737 11.2279 4.69737 10.9774 4.69737C10.9026 4.69737 10.8247 4.70776 10.8205 4.80129C10.8143 4.92081 10.913 4.926 10.9889 4.91769C11.2175 4.89067 11.2684 5.00706 11.2476 5.20244C11.2451 5.2926 11.2479 5.38282 11.2559 5.47265L11.2487 5.46849ZM9.49961 5.376C9.49961 5.53604 9.49961 5.69608 9.49961 5.85613C9.49961 5.94654 9.52663 6.01825 9.63264 6.01617C9.73864 6.01409 9.74487 5.94239 9.74591 5.86652C9.74591 5.53673 9.74591 5.20729 9.74591 4.8782C9.74591 4.79298 9.73344 4.71088 9.61913 4.72023C9.50481 4.72959 9.50065 4.81065 9.50065 4.89483C9.49857 5.05487 9.49961 5.21491 9.49961 5.376Z" fill="#F3F3F3"/>
<path d="M19.5283 11.0387C19.1126 11.154 19.1074 11.154 19.1479 11.5583C19.3139 13.0633 19.5918 14.5539 19.9793 16.0177C20.0219 16.184 20.0053 16.2733 19.8546 16.3658C17.8884 17.5755 16.1892 19.1146 14.543 20.7151C13.721 21.5153 12.9405 22.3581 12.3824 23.3776C12.2972 23.5342 12.2148 23.6929 12.1351 23.8536C12.107 23.9087 12.0956 23.9908 12.0312 23.9991C11.9439 24.0095 11.9272 23.9139 11.893 23.8557C11.3432 22.8601 10.6459 21.985 9.8685 21.1536C8.637 19.8338 7.27663 18.6709 5.85182 17.5797C5.29686 17.1546 4.73047 16.7483 4.14122 16.3689C4.08176 16.3401 4.03572 16.2894 4.01268 16.2275C3.98964 16.1655 3.99139 16.0971 4.01755 16.0364C4.36884 14.5367 4.64425 13.0202 4.84271 11.4928C4.88324 11.2018 4.78451 11.0771 4.4956 11.0439C4.74814 10.9264 5.01523 10.9701 5.2688 10.9264C5.37273 10.9088 5.35922 11.0012 5.35402 11.0792C5.32804 11.4803 5.29167 11.8804 5.23347 12.2785C5.10356 13.1629 4.93313 14.039 4.73983 14.9109C4.68475 15.1551 4.62759 15.3993 4.559 15.6384C4.53004 15.7088 4.5286 15.7875 4.55497 15.8589C4.58135 15.9303 4.6336 15.9892 4.70137 16.0239C6.79954 17.4129 8.73528 19.0328 10.4723 20.8533C10.9764 21.3638 11.4123 21.9374 11.7693 22.5597C11.9335 22.8549 12.0218 22.8445 12.1975 22.5545C12.8096 21.5402 13.616 20.6839 14.463 19.8754C15.4678 18.9191 16.5264 18.0212 17.6337 17.1858C18.1361 16.782 18.6618 16.4083 19.2082 16.0665C19.4161 15.947 19.4691 15.8109 19.4088 15.5822C19.0269 14.1296 18.7542 12.6504 18.593 11.1571C18.5711 10.9493 18.6335 10.8807 18.8216 10.9316C19.0409 10.9898 19.2737 10.915 19.5283 11.0387Z" fill="#F3F3F3"/>
<path d="M4.43433 6.87661C4.45146 6.83532 4.47872 6.79901 4.5136 6.77103C4.54847 6.74306 4.58983 6.72433 4.63386 6.71656C5.07242 6.53678 5.0797 6.53782 5.04956 6.05041C4.97473 4.73542 4.78979 3.42901 4.49668 2.14492C4.47009 2.07367 4.46301 1.99661 4.47616 1.92171C4.48931 1.8468 4.52223 1.77676 4.57151 1.71883C5.00487 1.22935 5.43616 0.737786 5.85498 0.234791C5.91879 0.145563 6.00887 0.0784782 6.11264 0.0428949C6.21641 0.00731169 6.32869 0.00500449 6.43384 0.0362952C8.0852 0.359501 9.75007 0.616194 11.4378 0.675431C12.9031 0.727393 14.355 0.58086 15.8026 0.34703C16.4387 0.243105 17.0726 0.129827 17.7065 0.0113533C17.7629 -0.00490564 17.8229 -0.00367617 17.8786 0.0148793C17.9342 0.0334347 17.983 0.0684428 18.0183 0.115278C18.4832 0.64945 18.9495 1.18224 19.4171 1.71364C19.4594 1.75979 19.4886 1.81637 19.5018 1.87756C19.5149 1.93875 19.5115 2.00234 19.492 2.06178C19.2083 3.14156 19.0971 4.2442 19.0108 5.35411C18.9879 5.64822 18.9713 5.94337 18.9505 6.23851C18.9339 6.47546 18.9921 6.61056 19.229 6.66876C19.3289 6.68402 19.419 6.73727 19.4805 6.81737C19.1264 6.82939 18.7727 6.78233 18.434 6.67811C18.3301 6.65213 18.3685 6.53989 18.3737 6.46507C18.4538 5.09534 18.5754 3.72977 18.8622 2.38499C18.8943 2.28503 18.8973 2.17799 18.8708 2.0764C18.8443 1.97481 18.7894 1.88287 18.7125 1.81133C18.4184 1.51098 18.1472 1.18778 17.8811 0.861456C17.8296 0.794741 17.7587 0.745564 17.6782 0.72064C17.5976 0.695715 17.5114 0.696259 17.4311 0.722197C16.184 0.971616 14.9193 1.12231 13.6524 1.25429C12.263 1.39875 10.8808 1.32496 9.49546 1.16595C8.49778 1.05164 7.5053 0.908222 6.52113 0.714923C6.44861 0.69346 6.3712 0.695138 6.29967 0.719725C6.22815 0.744313 6.16606 0.790585 6.12206 0.852103C5.81964 1.21792 5.49851 1.5723 5.18674 1.92356C5.14635 1.9647 5.11749 2.01575 5.10308 2.07157C5.08867 2.12739 5.08921 2.18603 5.10464 2.24157C5.38138 3.64733 5.55505 5.07142 5.62426 6.50248C5.6357 6.71033 5.57646 6.77268 5.38316 6.78412C5.07138 6.80698 4.77104 6.84439 4.43433 6.87661Z" fill="#F3F3F3"/>
<path d="M8.03334 10.8445C7.98658 12.0209 7.68312 13.1859 8.20794 14.3124C7.9024 14.3498 7.80783 14.1908 7.69663 13.9767C7.36719 13.3428 7.30275 12.6465 7.16038 11.9679C7.13024 11.8276 7.15206 11.6021 6.96708 11.6093C6.79872 11.6156 6.88082 11.8276 6.86315 11.9502C6.83925 12.1092 6.8299 12.2703 6.81639 12.4303C6.81015 12.501 6.8247 12.5904 6.73325 12.6049C6.66258 12.6164 6.63971 12.5374 6.60542 12.4854C6.42355 12.2173 6.38614 11.9097 6.37159 11.5989C6.36224 11.3911 6.37159 11.1916 6.37159 10.9931C6.45681 10.9775 6.44953 11.0211 6.45265 11.0533C6.462 11.1282 6.43083 11.2321 6.54722 11.2425C6.58845 11.2418 6.62819 11.227 6.65979 11.2005C6.69138 11.174 6.71292 11.1375 6.72078 11.097C6.77482 10.8891 6.92862 10.8684 7.10218 10.8289C7.31003 10.7821 7.33185 10.8704 7.31003 11.0367C7.26579 11.3817 7.26579 11.731 7.31003 12.076C7.3277 12.2079 7.32458 12.3877 7.47943 12.3992C7.63427 12.4106 7.61349 12.2131 7.64155 12.1009C7.69919 11.821 7.73153 11.5365 7.7382 11.2508C7.73635 11.1601 7.76419 11.0714 7.81747 10.998C7.87076 10.9247 7.94656 10.8707 8.03334 10.8445V10.8445Z" fill="#F3F3F3"/>
<path d="M16.6497 1.12332C16.9178 1.1732 17.0248 1.33948 17.1953 1.40391C17.2462 1.29168 17.0799 1.24179 17.1412 1.10981C17.5569 1.53174 17.8635 2.04513 18.3613 2.38808C18.2387 2.08774 18.1243 1.78636 17.8999 1.54109C17.7741 1.40288 17.6577 1.2553 17.5382 1.11085C17.5039 1.07032 17.4623 1.02043 17.5133 0.970549C17.5243 0.958948 17.5376 0.949712 17.5524 0.943402C17.5671 0.937091 17.583 0.933838 17.599 0.933838C17.615 0.933838 17.6309 0.937091 17.6456 0.943402C17.6604 0.949712 17.6737 0.958948 17.6847 0.970549C18.0131 1.33844 18.3367 1.70876 18.6554 2.0815C18.6756 2.12136 18.6801 2.16737 18.6679 2.21037C18.5982 2.58346 18.5244 2.95655 18.4455 3.36289L16.6497 1.12332Z" fill="#F3F3F3"/>
<path d="M6.97215 16.3449C7.23673 16.7436 7.46523 17.1652 7.65494 17.6045C6.95345 17.1503 6.34549 16.7242 6.05554 15.9781C5.94007 15.6866 5.77401 15.4178 5.56501 15.1841C5.29585 14.8785 5.1649 14.5429 5.28857 14.1261C5.33326 13.9723 5.37587 13.9744 5.4746 14.0617C5.70012 14.2552 5.85901 14.5148 5.92875 14.8037C5.98081 15.0266 6.06556 15.2406 6.18025 15.4387C6.34445 15.7328 6.43902 16.0622 6.56581 16.3802C6.59156 16.4467 6.62248 16.5109 6.6583 16.5725C6.70611 16.6567 6.75495 16.7689 6.87342 16.7346C6.9919 16.7003 6.92331 16.5808 6.94305 16.5008C6.95345 16.4748 6.95345 16.4488 6.97215 16.3449Z" fill="#F3F3F3"/>
<path d="M17.0342 2.90674C18.1347 3.54899 18.5078 4.2879 18.1618 5.21179C18.008 4.77946 17.8614 4.38039 17.7263 3.98028C17.5809 3.57413 17.3441 3.20683 17.0342 2.90674Z" fill="#F3F3F3"/>
<path d="M5.49853 2.79863C5.39537 2.63633 5.34956 2.44415 5.3684 2.25277C5.38723 2.06139 5.46964 1.88183 5.60245 1.74276C5.80511 1.50269 6.01815 1.27094 6.226 1.03607C6.28212 0.973718 6.35694 0.899932 6.43385 0.964365C6.53154 1.04854 6.40579 1.09635 6.36318 1.14831C6.31416 1.22314 6.24693 1.28429 6.1678 1.32602C5.99321 1.38422 5.95372 1.51932 5.90383 1.66689C5.77289 2.04622 5.63571 2.42139 5.49853 2.79863Z" fill="#F3F3F3"/>
<path d="M6.41309 6.39049C6.29937 6.23638 6.22386 6.05748 6.19279 5.86849C6.16171 5.6795 6.17595 5.48584 6.23434 5.30343C6.3285 5.10212 6.45137 4.91554 6.59911 4.74951C6.5274 5.33773 6.32371 5.84592 6.41309 6.39049Z" fill="#F3F3F3"/>
<path d="M16.869 3.66016C17.0395 3.9605 17.1808 4.22551 16.9615 4.53C16.913 4.62643 16.8911 4.73406 16.8981 4.84178C16.9042 4.89686 16.8924 4.95244 16.8646 5.00033C16.8367 5.04822 16.7942 5.0859 16.7433 5.10782C16.7568 4.61003 16.6934 4.14548 16.869 3.66016Z" fill="#F3F3F3"/>
<path d="M7.91071 2.51465C7.70286 3.54246 7.34847 4.08807 6.80078 4.25227C6.80317 4.18747 6.824 4.12469 6.86081 4.07131C6.89763 4.01792 6.94891 3.97615 7.00863 3.95089C7.12483 3.89294 7.22742 3.81101 7.30965 3.71052C7.39187 3.61002 7.45186 3.49324 7.48565 3.36787C7.57792 3.06142 7.72166 2.77289 7.91071 2.51465V2.51465Z" fill="#F3F3F3"/>
<path d="M8.68587 12.6953L8.93945 13.7429C8.57467 13.4207 8.53726 13.2825 8.68587 12.6953Z" fill="#F3F3F3"/>
<path d="M5.83525 5.63365C5.72093 5.29902 5.78017 5.0101 5.71885 4.73574C5.71587 4.72702 5.71527 4.71767 5.7171 4.70864C5.71893 4.69961 5.72312 4.69123 5.72926 4.68436C5.73539 4.67748 5.74324 4.67237 5.752 4.66952C5.76077 4.66668 5.77013 4.66622 5.77913 4.66819C5.90696 4.69313 5.80407 4.80537 5.84772 4.86669C5.93709 4.87708 5.95164 4.74406 6.06908 4.769C5.96738 5.05026 5.88917 5.33947 5.83525 5.63365V5.63365Z" fill="#F3F3F3"/>
<path d="M7.30573 5.38721C7.18518 5.64078 7.09788 5.91618 6.82872 6.11468C6.76117 5.69482 7.1301 5.60441 7.30573 5.38721Z" fill="#F3F3F3"/>
<path d="M16.8262 12.9541C16.8262 13.1058 16.7639 13.2004 16.6257 13.1962C16.5965 13.1956 16.5677 13.189 16.5412 13.1769C16.5147 13.1647 16.4909 13.1472 16.4714 13.1255C16.4519 13.1037 16.4371 13.0782 16.4279 13.0505C16.4187 13.0228 16.4152 12.9935 16.4178 12.9645C16.4153 12.9378 16.4185 12.9109 16.4271 12.8855C16.4358 12.8601 16.4497 12.8369 16.4679 12.8172C16.4862 12.7976 16.5084 12.7821 16.533 12.7716C16.5577 12.7612 16.5843 12.7561 16.6111 12.7566C16.6386 12.7535 16.6665 12.7563 16.6928 12.7649C16.7191 12.7734 16.7433 12.7875 16.7637 12.8063C16.7841 12.825 16.8003 12.8479 16.811 12.8734C16.8218 12.8989 16.827 12.9264 16.8262 12.9541V12.9541Z" fill="#F3F3F3"/>
<path d="M13.1245 8.18587L13.1152 8.34592C13.0996 8.65769 13.0424 8.71589 12.7587 8.71381C12.4469 8.71381 12.3867 8.65042 12.3835 8.33449C12.3835 8.2368 12.3835 8.13807 12.3835 8.04038C12.3835 7.6621 12.5623 7.53323 12.9302 7.63612C12.9831 7.64741 13.0308 7.67602 13.0656 7.71743C13.1004 7.75884 13.1204 7.81068 13.1225 7.86475C13.1318 7.97075 13.1245 8.07883 13.1245 8.18587Z" fill="#F3F3F3"/>
<path d="M19.2363 8.49575C19.1063 8.45002 18.8393 8.56434 18.8943 8.22659C18.9172 8.09045 18.8943 7.93248 19.1095 7.99068C19.2893 8.0416 19.5854 7.92105 19.574 8.28167C19.5678 8.49783 19.4244 8.52485 19.2363 8.49575Z" fill="#F3F3F3"/>
<path d="M10.7914 8.13914C10.5514 8.1911 10.489 8.06535 10.489 7.85751C10.489 7.59251 10.6886 7.65902 10.834 7.64967C11.019 7.63304 11.1864 7.66526 11.1801 7.90635C11.1739 8.1807 10.9546 8.12251 10.7914 8.13914Z" fill="#F3F3F3"/>
<path d="M7.70067 7.96686C7.74016 8.05519 7.78277 8.14249 7.81706 8.23187C7.83993 8.29318 7.92099 8.37528 7.83473 8.41997C7.75442 8.45855 7.66285 8.46667 7.577 8.44283C7.45437 8.40542 7.5479 8.30773 7.5583 8.24018C7.5772 8.14759 7.60079 8.05602 7.62896 7.96582L7.70067 7.96686Z" fill="#F3F3F3"/>
<path d="M11.8287 9.31567C11.9139 9.31567 12.0033 9.33438 11.9846 9.44662C11.9658 9.55885 11.8661 9.56405 11.7746 9.56405C11.6832 9.56405 11.6375 9.52664 11.6375 9.43622C11.6375 9.29593 11.7424 9.32087 11.8287 9.31567Z" fill="#F3F3F3"/>
<path d="M13.7199 5.07349C13.8239 5.2221 13.8966 5.32914 13.8426 5.44969C13.8155 5.50893 13.6825 5.50373 13.6472 5.46112C13.5464 5.33953 13.668 5.23872 13.7199 5.07349Z" fill="#F3F3F3"/>
</svg>
