<svg width="25" height="24" viewBox="0 0 25 24" fill="none" xmlns="http://www.w3.org/2000/svg">
<g clip-path="url(#clip0_256_4527)">
<path d="M12.4954 22.158L12.5033 20.2693L14.1311 19.3369C15.0241 18.8232 15.7669 18.4202 15.7906 18.436C15.8064 18.4597 15.6484 18.681 15.435 18.9338C14.4551 20.1192 13.5148 21.6838 12.9221 23.1299C12.7403 23.5883 12.5665 23.9755 12.5428 23.9992C12.5191 24.0308 12.4954 23.2011 12.4954 22.158Z" fill="#F3F3F3"/>
<path d="M5.10677 19.6845C4.31654 19.321 3.98465 18.4281 4.35606 17.6536C4.49039 17.385 5.00404 16.9266 6.93219 15.3304C8.25186 14.2399 9.4293 13.3153 9.53993 13.2758C9.777 13.181 11.7051 13.1652 11.7051 13.26C11.6972 13.2916 11.1678 13.6156 10.5198 13.987L9.33447 14.6587V15.2909L9.32657 15.9231L8.0464 17.6932C6.9717 19.1788 6.70302 19.4949 6.41854 19.6529C5.99972 19.8742 5.54139 19.8821 5.10677 19.6845Z" fill="#F3F3F3"/>
<path d="M18.6985 19.6925C18.2955 19.5028 18.3271 19.5423 16.9205 17.5826L15.7352 15.9389V15.2988L15.7273 14.6588L14.5498 13.9871C13.9019 13.6157 13.3645 13.2917 13.3645 13.2601C13.3645 13.181 15.2215 13.1889 15.4823 13.268C15.585 13.2917 16.7467 14.2083 18.0663 15.2909C19.7258 16.658 20.5239 17.3613 20.6425 17.5826C20.8953 18.0251 20.8953 18.6573 20.6425 19.0682C20.2395 19.7241 19.3544 20.0007 18.6985 19.6925Z" fill="#F3F3F3"/>
<path d="M11.2074 18.8233L9.8877 18.0568V16.5475V15.0303L11.2074 14.2716L12.5191 13.5051L13.7124 14.1926C14.3683 14.5719 14.9688 14.9354 15.0479 14.9987C15.1743 15.1093 15.1822 15.2673 15.1664 16.587L15.1427 18.0568L13.9574 18.7522C13.3094 19.1315 12.7167 19.4792 12.6535 19.5108C12.5666 19.5662 12.1556 19.3686 11.2074 18.8233ZM12.4638 14.564C12.4164 14.5166 10.994 15.2436 10.994 15.3147C10.994 15.3464 11.3259 15.5834 11.7289 15.8521L12.4559 16.3341L12.4796 15.4649C12.4875 14.9908 12.4875 14.5798 12.4638 14.564Z" fill="#F3F3F3"/>
<path d="M17.948 14.4216C16.9681 13.6156 16.0356 12.8807 15.8776 12.7938C15.6168 12.6594 15.4114 12.6436 14.0127 12.6436H12.4401L12.1398 12.209C11.6894 11.5531 10.749 10.7155 10.1406 10.4152C9.84817 10.2809 9.5953 10.1544 9.5795 10.1465C9.56369 10.1307 9.65062 9.79091 9.76125 9.3879C10.188 7.91808 10.8043 6.98561 11.4839 6.78016C11.7526 6.70113 11.8632 6.70903 12.1477 6.81176L12.4954 6.9382V5.91881C12.4954 4.78089 12.4796 4.8125 13.0565 4.98634C13.7519 5.19971 14.0917 5.70545 14.9056 7.70472C15.1506 8.31319 15.5299 9.17454 15.7512 9.61706L16.1463 10.4231L15.6563 11.0395L15.1664 11.6558L15.4351 11.7033C15.5773 11.7349 16.2174 11.8218 16.8654 11.9008C17.5055 11.9798 18.027 12.0747 18.027 12.1142C18.027 12.1537 17.948 12.3117 17.8611 12.4619C17.7188 12.691 17.703 12.7543 17.7978 12.8333C17.8611 12.8965 18.6197 13.5524 19.4889 14.3031C20.3582 15.0617 21.0852 15.7018 21.0931 15.7413C21.1089 15.7729 20.9824 15.8045 20.8165 15.8045C20.6505 15.8045 20.3424 15.8282 20.1211 15.8519L19.726 15.8993L17.948 14.4216ZM13.665 11.4978C13.8704 11.3556 14.3525 11.079 14.7239 10.9051C15.3797 10.589 15.4035 10.5653 15.3244 10.3915C15.2454 10.2097 15.2296 10.2018 14.9925 10.3283C14.5895 10.5337 13.823 11.1027 13.4832 11.4504C13.1039 11.8455 13.1592 11.8613 13.665 11.4978ZM12.851 10.3362C12.9696 10.2809 13.0486 10.1781 13.0486 10.0833C13.0565 9.86993 13.3252 9.27727 13.5622 8.96118C13.6887 8.80313 13.7756 8.55026 13.8072 8.28158L13.8546 7.86276H12.5191H11.1837L11.239 8.26578C11.2706 8.52655 11.3891 8.81893 11.5709 9.09551C11.7289 9.33258 11.8949 9.69608 11.9502 9.90154C12.0687 10.3994 12.3848 10.5495 12.851 10.3362Z" fill="#F3F3F3"/>
<path d="M3.73969 14.548C2.3726 12.4856 1.44803 9.90152 1.08453 7.11202C0.958094 6.13214 0.800049 3.8721 0.800049 2.94754V2.37067H2.40421L4.00046 2.36277L4.66425 1.18534C5.03565 0.529451 5.35965 0 5.38335 0C5.41496 0 5.9049 0.537353 6.48177 1.18534C7.23248 2.03878 7.57228 2.37067 7.69871 2.37067C7.82515 2.37067 7.999 2.19683 8.33089 1.7543C8.57586 1.4224 8.93146 0.979879 9.12112 0.766518L9.45301 0.395112L10.0457 0.861345L10.6383 1.32758L10.9544 1.16163C11.9185 0.671691 13.1987 0.679593 14.0442 1.17744L14.3287 1.34338L14.8502 0.940368C15.1426 0.711202 15.4192 0.497842 15.4666 0.45833C15.5614 0.38721 16.3043 1.22485 16.8258 1.99927C17.2288 2.58404 17.292 2.55243 18.509 1.18534C19.0859 0.529451 19.5758 0 19.6074 0C19.639 0 19.9551 0.529451 20.3265 1.18534L20.9903 2.37067H22.6024H24.2144L24.1591 3.73776C23.9773 8.46331 23.2266 11.3713 21.4565 14.2319C21.2116 14.6192 20.9745 14.9353 20.9271 14.9353C20.8718 14.9353 20.6979 14.8088 20.5399 14.6587L20.2475 14.3821L20.6505 13.7341C21.2353 12.8016 21.9149 11.3239 22.2468 10.2966C22.792 8.59765 23.1634 6.13214 23.1634 4.2277V3.31894H21.8042H20.4371L19.9788 2.48921C19.7259 2.03088 19.4889 1.64367 19.4573 1.62786C19.4256 1.60416 19.07 1.97556 18.6591 2.4576L17.9163 3.31894H17.1972H16.4781L16.3122 2.97915C16.1304 2.60774 15.5061 1.73849 15.4192 1.73849C15.3876 1.73849 15.1268 1.92025 14.8423 2.14151L14.3129 2.54452L14.06 2.32326C13.1276 1.54094 11.8632 1.54094 10.9307 2.33116L10.67 2.55243L10.1958 2.18102C9.93505 1.97556 9.67427 1.79381 9.62686 1.7701C9.50833 1.73059 8.93146 2.4576 8.6944 2.94754L8.51264 3.31894H7.79354H7.06653L6.32372 2.4497C5.92071 1.97556 5.5572 1.61206 5.51769 1.65157C5.48608 1.68318 5.24901 2.07039 5.00405 2.49711L4.55362 3.27943L3.17863 3.30314L1.80363 3.31894L1.85105 4.76506C1.96958 8.4317 2.83093 11.4187 4.52201 14.0344C4.78278 14.4295 4.98824 14.7693 4.98824 14.7851C4.98824 14.8088 4.8302 14.9511 4.64054 15.1091L4.30075 15.4015L3.73969 14.548Z" fill="#F3F3F3"/>
<path d="M5.30459 13.6077C4.72773 12.7385 3.98492 11.1896 3.65302 10.1623C3.36854 9.29309 3.06035 7.98132 3.14728 7.98132C3.16308 7.98132 3.39225 8.21048 3.66093 8.49496C3.9217 8.77944 4.15086 9.00071 4.16667 8.9928C4.17457 8.977 4.09555 8.70832 3.99282 8.39223C3.88219 8.06824 3.72414 7.47557 3.63722 7.05675C3.47127 6.24282 3.30532 4.49642 3.39225 4.4095C3.42386 4.37789 3.77156 4.34628 4.15877 4.33048L4.86997 4.30677L5.22557 3.67459L5.57327 3.05031L5.62859 3.3585C5.66019 3.53235 5.74712 4.046 5.81824 4.50433C6.0474 5.90302 6.63217 7.42026 7.11421 7.85488C7.27225 7.99712 7.27225 7.99712 7.19323 7.73635C7.01938 7.14368 6.80602 5.63435 6.80602 5.01007V4.34628H7.98345H9.15299L9.2004 3.93536C9.26362 3.43752 9.5639 2.80534 9.73775 2.81324C9.80887 2.82115 10.0934 3.0029 10.3778 3.23206C10.931 3.65879 10.9942 3.69039 10.9942 3.53235C10.9942 3.3585 11.4762 2.84485 11.7923 2.68681C12.1875 2.48135 12.8038 2.48135 13.1989 2.68681C13.4755 2.82115 13.918 3.25577 13.918 3.38221C13.918 3.41382 13.9497 3.48494 13.9892 3.54815C14.0445 3.63508 14.1867 3.56396 14.6292 3.20836C14.9453 2.96339 15.2456 2.77373 15.293 2.78954C15.4432 2.82905 15.7356 3.51654 15.7909 3.93536L15.8383 4.34628H17.0236H18.209L18.1615 5.31826C18.1299 5.88722 18.0351 6.62213 17.9166 7.11207C17.8139 7.5704 17.7427 7.95761 17.7506 7.96551C17.8059 8.02873 18.2959 7.27802 18.5171 6.79598C18.8095 6.1559 19.1651 4.773 19.2837 3.84054C19.3311 3.45333 19.3785 3.12143 19.4022 3.10563C19.418 3.08982 19.584 3.3506 19.7736 3.69039L20.1213 4.30677L20.8641 4.34628L21.6069 4.38579L21.5911 5.01797C21.5595 6.11638 21.2276 7.9102 20.9115 8.66091C20.8483 8.81895 20.8009 8.9691 20.8167 8.9849C20.8404 9.00071 21.0696 8.77944 21.3383 8.48706C21.6069 8.20258 21.844 7.98132 21.8519 7.98922C21.9072 8.06034 21.5674 9.46694 21.3066 10.2572C20.872 11.5452 19.7183 13.8053 19.5286 13.7342C19.4891 13.7183 19.1967 13.4813 18.8648 13.2047L18.2722 12.6911L18.5488 12.2011L18.8253 11.7112L18.6041 11.6638C18.4855 11.6401 17.9008 11.5689 17.316 11.4978C16.7312 11.4267 16.2018 11.3477 16.1386 11.3319C16.0675 11.3082 16.1149 11.2054 16.3045 10.9605C16.4547 10.7787 16.6048 10.5891 16.6364 10.5337C16.6601 10.4784 16.4784 10.0201 16.2255 9.50645C15.9647 8.9928 15.5696 8.11565 15.3404 7.54669C14.7873 6.18751 14.4475 5.51581 14.1077 5.13651C13.4913 4.45691 12.4877 4.25936 11.7686 4.68608C11.1048 5.07329 10.7018 5.74498 9.80097 7.9339C9.57181 8.49496 9.21621 9.28519 9.01865 9.6961L8.64724 10.431L9.02655 10.9605C9.23991 11.2528 9.41376 11.5136 9.41376 11.5452C9.41376 11.6164 9.13718 11.6638 7.87282 11.8139C7.31176 11.885 6.79812 11.9561 6.7428 11.972C6.66378 12.0036 6.69539 12.0984 6.84553 12.3513C6.95616 12.5409 7.04309 12.7306 7.04309 12.778C7.04309 12.8254 6.727 13.1494 6.34769 13.4971L5.65229 14.1372L5.30459 13.6077Z" fill="#F3F3F3"/>
</g>
<defs>
<clipPath id="clip0_256_4527">
<rect width="24" height="24" fill="white" transform="translate(0.5)"/>
</clipPath>
</defs>
</svg>
