<svg width="18" height="18" viewBox="0 0 18 18" fill="none" xmlns="http://www.w3.org/2000/svg">
<path d="M9.39878 15.0064L5.70588 14.9388C4.5102 14.9153 3.31154 14.9623 2.13931 14.7184C0.356065 14.3541 0.229734 12.5679 0.097542 11.0696C-0.0846053 8.96321 -0.0140906 6.81856 0.329645 4.72972C0.523695 3.55767 1.28736 2.8583 2.46834 2.78219C6.45503 2.50599 10.4682 2.53873 14.4461 2.66758C14.8662 2.67939 15.2892 2.74396 15.7034 2.81745C17.7483 3.17588 17.7981 5.20006 17.9307 6.90404C18.0629 8.6256 18.007 10.356 17.7544 12.0658C17.5517 13.4815 17.1638 14.6687 15.5271 14.7834C13.4764 14.9332 11.4728 15.0539 9.41636 15.0155C9.41645 15.0064 9.40464 15.0064 9.39878 15.0064ZM7.22771 11.4222C8.77308 10.5349 10.289 9.6624 11.8255 8.78106C10.2772 7.89377 8.76424 7.02126 7.22771 6.13992V11.4222Z" fill="white" fill-opacity="0.95"/>
</svg>
