<svg width="40" height="40" viewBox="0 0 40 40" fill="none" xmlns="http://www.w3.org/2000/svg">
<path d="M13.7586 8.13845C13.591 7.79999 13.591 7.79999 13.9651 7.79999H39.7845C39.8562 7.79999 39.9279 7.79999 39.9999 7.79999C39.998 7.91076 39.9448 8.00491 39.8968 8.09937C39.4201 9.04296 38.9423 9.98583 38.4635 10.928C38.0297 11.7818 37.5795 12.628 37.1682 13.4929C37.0574 13.7255 36.9368 13.7723 36.7035 13.7717C32.5374 13.7647 28.3714 13.7631 24.2054 13.7668C24.1491 13.7668 24.0931 13.7701 24.0368 13.772C23.9863 13.7966 23.9276 13.7652 23.8783 13.7957C23.85 13.8058 23.7688 13.756 23.8266 13.8572C24.0519 14.2483 24.2691 14.6437 24.49 15.0372C24.8923 15.7533 25.2948 16.4692 25.6977 17.1849C25.7774 17.3261 25.8605 17.4652 25.9393 17.6068C25.9602 17.6446 25.9793 17.6778 26.0276 17.6784C26.0873 17.7024 26.1506 17.6904 26.21 17.6904H34.4977C34.5592 17.6904 34.6208 17.6806 34.6823 17.6997L34.8999 17.7111C34.8534 17.8206 34.8159 17.9231 34.7672 18.0203C34.0844 19.3871 33.401 20.7534 32.7171 22.1194C32.682 22.1898 32.6534 22.2609 32.5595 22.2637C32.5042 22.2812 32.4476 22.2726 32.3916 22.2726C31.2039 22.2726 30.0162 22.2726 28.8285 22.2726C28.7734 22.2726 28.7159 22.2569 28.6632 22.2877C28.6851 22.4646 28.8029 22.5975 28.8845 22.7443C29.4165 23.7027 29.9469 24.6624 30.5036 25.6058C30.6534 25.86 30.6485 26.0427 30.514 26.3C29.9802 27.3215 29.4743 28.3581 28.958 29.3892C28.6657 29.9732 28.3736 30.5572 28.0817 31.1412C27.9426 31.4175 27.8014 31.6927 27.658 31.9667C27.6349 32.0107 27.6174 32.0624 27.5562 32.0898C27.4113 31.8391 27.2645 31.5852 27.1183 31.3314L25.554 28.6215C25.0904 27.816 24.6266 27.0104 24.1626 26.2049C23.7743 25.5311 23.3833 24.8587 22.9959 24.1846C22.5725 23.448 22.154 22.7077 21.7294 21.9726C21.1753 21.0117 20.6153 20.0538 20.0614 19.0923C19.5882 18.2695 19.1248 17.4415 18.6516 16.6188C18.2208 15.8695 17.7802 15.1255 17.3479 14.3769C16.7253 13.299 16.1049 12.22 15.4866 11.14C15.0648 10.4043 14.646 9.66676 14.2233 8.93076C14.071 8.66522 13.9137 8.40245 13.7586 8.13845Z" fill="#00ACED"/>
<path d="M8.69754 15.0647C9.13446 14.2223 9.57354 13.3813 10.0077 12.5373C10.7683 11.0586 11.5273 9.57897 12.2846 8.09856C12.3375 7.99548 12.3769 7.82317 12.4692 7.82163C12.5649 7.81856 12.6006 7.99271 12.6594 8.09117C12.8034 8.33179 12.944 8.57456 13.0858 8.8164C13.3342 9.31087 13.6277 9.7801 13.8982 10.2626C14.3818 11.1241 14.876 11.9816 15.364 12.8416C15.8674 13.729 16.3699 14.6169 16.8717 15.5053C17.3619 16.3695 17.8531 17.233 18.3452 18.0958C18.776 18.8548 19.2058 19.6144 19.6348 20.3746C20.1039 21.2018 20.5749 22.0296 21.0477 22.858C21.4567 23.5769 21.8656 24.2958 22.2745 25.0146C22.8062 25.9487 23.3274 26.8884 23.8689 27.817C24.3957 28.7201 24.8988 29.637 25.4126 30.5478C25.6618 30.9893 25.9142 31.4296 26.1606 31.8727C26.2812 32.0881 26.2769 32.0918 26.0357 32.1106C25.9911 32.1219 25.9448 32.1251 25.8991 32.1198H19.8683C19.8225 32.1251 19.7761 32.1219 19.7314 32.1106C19.6913 32.1123 19.6517 32.1023 19.6172 32.0819C19.5827 32.0615 19.5549 32.0315 19.5372 31.9955C19.2074 31.4318 18.8683 30.8733 18.5335 30.3124C18.2306 29.8041 17.9283 29.2949 17.6268 28.7847C17.1775 28.0272 16.7345 27.2653 16.2778 26.5127C15.9255 25.9336 15.5797 25.3509 15.2351 24.7675C14.7237 23.9014 14.2099 23.0367 13.6938 22.1733C13.3498 21.5964 13.0003 21.0229 12.6585 20.4447C12.5895 20.3281 12.5458 20.3912 12.5102 20.4552C12.4366 20.5881 12.3732 20.7269 12.3062 20.8632C11.9585 21.5698 11.611 22.2764 11.2637 22.9829C10.5546 24.4214 9.84513 25.8597 9.13538 27.2976C9.11785 27.333 9.10123 27.3687 9.076 27.4207C9.14308 27.4241 9.19631 27.429 9.24985 27.429C10.6388 27.429 12.0278 27.429 13.4169 27.429C13.7729 27.429 13.7748 27.429 13.6157 27.7441C12.9043 29.1478 12.1932 30.5517 11.4825 31.9558C11.4311 32.0576 11.3594 32.042 11.2815 32.042H3.83908C3.77261 32.042 3.70615 32.0453 3.63938 32.0472C3.57785 32.0721 3.50923 32.0395 3.448 32.07H0C0.189846 31.6426 0.389231 31.241 0.596308 30.8426C0.851692 30.3503 1.10154 29.858 1.35477 29.3656C1.97446 28.1595 2.59426 26.9535 3.21415 25.7478C3.84431 24.5189 4.47333 23.2894 5.10123 22.0595C5.90861 20.4855 6.71723 18.9119 7.52708 17.3386C7.91703 16.5796 8.30718 15.8216 8.69754 15.0647Z" fill="#00ACED"/>
</svg>
