<svg width="24" height="24" viewBox="0 0 24 24" fill="none" xmlns="http://www.w3.org/2000/svg">
<path d="M4.62012 12.397L7.98937 13.9333L8.10041 13.8489L7.50413 11.533L7.37256 11.5399L6.76412 12.2875L5.93359 11.641C6.28116 11.2341 6.59984 10.8303 6.95425 10.4606C7.12918 10.2773 7.15276 10.1199 7.08963 9.88795C6.84767 9.02959 6.65118 8.15907 6.50096 7.28001L9.34239 10.7786L9.47625 10.7687C10.3243 7.20319 11.167 3.63392 12.0279 0C12.8896 3.63316 13.7361 7.20243 14.5834 10.7709L14.718 10.7824L17.5495 7.28914L17.6256 7.31728C17.5077 7.79262 17.3913 8.26873 17.2719 8.74407C17.173 9.13576 17.0841 9.53049 16.9631 9.91609C16.8932 10.1443 16.9441 10.285 17.1031 10.4538C17.4484 10.8204 17.7655 11.2143 18.1222 11.6288L17.3001 12.2898L16.6916 11.5429H16.5547L15.9683 13.8284L16.0748 13.9303L19.3452 12.4464C19.3551 12.483 19.3642 12.5004 19.3604 12.505C18.8972 13.0115 18.993 13.5553 19.1322 14.1782C20.0449 18.3567 17.2704 22.3024 13.0326 22.9352C12.8599 22.9611 12.6721 23.0995 12.5557 23.2394C12.3625 23.4676 12.2211 23.7437 12.0568 24C12.0271 23.9802 12.0005 23.9726 11.9937 23.9566C11.6697 23.2083 11.0848 22.9466 10.2931 22.7565C6.18457 21.7663 3.85956 17.6106 5.08025 13.5759C5.1487 13.3477 5.1411 13.1697 4.99507 12.9811C4.87414 12.826 4.78059 12.6503 4.62012 12.397ZM12.0355 21.078L15.8763 15.0392L15.7713 14.8985L14.1643 15.6841C13.4798 12.7796 12.7953 9.90848 12.1199 7.03739L11.9351 7.045C11.2567 9.91913 10.5783 12.794 9.89379 15.6925C9.45723 15.4734 9.07772 15.2742 8.6906 15.0932C8.57651 15.0399 8.43961 15.0369 8.31032 15.011C8.34454 15.1335 8.35215 15.2719 8.41604 15.3753C9.3794 16.9182 10.3489 18.4584 11.3244 19.9957C11.5411 20.3341 11.7693 20.6665 12.0355 21.078ZM13.5695 21.6035L13.6927 21.7427C15.28 21.2962 16.5068 20.3395 17.3814 18.9286C18.2028 17.6091 18.4515 16.1754 18.1945 14.6695L18.0264 14.6095C16.5423 16.9408 15.0567 19.2722 13.5695 21.6035ZM6.06517 14.6642L5.9199 14.6916C5.8834 14.8019 5.81799 14.9106 5.81495 15.0217C5.8043 15.4879 5.75486 15.9632 5.82255 16.4203C6.20283 18.9651 7.60224 20.7038 10.0124 21.6179C10.1433 21.6674 10.2969 21.659 10.4399 21.678L10.4787 21.5708C9.00673 19.2683 7.53557 16.9662 6.06517 14.6642Z" fill="#F3F3F3"/>
<path d="M12.0288 18.1672C11.755 17.3959 11.4964 16.6864 11.2531 15.9729C11.2238 15.8904 11.2215 15.8007 11.2462 15.7166C11.4926 14.9926 11.7482 14.2716 12.0273 13.4768C12.3064 14.264 12.5597 14.9751 12.8069 15.6885C12.8351 15.7716 12.8372 15.8613 12.813 15.9456C12.5635 16.6689 12.3019 17.3883 12.0288 18.1672Z" fill="#F3F3F3"/>
</svg>
