<svg width="24" height="24" viewBox="0 0 24 24" fill="none" xmlns="http://www.w3.org/2000/svg">
<path d="M4.62 12.397L7.98925 13.9333L8.10029 13.8489L7.50402 11.533L7.37244 11.5399L6.764 12.2875L5.93348 11.641C6.28105 11.2341 6.59972 10.8303 6.95414 10.4606C7.12907 10.2773 7.15264 10.1199 7.08952 9.88795C6.84756 9.02959 6.65106 8.15907 6.50085 7.28001L9.34227 10.7786L9.47613 10.7687C10.3241 7.20319 11.1668 3.63392 12.0278 0C12.8895 3.63316 13.736 7.20243 14.5832 10.7709L14.7179 10.7824L17.5494 7.28914L17.6255 7.31728C17.5076 7.79262 17.3912 8.26873 17.2718 8.74407C17.1729 9.13576 17.0839 9.53049 16.963 9.91609C16.893 10.1443 16.944 10.285 17.103 10.4538C17.4482 10.8204 17.7654 11.2143 18.1221 11.6288L17.2999 12.2898L16.6915 11.5429H16.5546L15.9682 13.8284L16.0747 13.9303L19.3451 12.4464C19.3549 12.483 19.3641 12.5004 19.3603 12.505C18.8971 13.0115 18.9929 13.5553 19.1321 14.1782C20.0448 18.3567 17.2703 22.3024 13.0325 22.9352C12.8598 22.9611 12.672 23.0995 12.5556 23.2394C12.3624 23.4676 12.221 23.7437 12.0567 24C12.027 23.9802 12.0004 23.9726 11.9936 23.9566C11.6696 23.2083 11.0847 22.9466 10.293 22.7565C6.18446 21.7663 3.85945 17.6106 5.08014 13.5759C5.14859 13.3477 5.14098 13.1697 4.99496 12.9811C4.87403 12.826 4.78048 12.6503 4.62 12.397ZM12.0354 21.078L15.8762 15.0392L15.7712 14.8985L14.1642 15.6841C13.4797 12.7796 12.7952 9.90848 12.1198 7.03739L11.935 7.045C11.2566 9.91913 10.5782 12.794 9.89367 15.6925C9.45712 15.4734 9.0776 15.2742 8.69048 15.0932C8.5764 15.0399 8.4395 15.0369 8.3102 15.011C8.34443 15.1335 8.35203 15.2719 8.41592 15.3753C9.37929 16.9182 10.3487 18.4584 11.3243 19.9957C11.541 20.3341 11.7692 20.6665 12.0354 21.078ZM13.5694 21.6035L13.6926 21.7427C15.2799 21.2962 16.5067 20.3395 17.3813 18.9286C18.2027 17.6091 18.4514 16.1754 18.1943 14.6695L18.0263 14.6095C16.5422 16.9408 15.0566 19.2722 13.5694 21.6035ZM6.06505 14.6642L5.91979 14.6916C5.88328 14.8019 5.81787 14.9106 5.81483 15.0217C5.80418 15.4879 5.75475 15.9632 5.82244 16.4203C6.20271 18.9651 7.60213 20.7038 10.0123 21.6179C10.1431 21.6674 10.2968 21.659 10.4398 21.678L10.4785 21.5708C9.00662 19.2683 7.53545 16.9662 6.06505 14.6642Z" fill="#F3F3F3"/>
<path d="M12.0287 18.1672C11.7549 17.3959 11.4963 16.6864 11.2529 15.9729C11.2237 15.8904 11.2213 15.8007 11.246 15.7166C11.4925 14.9926 11.748 14.2716 12.0271 13.4768C12.3063 14.264 12.5595 14.9751 12.8067 15.6885C12.8349 15.7716 12.837 15.8613 12.8128 15.9456C12.5633 16.6689 12.3017 17.3883 12.0287 18.1672Z" fill="#F3F3F3"/>
</svg>
