<svg width="40" height="40" viewBox="0 0 40 40" fill="none" xmlns="http://www.w3.org/2000/svg">
<path d="M3.10222 0.0165676C2.95873 -0.0432222 2.80005 0.0665923 2.80005 0.221292C2.80949 1.41342 2.80005 6.33033 2.80005 8.63161C2.80005 8.8088 2.94375 8.96232 3.13076 8.96232H9.50559C9.69261 8.96232 9.8363 8.80692 9.8363 8.62177C9.8268 7.46628 9.81726 6.30088 9.80776 5.14534C9.80776 4.98011 9.68704 4.83672 9.52134 4.81462C8.66957 4.70105 7.81761 4.56882 6.97503 4.42682C6.82797 4.39959 6.69848 4.47177 6.63249 4.58036C6.56651 4.68896 6.56283 4.83788 6.6551 4.95734C6.95821 5.3646 7.205 5.67755 7.57442 6.12268H7.57339C7.60503 6.16223 7.62949 6.22051 7.62949 6.27328V7.02131C7.62949 7.16724 7.52122 7.27541 7.37654 7.26737C6.70489 7.22953 6.04165 7.18264 5.36861 7.15418C5.24109 7.14621 5.14813 7.04483 5.14813 6.91697C5.13864 5.68624 5.1389 4.46407 5.12945 3.23287C5.12945 3.07218 5.26987 2.96325 5.42178 2.99467C6.73917 3.30744 8.06543 3.58256 9.39232 3.8195H9.39335C9.60138 3.85234 9.77823 3.68604 9.78903 3.48091C9.80797 3.19579 9.79883 3.07953 9.79883 2.79683C9.79883 2.74617 9.80141 2.67184 9.7978 2.59702C9.79419 2.5222 9.78536 2.44716 9.75548 2.38737C9.72328 2.32301 9.67371 2.27251 9.60489 2.24957C9.55385 2.22939 9.49048 2.21184 9.41788 2.18461L9.41685 2.18358H9.41581C8.21223 1.76659 4.1315 0.403459 3.10189 0.0162319L3.10222 0.0165676Z" fill="#F3F3F3"/>
<path d="M11.5145 2.68364C11.393 2.65935 11.2684 2.74958 11.2684 2.88247C11.259 3.72613 11.2216 7.11482 11.231 8.74481C11.231 8.86478 11.3299 8.95347 11.4397 8.95347H17.6437C17.757 8.95347 17.8514 8.85812 17.8514 8.74481V7.82647C17.8514 7.71316 17.757 7.61781 17.6437 7.61781C16.3276 7.60834 15.021 7.5799 13.7047 7.54202H13.7026C13.6331 7.54202 13.5894 7.48951 13.5894 7.42883V6.78412C13.5894 6.71466 13.6398 6.67093 13.7124 6.67093C14.9719 6.73721 17.0551 6.8416 17.6524 6.8225C17.7657 6.8225 17.8513 6.72364 17.8513 6.61384V5.68569C17.8513 5.51442 17.746 5.41108 17.6436 5.41108C17.1947 5.39201 14.7 5.31573 13.6888 5.24966C13.6258 5.24196 13.5795 5.19663 13.5795 5.13647V4.50162C13.5795 4.43217 13.6341 4.38138 13.6888 4.38745H13.6898C15.0067 4.50114 16.3052 4.59596 17.6229 4.64336H17.624C17.7408 4.64336 17.8425 4.55565 17.8425 4.43568V3.50753C17.8425 3.39773 17.7552 3.31072 17.6486 3.29887H17.6465C15.2236 3.12851 14.0312 2.99591 11.5148 2.68368L11.5145 2.68364Z" fill="#F3F3F3"/>
<path d="M25.8364 2.86391C25.0984 2.97746 24.673 3.02438 23.9249 3.10014H23.9229C23.8341 3.11283 23.7595 3.1869 23.7595 3.28025L23.7497 5.91317C23.7497 5.99 23.665 6.02374 23.6089 5.9801C22.5194 5.10847 21.4111 4.2469 20.3126 3.37573L20.3116 3.37469L20.3095 3.37273C20.275 3.34975 20.2372 3.3373 20.1983 3.3373H20.1973L19.0516 3.34616C18.9521 3.34616 18.8715 3.42684 18.8715 3.52628V8.78324C18.8715 8.88269 18.9521 8.96238 19.0516 8.96238H21.0221C21.1215 8.96238 21.2022 8.88269 21.2022 8.78324C21.2117 7.94938 21.2111 7.10686 21.2111 6.27336C21.2111 6.23494 21.2326 6.2066 21.2613 6.19265C21.29 6.1787 21.3225 6.17924 21.3509 6.20447L21.3519 6.2055C22.4494 7.09484 23.5474 7.99336 24.6256 8.92011C24.6612 8.95581 24.7057 8.96243 24.7446 8.96243H25.8244C25.9236 8.96243 26.0031 8.88335 26.0035 8.78428V8.78325C26.013 8.44178 26.0133 8.11011 26.0133 7.76948C26.0228 6.18775 26.0324 4.61531 26.0419 3.04302C26.0419 2.98812 26.0196 2.93805 25.9818 2.90522C25.9441 2.8724 25.8924 2.85785 25.8381 2.86388L25.8433 2.91015L25.8364 2.86391Z" fill="#F3F3F3"/>
<path d="M36.7363 0.0251959C34.4753 0.886045 31.1191 1.96309 30.4017 2.23094C30.2955 2.26635 30.2275 2.37024 30.2275 2.4839C30.2179 3.2631 30.237 6.87996 30.2275 8.67861C30.2275 8.82845 30.3523 8.95322 30.5021 8.95322H36.829C36.9788 8.95322 37.1036 8.82845 37.1036 8.67861V3.71494C37.1036 3.5434 36.9423 3.41727 36.7729 3.45116H36.7708C35.8432 3.66886 34.9157 3.86811 33.9784 4.05747C33.8725 4.07978 33.7965 4.15463 33.7678 4.2435C33.7391 4.33236 33.757 4.43668 33.8298 4.51515C34.1987 4.91243 34.4538 5.20481 34.88 5.69727C34.9124 5.73808 34.9253 5.77249 34.9253 5.81834V6.85967C34.9253 6.96094 34.8616 7.03205 34.7609 7.03979C34.051 7.09658 33.3408 7.14434 32.63 7.20121C32.5239 7.20878 32.4341 7.12663 32.4341 7.02108L32.4538 3.53877C32.4622 3.45288 32.5131 3.38686 32.5985 3.36357C34.0479 3.02252 35.4783 2.64351 36.9086 2.22677H36.9097C37.0235 2.19261 37.1036 2.08726 37.1036 1.96298V0.286805C37.1036 0.096076 36.9171 -0.0427692 36.7364 0.0249891L36.7363 0.0251959Z" fill="#F3F3F3"/>
<path d="M28.2827 7.15442L26.89 7.306C26.7698 7.31802 26.6774 7.42225 26.6774 7.54222V8.71645C26.6774 8.84646 26.7836 8.95366 26.9136 8.95366H28.3103C28.4377 8.94208 28.5426 8.83958 28.5426 8.71645V7.39064C28.5426 7.25068 28.423 7.14281 28.2838 7.15442H28.2827Z" fill="#F3F3F3"/>
<path d="M36.6019 11.0371H21.8075C21.6654 11.0371 21.5423 11.1508 21.5423 11.3023V15.9149C21.5423 16.0569 21.656 16.1801 21.8075 16.1801H31.4776C31.6197 16.1801 31.7428 16.2937 31.7428 16.4453V22.8573C31.7428 22.9235 31.7144 22.9898 31.667 23.0467L27.1302 27.6024C26.9598 27.7729 26.6756 27.6498 26.6756 27.413V23.0751C26.6756 23.0088 26.704 22.9425 26.7514 22.8857L29.4223 20.1863C29.5833 20.0158 29.4697 19.7412 29.2329 19.7412H21.8073C21.6652 19.7412 21.5421 19.8643 21.5421 20.0064V39.7352C21.5421 39.972 21.8263 40.0856 21.9967 39.9246L36.8005 25.1968C36.8478 25.1494 36.8762 25.0831 36.8762 25.0073V11.3024C36.8668 11.1603 36.7531 11.0372 36.6016 11.0372" fill="#F3F3F3"/>
<path d="M3.32931 11.037H18.133C18.2751 11.037 18.3982 11.1507 18.3982 11.3022V15.9148C18.3982 16.0569 18.2846 16.18 18.133 16.18H8.46292C8.32084 16.18 8.19772 16.2937 8.19772 16.4452V22.8572C8.19772 22.9235 8.22615 22.9898 8.27349 23.0466L12.8103 27.6024C12.9808 27.7729 13.2649 27.6497 13.2649 27.4129V23.075C13.2649 23.0087 13.2365 22.9424 13.1891 22.8856L10.5182 20.1863C10.3572 20.0158 10.4709 19.7411 10.7077 19.7411H18.1333C18.2753 19.7411 18.3985 19.8642 18.3985 20.0063V39.7352C18.3985 39.9719 18.1143 40.0856 17.9438 39.9246L3.14941 25.1869C3.10203 25.1396 3.07364 25.0733 3.07364 24.9975V11.3018C3.06414 11.1598 3.1873 11.0366 3.32937 11.0366" fill="#AA8B30"/>
</svg>
