<svg width="24" height="18" viewBox="0 0 24 18" fill="none" xmlns="http://www.w3.org/2000/svg">
<g filter="url(#filter0_d_256_4836)">
<path d="M0.0186792 0.683542C0.0093396 0.695995 0 0.714675 0 0.727127C0 0.736467 2.43141 2.54524 5.40452 4.74316C8.37762 6.93796 10.8153 8.75296 10.8246 8.77475C10.8308 8.79343 10.5475 9.36626 10.1957 10.0449C9.84394 10.7236 9.56375 11.2933 9.57309 11.3089C9.58243 11.3276 9.60422 11.34 9.61979 11.34C9.63224 11.34 10.1646 10.954 10.8028 10.4839C11.441 10.0138 11.9734 9.62777 11.9889 9.62777C12.0045 9.62777 12.5275 10.0076 13.1564 10.4714C13.7821 10.9322 14.3114 11.3182 14.3363 11.3276C14.3581 11.3369 14.3861 11.3276 14.3986 11.312C14.4079 11.2933 14.1308 10.7205 13.779 10.0387C13.4241 9.36003 13.1439 8.7872 13.1502 8.77164C13.1564 8.75296 15.6002 6.94107 18.5796 4.74004C21.562 2.53901 23.9997 0.730241 23.9997 0.720901C24.0028 0.708448 23.9841 0.692883 23.9654 0.686656C23.9187 0.667976 13.8537 3.04646 13.8195 3.08071C13.8039 3.09627 13.3899 3.88703 12.8949 4.84278L11.992 6.57994L11.8675 6.35268C11.799 6.22815 11.3912 5.4374 10.9585 4.59995C10.5257 3.75938 10.1677 3.07137 10.1677 3.06825C10.1646 3.06514 7.9013 2.52967 5.13678 1.8759C2.37226 1.22524 0.093396 0.683542 0.0716036 0.677317C0.0529244 0.67109 0.0280188 0.674203 0.0186792 0.683542Z" fill="#F3F3F3"/>
</g>
<defs>
<filter id="filter0_d_256_4836" x="-4" y="0.674072" width="32" height="18.666" filterUnits="userSpaceOnUse" color-interpolation-filters="sRGB">
<feFlood flood-opacity="0" result="BackgroundImageFix"/>
<feColorMatrix in="SourceAlpha" type="matrix" values="0 0 0 0 0 0 0 0 0 0 0 0 0 0 0 0 0 0 127 0" result="hardAlpha"/>
<feOffset dy="4"/>
<feGaussianBlur stdDeviation="2"/>
<feComposite in2="hardAlpha" operator="out"/>
<feColorMatrix type="matrix" values="0 0 0 0 0 0 0 0 0 0 0 0 0 0 0 0 0 0 0.25 0"/>
<feBlend mode="normal" in2="BackgroundImageFix" result="effect1_dropShadow_256_4836"/>
<feBlend mode="normal" in="SourceGraphic" in2="effect1_dropShadow_256_4836" result="shape"/>
</filter>
</defs>
</svg>
