<svg width="24" height="12" viewBox="0 0 24 12" fill="none" xmlns="http://www.w3.org/2000/svg">
<path d="M0.0186792 0.683512C0.0093396 0.695965 0 0.714644 0 0.727097C0 0.736437 2.43141 2.54521 5.40452 4.74312C8.37762 6.93793 10.8153 8.75293 10.8246 8.77472C10.8308 8.7934 10.5475 9.36623 10.1957 10.0449C9.84394 10.7236 9.56375 11.2933 9.57309 11.3089C9.58243 11.3275 9.60422 11.34 9.61979 11.34C9.63224 11.34 10.1646 10.954 10.8028 10.4839C11.441 10.0138 11.9734 9.62774 11.9889 9.62774C12.0045 9.62774 12.5275 10.0075 13.1564 10.4714C13.7821 10.9322 14.3114 11.3182 14.3363 11.3275C14.3581 11.3369 14.3861 11.3275 14.3986 11.312C14.4079 11.2933 14.1308 10.7205 13.779 10.0387C13.4241 9.36 13.1439 8.78717 13.1502 8.77161C13.1564 8.75293 15.6002 6.94104 18.5796 4.74001C21.562 2.53898 23.9997 0.73021 23.9997 0.72087C24.0028 0.708418 23.9841 0.692852 23.9654 0.686625C23.9187 0.667946 13.8537 3.04643 13.8195 3.08068C13.8039 3.09624 13.3899 3.887 12.8949 4.84275L11.992 6.57991L11.8675 6.35265C11.799 6.22812 11.3912 5.43737 10.9585 4.59992C10.5257 3.75935 10.1677 3.07134 10.1677 3.06822C10.1646 3.06511 7.9013 2.52964 5.13678 1.87587C2.37226 1.22521 0.093396 0.683512 0.0716036 0.677286C0.0529244 0.67106 0.0280188 0.674172 0.0186792 0.683512Z" fill="#F3F3F3"/>
</svg>
