<svg width="24" height="24" viewBox="0 0 24 24" fill="none" xmlns="http://www.w3.org/2000/svg">
<path d="M10.2662 0H10.4884L15.0219 1.4417L13.9297 3.13817C14.6486 3.7425 15.6914 4.05059 15.6726 5.26222L11.7336 4.00122C11.7336 4.89883 11.7336 5.7204 11.7395 6.54197C11.7585 6.63783 11.804 6.72644 11.8709 6.79773C12.409 7.5324 12.9433 8.27004 13.5012 8.98991C13.6161 9.12093 13.7777 9.20175 13.9515 9.21505C14.6911 9.23875 15.4327 9.22591 16.1723 9.22591H16.8536L16.8882 9.32466C16.8325 9.38903 16.7696 9.4467 16.7006 9.49648C15.8701 9.95269 15.0337 10.399 14.2062 10.8602C14.0206 10.9639 13.9268 10.9244 13.8182 10.7614C13.6394 10.4869 13.437 10.2282 13.2257 9.94084C13.1487 10.0287 13.0963 10.0781 13.0568 10.1383C11.9874 11.7183 10.916 13.2982 9.86038 14.8782C9.79817 14.9769 9.82187 15.1813 9.88408 15.2909C10.6622 16.6586 11.4542 18.0183 12.2451 19.3791C12.3014 19.4778 12.3745 19.5647 12.4426 19.6575L12.5621 19.6269V14.4555C12.7596 14.5257 12.8722 14.5632 12.9828 14.6076C14.6825 15.2949 16.3823 15.9815 18.082 16.6675C18.1808 16.7099 18.3674 16.7554 18.4158 16.706C18.6745 16.4413 18.9016 16.1471 19.1347 15.8696C18.8335 15.7521 18.5304 15.7274 18.3941 15.5645C17.8766 14.9394 17.4066 14.2748 16.9316 13.6172C16.7193 13.3209 16.7736 13.1027 17.0906 12.9131C17.4392 12.7048 17.8164 12.5389 18.1452 12.3048C18.8197 11.8249 19.5514 11.6709 20.372 11.7232C21.1758 11.7746 21.1857 11.737 21.396 10.9441C21.4088 10.8776 21.4077 10.8092 21.393 10.7431C21.3782 10.677 21.35 10.6147 21.3101 10.56C20.7709 9.93195 20.765 9.93689 21.2923 9.29405C21.3476 9.22789 21.4029 9.16173 21.4602 9.09655C21.6735 8.85561 22.9591 8.74008 23.2001 8.94942C23.2753 9.03022 23.3391 9.12092 23.3897 9.219C23.5348 9.44217 23.678 9.6683 23.8222 9.89245V10.1887C23.4361 10.6489 23.0322 11.0962 22.6659 11.5711C22.0467 12.3749 21.397 13.1383 20.4737 13.6142C20.3749 13.6666 20.2693 13.713 20.135 13.7851C20.1014 13.5056 20.0757 13.2913 20.0441 13.0237L19.0073 13.6073C19.2779 14.2936 19.4744 14.4338 20.1212 14.4338C20.2811 14.4338 20.4421 14.4388 20.6021 14.4338C20.8499 14.4269 20.9654 14.5464 20.9654 14.7903C20.9654 15.1468 20.9862 15.5052 20.9566 15.8587C20.9388 16.0387 20.8703 16.2099 20.7591 16.3525C19.7321 17.6273 18.6933 18.8912 17.6555 20.1562C17.4007 20.4672 17.2713 20.4613 17.0245 20.1424C16.8112 19.8669 16.6018 19.5894 16.3708 19.2862C16.2444 19.4324 16.1634 19.5222 16.0864 19.616C14.9804 20.9682 13.8748 22.3207 12.7695 23.6736C12.4021 24.1229 12.2994 24.113 12.0111 23.6153C8.51809 17.5891 5.02541 11.5626 1.53307 5.53574C1.07291 4.73985 0.592012 3.96172 0.120003 3.17471V2.95352C0.212871 2.85804 0.314721 2.77173 0.424143 2.69579C1.64004 1.99863 2.85792 1.30741 4.07777 0.622105C4.22652 0.533844 4.39194 0.477359 4.56361 0.45621C5.63304 0.367338 6.70148 0.29624 7.76992 0.216255C8.60235 0.151083 9.4338 0.0720852 10.2662 0ZM8.53915 10.9856C8.12738 10.4751 7.78868 9.96849 7.36308 9.5498C6.90983 9.10445 6.86934 8.6749 7.16559 8.15253C7.26012 7.9565 7.34032 7.75387 7.40554 7.54623L7.28112 7.46526L5.94606 8.50111C6.83478 10.0238 7.69487 11.5159 8.60531 13.0869L11.2468 9.18345L9.26099 8.54851L9.18101 8.64726C9.3785 8.91683 9.59574 9.17753 9.77349 9.45994C9.8278 9.54388 9.83669 9.73841 9.77941 9.79667C9.39627 10.1946 8.98648 10.5659 8.53915 10.9856ZM8.09282 4.90278C8.15108 4.44459 8.21033 4.10589 8.23403 3.76423C8.31105 2.69677 8.38906 2.93278 7.48947 2.62963C7.40751 2.60198 7.32556 2.5763 7.24162 2.55557C5.43653 2.11022 3.9889 3.28234 4.12912 5.0746C4.18343 5.76582 4.77789 6.39188 5.45529 6.45705C5.5096 6.45705 5.60144 6.45113 5.61427 6.4215C5.62829 6.39047 5.63553 6.35681 5.63553 6.32276C5.63553 6.28871 5.62829 6.25504 5.61427 6.22401C5.50664 6.04528 5.36642 5.88531 5.26866 5.70263C4.87367 4.95808 5.24496 4.12268 6.0695 3.96567C6.73406 3.8373 7.25446 4.176 7.74819 4.57198C7.83706 4.6569 7.92594 4.74873 8.09282 4.90278Z" fill="#F3F3F3"/>
<path d="M15.6054 1.62939C16.3351 2.1646 16.9977 2.64846 17.6593 3.1343C18.4434 3.71098 19.2215 4.29457 20.0134 4.86039C20.206 4.99765 20.2998 5.14083 20.2781 5.37684C20.2682 5.56103 20.2682 5.74562 20.2781 5.92982C20.285 6.43145 20.0569 6.63684 19.5631 6.49959C18.8295 6.29617 18.1056 6.05325 17.3799 5.81823C16.6254 5.57532 16.6156 5.57038 16.6324 4.77448C16.6393 4.44862 16.578 4.1741 16.347 3.93414C16.2117 3.79392 16.1278 3.60137 15.9865 3.46806C15.4553 2.9684 15.5481 2.3463 15.6054 1.62939Z" fill="#F3F3F3"/>
<path d="M13.9712 6.60518C14.9933 6.23784 16.2809 6.69109 16.7441 7.62819H15.5591C14.6141 7.62819 14.4255 7.50476 13.9712 6.60518Z" fill="#F3F3F3"/>
</svg>
