<svg width="25" height="24" viewBox="0 0 25 24" fill="none" xmlns="http://www.w3.org/2000/svg">
<path d="M11.441 23.9852C11.3471 23.9754 11.0554 23.9407 10.7984 23.9111C9.47838 23.7677 8.05952 23.3722 7.06582 22.8778C6.07707 22.3884 5.4591 21.8298 5.10315 21.108L4.94 20.7767L4.94495 12.4119C4.94989 7.80925 4.96967 3.96795 4.9845 3.86908C5.00427 3.77515 5.03888 3.69604 5.05865 3.69604C5.15258 3.69604 5.28607 4.39312 5.95347 8.39262C6.99166 14.6218 7.44649 16.797 7.71345 16.797C7.86177 16.797 8.11884 15.8478 8.61816 13.46C9.44871 9.49013 9.68601 8.54093 9.8541 8.54093C10.0617 8.54093 10.4375 10.0933 11.2186 14.1521C11.8662 17.5287 12.3013 19.6397 12.5089 20.3911C12.7907 21.4343 12.8846 21.6221 13.0379 21.454C13.1318 21.3502 13.3889 20.7273 13.6657 19.9363C13.9574 19.1008 14.254 18.4334 14.3628 18.379C14.4716 18.3197 14.526 18.3938 14.7435 18.8734C15.0846 19.6248 16.1673 23.2437 16.1178 23.4513C16.103 23.5106 16.0486 23.5749 15.9992 23.5897C15.7965 23.6491 14.8374 23.832 14.3579 23.8962C13.8635 23.9655 11.8069 24.0297 11.441 23.9852Z" fill="#F3F3F3"/>
<path d="M18.7924 22.25C18.7726 22.2352 18.7578 21.3354 18.7578 20.2527V18.2901L18.3573 18.0528C17.0324 17.2766 15.2625 16.8317 13.0378 16.718C12.5237 16.6932 12.3803 16.6685 12.3803 16.6141C12.3803 16.2582 13.0378 12.229 13.2504 11.26C13.3888 10.6421 13.5569 10.1675 13.6509 10.1378C13.7646 10.0983 13.8634 10.3652 14.1799 11.5369C14.5309 12.8371 14.6347 13.1387 14.7237 13.1387C14.9066 13.1387 15.1389 12.1203 15.5888 9.37648C16.1524 5.95045 16.36 5.06552 16.5726 5.199C16.6616 5.25338 16.8149 5.7873 17.2499 7.572C17.7443 9.58906 17.9074 10.0241 18.0607 9.73737C18.2288 9.42591 18.5996 7.52256 19.2521 3.62194C19.7416 0.700173 19.8306 0.210741 19.9047 0.067372C19.9542 -0.0216157 19.9591 -0.0216157 20.0085 0.0624282C20.0382 0.121753 20.0629 3.58239 20.0827 10.2911C20.1074 21.464 20.1272 20.6779 19.8108 21.3354C19.5685 21.8249 18.9357 22.3983 18.7924 22.25Z" fill="#F3F3F3"/>
</svg>
