<svg width="24" height="24" viewBox="0 0 24 24" fill="none" xmlns="http://www.w3.org/2000/svg">
<path d="M21.1328 4.07996C21.1245 4.28672 21.109 4.49348 21.109 4.70025C21.1069 6.61936 21.1069 8.53847 21.109 10.4576V10.9228L23.3126 10.2829C23.5483 11.0293 23.7866 11.7602 23.9985 12.4983C24.0161 12.5593 23.8734 12.7211 23.7783 12.7516C23.0081 12.9949 22.2338 13.2253 21.4553 13.4427C21.1886 13.5161 21.0961 13.6386 21.0981 13.9245C21.1131 15.7854 21.0981 17.6462 21.1121 19.5071C21.1121 19.7966 21.0304 19.8844 20.7415 19.8746C20.1284 19.8545 19.5138 19.8529 18.9008 19.8746C18.6015 19.8855 18.5038 19.809 18.5069 19.4937C18.5239 17.9217 18.5146 16.3493 18.5146 14.7769V14.3406C17.9698 14.4957 17.4751 14.6368 16.9825 14.7805C16.5943 14.8942 16.2123 15.0296 15.82 15.1237C15.5455 15.1888 15.392 15.3305 15.2814 15.5889C14.7267 16.8952 14.1535 18.1936 13.5854 19.4942C13.5399 19.5976 13.4846 19.6978 13.4164 19.8333L11.0618 18.8635L12.1763 16.2837C12.0662 16.2837 11.9892 16.2666 11.923 16.2862C10.9492 16.5742 9.97427 16.859 9.0061 17.165C8.87687 17.2058 8.74196 17.3438 8.68252 17.471C8.36651 18.1506 8.06498 18.8372 7.77793 19.5309C7.68488 19.7562 7.59287 19.8364 7.34631 19.7283C6.67071 19.4327 5.9858 19.1597 5.27867 18.8656C5.35207 18.6588 5.41979 18.4686 5.51231 18.2091C5.3376 18.252 5.22026 18.2753 5.10551 18.3094C4.03189 18.6294 2.95568 18.9395 1.8862 19.2714C1.65101 19.3448 1.51919 19.3034 1.49283 19.0677C1.40858 18.3146 0.955247 17.9186 0.252251 17.746C0.179367 17.7263 0.112686 17.6772 0 17.623L5.67669 4.62943L8.05447 5.61156C6.52511 9.11275 5.00264 12.5996 3.48707 16.0722L3.55788 16.1431L4.87238 15.759C5.43736 15.5931 6.00028 15.4194 6.56784 15.2643C6.78908 15.2038 6.91365 15.0813 7.00463 14.8725C8.42716 11.6032 9.85383 8.33549 11.2846 5.06932C11.3436 4.93441 11.4051 4.80104 11.4805 4.63408C12.2311 4.94423 12.9532 5.243 13.6764 5.53971C13.9121 5.63637 13.7798 5.78369 13.725 5.90826C13.1391 7.25222 12.5517 8.59498 11.9628 9.93653C11.3987 11.226 10.8358 12.5162 10.2741 13.8071C10.2327 13.9012 10.2017 14 10.1433 14.1576C10.2798 14.1318 10.3738 14.1214 10.4627 14.0956C11.404 13.8185 12.3474 13.5492 13.2815 13.2504C13.4293 13.2029 13.5854 13.0437 13.65 12.8969C14.7931 10.3123 15.928 7.72296 17.0549 5.12876C17.1231 4.97369 17.2001 4.81862 17.2844 4.64132L18.4919 5.12566V4.07996H21.1328ZM16.7701 12.2114C17.3175 12.0538 17.7631 11.9158 18.2148 11.7979C18.4423 11.7395 18.525 11.6325 18.5224 11.389C18.5074 10.5015 18.5177 9.61295 18.5152 8.7249C18.5103 8.6348 18.5003 8.54506 18.4852 8.4561H18.4092C17.8773 9.67446 17.3454 10.8928 16.7701 12.2114Z" fill="#F3F3F3"/>
</svg>
