<svg width="40" height="40" viewBox="0 0 40 40" fill="none" xmlns="http://www.w3.org/2000/svg">
<g filter="url(#filter0_d_6:5372)">
<circle cx="20" cy="16" r="16" fill="#C13631"/>
<path fill-rule="evenodd" clip-rule="evenodd" d="M8.91268 14.0336C9.62799 13.0322 19.0701 6.73741 20.5008 5.87903C21.9314 5.02065 28.7984 6.7374 30.086 7.88191C31.2924 8.95427 31.9964 14.7992 32.1981 16.4733C32.2117 16.5859 32.2229 16.6797 32.232 16.7518C32.3148 17.4143 30.8158 18.4603 29.4829 19.3903L29.4829 19.3903C28.5132 20.0669 27.6314 20.6822 27.5109 21.0437C27.37 21.4664 27.5066 21.9932 27.6304 22.4703C27.7579 22.962 27.8718 23.401 27.6539 23.6189C27.4363 23.8365 27.1451 23.7598 26.7989 23.6687C26.4625 23.5801 26.0741 23.4778 25.6511 23.6189C25.1883 23.7731 25.0166 24.4264 24.8669 24.9958C24.739 25.4825 24.6272 25.9079 24.3635 25.9079C24.0933 25.9079 23.7593 25.589 23.4068 25.2523C23.0126 24.8759 22.5951 24.4772 22.2175 24.4772C21.8762 24.4772 21.828 24.966 21.7777 25.4769C21.7226 26.0367 21.6648 26.6232 21.2161 26.6232C20.7869 26.6232 20.5366 26.0867 20.2862 25.5502C20.0358 25.0137 19.7855 24.4772 19.3563 24.4772C18.9436 24.4772 18.9277 24.9732 18.9112 25.4882C18.8934 26.0446 18.8748 26.6232 18.3548 26.6232C17.7386 26.6232 17.4474 25.7023 17.1812 24.8605C17.0148 24.3343 16.8582 23.839 16.6381 23.6189C16.396 23.3767 14.9758 23.2627 13.3961 23.1358C11.2421 22.9628 8.79161 22.766 8.62655 22.1882C8.34042 21.1868 8.19736 15.0351 8.91268 14.0336ZM22.3606 18.0394C21.7884 17.6102 21.7884 9.8848 22.3606 9.16948C22.9329 8.45416 25.508 8.02495 27.797 9.16946C30.0861 10.314 29.943 15.7504 29.2277 16.7518C28.5124 17.7532 27.2248 19.47 26.0803 19.47C25.0993 19.47 24.5387 18.8394 24.2184 18.479C24.165 18.4189 24.1183 18.3664 24.0774 18.3255C23.9495 18.1976 23.7071 18.2126 23.4272 18.23C23.0809 18.2516 22.677 18.2767 22.3606 18.0394ZM11.0586 15.3212C11.9742 13.49 14.4464 12.3913 15.7648 11.8053C16.0945 11.6588 16.352 11.5443 16.4951 11.4585C17.2104 11.0293 18.641 10.314 19.4994 11.3154C20.3578 12.3169 20.3578 19.47 19.4994 20.1853C18.9775 20.6202 18.1912 20.5792 17.5263 20.5445C17.0976 20.5221 16.7194 20.5024 16.4951 20.6145C16.4951 20.6145 15.9228 21.0437 15.4936 21.1868C15.4936 21.1868 11.917 21.616 11.3448 21.0437C10.7725 20.4714 9.91414 17.6102 11.0586 15.3212ZM21.0366 21.6779C20.8805 22.1988 20.7072 22.7769 20.5008 23.1897C20.632 23.1372 20.7987 23.0672 20.9896 22.9871C21.8392 22.6307 23.1683 22.073 23.986 21.9562C24.2721 21.9562 21.7884 20.1854 21.5023 20.4715C21.3537 20.62 21.2052 21.1156 21.0366 21.6779Z" fill="#F6F2F2"/>
</g>
<defs>
<filter id="filter0_d_6:5372" x="0" y="0" width="40" height="40" filterUnits="userSpaceOnUse" color-interpolation-filters="sRGB">
<feFlood flood-opacity="0" result="BackgroundImageFix"/>
<feColorMatrix in="SourceAlpha" type="matrix" values="0 0 0 0 0 0 0 0 0 0 0 0 0 0 0 0 0 0 127 0" result="hardAlpha"/>
<feOffset dy="4"/>
<feGaussianBlur stdDeviation="2"/>
<feComposite in2="hardAlpha" operator="out"/>
<feColorMatrix type="matrix" values="0 0 0 0 0 0 0 0 0 0 0 0 0 0 0 0 0 0 0.25 0"/>
<feBlend mode="normal" in2="BackgroundImageFix" result="effect1_dropShadow_6:5372"/>
<feBlend mode="normal" in="SourceGraphic" in2="effect1_dropShadow_6:5372" result="shape"/>
</filter>
</defs>
</svg>
