<svg width="40" height="40" viewBox="0 0 40 40" fill="none" xmlns="http://www.w3.org/2000/svg">
<g filter="url(#filter0_d_6_5372)">
<circle cx="20" cy="16" r="16" fill="#C13631"/>
<path fill-rule="evenodd" clip-rule="evenodd" d="M8.91268 14.0336C9.62799 13.0322 19.0701 6.73741 20.5008 5.87903C21.9314 5.02065 28.7984 6.7374 30.086 7.88191C31.2924 8.95427 31.9964 14.7992 32.1981 16.4733C32.2117 16.5859 32.2229 16.6797 32.232 16.7518C32.3148 17.4143 30.8158 18.4603 29.4829 19.3903L29.4829 19.3903C28.5132 20.0669 27.6314 20.6822 27.5109 21.0437C27.37 21.4664 27.5066 21.9932 27.6304 22.4703C27.7579 22.962 27.8718 23.401 27.6539 23.6189C27.4363 23.8365 27.1451 23.7598 26.7989 23.6687C26.4625 23.5801 26.0741 23.4778 25.6511 23.6189C25.1883 23.7731 25.0166 24.4264 24.8669 24.9958C24.739 25.4825 24.6272 25.9079 24.3635 25.9079C24.0933 25.9079 23.7593 25.589 23.4068 25.2523C23.0126 24.8759 22.5951 24.4772 22.2175 24.4772C21.8762 24.4772 21.828 24.966 21.7777 25.4769C21.7226 26.0367 21.6648 26.6232 21.2161 26.6232C20.7869 26.6232 20.5366 26.0867 20.2862 25.5502C20.0358 25.0137 19.7855 24.4772 19.3563 24.4772C18.9436 24.4772 18.9277 24.9732 18.9112 25.4882C18.8934 26.0446 18.8748 26.6232 18.3548 26.6232C17.7386 26.6232 17.4474 25.7023 17.1812 24.8605C17.0148 24.3343 16.8582 23.839 16.6381 23.6189C16.396 23.3767 14.9758 23.2627 13.3961 23.1358C11.2421 22.9628 8.79161 22.766 8.62655 22.1882C8.34042 21.1868 8.19736 15.0351 8.91268 14.0336ZM22.3606 18.0394C21.7884 17.6102 21.7884 9.8848 22.3606 9.16948C22.9329 8.45416 25.508 8.02495 27.797 9.16946C30.0861 10.314 29.943 15.7504 29.2277 16.7518C28.5124 17.7532 27.2248 19.47 26.0803 19.47C25.0993 19.47 24.5387 18.8394 24.2184 18.479C24.165 18.4189 24.1183 18.3664 24.0774 18.3255C23.9495 18.1976 23.7071 18.2126 23.4272 18.23C23.0809 18.2516 22.677 18.2767 22.3606 18.0394ZM11.0586 15.3212C11.9742 13.49 14.4464 12.3913 15.7648 11.8053C16.0945 11.6588 16.352 11.5443 16.4951 11.4585C17.2104 11.0293 18.641 10.314 19.4994 11.3154C20.3578 12.3169 20.3578 19.47 19.4994 20.1853C18.9775 20.6202 18.1912 20.5792 17.5263 20.5445C17.0976 20.5221 16.7194 20.5024 16.4951 20.6145C16.4951 20.6145 15.9228 21.0437 15.4936 21.1868C15.4936 21.1868 11.917 21.616 11.3448 21.0437C10.7725 20.4714 9.91414 17.6102 11.0586 15.3212ZM21.0366 21.6779C20.8805 22.1988 20.7072 22.7769 20.5008 23.1897C20.632 23.1372 20.7987 23.0672 20.9896 22.9871C21.8392 22.6307 23.1683 22.073 23.986 21.9562C24.2721 21.9562 21.7884 20.1854 21.5023 20.4715C21.3537 20.62 21.2052 21.1156 21.0366 21.6779Z" fill="#F6F2F2"/>
</g>
<defs>
<filter id="filter0_d_6_5372" x="0" y="0" width="40" height="40" filterUnits="userSpaceOnUse" color-interpolation-filters="sRGB">
<feFlood flood-opacity="0" result="BackgroundImageFix"/>
<feColorMatrix in="SourceAlpha" type="matrix" values="0 0 0 0 0 0 0 0 0 0 0 0 0 0 0 0 0 0 127 0" result="hardAlpha"/>
<feOffset dy="4"/>
<feGaussianBlur stdDeviation="2"/>
<feComposite in2="hardAlpha" operator="out"/>
<feColorMatrix type="matrix" values="0 0 0 0 0 0 0 0 0 0 0 0 0 0 0 0 0 0 0.25 0"/>
<feBlend mode="normal" in2="BackgroundImageFix" result="effect1_dropShadow_6_5372"/>
<feBlend mode="normal" in="SourceGraphic" in2="effect1_dropShadow_6_5372" result="shape"/>
</filter>
</defs>
<svg width="251" height="250" viewBox="0 0 251 250" fill="none" xmlns="http://www.w3.org/2000/svg">
<ellipse cx="125.5" cy="125" rx="125.5" ry="125" fill="#C13631"/>
<path fill-rule="evenodd" clip-rule="evenodd" d="M38.5335 109.638C44.1443 101.814 118.206 52.636 129.428 45.9299C140.649 39.2238 194.513 52.6359 204.612 61.5774C214.075 69.9552 219.597 115.618 221.178 128.697C221.285 129.577 221.374 130.31 221.444 130.874C222.094 136.049 210.336 144.221 199.881 151.487C192.275 156.773 185.358 161.58 184.413 164.404C183.308 167.706 184.38 171.822 185.35 175.549C186.351 179.391 187.244 182.82 185.535 184.522C183.828 186.223 181.544 185.624 178.828 184.911C176.19 184.219 173.144 183.421 169.825 184.522C166.195 185.727 164.849 190.831 163.675 195.279C162.671 199.082 161.794 202.405 159.726 202.405C157.607 202.405 154.987 199.914 152.222 197.283C149.13 194.343 145.855 191.228 142.894 191.228C140.216 191.228 139.838 195.047 139.444 199.039C139.011 203.412 138.558 207.994 135.039 207.994C131.672 207.994 129.708 203.802 127.745 199.611C125.781 195.42 123.817 191.228 120.451 191.228C117.214 191.228 117.089 195.103 116.96 199.127C116.82 203.473 116.674 207.994 112.596 207.994C107.762 207.994 105.478 200.799 103.39 194.222C102.085 190.111 100.856 186.242 99.1297 184.522C97.2306 182.631 86.091 181.74 73.7002 180.748H73.7C56.805 179.397 37.584 177.859 36.2892 173.346C34.0449 165.522 32.9228 117.461 38.5335 109.638ZM144.016 140.933C139.528 137.58 139.528 77.2252 144.016 71.6368C148.505 66.0483 168.704 62.6951 186.658 71.6366C204.613 80.578 203.49 123.05 197.88 130.874C192.269 138.697 182.17 152.11 173.192 152.11C165.498 152.11 161.101 147.183 158.588 144.367C158.169 143.898 157.803 143.487 157.482 143.168C156.479 142.169 154.578 142.286 152.382 142.422C149.666 142.591 146.498 142.787 144.016 140.933ZM55.3665 119.697C62.5482 105.391 81.9389 96.807 92.2807 92.2289C94.8662 91.0844 96.8861 90.1902 98.0083 89.5196C103.619 86.1665 114.84 80.578 121.573 88.4018C128.306 96.2257 128.306 152.11 121.573 157.698C117.48 161.096 111.312 160.775 106.097 160.504C102.734 160.329 99.7679 160.175 98.0083 161.051C98.0083 161.051 93.5197 164.404 90.1532 165.522C90.1532 165.522 62.0993 168.875 57.6107 164.404C53.1221 159.933 46.3893 137.58 55.3665 119.697ZM133.63 169.358C132.406 173.428 131.046 177.944 129.428 181.169C130.457 180.759 131.764 180.213 133.262 179.587C139.926 176.802 150.351 172.445 156.765 171.533C159.009 171.533 139.527 157.698 137.283 159.933C136.117 161.094 134.952 164.965 133.63 169.358Z" fill="#F6F2F2"/>
</svg>
