<svg width="24" height="24" viewBox="0 0 24 24" fill="none" xmlns="http://www.w3.org/2000/svg">
<path d="M12.0191 21.5548C12.9885 20.9331 13.9495 20.2988 14.8856 19.6286C15.7675 19.0124 16.6127 18.3452 17.4169 17.6304C18.0054 17.0959 18.2159 16.452 18.1716 15.6738C18.1116 14.5937 18.107 13.5126 18.1577 12.4307C18.1736 11.6265 18.2692 10.8259 18.443 10.0406C18.6229 9.32873 18.9297 8.65512 19.3486 8.05211C19.7465 7.47067 20.2307 6.95329 20.7846 6.5178C20.8158 6.48421 20.8563 6.46061 20.9009 6.44995C20.7974 6.59445 20.686 6.73314 20.5672 6.86538C20.1114 7.50855 19.7716 8.22652 19.5632 8.98682C19.3766 9.65248 19.2515 10.3339 19.1894 11.0224C19.0218 12.6495 19.0509 14.2779 19.1464 15.9078C19.188 16.6685 19.2531 17.4278 19.3417 18.1857C19.3489 18.2198 19.3457 18.2552 19.3323 18.2874C19.319 18.3195 19.2962 18.3468 19.2669 18.3657C18.1065 19.2534 16.9502 20.1479 15.7649 20.9968C15.229 21.3831 14.6723 21.7418 14.1503 22.1489C13.444 22.7028 12.7637 23.2853 12.1091 23.8964C12.0884 23.9158 12.0648 23.9338 12.0427 23.9532C12.0205 23.9726 12.0094 23.9352 12.0067 23.913C12.0067 23.7358 12.0067 23.5599 12.0067 23.3841C12.0046 23.3712 12.0046 23.3581 12.0067 23.3453C12.0388 23.2725 12.0912 23.2105 12.1576 23.1667C13.0272 22.3967 13.9259 21.6614 14.8593 20.9705C15.0268 20.8458 15.193 20.717 15.3716 20.6076C15.4225 20.5706 15.4757 20.5368 15.5309 20.5066C15.5433 20.5066 15.553 20.4858 15.571 20.4913C15.553 20.4789 15.5447 20.4913 15.5322 20.5024C15.4726 20.5354 15.4152 20.5724 15.3605 20.6132C14.8856 20.8901 14.412 21.1671 13.9467 21.4523C13.3383 21.8308 12.7383 22.2241 12.1465 22.6322C12.105 22.6612 12.0648 22.7291 11.997 22.6695C11.9935 22.6559 11.9935 22.6416 11.997 22.628C11.997 22.2846 11.997 21.9356 11.997 21.5977C11.9987 21.5812 12.0066 21.5658 12.0191 21.5548V21.5548Z" fill="#F3F3F3"/>
<path d="M5.84864 13.3447C5.86525 13.9402 5.85695 14.5342 5.83756 15.1297C5.82787 15.4399 5.80848 15.7487 5.81402 16.0589C5.82022 16.3547 5.88909 16.646 6.01607 16.9133C6.14305 17.1806 6.32527 17.418 6.55071 17.6098C7.27547 18.2627 8.03793 18.8726 8.83416 19.4363C9.81872 20.148 10.8254 20.821 11.8502 21.476C11.882 21.4954 11.9097 21.5203 11.9402 21.5425C11.9642 21.5768 11.9759 21.6183 11.9734 21.6602C11.9734 21.9773 11.9734 22.293 11.9734 22.6101C11.9429 22.7029 11.8875 22.6655 11.8349 22.6309C11.6715 22.5215 11.5081 22.4121 11.3461 22.2999C10.4668 21.6934 9.54592 21.145 8.62645 20.6119C8.60983 20.6119 8.60152 20.5856 8.58214 20.5856C8.59293 20.5921 8.60312 20.5995 8.6126 20.6078C8.97264 20.8446 9.31329 21.109 9.65532 21.3694C10.2452 21.818 10.8144 22.2916 11.3766 22.7721C11.5414 22.9106 11.702 23.0615 11.8654 23.2042C11.9205 23.2436 11.9587 23.3025 11.972 23.369C11.9845 23.5605 11.9803 23.7528 11.9595 23.9436L11.9443 23.9602C11.5372 23.5933 11.1301 23.2263 10.7147 22.8691C9.99192 22.2643 9.23854 21.6972 8.45751 21.17C7.59065 20.569 6.75703 19.9237 5.91787 19.2839C5.52045 18.9821 5.12718 18.6774 4.73114 18.3742C4.70175 18.3592 4.6778 18.3353 4.66265 18.306C4.6475 18.2767 4.64191 18.2434 4.64667 18.2108C4.7256 17.5876 4.78515 16.9645 4.82669 16.3358C4.8302 16.3027 4.83575 16.2699 4.84331 16.2375C4.86962 16.0694 4.88074 15.8993 4.87654 15.7293C4.89177 15.5008 4.90701 15.2723 4.91116 15.0369C4.92085 14.5218 4.94716 14.008 4.9347 13.4943C4.9527 13.4223 5.00809 13.4472 5.04548 13.4611C5.16256 13.5019 5.28783 13.5135 5.41042 13.4949C5.53302 13.4764 5.64922 13.4281 5.74893 13.3544C5.77663 13.3392 5.80986 13.317 5.84864 13.3447Z" fill="#F3F3F3"/>
<path d="M2.95882 6.34229C3.33922 6.60252 3.68738 6.90699 3.996 7.2493C4.61367 7.90216 5.08858 8.67653 5.39045 9.52306C5.51869 9.8684 5.60561 10.2277 5.6494 10.5935C5.71863 11.0809 5.76295 11.5628 5.79895 12.0585C5.79895 12.143 5.7671 12.1652 5.69509 12.1541C5.65447 12.1439 5.61502 12.1295 5.57739 12.1112C5.48863 12.0728 5.39297 12.0531 5.29628 12.0531C5.1996 12.0531 5.10394 12.0728 5.01518 12.1112C4.97865 12.1333 4.93491 12.1403 4.89332 12.1306C4.83101 12.0807 4.86147 12.0101 4.85455 11.9478C4.84762 11.8855 4.8684 11.8425 4.8407 11.7927V11.7677C4.84411 11.6746 4.83479 11.5814 4.81301 11.4908C4.75623 11.1571 4.72715 10.8192 4.67453 10.4855C4.57493 9.90651 4.42906 9.33647 4.23833 8.78084C3.99605 8.0579 3.65494 7.37195 3.22469 6.74248C3.13884 6.61924 3.04467 6.50846 2.95467 6.38106C2.95222 6.37832 2.95038 6.37509 2.94926 6.37159C2.94813 6.3681 2.94776 6.3644 2.94815 6.36075C2.94854 6.3571 2.94969 6.35357 2.95153 6.35039C2.95337 6.34721 2.95585 6.34445 2.95882 6.34229V6.34229Z" fill="#F3F3F3"/>
<path d="M4.84351 11.7859C4.89336 11.844 4.86289 11.9147 4.86843 11.9784C4.86588 12.026 4.87491 12.0735 4.89474 12.1168C4.9529 12.1944 4.92521 12.2844 4.93075 12.3689C4.94458 12.4349 4.94831 12.5026 4.94182 12.5697C4.97305 12.5166 5.01528 12.4708 5.06569 12.4355C5.11609 12.4001 5.17348 12.376 5.23401 12.3647C5.29023 12.3549 5.34794 12.3579 5.40284 12.3735C5.45775 12.3891 5.50843 12.4168 5.55111 12.4547C5.59398 12.4872 5.62959 12.5283 5.65566 12.5754C5.68173 12.6224 5.69769 12.6744 5.70251 12.728C5.70734 12.7815 5.70092 12.8355 5.68367 12.8865C5.66642 12.9374 5.63872 12.9842 5.60235 13.0239C5.45695 13.197 5.19939 13.1942 4.98475 13.0155C4.98475 13.0834 4.98475 13.154 4.98475 13.2163C4.98475 13.2787 5.00691 13.3936 4.95013 13.4711C4.95013 13.6636 4.95013 13.8561 4.95013 14.0486C4.94321 14.4502 4.95013 14.8503 4.92105 15.2505C4.90443 15.5538 4.89197 15.8571 4.87536 16.1603C4.87536 16.1894 4.87536 16.2199 4.84628 16.2379C4.86751 15.684 4.88874 15.1301 4.90997 14.5762C4.93629 13.7603 4.92104 12.9436 4.86428 12.1293C4.85043 12.0116 4.84904 11.8981 4.84351 11.7859Z" fill="#F3F3F3"/>
<path d="M12.0191 23.9366L12.0412 23.9642C12.0315 23.9836 12.0232 24.0072 11.9927 23.9975C11.9622 23.9061 11.9541 23.8087 11.9692 23.7136C11.9588 23.6012 11.9588 23.4881 11.9692 23.3757C11.9717 23.3681 11.9769 23.3617 11.9838 23.3577C11.9906 23.3536 11.9987 23.3521 12.0066 23.3536C12.0066 23.3536 12.0066 23.3536 12.0149 23.3632C12.0322 23.5539 12.0336 23.7457 12.0191 23.9366V23.9366Z" fill="#F3F3F3"/>
<path d="M11.9887 23.3579V23.9976C11.9597 23.9976 11.9513 23.9796 11.9417 23.9602V23.9561C11.9624 23.7622 11.9417 23.5683 11.9513 23.3745C11.9521 23.3705 11.9538 23.3668 11.9563 23.3637C11.9588 23.3605 11.962 23.358 11.9657 23.3564C11.9694 23.3548 11.9734 23.354 11.9774 23.3543C11.9814 23.3546 11.9853 23.3558 11.9887 23.3579V23.3579Z" fill="#F3F3F3"/>
<path d="M21.0201 6.35193C21.0603 6.29376 21.0478 6.26607 20.9744 6.27299C20.9686 6.26682 20.9653 6.25864 20.9653 6.25014C20.9653 6.24164 20.9686 6.23347 20.9744 6.22729H21.0769C21.1586 6.31315 21.0908 6.33531 21.0201 6.35193Z" fill="#F3F3F3"/>
<path d="M4.81858 11.4849C4.84164 11.5268 4.85599 11.5729 4.86075 11.6205C4.86551 11.6681 4.86058 11.7162 4.84628 11.7618C4.82377 11.6713 4.81444 11.578 4.81858 11.4849V11.4849Z" fill="#F3F3F3"/>
<path d="M2.9325 6.27417V6.30186C2.92603 6.3082 2.91733 6.31176 2.90827 6.31176C2.8992 6.31176 2.8905 6.3082 2.88403 6.30186C2.88403 6.29355 2.88403 6.28386 2.88403 6.27555C2.88403 6.24232 2.90342 6.22432 2.93804 6.22709C2.94122 6.23033 2.94363 6.23425 2.94509 6.23856C2.94656 6.24286 2.94705 6.24743 2.94652 6.25195C2.94598 6.25646 2.94445 6.2608 2.94202 6.26465C2.9396 6.26849 2.93634 6.27174 2.9325 6.27417V6.27417Z" fill="#F3F3F3"/>
<path d="M20.8928 6.45304C20.8969 6.42954 20.9098 6.40847 20.9288 6.39408C20.9478 6.37968 20.9716 6.37304 20.9953 6.3755C20.9731 6.41704 20.9482 6.45443 20.8928 6.45304Z" fill="#F3F3F3"/>
<path d="M2.87988 6.30225H2.93112L2.95881 6.3424V6.38117C2.92384 6.36525 2.89581 6.33721 2.87988 6.30225V6.30225Z" fill="#F3F3F3"/>
<path d="M14.5575 6.23131C14.3124 5.73141 14.0659 5.2329 13.8221 4.73301C13.3827 3.83938 12.9451 2.94576 12.5094 2.05213C12.3418 1.70317 12.1784 1.35975 12.0192 1.01633V0.994178C12.0095 0.726921 12.0192 0.459664 12.0192 0.192407C12.0154 0.171863 12.0169 0.150698 12.0234 0.130857C12.0299 0.111015 12.0413 0.0931344 12.0566 0.0788574C12.2615 0.476281 12.472 0.873705 12.6714 1.27251C13.1044 2.14121 13.541 3.00945 13.9814 3.87723C14.2819 4.46991 14.5838 5.06396 14.8815 5.65802C14.8932 5.69087 14.9148 5.71928 14.9433 5.73937C14.9718 5.75945 15.0059 5.77021 15.0407 5.77019C16.0267 5.84312 17.0126 5.91882 17.9986 5.99729L20.4413 6.19531C20.5081 6.2096 20.5767 6.21426 20.6448 6.20915C20.6698 6.20915 20.7099 6.20915 20.6891 6.25347C20.597 6.26153 20.5043 6.26153 20.4122 6.25347C20.3537 6.24794 20.2948 6.24794 20.2363 6.25347H14.7541C14.6878 6.26622 14.6192 6.25849 14.5575 6.23131V6.23131Z" fill="#F3F3F3"/>
<path d="M11.9582 1.04134C11.6965 1.57862 11.4375 2.11729 11.1744 2.65457C10.7719 3.48542 10.3676 4.31212 9.96138 5.13466C9.78321 5.49654 9.60365 5.86212 9.42271 6.23139C9.37848 6.24775 9.33068 6.25205 9.28424 6.24385C7.41482 6.23554 5.54495 6.23139 3.67461 6.23139C3.6303 6.23139 3.56521 6.27293 3.53613 6.19538L5.07736 6.06937L7.45636 5.88243C7.94518 5.84365 8.434 5.80488 8.92282 5.77165C8.96231 5.77473 9.00176 5.76528 9.03557 5.74465C9.06938 5.72401 9.09583 5.69324 9.11114 5.65671C9.63827 4.60984 10.1682 3.56481 10.7008 2.52164C11.1015 1.73325 11.5008 0.945327 11.8986 0.157864C11.9125 0.132939 11.9291 0.109398 11.9443 0.0844727C11.9556 0.0942047 11.9644 0.106383 11.9702 0.120069C11.9759 0.133754 11.9785 0.14858 11.9776 0.163403C11.9863 0.456186 11.9799 0.749226 11.9582 1.04134Z" fill="#F3F3F3"/>
<path d="M20.4163 6.24544H20.6933C20.7065 6.23863 20.7213 6.23508 20.7362 6.23508C20.7511 6.23508 20.7658 6.23863 20.7791 6.24544C20.839 6.2168 20.9068 6.209 20.9716 6.22328V6.26898H17.1345C16.3313 6.26898 15.5268 6.26898 14.7222 6.26898C14.6737 6.26898 14.6211 6.28559 14.5837 6.24959C14.6128 6.22466 14.6474 6.23436 14.6807 6.23436H20.3415C20.3669 6.23311 20.3924 6.23687 20.4163 6.24544V6.24544Z" fill="#F3F3F3"/>
<path d="M3.53616 6.19946C3.56801 6.23824 3.61371 6.22578 3.65387 6.22578H9.42274C9.40613 6.2701 9.36874 6.25902 9.33689 6.25902H3.21213C3.20821 6.25567 3.20524 6.25135 3.20354 6.24648C3.20183 6.24161 3.20145 6.23638 3.20244 6.23132C3.22044 6.21331 3.24675 6.22024 3.26614 6.20777L3.53616 6.19946Z" fill="#F3F3F3"/>
<path d="M11.9888 1.00533L11.9667 1.02056C11.9468 0.906278 11.9422 0.789877 11.9528 0.674374C11.9528 0.470816 11.9528 0.265872 11.9528 0.0609291C11.9625 0.0387731 11.9528 0.00692376 11.993 0C12.0055 0.0170142 12.0132 0.0371205 12.0151 0.0581596C12.0234 0.358651 12.0151 0.660527 12.0151 0.961018C12.014 0.969806 12.0111 0.978269 12.0065 0.985889C12.002 0.993508 11.996 1.00012 11.9888 1.00533V1.00533Z" fill="#F3F3F3"/>
<path d="M11.9888 1.00533C11.9888 0.67022 11.9888 0.33511 11.9888 0C12.0289 0 12.0262 0.0360035 12.0359 0.0609291C12.0165 0.322647 12.0359 0.58575 12.0275 0.847468C12.0331 0.901332 12.0331 0.95562 12.0275 1.00948V1.00948L11.9888 1.00533Z" fill="#F3F3F3"/>
<path d="M11.9472 0.0610352C11.9679 0.24491 11.973 0.430203 11.9624 0.614936C11.9624 0.753411 11.9624 0.891886 11.9624 1.03036C11.9632 1.03426 11.9628 1.03828 11.9613 1.04196C11.9598 1.04564 11.9573 1.04882 11.9541 1.05113C11.9282 0.972135 11.922 0.887974 11.9361 0.806032C11.9361 0.569239 11.9361 0.331062 11.9361 0.0942692L11.9472 0.0610352Z" fill="#F3F3F3"/>
<path d="M12.0193 1.00959C12.0193 0.711869 12.0193 0.415532 12.0193 0.11781C12.0228 0.0980049 12.0293 0.0788571 12.0387 0.0610352C12.042 0.0625501 12.0446 0.0651977 12.0462 0.0684992C12.0477 0.0718008 12.048 0.0755386 12.047 0.0790369C12.047 0.355988 12.047 0.620475 12.047 0.890502C12.0373 0.93066 12.0539 0.969433 12.0193 1.00959Z" fill="#F3F3F3"/>
<path d="M20.7751 6.24957H20.6893C20.6131 6.19972 20.5148 6.26758 20.4414 6.20387C20.5536 6.21218 20.674 6.16925 20.7751 6.24957Z" fill="#F3F3F3"/>
<path d="M2.93262 6.27448C2.93262 6.25925 2.93262 6.24263 2.93262 6.2274H3.00739C3.03104 6.21847 3.05714 6.21847 3.08078 6.2274C3.08779 6.23376 3.09232 6.24238 3.09359 6.25176C3.09485 6.26113 3.09277 6.27065 3.08771 6.27864L2.93262 6.27448Z" fill="#F3F3F3"/>
<path d="M3.08471 6.23129H3.00854C3.09163 6.18697 3.18025 6.21744 3.26611 6.2119L3.20795 6.23267C3.19094 6.24786 3.16886 6.25614 3.14606 6.25589C3.12326 6.25563 3.10137 6.24686 3.08471 6.23129V6.23129Z" fill="#F3F3F3"/>
<path d="M12.1398 10.8357C12.0747 10.7194 11.9681 10.6709 11.8891 10.5933C11.5771 10.3073 11.2249 10.0684 10.8437 9.88436C10.492 9.71392 10.1196 9.5901 9.73586 9.51601C9.38817 9.43963 9.0323 9.40707 8.67652 9.41908C8.48318 9.42178 8.29098 9.44924 8.10462 9.50078C8.01184 9.52709 7.96615 9.50078 7.90522 9.44539C7.77404 9.3511 7.63506 9.26818 7.48979 9.19752C7.17545 9.03827 6.89296 8.82641 6.58693 8.64362C6.24628 8.44698 5.91533 8.22819 5.57468 8.02879C5.4999 7.98448 5.4362 7.92909 5.3545 7.88339C5.32819 7.86816 5.31712 7.85431 5.32404 7.82661C5.33096 7.79892 5.3545 7.80446 5.37389 7.80307H5.46251C7.0319 7.80307 8.60128 7.80307 10.1707 7.80307C10.2097 7.80953 10.2498 7.80037 10.2822 7.77758C10.3145 7.75478 10.3367 7.72017 10.3438 7.68122C10.4822 7.3198 10.593 6.95284 10.7481 6.59834C10.9032 6.24384 11.0251 5.84088 11.1732 5.46977C11.3006 5.15958 11.4211 4.84663 11.5388 4.53229C11.5956 4.37581 11.6454 4.21518 11.7133 4.06286C11.7811 3.91054 11.8518 3.71252 11.9224 3.53804C11.9321 3.51311 11.9348 3.46741 11.9847 3.47434C12.0345 3.48126 12.0082 3.51865 12.0179 3.54219C12.1356 3.85791 12.2561 4.17364 12.3724 4.49075C12.4887 4.80785 12.5926 5.14712 12.7228 5.46007C12.9083 5.91289 13.0288 6.38924 13.224 6.83652C13.3431 7.11347 13.4262 7.40288 13.5245 7.68814C13.5316 7.72216 13.5511 7.75228 13.5794 7.77255C13.6076 7.79281 13.6424 7.80173 13.6769 7.79754C15.2398 7.79754 16.8036 7.79754 18.3684 7.79754H18.4432C18.4792 7.79754 18.5318 7.77815 18.547 7.81277C18.572 7.87093 18.5027 7.87093 18.4736 7.89308C18.1967 8.09803 17.8768 8.23512 17.5957 8.43175C17.3146 8.62839 17.0293 8.75024 16.7649 8.93857C16.5281 9.10751 16.2636 9.22383 16.0282 9.39C15.8703 9.50078 15.7041 9.59771 15.5394 9.69741C15.5117 9.7198 15.4773 9.73235 15.4417 9.73311C15.4062 9.73386 15.3713 9.72276 15.3427 9.70157C14.919 9.43153 14.4689 9.20512 13.9995 9.02581C13.7766 8.94273 13.555 8.85549 13.3279 8.78763C12.9537 8.68397 12.5742 8.6003 12.191 8.53699C11.9432 8.49268 11.6981 8.42898 11.4446 8.40821C11.248 8.39159 11.0528 8.35974 10.8561 8.33897C10.1317 8.27944 9.40423 8.26418 8.67791 8.29328C8.37902 8.29618 8.08119 8.32912 7.7889 8.39159C8.54889 8.52691 9.29919 8.71195 10.035 8.94549C10.4505 9.07642 10.8564 9.23653 11.2494 9.42462C11.5791 9.57856 11.8978 9.75484 12.2035 9.95221C12.5662 10.1949 12.9114 10.4628 13.2365 10.754C13.4683 10.9682 13.6879 11.1951 13.8943 11.4339C14.1685 11.7395 14.4055 12.0765 14.6005 12.4378C14.6794 12.5902 14.7764 12.7328 14.847 12.8879C14.9619 13.1385 15.0672 13.3975 15.1862 13.6453C15.3247 13.9223 15.4023 14.2297 15.5269 14.5164C15.5297 14.5333 15.5297 14.5506 15.5269 14.5676C15.4493 14.5676 15.4203 14.4928 15.3676 14.4582C15.1572 14.3197 14.9398 14.1992 14.739 14.0525C14.4523 13.8434 14.1408 13.6744 13.8583 13.4584C13.6519 13.3005 13.4151 13.1815 13.1964 13.043C12.8114 12.7882 12.4292 12.5278 12.0456 12.2689C11.9972 12.2357 11.9639 12.2149 11.8975 12.2606C11.4917 12.5375 11.0791 12.802 10.6678 13.0693C10.4795 13.1925 10.2801 13.2978 10.0973 13.4307C9.83833 13.619 9.54338 13.7603 9.29135 13.95C8.97009 14.1896 8.61282 14.3654 8.29156 14.6105C8.1614 14.7074 8.01461 14.7836 7.87614 14.8764C7.86682 14.8823 7.85601 14.8854 7.84498 14.8854C7.83395 14.8854 7.82314 14.8823 7.81382 14.8764C7.9066 14.6119 8.00353 14.3502 8.09077 14.0843C8.19601 13.7534 8.34834 13.439 8.45219 13.1081C8.53251 12.8505 8.61698 12.5943 8.7153 12.3451C8.81361 12.0958 8.91332 11.8036 9.01302 11.5322C9.10441 11.2843 9.18196 11.0309 9.28304 10.7858C9.30505 10.7255 9.342 10.6718 9.39044 10.6296C9.43888 10.5875 9.49722 10.5583 9.55999 10.5449C9.85338 10.4522 10.1593 10.4055 10.467 10.4064C10.8107 10.4176 11.1509 10.4797 11.4765 10.5906C11.7008 10.6529 11.9113 10.7498 12.1398 10.8357Z" fill="#F3F3F3"/>
<path d="M15.0838 17.2748C14.9707 17.1784 14.8251 17.1289 14.6767 17.1363C14.5991 17.1363 14.5174 17.1363 14.4981 17.2346C14.4787 17.333 14.559 17.3634 14.6254 17.3856C14.758 17.4403 14.885 17.5076 15.0049 17.5864C15.0432 17.6022 15.0767 17.6281 15.1018 17.6611C15.1544 17.7595 15.2029 17.7027 15.2403 17.6611C15.4055 17.4318 15.4902 17.1543 15.4812 16.8718C15.0381 16.9826 14.775 16.7431 14.8373 16.2889H14.4122C14.372 16.2889 14.3291 16.3013 14.3263 16.2321C14.3236 16.1628 14.3637 16.1628 14.4136 16.1628C14.6254 16.1628 14.8373 16.1628 15.0727 16.1628C14.9342 16.3346 14.8733 16.5076 15.027 16.6683C15.1807 16.8289 15.3871 16.7804 15.5809 16.6904C15.6171 16.8577 15.6189 17.0307 15.5863 17.1987C15.5537 17.3667 15.4873 17.5264 15.3912 17.6681C15.3554 17.7136 15.3171 17.7571 15.2763 17.7982C15.2417 17.8467 15.2181 17.8052 15.1904 17.7913C15.2278 18.1306 14.9259 18.2774 14.6822 18.276C14.5951 18.2865 14.5067 18.2804 14.4219 18.258C14.3679 18.2372 14.2903 18.258 14.2599 18.197C14.2172 18.114 14.1846 18.0261 14.1629 17.9353C14.1491 17.8827 14.1893 17.8758 14.2308 17.8993C14.2847 17.9277 14.3369 17.9592 14.3873 17.9935C14.4479 18.0363 14.5179 18.0639 14.5915 18.0738C14.665 18.0836 14.7399 18.0756 14.8096 18.0503C14.8405 18.0407 14.868 18.0227 14.8891 17.9982C14.9102 17.9737 14.9239 17.9437 14.9287 17.9118C14.9305 17.8819 14.9225 17.8523 14.906 17.8273C14.8896 17.8024 14.8655 17.7834 14.8373 17.7733C14.7168 17.7207 14.5964 17.6722 14.4773 17.6196C14.3922 17.591 14.3206 17.5322 14.276 17.4544C14.2313 17.3766 14.2167 17.2851 14.2349 17.1973C14.259 17.1104 14.3132 17.0348 14.3877 16.9841C14.4623 16.9334 14.5524 16.9108 14.6421 16.9203C14.7432 16.9203 14.8442 16.9203 14.9439 16.9203C15.0436 16.9203 15.1032 16.948 15.0824 17.0588C15.0777 17.1307 15.0782 17.2029 15.0838 17.2748V17.2748Z" fill="#F3F3F3"/>
<path d="M10.3783 17.4022C10.3473 17.3654 10.3081 17.3362 10.2639 17.317C10.2197 17.2978 10.1717 17.289 10.1235 17.2914C9.98505 17.2817 9.9449 17.3247 9.98505 17.4631C10.0148 17.4492 10.048 17.4439 10.0806 17.4479C10.1498 17.4479 10.2066 17.4382 10.2038 17.5448C10.2011 17.6515 10.1706 17.6639 10.0875 17.6487C9.96151 17.6252 9.97813 17.7069 9.97121 17.7872C9.96428 17.8675 10.0017 17.9118 10.0903 17.9007C10.1401 17.8938 10.1928 17.9007 10.2412 17.9007C10.4019 17.8675 10.4711 17.981 10.5777 18.1029H10.334C10.1623 18.1029 9.98921 18.114 9.81888 18.1029C9.76305 18.0961 9.70644 18.1055 9.65584 18.1301C9.60523 18.1546 9.5628 18.1933 9.53362 18.2414C9.52649 18.2553 9.51553 18.2668 9.50203 18.2747C9.48853 18.2825 9.47307 18.2864 9.45746 18.2857C9.2816 18.2857 9.10574 18.2857 8.92849 18.2857C8.91407 18.2883 8.89922 18.2866 8.88572 18.281C8.87221 18.2753 8.86062 18.2659 8.85233 18.2538C8.83294 18.2178 8.86479 18.1998 8.88556 18.1832C8.89958 18.1679 8.90998 18.1496 8.91597 18.1297C8.92196 18.1098 8.9234 18.0888 8.92018 18.0683C8.92018 17.7706 8.91187 17.4728 8.92018 17.1765C8.92018 17.0726 8.8274 17.038 8.81909 16.9272H9.11127C9.19298 16.9272 9.16528 16.9868 9.16528 17.0256C9.16528 17.3441 9.16528 17.6626 9.16528 17.981C9.16528 18.0614 9.1819 18.0946 9.26775 18.0863C9.35361 18.078 9.44362 18.0863 9.53224 18.0863C9.55799 18.0865 9.58351 18.0815 9.60721 18.0714C9.63091 18.0613 9.65227 18.0464 9.66995 18.0277C9.68763 18.009 9.70125 17.9868 9.70997 17.9626C9.71868 17.9383 9.72228 17.9126 9.72057 17.8869C9.72057 17.6875 9.72057 17.4867 9.73164 17.2859C9.73239 17.2697 9.72778 17.2538 9.71851 17.2405C9.70924 17.2272 9.69585 17.2174 9.68041 17.2125C9.6541 17.1973 9.64025 17.1848 9.64717 17.1557C9.6541 17.1267 9.68733 17.1308 9.70949 17.1308C9.90612 17.1308 10.1028 17.1308 10.2994 17.1308C10.3631 17.1308 10.3797 17.153 10.3756 17.2111C10.3714 17.2693 10.3783 17.3094 10.3783 17.4022Z" fill="#F3F3F3"/>
<path d="M9.59741 18.2358C9.60996 18.2009 9.63351 18.1712 9.66449 18.1509C9.69547 18.1307 9.7322 18.1211 9.76912 18.1236C10.0876 18.1236 10.4075 18.107 10.7246 18.1319C10.9489 18.1499 11.1705 18.1319 11.3934 18.1319C11.5885 18.1128 11.7842 18.1618 11.9473 18.2704C11.9653 18.2842 11.9778 18.3091 12.0055 18.2801C12.144 18.1416 12.3295 18.1416 12.4999 18.1319C13.0247 18.1194 13.5495 18.1319 14.0743 18.1319C14.1114 18.1312 14.148 18.1398 14.1809 18.1568C14.2114 18.1721 14.2059 18.1956 14.2073 18.2191C14.2086 18.2427 14.1851 18.2579 14.1574 18.2579H14.0702C13.5343 18.2579 12.997 18.2579 12.4611 18.2579C12.3893 18.2496 12.3166 18.2577 12.2484 18.2817C12.1803 18.3057 12.1185 18.3449 12.0678 18.3964C11.982 18.4961 11.9806 18.4906 11.8878 18.3964C11.8323 18.3451 11.7666 18.3063 11.695 18.2824C11.6234 18.2585 11.5475 18.2502 11.4724 18.2579C10.8935 18.2579 10.3161 18.2579 9.73727 18.2579C9.68949 18.2641 9.64093 18.2564 9.59741 18.2358V18.2358Z" fill="#F3F3F3"/>
<path d="M11.41 17.8451C11.4031 17.9102 11.4391 18.0016 11.3962 18.0653C11.3533 18.129 11.2577 18.0986 11.1843 18.1096C10.9365 18.1484 10.6955 18.1373 10.5072 17.9379C10.4544 17.8814 10.4161 17.8128 10.3957 17.7382C10.3753 17.6635 10.3735 17.585 10.3902 17.5095C10.407 17.4339 10.4419 17.3636 10.492 17.3046C10.542 17.2456 10.6057 17.1996 10.6775 17.1708C10.8671 17.1013 11.0722 17.0855 11.2702 17.1251C11.3034 17.1251 11.3117 17.1486 11.309 17.1763C11.309 17.2331 11.3311 17.2954 11.2923 17.3439C11.2757 17.366 11.2425 17.3356 11.2162 17.3231C11.1362 17.2799 11.0453 17.2611 10.9547 17.2689C10.8642 17.2768 10.7779 17.311 10.7066 17.3674C10.671 17.4051 10.6447 17.4507 10.6301 17.5005C10.6154 17.5502 10.6126 17.6027 10.6221 17.6537C10.6315 17.7048 10.6529 17.7528 10.6844 17.794C10.7159 17.8352 10.7568 17.8684 10.8035 17.8908C10.9009 17.9264 11.005 17.9397 11.1082 17.9296C11.1469 17.9296 11.1649 17.9116 11.158 17.877C11.1414 17.7994 11.2065 17.7011 11.0957 17.643C11.068 17.6291 11.0722 17.5793 11.1262 17.5779H11.3657C11.4073 17.5779 11.41 17.6042 11.41 17.636V17.8451Z" fill="#F3F3F3"/>
<path d="M12.1577 17.3688C12.0331 17.2538 11.8891 17.3051 11.7534 17.2954C11.7742 17.4338 11.7728 17.4338 11.9126 17.4449C12.004 17.4532 11.9833 17.5169 11.9888 17.5723C11.9943 17.6277 11.968 17.6526 11.9099 17.6485C11.8517 17.6443 11.8102 17.6485 11.752 17.6485C11.77 17.7292 11.77 17.8129 11.752 17.8936H12.2159C12.1771 18.0501 12.1162 18.1013 11.9722 18.1013H11.5027C11.4501 18.1013 11.4058 18.0778 11.446 18.0334C11.5595 17.9019 11.4972 17.7565 11.5097 17.618C11.518 17.5266 11.5 17.4325 11.5097 17.3411C11.5135 17.3177 11.5119 17.2938 11.505 17.2712C11.498 17.2487 11.4859 17.228 11.4695 17.2109C11.4529 17.1901 11.4183 17.1804 11.4349 17.1458C11.4515 17.1112 11.4847 17.125 11.5111 17.125C11.6869 17.125 11.8628 17.125 12.0386 17.125C12.1176 17.125 12.1439 17.1458 12.1356 17.2234C12.1303 17.2729 12.138 17.323 12.1577 17.3688V17.3688Z" fill="#F3F3F3"/>
<path d="M11.8656 16.7706C11.8379 16.6715 11.8323 16.5675 11.849 16.466C11.9141 16.2181 12.1079 16.1447 12.3461 16.1142C12.4208 16.1094 12.4957 16.1094 12.5704 16.1142V16.1142C12.6508 16.1599 12.6508 16.1599 12.6397 16.3316C12.5227 16.2731 12.3888 16.2579 12.2616 16.2887C12.1969 16.304 12.1405 16.3435 12.1042 16.3992C12.0678 16.4549 12.0543 16.5224 12.0664 16.5878C12.0718 16.6473 12.0955 16.7037 12.1342 16.7493C12.1728 16.7949 12.2246 16.8275 12.2824 16.8426C12.3196 16.8481 12.3574 16.8481 12.3946 16.8426C12.4444 16.8357 12.5206 16.8758 12.5331 16.8149C12.5495 16.7807 12.5546 16.7421 12.5477 16.7047C12.5407 16.6674 12.522 16.6332 12.4943 16.6072C12.4721 16.5892 12.4624 16.5532 12.4458 16.5269C12.4971 16.4992 12.5303 16.5407 12.5718 16.5435C12.7671 16.5573 12.7712 16.5587 12.7657 16.7623C12.7657 16.8468 12.8128 16.9617 12.6951 16.9991C12.53 17.0641 12.3464 17.0641 12.1813 16.9991C12.0561 16.9524 11.9456 16.8731 11.8615 16.7692L11.8656 16.7706Z" fill="#F3F3F3"/>
<path d="M13.5894 16.1378C13.4842 16.2514 13.5285 16.3788 13.5243 16.4951C13.5202 16.6114 13.5243 16.6959 13.5243 16.7956C13.5216 16.8209 13.5216 16.8464 13.5243 16.8717C13.5354 16.9216 13.6351 16.9603 13.5853 17.0019C13.5507 17.0217 13.5116 17.0321 13.4717 17.0321C13.4319 17.0321 13.3927 17.0217 13.3582 17.0019C13.3028 16.9714 13.2834 17.0019 13.246 17.0102C13.1962 17.0336 13.1412 17.0437 13.0863 17.0397C13.0315 17.0356 12.9786 17.0174 12.9328 16.9869C12.887 16.9565 12.8498 16.9147 12.8249 16.8656C12.7999 16.8166 12.7881 16.7619 12.7904 16.7069C12.7904 16.5934 12.7904 16.4798 12.7904 16.3677C12.7904 16.2984 12.8098 16.2292 12.7156 16.1918C12.706 16.1918 12.6963 16.1655 12.6976 16.1517C12.699 16.1378 12.7212 16.1337 12.7364 16.1337C12.7946 16.1337 12.8541 16.1337 12.9123 16.1337C12.9704 16.1337 12.994 16.16 12.9926 16.2209C12.9926 16.3801 12.9926 16.5394 12.9926 16.6986C12.9926 16.8219 13.0535 16.8371 13.1574 16.8371C13.2612 16.8371 13.3263 16.8163 13.3222 16.6986C13.3222 16.5491 13.3222 16.3981 13.3222 16.2472C13.3222 16.1627 13.3388 16.1226 13.4302 16.135C13.4832 16.1393 13.5363 16.1402 13.5894 16.1378Z" fill="#F3F3F3"/>
<path d="M8.88008 16.1628C9.12656 16.1628 9.37443 16.1628 9.62092 16.1628C9.66523 16.1628 9.70123 16.1628 9.70123 16.2252C9.70123 16.2875 9.668 16.2902 9.6223 16.2902H9.11133C9.20826 16.7154 8.89115 16.9826 8.47296 16.8746C8.45957 17.0317 8.4812 17.1898 8.53627 17.3376C8.59134 17.4853 8.6785 17.619 8.79145 17.729C8.85792 17.7927 8.93685 17.8509 8.887 17.9741C8.71745 17.8638 8.57763 17.7136 8.47988 17.5365C8.36913 17.3135 8.32126 17.0646 8.34141 16.8164C8.34141 16.7347 8.32618 16.653 8.45911 16.7347C8.5291 16.7705 8.60819 16.7845 8.68618 16.7748C8.76418 16.7652 8.8375 16.7324 8.89669 16.6807C8.92997 16.6537 8.95679 16.6196 8.97522 16.581C8.99365 16.5423 9.00321 16.5 9.00321 16.4571C9.00321 16.4142 8.99365 16.3719 8.97522 16.3332C8.95679 16.2946 8.92997 16.2605 8.89669 16.2335C8.88589 16.2257 8.87827 16.2142 8.87521 16.2013C8.87216 16.1883 8.87389 16.1746 8.88008 16.1628V16.1628Z" fill="#F3F3F3"/>
<path d="M4.94471 13.1939C4.95086 13.0983 4.9434 13.0022 4.92255 12.9087C5.02641 13.007 5.0998 13.1067 5.22858 13.1178C5.28824 13.1292 5.34977 13.1259 5.4079 13.1083C5.46603 13.0907 5.51901 13.0593 5.56231 13.0167C5.62297 12.9532 5.65873 12.8699 5.66305 12.7822C5.66738 12.6945 5.63997 12.6081 5.58585 12.5389C5.52922 12.4717 5.45335 12.4234 5.36844 12.4005C5.28664 12.3856 5.20222 12.3973 5.12749 12.4337C5.03749 12.4656 5.01533 12.5722 4.93086 12.6026L4.89624 12.3908C4.95965 12.3229 5.03943 12.2724 5.12793 12.2442C5.21644 12.216 5.31071 12.2109 5.40172 12.2295C5.49273 12.2481 5.57745 12.2898 5.64775 12.3505C5.71805 12.4113 5.7716 12.489 5.80325 12.5763C5.80852 12.5918 5.81701 12.606 5.82818 12.6179C5.85179 12.8015 5.85874 12.9869 5.84895 13.1718C5.77971 13.1621 5.80741 13.1025 5.78664 13.0554C5.73272 13.1372 5.66016 13.2049 5.57493 13.253C5.4897 13.3012 5.39424 13.3284 5.29643 13.3324C5.23147 13.3345 5.16677 13.3232 5.10629 13.2994C5.04581 13.2756 4.99083 13.2397 4.94471 13.1939Z" fill="#F3F3F3"/>
<path d="M10.3575 16.8943C10.4101 16.8375 10.3783 16.7682 10.3824 16.7059C10.3866 16.6436 10.3824 16.5384 10.3824 16.4539C10.3945 16.3953 10.3896 16.3344 10.3682 16.2785C10.3469 16.2225 10.31 16.1739 10.262 16.1382C10.5057 16.1382 10.6982 16.1382 10.8906 16.1382C10.9474 16.1382 10.964 16.159 10.9613 16.2116C10.9585 16.2642 10.9613 16.3099 10.9613 16.3985C10.8643 16.2434 10.7411 16.3016 10.6331 16.2919C10.5708 16.2919 10.586 16.3348 10.5846 16.3708C10.5832 16.4068 10.5846 16.447 10.6414 16.4428C10.6788 16.4428 10.7162 16.4428 10.7536 16.4428C10.8339 16.4428 10.8325 16.4941 10.8366 16.5522C10.8408 16.6104 10.7937 16.6104 10.7494 16.6215C10.7051 16.6325 10.5929 16.555 10.5818 16.6962C10.5721 16.8126 10.5998 16.8693 10.7203 16.8472C10.7979 16.8333 10.8768 16.8472 10.9557 16.8347C11.0347 16.8222 10.9834 16.8943 11.0042 16.922C10.9838 16.9594 10.9524 16.9895 10.9143 17.0084C10.8761 17.0272 10.833 17.0338 10.7909 17.0272C10.6677 17.0175 10.5417 17.0272 10.4171 17.0272C10.3769 17.0272 10.3284 17.0397 10.3049 16.994C10.2813 16.9483 10.345 16.9372 10.3492 16.8998L10.3575 16.8943Z" fill="#F3F3F3"/>
<path d="M13.6809 16.1418C13.8485 16.1418 14.0271 16.1418 14.2057 16.1418C14.2874 16.1418 14.2916 16.1654 14.2666 16.3316C14.1711 16.2526 14.0603 16.2928 13.9565 16.2872C13.8997 16.2872 13.9039 16.3302 13.9052 16.3689C13.9066 16.4077 13.8955 16.4576 13.9579 16.4645C13.9911 16.4645 14.0243 16.4645 14.0576 16.4645C14.0908 16.4645 14.1296 16.4645 14.1309 16.524C14.1323 16.5836 14.1046 16.5919 14.0548 16.596C14.0049 16.6002 13.9052 16.5545 13.9025 16.6805C13.9025 16.8439 13.9025 16.8453 14.0659 16.8453H14.3303C14.2888 16.9353 14.2445 16.9838 14.1448 16.9838C13.9869 16.9838 13.8277 16.9838 13.6768 16.9838C13.7594 16.7094 13.7609 16.417 13.6809 16.1418V16.1418Z" fill="#F3F3F3"/>
<path d="M5.82818 12.6166C5.75202 12.5737 5.73125 12.4782 5.67586 12.4228C5.59591 12.3302 5.48534 12.2695 5.36432 12.2517C5.24331 12.2339 5.11993 12.2602 5.01671 12.3258C4.97933 12.3494 4.94748 12.3895 4.89624 12.3895C4.89624 12.2968 4.89624 12.2054 4.89624 12.1126C5.01949 12.0454 5.15787 12.011 5.29821 12.0124C5.43855 12.0139 5.57618 12.0512 5.69802 12.1209C5.75341 12.1527 5.78664 12.1417 5.7811 12.0586C5.75618 11.6182 5.72294 11.1793 5.65509 10.7444C5.65092 10.6942 5.65092 10.6437 5.65509 10.5935C5.71248 10.8551 5.7486 11.1209 5.7631 11.3884C5.81041 11.796 5.83215 12.2062 5.82818 12.6166V12.6166Z" fill="#F3F3F3"/>
<path d="M10.3575 16.8939C10.3451 16.8939 10.3257 16.8939 10.3215 16.8939C10.1526 17.1348 9.9061 16.9742 9.69978 17.0116C9.69024 17.0126 9.68063 17.0104 9.67257 17.0052C9.66451 17 9.6585 16.9921 9.65556 16.983C9.65263 16.9739 9.65294 16.964 9.65646 16.9551C9.65998 16.9461 9.66647 16.9387 9.67485 16.934C9.73993 16.8842 9.72747 16.8177 9.72747 16.7526C9.72747 16.5684 9.72747 16.3829 9.72747 16.1987C9.72747 16.1364 9.69562 16.1433 9.67208 16.1239C9.66142 16.117 9.65334 16.1067 9.64909 16.0947C9.64484 16.0827 9.64464 16.0696 9.64854 16.0575C9.66239 16.0215 9.68454 16.0409 9.70531 16.0575C9.71356 16.0589 9.722 16.0589 9.73024 16.0575C9.79948 16.0672 9.89918 16.0242 9.93103 16.0782C9.96288 16.1322 9.94626 16.2306 9.94626 16.3095C9.94626 16.4812 9.94626 16.6529 9.94626 16.826C10.0634 16.8123 10.1815 16.8082 10.2994 16.8135C10.3617 16.8135 10.3478 16.8537 10.3478 16.8897L10.3575 16.8939Z" fill="#F3F3F3"/>
<path d="M12.5732 16.1156C12.4403 16.044 12.2905 16.01 12.1398 16.0172C11.8846 16.0052 11.629 16.0299 11.3809 16.0906C11.2327 16.1239 11.1427 16.2416 10.9932 16.2526C10.9928 16.2156 11.003 16.1792 11.0226 16.1478C11.0423 16.1164 11.0705 16.0913 11.104 16.0754C11.3335 15.9403 11.5937 15.8659 11.86 15.8594C12.1119 15.8419 12.3646 15.8768 12.6023 15.9618C12.6826 15.9951 12.7601 16.0366 12.8626 16.0865C12.7675 16.1121 12.6686 16.121 12.5704 16.1128L12.5732 16.1156Z" fill="#F3F3F3"/>
<path d="M4.94458 13.194C5.0429 13.2162 5.12322 13.2868 5.22154 13.2951C5.3199 13.3039 5.41887 13.287 5.5087 13.2459C5.59853 13.2049 5.67614 13.1412 5.7339 13.0611C5.75328 13.0362 5.76298 13.0016 5.80313 12.9863C5.84745 13.0403 5.78929 13.1248 5.84329 13.1691V13.345C5.73943 13.3768 5.66189 13.4585 5.55942 13.4973C5.35708 13.5664 5.13617 13.557 4.94043 13.471C4.94458 13.3796 4.94458 13.2937 4.94458 13.194Z" fill="#F3F3F3"/>
<path d="M20.4163 6.24495H20.2778H14.7277H14.5768L14.5574 6.2311H20.2584C20.3111 6.21832 20.3666 6.22318 20.4163 6.24495V6.24495Z" fill="#F3F3F3"/>
<path d="M13.1701 16.1627C13.1945 16.1647 13.2191 16.1647 13.2435 16.1627C13.2906 16.1627 13.2975 16.1862 13.2975 16.225C13.2975 16.2638 13.2975 16.2914 13.2476 16.2887C13.1978 16.2859 13.1562 16.2887 13.1092 16.2887C13.0621 16.2887 13.0178 16.3039 13.0164 16.2278C13.015 16.1516 13.0607 16.1627 13.1064 16.1627H13.1701Z" fill="#F3F3F3"/>
<path d="M12.0193 22.6547V22.6824C12.0041 22.7267 11.9889 22.7031 11.975 22.6824C11.9598 22.3306 11.975 21.9803 11.975 21.6286C11.9739 21.616 11.9754 21.6034 11.9795 21.5914C11.9835 21.5795 11.99 21.5686 11.9986 21.5593H12.0235C12.0242 21.5662 12.0242 21.5732 12.0235 21.5801C12.0318 21.9346 12.0346 22.2946 12.0193 22.6547Z" fill="#F3F3F3"/>
<path d="M11.9888 21.5595V22.6922C11.95 22.7144 11.9555 22.6811 11.95 22.6604C11.95 22.3322 11.95 22.004 11.95 21.6758C11.9431 21.6348 11.9474 21.5927 11.9625 21.554L11.9888 21.5595Z" fill="#F3F3F3"/>
<path d="M11.9638 21.5538V22.6796C11.9458 22.6893 11.9403 22.6796 11.9375 22.663V21.5427L11.9638 21.5538Z" fill="#F3F3F3"/>
<path d="M3.08496 6.2312H3.20821V6.26444C3.16867 6.27818 3.12645 6.28245 3.08496 6.2769V6.2312Z" fill="#F3F3F3"/>
<path d="M12.0193 22.6544C12.0193 22.2944 12.0193 21.9343 12.0193 21.5757C12.0281 21.5844 12.0348 21.5951 12.0386 21.6069C12.0425 21.6187 12.0435 21.6313 12.0414 21.6435V22.5852C12.0435 22.5977 12.0425 22.6104 12.0387 22.6225C12.0348 22.6345 12.0282 22.6454 12.0193 22.6544V22.6544Z" fill="#F3F3F3"/>
<path d="M12.0193 23.9368C12.0193 23.7457 12.0193 23.5546 12.0193 23.3635C12.0567 23.5528 12.0567 23.7476 12.0193 23.9368V23.9368Z" fill="#F3F3F3"/>
<path d="M11.9402 23.3276L11.9665 23.3498C11.9665 23.5118 11.9665 23.6752 11.9665 23.8372C11.9665 23.876 11.9859 23.9203 11.9471 23.9536C11.9416 23.7445 11.9416 23.5409 11.9402 23.3276Z" fill="#F3F3F3"/>
<path d="M5.29218 12.5403C5.33723 12.5395 5.38149 12.5522 5.41926 12.5767C5.45704 12.6013 5.4866 12.6366 5.50415 12.6781C5.5217 12.7195 5.52644 12.7653 5.51775 12.8095C5.50905 12.8537 5.48733 12.8943 5.45538 12.9261C5.42342 12.9578 5.38269 12.9793 5.33844 12.9877C5.29418 12.9961 5.24841 12.9911 5.20703 12.9733C5.16565 12.9555 5.13055 12.9257 5.10624 12.8878C5.08193 12.8499 5.06953 12.8055 5.07062 12.7605C5.07062 12.7315 5.07636 12.7027 5.08752 12.6759C5.09867 12.6491 5.11501 12.6248 5.1356 12.6043C5.15619 12.5839 5.18063 12.5677 5.2075 12.5567C5.23437 12.5457 5.26315 12.5401 5.29218 12.5403V12.5403Z" fill="#F3F3F3"/>
<path d="M13.8609 17.146C13.584 17.0879 13.307 17.1322 13.0301 17.1197C12.9595 17.1197 12.9761 17.1682 12.9761 17.2056C12.9761 17.333 12.9761 17.459 12.9761 17.5864C12.8681 17.4604 12.7254 17.3856 12.6354 17.2651C12.5869 17.1978 12.518 17.148 12.4389 17.1231C12.3598 17.0981 12.2748 17.0994 12.1965 17.1267C12.3266 17.2291 12.2962 17.3648 12.2975 17.4936C12.2989 17.6224 12.2975 17.7193 12.2975 17.8329C12.2984 17.8824 12.2834 17.931 12.2546 17.9713C12.2325 18.0046 12.1688 18.0226 12.1868 18.0655C12.2048 18.1084 12.2685 18.089 12.3114 18.0932C12.3543 18.0973 12.3709 18.0932 12.4 18.0932C12.4914 18.1043 12.5274 18.0697 12.5246 17.9727C12.5246 17.8079 12.5246 17.6432 12.5246 17.4562C12.7434 17.675 12.9636 17.8564 13.1492 18.0752L13.1796 18.0572V17.6819C13.1796 17.5559 13.1796 17.4299 13.1796 17.3039C13.1796 17.2402 13.2073 17.1917 13.2683 17.1904C13.3292 17.189 13.3583 17.2388 13.3569 17.3025C13.3569 17.4078 13.3569 17.5116 13.3569 17.6168C13.3569 17.7553 13.3915 17.8938 13.2932 18.024C13.2544 18.0752 13.2932 18.0932 13.3513 18.0932C13.5175 18.0994 13.6838 18.091 13.8485 18.0683C13.9591 18.0381 14.058 17.9751 14.1322 17.8876C14.2064 17.8001 14.2523 17.6922 14.2639 17.5781C14.2582 17.4702 14.2147 17.3678 14.141 17.2888C14.0673 17.2098 13.9682 17.1592 13.8609 17.146V17.146ZM13.6435 17.9007C13.5881 17.9007 13.5701 17.8827 13.5729 17.8287C13.5729 17.7498 13.5729 17.6695 13.5729 17.5905C13.568 17.5575 13.568 17.5239 13.5729 17.4908C13.5909 17.4258 13.5175 17.3302 13.6186 17.2984C13.6837 17.2837 13.7518 17.2891 13.8138 17.3138C13.8759 17.3385 13.929 17.3814 13.9662 17.4368C14.0589 17.7082 13.9579 17.8952 13.6435 17.9007V17.9007Z" fill="#F3F3F3"/>
<path d="M11.9486 16.9093C11.924 16.8952 11.9032 16.8751 11.8882 16.8509C11.8732 16.8268 11.8645 16.7993 11.8628 16.7709C11.7648 16.6033 11.68 16.4283 11.6094 16.2474C11.5753 16.1991 11.5267 16.163 11.4706 16.1443C11.4146 16.1257 11.354 16.1254 11.2978 16.1436C11.2934 16.1461 11.2896 16.1495 11.2866 16.1536C11.2836 16.1577 11.2815 16.1624 11.2805 16.1674C11.2794 16.1724 11.2794 16.1775 11.2805 16.1825C11.2816 16.1874 11.2837 16.1921 11.2867 16.1962C11.3463 16.2377 11.3116 16.2821 11.2867 16.3167C11.1676 16.5064 11.1095 16.7321 11.0001 16.919C11.0098 16.9564 10.9641 17.0187 11.0472 17.0215C11.1067 17.0215 11.1856 17.0395 11.1939 16.955C11.2023 16.8706 11.2632 16.8429 11.2784 16.7792C11.3047 16.6587 11.3989 16.7044 11.4723 16.6933C11.5457 16.6822 11.5734 16.7224 11.6011 16.7833C11.7118 17.0354 11.7146 17.0354 11.9085 17.0215C11.9334 17.0215 11.9708 17.0367 11.9777 16.991C11.9834 16.9762 11.9837 16.9598 11.9783 16.9448C11.973 16.9298 11.9625 16.9172 11.9486 16.9093V16.9093ZM11.3837 16.5368L11.4487 16.3693L11.5041 16.5368H11.3837Z" fill="#F3F3F3"/>
<path d="M14.5811 16.5671C14.5326 16.4411 14.4301 16.5671 14.354 16.5173C14.3055 16.5297 14.2307 16.5353 14.2307 16.6045C14.2307 16.7513 14.3609 16.7222 14.4495 16.743C14.5381 16.7637 14.48 16.6474 14.5423 16.6516C14.6046 16.6557 14.5506 16.574 14.5811 16.5671ZM14.3526 16.6654C14.329 16.6654 14.3096 16.6654 14.3124 16.6336C14.3138 16.626 14.3171 16.6188 14.3219 16.6128C14.3268 16.6068 14.333 16.602 14.3401 16.599C14.3636 16.592 14.3706 16.6156 14.3775 16.6322C14.3844 16.6488 14.3733 16.6654 14.3526 16.6654Z" fill="#F3F3F3"/>
</svg>
