<svg width="18" height="22" viewBox="0 0 18 22" fill="none" xmlns="http://www.w3.org/2000/svg">
<path d="M5 9C2 9 1 7 1 4V2C1 1.44772 1.44772 1 2 1H16C16.5523 1 17 1.44742 17 1.9997V4C17 7 16 9 13 9C11.5 9 11 10.3333 11 11V13C11 13.8 11.6667 14 12 14L12.5 15L12 16C12 16.8 12 20 13.5 20C13.7761 20 14 20.2239 14 20.5C14 20.7761 13.7761 21 13.5 21H4.5C4.22386 21 4 20.7761 4 20.5C4 20.2239 4.22386 20 4.5 20C6 20 6 18 6 16L5.5 15L6 14C6.8 14 7 13.3333 7 13V11C7 9.5 5.5 9 5 9Z" fill="#C4C4C4"/>
<path d="M6 14C6.8 14 7 13.3333 7 13V11C7 9.5 5.5 9 5 9C2 9 1 7 1 4V2C1 1.44772 1.44772 1 2 1H16C16.5523 1 17 1.44742 17 1.9997C17 2.58512 17 3.30913 17 4C17 7 16 9 13 9C11.5 9 11 10.3333 11 11C11 11.3333 11 12.2 11 13C11 13.8 11.6667 14 12 14M6 14L5.5 15L6 16M6 14H12M6 16C6 18 6 20 4.5 20V20C4.22386 20 4 20.2239 4 20.5V20.5C4 20.7761 4.22386 21 4.5 21H13.5C13.7761 21 14 20.7761 14 20.5V20.5C14 20.2239 13.7761 20 13.5 20V20C12 20 12 16.8 12 16M6 16H12M12 16L12.5 15L12 14" stroke="#F3F3F3" stroke-width="1.5"/>
</svg>
