<svg width="40" height="40" viewBox="0 0 40 40" fill="none" xmlns="http://www.w3.org/2000/svg">
<path d="M13.7588 8.13851C13.5911 7.80005 13.5911 7.80005 13.9652 7.80005H39.7846C39.8563 7.80005 39.928 7.80005 40 7.80005C39.9981 7.91082 39.9449 8.00497 39.8969 8.09943C39.4202 9.04302 38.9424 9.98589 38.4637 10.928C38.0298 11.7819 37.5797 12.628 37.1683 13.493C37.0575 13.7256 36.9369 13.7724 36.7037 13.7717C32.5375 13.7648 28.3715 13.7631 24.2055 13.7668C24.1492 13.7668 24.0932 13.7702 24.0369 13.772C23.9865 13.7967 23.9277 13.7653 23.8785 13.7957C23.8501 13.8059 23.7689 13.756 23.8268 13.8573C24.052 14.2484 24.2692 14.6437 24.4901 15.0373C24.8924 15.7534 25.295 16.4693 25.6978 17.185C25.7775 17.3262 25.8606 17.4653 25.9394 17.6068C25.9603 17.6447 25.9794 17.6779 26.0277 17.6785C26.0874 17.7025 26.1508 17.6905 26.2101 17.6905H34.4978C34.5594 17.6905 34.6209 17.6807 34.6824 17.6997L34.9 17.7111C34.8535 17.8207 34.816 17.9231 34.7674 18.0204C34.0845 19.3871 33.4011 20.7535 32.7172 22.1194C32.6821 22.1899 32.6535 22.261 32.5597 22.2637C32.5043 22.2813 32.4477 22.2727 32.3917 22.2727C31.204 22.2727 30.0163 22.2727 28.8286 22.2727C28.7735 22.2727 28.716 22.257 28.6634 22.2877C28.6852 22.4647 28.8031 22.5976 28.8846 22.7443C29.4166 23.7028 29.9471 24.6625 30.5037 25.6059C30.6535 25.86 30.6486 26.0428 30.5141 26.3C29.9803 27.3216 29.4744 28.3582 28.9581 29.3893C28.6658 29.9733 28.3737 30.5573 28.0818 31.1413C27.9428 31.4176 27.8015 31.6928 27.6581 31.9668C27.6351 32.0108 27.6175 32.0625 27.5563 32.0899C27.4114 31.8391 27.2646 31.5853 27.1184 31.3314L25.5541 28.6216C25.0906 27.816 24.6268 27.0105 24.1628 26.205C23.7745 25.5311 23.3834 24.8588 22.996 24.1847C22.5726 23.448 22.1541 22.7077 21.7295 21.9727C21.1754 21.0117 20.6154 20.0539 20.0615 19.0924C19.5883 18.2696 19.1249 17.4416 18.6517 16.6188C18.2209 15.8696 17.7803 15.1256 17.348 14.377C16.7254 13.299 16.105 12.22 15.4868 11.14C15.0649 10.4044 14.6462 9.66682 14.2234 8.93082C14.0711 8.66528 13.9138 8.40251 13.7588 8.13851Z" fill="#00ACED"/>
<path d="M8.69754 15.0648C9.13446 14.2223 9.57354 13.3814 10.0077 12.5374C10.7683 11.0586 11.5273 9.57903 12.2846 8.09862C12.3375 7.99554 12.3769 7.82323 12.4692 7.8217C12.5649 7.81862 12.6006 7.99277 12.6594 8.09123C12.8034 8.33185 12.944 8.57462 13.0858 8.81647C13.3342 9.31093 13.6277 9.78016 13.8982 10.2626C14.3818 11.1242 14.876 11.9817 15.364 12.8417C15.8674 13.7291 16.3699 14.617 16.8717 15.5054C17.3619 16.3696 17.8531 17.2331 18.3452 18.0959C18.776 18.8548 19.2058 19.6144 19.6348 20.3746C20.1039 21.2019 20.5749 22.0297 21.0477 22.858C21.4567 23.577 21.8656 24.2959 22.2745 25.0146C22.8062 25.9488 23.3274 26.8885 23.8689 27.8171C24.3957 28.7202 24.8988 29.6371 25.4126 30.5479C25.6618 30.9894 25.9142 31.4297 26.1606 31.8728C26.2812 32.0882 26.2769 32.0919 26.0357 32.1106C25.9911 32.122 25.9448 32.1251 25.8991 32.1199H19.8683C19.8225 32.1251 19.7761 32.122 19.7314 32.1106C19.6913 32.1124 19.6517 32.1024 19.6172 32.082C19.5827 32.0615 19.5549 32.0315 19.5372 31.9956C19.2074 31.4319 18.8683 30.8734 18.5335 30.3125C18.2306 29.8042 17.9283 29.2949 17.6268 28.7848C17.1775 28.0272 16.7345 27.2654 16.2778 26.5128C15.9255 25.9337 15.5797 25.3509 15.2351 24.7676C14.7237 23.9015 14.2099 23.0368 13.6938 22.1734C13.3498 21.5965 13.0003 21.0229 12.6585 20.4448C12.5895 20.3282 12.5458 20.3912 12.5102 20.4552C12.4366 20.5882 12.3732 20.7269 12.3062 20.8632C11.9585 21.5699 11.611 22.2765 11.2637 22.9829C10.5546 24.4215 9.84513 25.8598 9.13538 27.2977C9.11785 27.3331 9.10123 27.3688 9.076 27.4208C9.14308 27.4242 9.19631 27.4291 9.24985 27.4291C10.6388 27.4291 12.0278 27.4291 13.4169 27.4291C13.7729 27.4291 13.7748 27.4291 13.6157 27.7442C12.9043 29.1479 12.1932 30.5518 11.4825 31.9559C11.4311 32.0577 11.3594 32.042 11.2815 32.042H3.83908C3.77261 32.042 3.70615 32.0454 3.63938 32.0473C3.57785 32.0722 3.50923 32.0396 3.448 32.07H0C0.189846 31.6426 0.389231 31.2411 0.596308 30.8426C0.851692 30.3503 1.10154 29.858 1.35477 29.3657C1.97446 28.1596 2.59426 26.9536 3.21415 25.7479C3.84431 24.5189 4.47333 23.2895 5.10123 22.0596C5.90861 20.4856 6.71723 18.912 7.52708 17.3386C7.91703 16.5796 8.30718 15.8217 8.69754 15.0648Z" fill="#00ACED"/>
</svg>
