<svg width="40" height="40" viewBox="0 0 40 40" fill="none" xmlns="http://www.w3.org/2000/svg">
<path d="M36.9855 34.1666C36.7595 34.7907 36.0438 35.1291 35.2199 34.9987C34.4918 34.885 33.9717 34.3704 33.962 33.6673C33.9379 32.4477 33.9379 31.2285 33.962 30.0098C33.9717 29.4162 33.7775 29.039 32.9717 28.9849C33.8496 28.3288 34.6083 27.7519 35.3808 27.1929C35.6097 27.0265 35.7706 27.0958 35.7581 27.4107C35.7581 27.5716 35.765 27.7338 35.747 27.8933C35.6749 28.5521 35.9523 28.8476 36.6208 28.7574C36.7325 28.7378 36.8471 28.7408 36.9576 28.7663C37.0681 28.7918 37.1725 28.8393 37.2643 28.9058V29.1832C37.0812 29.1971 36.8996 29.2193 36.7165 29.222C35.8108 29.2373 35.7803 29.2636 35.7789 30.1444C35.7789 31.1291 35.772 32.1152 35.7872 33.1014C35.7969 34.1679 35.9509 34.2942 36.9855 34.1666Z" fill="#F3F3F3"/>
<path d="M14.8039 39.9971C14.8039 39.0054 14.815 38.0151 14.79 37.0248C14.7803 36.649 14.8704 36.4936 15.2782 36.5117C15.9717 36.5449 16.6652 36.5297 17.3586 36.5186C17.8954 36.5103 18.3295 36.6864 18.5043 37.2121C18.6652 37.7128 18.575 38.1926 18.0674 38.4603C17.6804 38.6684 18.0022 38.814 18.0674 38.9957C18.1853 39.3258 18.7179 39.5103 18.4155 39.9874H17.8607C17.4765 39.2107 17.1326 38.4326 15.998 38.6004C15.5819 38.6642 15.4432 38.7627 15.4835 39.1649C15.5098 39.4617 15.5653 39.7918 15.2269 39.986L14.8039 39.9971ZM16.5584 38.0248C16.765 38.0248 16.9745 38.0248 17.177 38.0248C17.4821 38.0248 17.8191 38.0096 17.8399 37.6087C17.8607 37.2079 17.5237 37.1552 17.2186 37.1455C16.7844 37.1302 16.3475 37.1566 15.9134 37.133C15.5847 37.1164 15.4793 37.2329 15.4738 37.563C15.4738 37.918 15.5736 38.0734 15.9412 38.0331C16.1466 38.0186 16.3526 38.0158 16.5584 38.0248V38.0248Z" fill="#F3F3F3"/>
<path d="M22.2893 39.9972C22.2006 39.735 21.926 39.7434 21.7346 39.6282C20.6125 38.9348 20.5778 37.4812 21.6971 36.785C22.5293 36.2676 23.4031 36.2676 24.2574 36.7253C24.8511 37.0416 25.1867 37.5658 25.159 38.251C25.1312 38.9362 24.7692 39.4077 24.1687 39.7226C24.0009 39.8099 23.7526 39.7739 23.6694 40L22.2893 39.9972ZM23.0272 37.054C22.1756 37.054 21.5834 37.5312 21.5959 38.208C21.6083 38.8848 22.195 39.3259 23.0688 39.3176C23.901 39.3079 24.4558 38.864 24.4641 38.2011C24.4724 37.5381 23.883 37.054 23.0272 37.054V37.054Z" fill="#F3F3F3"/>
<path d="M29.1092 38.7601C29.1245 38.1457 29.1439 37.5299 29.1536 36.9141C29.1536 36.6963 29.1536 36.5202 29.4656 36.5132C29.7777 36.5063 29.8512 36.6394 29.8443 36.9196C29.8207 37.9016 29.8124 38.8836 29.7985 39.8655C29.2715 39.9571 28.9039 39.7421 28.5641 39.3371C28.0204 38.6908 27.4171 38.0888 26.7278 37.3551C26.7278 38.1707 26.6986 38.7851 26.7416 39.3953C26.7611 39.688 26.6196 39.8336 26.4476 39.9973H26.0315C26.0315 39.0541 26.0315 38.1124 26.0523 37.1707C26.0523 36.9543 25.872 36.6159 26.2382 36.534C26.3924 36.4894 26.5563 36.491 26.7096 36.5386C26.863 36.5862 26.999 36.6777 27.1009 36.8017C27.6917 37.4716 28.3283 38.1013 28.9469 38.7435L29.0648 38.8517L29.1092 38.7601Z" fill="#F3F3F3"/>
<path d="M5.85522 14.1054C8.13816 13.5978 10.2935 13.104 12.4586 12.6435C12.9856 12.5312 13.1617 12.423 12.9232 11.8114C11.5002 8.1914 10.1312 4.54646 8.74565 0.907073C8.64995 0.656033 8.56674 0.400832 8.42804 0C10.0924 1.09293 11.6181 2.10402 13.1534 3.11096C15.2339 4.47711 17.3254 5.83218 19.3948 7.21637C19.7803 7.47434 20.0397 7.46602 20.428 7.20804C23.8677 4.9251 27.3226 2.66713 30.7748 0.402219C30.9273 0.300971 31.0841 0.206657 31.2893 0.0776699C31.2339 0.640777 30.9898 1.08738 30.8136 1.55062C29.5052 4.99769 28.189 8.44059 26.8649 11.8793C26.6971 12.3148 26.704 12.4938 27.2325 12.6061C29.4419 13.0763 31.6389 13.5992 33.9634 14.1318C32.9925 15.0208 32.0868 15.8571 31.1742 16.6865C27.6042 19.932 24.0244 23.165 20.4738 26.4313C20.0133 26.8558 19.7803 26.8225 19.3323 26.4161C15.0152 22.4503 10.6846 18.4993 6.34066 14.5631C6.20751 14.4397 6.07714 14.3148 5.85522 14.1054ZM9.99253 1.83773C9.94815 1.80583 9.88851 1.73786 9.86355 1.74896C9.75675 1.79612 9.81778 1.87517 9.85106 1.94313C11.1673 5.40915 12.4766 8.87656 13.8095 12.344C13.9814 12.7892 13.9357 12.9626 13.4419 13.068C11.797 13.4189 10.1604 13.8128 8.52513 14.1983C8.39337 14.2288 8.18393 14.1526 8.1451 14.43C8.93151 14.5964 9.71653 14.7517 10.496 14.9334C10.7423 14.9876 10.9978 14.9833 11.2422 14.9209C12.6819 14.5992 14.1201 14.2677 15.5667 13.9806C15.9828 13.8974 16.0272 13.7725 15.8844 13.4022C14.5899 10.0735 13.3078 6.73925 12.0383 3.39944C11.9698 3.17888 11.8266 2.98907 11.6333 2.86269C11.0799 2.52705 10.5376 2.1803 9.99253 1.83773ZM19.5972 22.5451C19.5972 17.8072 19.5972 13.172 19.6056 8.53675C19.6056 8.18863 19.4072 8.0527 19.1756 7.89736C17.2588 6.61489 15.3425 5.33148 13.4267 4.04716C13.2283 3.90846 13.0397 3.7018 12.7859 3.8613C12.9544 4.21683 13.0998 4.58282 13.2214 4.957C13.4197 5.71429 13.8677 6.23301 14.5182 6.65742C15.4433 7.26352 16.3032 7.96949 17.2242 8.58252C17.7138 8.90707 17.9079 9.26075 17.9024 9.87101C17.8663 13.4771 17.883 17.0721 17.8871 20.6727C17.8871 20.9168 17.7762 21.2469 18.0439 21.3662C18.6181 21.6366 18.962 22.1914 19.5972 22.5451ZM20.2158 22.6172C20.6153 22.2691 20.8816 21.9834 21.1992 21.7739C21.7831 21.3911 21.9287 20.8835 21.9218 20.1997C21.8871 16.7323 21.9218 13.2746 21.8941 9.81137C21.8941 9.30097 22.0133 8.96949 22.4558 8.67268C23.5099 7.9681 24.4974 7.16089 25.557 6.46602C26.5764 5.79889 26.5737 4.681 26.9662 3.72815C24.7845 5.11512 22.6666 6.54924 20.5279 7.96116C20.2505 8.14563 20.2103 8.36477 20.2117 8.65465C20.2172 13.251 20.2158 17.8447 20.2158 22.6172V22.6172ZM31.6708 14.4341L31.6874 14.2857C29.9703 13.889 28.2574 13.4716 26.5334 13.1082C25.962 12.9875 25.7887 12.8571 26.0355 12.2316C27.2991 9.04161 28.5099 5.81969 29.7276 2.6061C29.8108 2.38835 30.0203 2.17198 29.815 1.81137C29.1326 2.37725 28.134 2.52843 27.7748 3.44521C26.4794 6.75312 25.2283 10.0777 23.9371 13.3856C23.7623 13.8308 23.8871 13.9126 24.2977 13.9945C25.7221 14.2802 27.1396 14.6033 28.557 14.9237C28.8252 14.9868 29.1044 14.9868 29.3726 14.9237C30.1354 14.7476 30.9038 14.5936 31.6708 14.4244V14.4341ZM7.91764 15.1179L19.5972 25.7337C19.5972 25.1789 19.5543 24.8086 19.607 24.4521C19.7151 23.7295 19.3975 23.276 18.8663 22.8128C16.342 20.6158 13.833 18.4008 11.3656 16.1401C10.3601 15.2219 9.10765 15.3509 7.91764 15.1179ZM20.2477 25.706L31.8511 15.1512L31.7526 14.9986C31.1493 15.1373 30.5515 15.3135 29.9412 15.3911C29.306 15.4716 28.8455 15.7878 28.3892 16.1997C26.1451 18.2205 23.9371 20.2871 21.6042 22.1997C20.5113 23.0957 19.9648 24.0361 20.2172 25.4189C20.2228 25.466 20.2255 25.5201 20.2477 25.7087V25.706Z" fill="#084C2F"/>
<path d="M25.5765 24.8903L27.4406 24.2231V28.384C27.4406 30.1385 27.4406 31.8931 27.4406 33.6545C27.4406 34.0318 27.3657 34.4631 27.9732 34.5283C27.1188 35.1677 25.9857 35.1691 25.6986 34.0442C25.4975 34.2065 25.3144 34.3785 25.1105 34.5172C24.826 34.7169 24.5007 34.851 24.1581 34.9098C23.8155 34.9685 23.4641 34.9505 23.1293 34.8569C22.7945 34.7634 22.4847 34.5967 22.2222 34.3688C21.9596 34.141 21.751 33.8577 21.6112 33.5394C21.1909 32.6008 21.1413 31.5379 21.4725 30.5643C22.0023 28.9 23.7166 28.1649 25.3172 28.8736L25.7818 29.0761C25.6778 27.6559 25.9482 26.2939 25.5765 24.8903ZM25.7735 31.5893H25.7666C25.7666 31.1968 25.7666 30.8057 25.7666 30.4132C25.7666 29.8168 25.5114 29.3813 24.9441 29.1899C24.3213 28.9818 23.7569 29.1011 23.3255 29.6323C22.6473 30.4645 22.6029 32.6614 23.2575 33.5158C23.6598 34.0373 24.2048 34.2467 24.847 34.0706C25.4892 33.8944 25.7499 33.4007 25.7693 32.7668C25.7832 32.373 25.7735 31.9804 25.7735 31.5893V31.5893Z" fill="#F3F3F3"/>
<path d="M2.72492 34.7337C2.91049 34.3369 3.00163 33.9026 2.99121 33.4647C2.99121 30.9311 2.99121 28.3971 2.99121 25.8627C3.00886 25.3791 2.90891 24.8984 2.69995 24.4619C4.56958 24.4619 6.44475 24.4841 8.30883 24.4369C8.98012 24.4189 9.24503 24.6186 9.14794 25.2871C9.13098 25.5675 9.13098 25.8486 9.14794 26.129C7.95654 24.5742 6.39759 25.3232 5.01895 25.1581C4.74156 25.1248 4.77346 25.3689 4.77207 25.5451C4.77207 26.516 4.76976 27.4868 4.76514 28.4577C4.76514 28.6366 4.73879 28.8128 4.99815 28.8835C5.64309 29.061 7.49468 28.8197 8.09662 28.3995V30.3578C7.10078 29.5409 6.01618 29.9418 4.98844 29.853C4.80675 29.8364 4.76236 29.9778 4.76653 30.1304C4.81646 31.663 4.62783 33.2039 4.92048 34.7712C4.18894 34.8228 3.45427 34.8103 2.72492 34.7337V34.7337Z" fill="#F3F3F3"/>
<path d="M20.1758 33.3287C19.2646 35.0943 16.8637 35.387 15.5614 34.0818C14.6987 33.2178 14.4518 31.5492 15.0066 30.3273C15.5614 29.1054 16.6446 28.4979 18.0385 28.6116C19.4324 28.7254 20.535 29.9986 20.4768 31.4105C20.4671 31.6685 20.4005 31.7975 20.1273 31.7961C19.1814 31.7961 18.235 31.7961 17.2882 31.7961C16.9428 31.7961 16.7916 31.6186 16.7778 31.2413C17.4102 31.2413 18.026 31.2178 18.6529 31.2483C19.069 31.2691 19.155 31.1096 19.1231 30.7295C19.0538 29.8627 18.5225 29.1692 17.8097 29.0777C17.0968 28.9861 16.449 29.5187 16.2355 30.4341C16.0752 31.1123 16.0795 31.819 16.2479 32.4951C16.5378 33.6588 17.5267 34.1512 18.9442 33.8585C19.385 33.763 19.8033 33.5831 20.1758 33.3287V33.3287Z" fill="#F3F3F3"/>
<path d="M9.25903 29.2011C9.67512 29.0458 10.1925 28.8793 10.6848 28.6463C11.2396 28.3842 11.4518 28.5881 11.4615 29.1401C11.4615 29.3703 11.4615 29.5992 11.4615 29.9612C11.7611 29.6408 11.9719 29.3856 12.2119 29.1637C12.6668 28.7476 13.173 28.4397 13.8305 28.6172C14.011 28.6646 14.1724 28.7667 14.2926 28.9095C14.4128 29.0523 14.4858 29.2287 14.5017 29.4147C14.5372 29.5745 14.5191 29.7414 14.4501 29.8898C14.3812 30.0383 14.2653 30.1598 14.1203 30.2358C13.7764 30.4105 13.4657 30.276 13.1661 30.0499C12.3672 29.4452 11.5198 29.742 11.4893 30.7004C11.4477 32.0499 11.3603 33.4078 11.5753 34.7864H9.66819C9.4962 32.9362 10.0676 31.0485 9.25903 29.2011Z" fill="#F3F3F3"/>
<path d="M29.5099 28.8682L31.5293 27.9861C31.6805 30.3079 31.4392 32.5631 31.6902 34.8266H29.7776C29.7651 32.8585 30.141 30.889 29.5099 28.8682Z" fill="#F3F3F3"/>
<path d="M12.865 39.8836L9.96491 39.8323C9.96491 38.9086 9.9871 37.9862 9.96491 37.0584C9.95381 36.6506 10.0384 36.4786 10.4906 36.5036C11.2035 36.5438 11.9205 36.5036 12.6348 36.5188C13.5696 36.5383 13.9247 37.0334 13.632 37.9058C13.6024 37.962 13.5869 38.0246 13.5869 38.0882C13.5869 38.1517 13.6024 38.2143 13.632 38.2706C14.1119 39.2373 13.9344 39.6048 12.865 39.8836ZM11.7971 39.2456V39.2248C12.1175 39.2248 12.4392 39.2387 12.7596 39.2248C12.9663 39.2123 13.1868 39.1652 13.1882 38.8836C13.1896 38.6021 12.9996 38.4897 12.7374 38.4883C12.1646 38.4883 11.5904 38.4883 11.0162 38.4814C10.7513 38.4814 10.6584 38.5702 10.6542 38.8406C10.6501 39.1111 10.7333 39.2706 11.0398 39.2567C11.2908 39.2331 11.5447 39.2511 11.7971 39.2511V39.2456ZM11.854 37.1388C11.5558 37.1388 11.2589 37.1388 10.9607 37.1388C10.7097 37.1388 10.6612 37.2775 10.6653 37.4925C10.6695 37.7075 10.675 37.8684 10.9427 37.8656C11.5377 37.8656 12.1327 37.8656 12.7264 37.8462C12.7728 37.8488 12.8194 37.8421 12.8632 37.8265C12.9071 37.8109 12.9473 37.7866 12.9817 37.7552C13.0161 37.7239 13.0438 37.6859 13.0633 37.6436C13.0828 37.6014 13.0937 37.5556 13.0953 37.5091C13.0953 37.2498 12.9053 37.1582 12.6792 37.1471C12.399 37.1277 12.1313 37.1388 11.854 37.1388Z" fill="#F3F3F3"/>
<path d="M29.5932 26.8972C29.3158 26.262 29.3242 25.7294 29.5863 25.2176C29.8373 24.7294 30.2493 24.4437 30.811 24.4756C31.2687 24.5019 31.6085 24.753 31.6848 25.2162C31.7611 25.6794 31.4324 25.9319 31.026 26.0484C30.4823 26.1898 29.8623 26.1704 29.5932 26.8972Z" fill="#F3F3F3"/>
<path d="M20.0786 38.2555C20.0786 38.6716 20.0689 39.0877 20.0786 39.5037C20.0869 39.7534 20.0273 39.8824 19.7388 39.8782C19.4725 39.8782 19.374 39.795 19.3768 39.5204C19.3906 38.6438 19.3879 37.7659 19.3768 36.8852C19.3768 36.6327 19.4336 36.5079 19.7193 36.5093C20.0051 36.5107 20.0883 36.5967 20.0786 36.8671C20.0661 37.3318 20.0786 37.7936 20.0786 38.2555Z" fill="#F3F3F3"/>
<path d="M19.5974 22.545C18.9621 22.1955 18.6182 21.6421 18.044 21.3716C17.7763 21.2468 17.8873 20.9167 17.8873 20.6781C17.8873 17.072 17.8664 13.477 17.9025 9.87644C17.9025 9.26618 17.7139 8.90557 17.2243 8.58795C16.3033 7.96937 15.4434 7.2634 14.5183 6.6573C13.8678 6.23289 13.4199 5.71417 13.2215 4.95688C13.1 4.5827 12.9545 4.21671 12.786 3.86118C13.0398 3.70168 13.2285 3.91389 13.4268 4.04704C15.3454 5.32489 17.2617 6.60829 19.1757 7.89725C19.4074 8.05259 19.6071 8.18851 19.6057 8.53664C19.5932 13.176 19.5974 17.8071 19.5974 22.545Z" fill="#F5F7F6"/>
<path d="M20.2159 22.6173C20.2159 17.8448 20.2159 13.2512 20.2159 8.65754C20.2159 8.36489 20.252 8.14575 20.5322 7.96405C22.6625 6.54935 24.7846 5.11801 26.9718 3.72827C26.5793 4.68111 26.5821 5.79901 25.5627 6.46614C24.503 7.15962 23.5155 7.96822 22.4614 8.67279C22.019 8.9696 21.8969 9.30109 21.8997 9.81149C21.9219 13.2789 21.8997 16.738 21.9275 20.1998C21.9275 20.8836 21.7888 21.3912 21.2048 21.774C20.8817 21.9835 20.6154 22.2692 20.2159 22.6173Z" fill="#F5F7F6"/>
<path d="M9.99259 1.83765C10.5377 2.18023 11.08 2.53113 11.6306 2.86261C11.8239 2.98899 11.9671 3.1788 12.0356 3.39937C13.3116 6.73547 14.5918 10.0697 15.8761 13.4021C16.0148 13.7725 15.9718 13.8973 15.5585 13.9805C14.1119 14.2676 12.6736 14.5991 11.2339 14.9209C10.9896 14.9832 10.734 14.9875 10.4877 14.9333C9.70827 14.7517 8.92325 14.5963 8.13684 14.4299C8.17568 14.1525 8.38511 14.2288 8.51687 14.1983C10.1549 13.8127 11.7915 13.4188 13.4364 13.0665C13.9302 12.9611 13.9759 12.7891 13.804 12.3425C12.4766 8.87648 11.1674 5.40908 9.85112 1.94167L9.99259 1.83765Z" fill="#F5F7F6"/>
<path d="M31.6708 14.4245C30.9038 14.5882 30.1354 14.7421 29.3726 14.9182C29.1044 14.9813 28.8252 14.9813 28.557 14.9182C27.1396 14.5979 25.7221 14.2747 24.2977 13.989C23.8816 13.9072 23.7623 13.8253 23.9371 13.3801C25.2283 10.0722 26.4794 6.74766 27.7748 3.43975C28.134 2.52297 29.1326 2.37179 29.815 1.80591C30.0203 2.16652 29.815 2.38288 29.7276 2.60064C28.5099 5.81423 27.2991 9.0306 26.0356 12.2262C25.7887 12.8517 25.962 12.9821 26.5335 13.1027C28.2575 13.4661 29.9704 13.8836 31.6874 14.2802L31.6708 14.4245Z" fill="#F5F7F6"/>
<path d="M7.91772 15.1182C9.10774 15.3484 10.3602 15.2194 11.3657 16.1404C13.8331 18.4011 16.3421 20.6161 18.8664 22.813C19.3976 23.2763 19.7152 23.7298 19.607 24.4524C19.5543 24.8089 19.5973 25.1806 19.5973 25.734L7.91772 15.1182Z" fill="#F5F7F6"/>
<path d="M20.2478 25.7088C20.2256 25.5133 20.2228 25.4661 20.2145 25.4217C19.9649 24.0348 20.5113 23.0986 21.6015 22.2026C23.9344 20.29 26.1424 18.2234 28.3865 16.2026C28.8428 15.7865 29.3033 15.4744 29.9385 15.394C30.5488 15.3163 31.1466 15.136 31.7499 15.0015L31.8484 15.154L20.2478 25.7088Z" fill="#F5F7F6"/>
<path d="M9.8511 1.94148C9.81782 1.87352 9.75679 1.79446 9.86359 1.7473C9.88855 1.73621 9.94819 1.80417 9.99257 1.83607L9.8511 1.94148Z" fill="#F5F7F6"/>
</svg>
