<svg width="40" height="40" viewBox="0 0 40 40" fill="current" xmlns="http://www.w3.org/2000/svg">
<path d="M27.0727 11.1574C27.3879 11.5028 27.7184 11.8333 28.0642 12.1489C28.0975 12.1605 28.1285 12.178 28.1556 12.2006C28.549 12.5965 28.9555 12.9796 29.3341 13.3908C29.3404 13.4379 29.3651 13.4807 29.4028 13.5097C29.6726 13.7803 29.9425 14.0506 30.2126 14.3207C30.2459 14.3539 30.2795 14.3876 30.3312 14.3897C30.7516 14.7757 31.1457 15.1893 31.5458 15.5937C31.5618 15.6114 31.5712 15.634 31.5728 15.6578C31.6315 15.7233 31.6871 15.792 31.7498 15.8543C33.4217 17.5283 35.0945 19.2013 36.7683 20.8731C36.8066 20.9081 36.8368 20.9511 36.8568 20.999C36.8768 21.0469 36.8861 21.0986 36.8841 21.1504C36.8812 25.3452 36.8812 29.5401 36.8841 33.7352C36.8841 33.8768 36.8547 33.9239 36.7028 33.9239C32.5316 33.9204 28.3604 33.9204 24.1892 33.9239C23.9579 33.9239 23.789 33.8092 23.6357 33.6516C22.0386 32.0121 20.4133 30.3991 18.7925 28.7836C18.7421 28.7255 18.6812 28.6775 18.613 28.642C18.3088 28.3552 18.0443 28.0301 17.7397 27.7429C17.6119 27.6222 17.4777 27.5067 17.3704 27.3651C17.0556 27.0195 16.7245 26.6898 16.3814 26.3736C16.1161 26.1416 15.881 25.8778 15.6282 25.6345C15.4975 25.5081 15.3757 25.3728 15.228 25.2645C15.1726 25.2295 15.1319 25.1755 15.1136 25.1126C14.7914 24.7673 14.4642 24.4277 14.1133 24.1115C14.0453 24.0956 14.007 24.0439 13.9631 23.9953C13.6099 23.6031 13.2373 23.2288 12.8466 22.8739C12.8576 22.813 12.819 22.7747 12.7818 22.7372C12.4985 22.4539 12.2158 22.1706 11.9337 21.8873C11.9103 21.8715 11.8845 21.8595 11.8572 21.8519C11.5116 21.5371 11.1911 21.1964 10.8618 20.865C10.7768 20.7797 10.654 20.7301 10.6079 20.6068C10.303 20.2651 9.98433 19.9365 9.65642 19.6175C9.63723 19.6046 9.61605 19.5949 9.59374 19.5888C9.422 19.456 9.27504 19.2945 9.13339 19.1348C8.95274 18.9263 8.75697 18.7314 8.54769 18.5516C8.47687 18.4935 8.3972 18.4354 8.37382 18.3359C8.32177 18.2796 8.27184 18.2212 8.21802 18.1674C6.55393 16.5028 4.8896 14.8385 3.22504 13.1744C3.18472 13.1374 3.15296 13.0921 3.13198 13.0416C3.111 12.991 3.10131 12.9366 3.10358 12.8819C3.10665 8.65876 3.10606 4.43574 3.10181 0.212837C3.10181 0.0421552 3.14288 0.000370029 3.31427 0.000370029C7.44841 0.00556367 11.5829 0.00556367 15.7178 0.000370029C15.7812 -0.00225064 15.8445 0.0090741 15.9031 0.0335467C15.9617 0.0580193 16.0142 0.0950445 16.057 0.142015C17.7331 1.82664 19.4122 3.50915 21.0942 5.18953C21.1562 5.2515 21.2118 5.32303 21.3 5.35242C21.7358 5.76862 22.1616 6.19461 22.5776 6.63041C22.5989 6.72389 22.6757 6.7763 22.7391 6.83508C23.0188 7.09571 23.2543 7.40166 23.5691 7.62511C23.9824 8.00684 24.3701 8.41442 24.7671 8.8128C24.7853 8.8359 24.799 8.8622 24.8075 8.89035C25.1262 9.2349 25.4548 9.5706 25.8021 9.88717C25.8527 9.90264 25.8977 9.9324 25.9318 9.97287C26.2835 10.3241 26.635 10.6757 26.9863 11.0274C27.0255 11.0628 27.0552 11.1075 27.0727 11.1574Z" fill="#598CFD"/>
<path d="M27.1492 8.57146C27.209 8.50701 27.2674 8.44115 27.3294 8.37882C30.0927 5.61179 32.8555 2.84441 35.6178 0.07667C35.6383 0.0528782 35.6638 0.033932 35.6925 0.0211957C35.7213 0.00845941 35.7524 0.00225002 35.7838 0.00301469C36.1082 0.00584758 36.4326 0.00832637 36.7569 0.00301469C36.8632 0.000890018 36.8841 0.0384259 36.8827 0.134744C36.8773 0.470796 36.8759 0.807557 36.8827 1.14325C36.8852 1.19183 36.8769 1.24036 36.8583 1.28531C36.8398 1.33027 36.8114 1.37053 36.7754 1.40317C35.1892 2.98723 33.6048 4.57342 32.0221 6.16173L28.5345 9.65575C28.4721 9.71807 28.4109 9.78111 28.3493 9.84414C28.1754 9.77332 28.095 9.60405 27.981 9.47622C27.7501 9.21665 27.4983 8.97833 27.2586 8.72798C27.2143 8.68017 27.158 8.64264 27.1492 8.57146Z" fill="#2F5FF5"/>
<path d="M12.9136 25.2858C12.8708 25.3339 12.8304 25.3839 12.7851 25.4292C10.0136 28.2052 7.24228 30.9813 4.47124 33.7576C4.37173 33.8571 4.27471 33.9042 4.13306 33.9013C3.84411 33.895 3.55515 33.8994 3.2662 33.9148C3.12739 33.9219 3.09941 33.8723 3.10295 33.7441C3.11181 33.4254 3.1111 33.1067 3.10295 32.788C3.10042 32.7362 3.10957 32.6845 3.12974 32.6368C3.14991 32.589 3.18057 32.5464 3.21946 32.5122C5.39417 30.3403 7.56736 28.1673 9.739 25.9933C10.3689 25.3646 11.0003 24.7371 11.6335 24.1108C11.7801 24.2146 11.8647 24.3743 11.9897 24.5004C12.236 24.7452 12.506 24.965 12.7957 25.1565C12.8428 25.187 12.9249 25.1969 12.9136 25.2858Z" fill="#2F5FF5"/>
<path d="M15.2479 27.4796C15.2125 27.5189 15.1803 27.56 15.1417 27.5972C13.0822 29.659 11.023 31.7214 8.96422 33.7842C8.92177 33.8311 8.86937 33.868 8.81087 33.892C8.75236 33.9161 8.68922 33.9268 8.62604 33.9234C8.0067 33.9152 7.38665 33.9195 6.76766 33.917C6.64478 33.917 6.52155 33.9046 6.40186 33.8982C6.38097 33.8324 6.43055 33.8161 6.45569 33.792C8.92338 31.3193 11.3915 28.8478 13.8602 26.3772C13.8846 26.3528 13.9136 26.3326 13.9406 26.3103C14.1059 26.3811 14.1852 26.5426 14.2947 26.668C14.5344 26.9481 14.8177 27.1683 15.1236 27.3659C15.1697 27.3967 15.2309 27.4144 15.2479 27.4796Z" fill="#2F5FF5"/>
<path d="M24.9497 6.26788C24.9887 6.22468 25.0262 6.1797 25.0676 6.13827C27.0839 4.11724 29.1001 2.09668 31.1162 0.076585C31.1545 0.0383409 31.1842 0.00292969 31.2469 0.00292969C32.0129 0.00505436 32.7783 0.00505436 33.5429 0.00292969C33.5649 0.0737521 33.5075 0.095707 33.4817 0.127931C33.2005 0.454422 32.8946 0.757188 32.5907 1.06208C30.455 3.20446 28.3197 5.34719 26.1848 7.49027C26.176 7.49765 26.1664 7.50406 26.1562 7.50939C26.0499 7.52462 26.0244 7.42441 25.9749 7.36775C25.6402 6.99593 25.2889 6.63651 24.9497 6.26788Z" fill="#2F5FF5"/>
<path d="M10.4963 23.1947C10.4697 23.2258 10.4449 23.2591 10.4159 23.2881C8.01147 25.6956 5.60658 28.103 3.20121 30.5102C3.18032 30.5311 3.15837 30.5506 3.13712 30.5708C3.08259 30.5442 3.10702 30.4971 3.10702 30.4614C3.10702 29.7245 3.10702 28.9872 3.10454 28.25C3.10159 28.2125 3.10684 28.1748 3.11992 28.1396C3.13301 28.1044 3.15362 28.0724 3.18032 28.046C5.20372 26.025 7.22676 24.003 9.24945 21.9801C9.26279 21.9687 9.27713 21.9587 9.2923 21.95C9.44669 21.9854 9.51787 22.127 9.60887 22.229C9.84542 22.4974 10.1046 22.7432 10.3507 23.0013C10.4063 23.0594 10.474 23.1111 10.4963 23.1947Z" fill="#2F5FF5"/>
<path d="M29.619 10.6207C29.6495 10.5853 29.6778 10.5477 29.7107 10.5144C32.0528 8.16952 34.3959 5.82471 36.7399 3.48001C36.7753 3.4446 36.816 3.40919 36.8557 3.37378C36.9049 3.42335 36.8819 3.48001 36.8822 3.52746C36.8822 4.22931 36.8804 4.93116 36.8861 5.63301C36.8894 5.69064 36.8798 5.74826 36.858 5.80173C36.8363 5.85519 36.8029 5.90316 36.7604 5.94215C34.8439 7.85436 32.9295 9.76821 31.017 11.6837C30.9671 11.7337 30.9165 11.7822 30.8662 11.8314C30.7954 11.8544 30.7561 11.8006 30.7182 11.7606C30.4048 11.4263 30.0475 11.1377 29.7298 10.8084C29.6781 10.7549 29.5995 10.7149 29.619 10.6207Z" fill="#2F5FF5"/>
<path d="M8.41919 20.7569C8.38378 20.7965 8.35226 20.8387 8.31508 20.8762C6.6229 22.571 4.93024 24.2654 3.23711 25.9595C3.2056 25.9921 3.17018 26.0229 3.13477 26.0551C3.08378 26.0154 3.10715 25.9648 3.10715 25.9212C3.10715 25.1957 3.10715 24.4694 3.10467 23.7442C3.10146 23.7038 3.10715 23.6633 3.12135 23.6254C3.13554 23.5875 3.1579 23.5532 3.18683 23.525C4.51947 22.1961 5.85034 20.8657 7.17944 19.5338C7.20082 19.5141 7.22328 19.4957 7.24672 19.4785C7.34446 19.5355 7.37491 19.6442 7.43582 19.7289C7.67046 20.0464 7.94329 20.3339 8.24815 20.5848C8.30941 20.6361 8.3898 20.6722 8.41919 20.7569Z" fill="#2F5FF5"/>
<path d="M17.3389 29.8905C17.3081 29.9259 17.2787 29.9614 17.2457 29.9946C15.9799 31.2631 14.7142 32.532 13.4486 33.8014C13.412 33.8422 13.3668 33.8745 13.3162 33.8957C13.2656 33.917 13.2109 33.9267 13.1561 33.9242C12.5541 33.9175 11.9521 33.9217 11.3519 33.9189C11.2053 33.9189 11.0583 33.9044 10.9163 33.897C10.8951 33.8403 10.9348 33.8233 10.9567 33.801C12.6635 32.0892 14.3708 30.3777 16.0786 28.6664C16.0959 28.6506 16.1142 28.636 16.1335 28.6228C16.279 28.7092 16.3619 28.8562 16.4674 28.979C16.7418 29.2992 17.0549 29.5807 17.3389 29.8905Z" fill="#2F5FF5"/>
<path d="M31.6762 13.0669C31.6985 13.04 31.7184 13.0109 31.7432 12.9861C33.4141 11.3133 35.0859 9.64049 36.7585 7.96766C36.79 7.93615 36.8229 7.90605 36.8817 7.8501V8.05371C36.8817 8.7499 36.8789 9.44608 36.8845 10.143C36.8877 10.2004 36.8782 10.2578 36.8565 10.311C36.8349 10.3643 36.8018 10.4121 36.7595 10.4511C35.5083 11.6947 34.2607 12.941 33.0166 14.1901L32.8544 14.3519C32.6582 14.2457 32.5466 14.0524 32.4025 13.8962C32.1961 13.6731 31.9808 13.4592 31.7711 13.2393C31.7255 13.1908 31.6546 13.1526 31.6762 13.0669Z" fill="#2F5FF5"/>
<path d="M22.7171 3.99682C23.1378 3.56764 23.5553 3.13527 23.9799 2.70998C24.8592 1.82942 25.7402 0.950516 26.6226 0.0732637C26.6619 0.0339573 26.6934 0.00244141 26.755 0.00244141C27.4984 0.00574645 28.2421 0.00787112 28.986 0.00881542C29.0133 0.0130295 29.0403 0.0194239 29.0667 0.0279374C27.3839 1.80806 25.6375 3.49186 23.9321 5.21603C23.8907 5.20759 23.8534 5.18567 23.8258 5.1537C23.4954 4.8088 23.1197 4.51064 22.7961 4.159C22.756 4.11403 22.6905 4.0772 22.7171 3.99682Z" fill="#2F5FF5"/>
<path d="M4.94991 39.9769C4.38935 39.9769 3.82879 39.9723 3.26823 39.9801C3.13367 39.9823 3.09118 39.9447 3.10322 39.8119C3.11725 39.6706 3.11725 39.5283 3.10322 39.387C3.08268 39.2124 3.16058 39.1883 3.31179 39.1894C4.32077 39.1946 5.32964 39.1946 6.33839 39.1894C6.48357 39.1894 6.667 39.2507 6.76332 39.154C6.85468 39.0655 6.7913 38.8845 6.79873 38.7446C6.8306 37.9603 6.81927 37.1763 6.79873 36.3919C6.79625 36.2889 6.77111 36.2503 6.65992 36.2457C5.76945 36.2221 4.87897 36.2213 3.9885 36.2435C3.86279 36.2464 3.84685 36.297 3.84685 36.4022C3.84969 36.9978 3.84083 37.5938 3.8504 38.1897C3.85323 38.3516 3.80082 38.3951 3.64997 38.3813C3.52037 38.37 3.39004 38.37 3.26044 38.3813C3.13686 38.3916 3.10074 38.3512 3.10145 38.2255C3.10747 37.5116 3.10463 36.7977 3.10463 36.0838C3.10463 35.9128 3.10818 35.7414 3.10463 35.5704C3.1018 35.4787 3.11986 35.4323 3.22822 35.4326C4.36704 35.4369 5.50575 35.4382 6.64434 35.4365C6.67641 35.436 6.70822 35.4422 6.7377 35.4549C6.76718 35.4675 6.79365 35.4862 6.81538 35.5098C7.02501 35.7173 7.23571 35.9238 7.44995 36.1267C7.47798 36.152 7.49999 36.1833 7.51439 36.2182C7.52879 36.2531 7.5352 36.2908 7.53316 36.3285C7.5308 37.2492 7.5308 38.1699 7.53316 39.0906C7.53316 39.1735 7.51652 39.2407 7.44924 39.2914C7.44457 39.2949 7.4403 39.299 7.43649 39.3034C7.21517 39.524 7.02926 39.8296 6.76368 39.9408C6.49809 40.052 6.14894 39.9716 5.83661 39.973C5.53986 39.9794 5.24489 39.9769 4.94991 39.9769Z" fill="#5A8CFE"/>
<path d="M36.8951 39.9769C36.5491 39.9769 36.2371 39.9734 35.9252 39.9769C35.825 39.9769 35.7764 39.9174 35.7265 39.8523C35.4121 39.4401 35.0962 39.0286 34.786 38.6129C34.7077 38.5067 34.6589 38.4783 34.5548 38.5955C34.206 38.989 33.9096 39.4224 33.5905 39.8385C33.5147 39.9373 33.4358 39.9801 33.3101 39.9776C33.0229 39.9691 32.7357 39.9748 32.406 39.9748C32.6443 39.6487 32.8603 39.3502 33.0788 39.0541C33.3522 38.6848 33.6319 38.32 33.9018 37.9479C34.0597 37.7297 34.0576 37.6844 33.8958 37.4627C33.4439 36.8441 32.9875 36.229 32.5335 35.6122C32.4981 35.5658 32.4712 35.5158 32.4092 35.4188C32.7456 35.4188 33.0431 35.4188 33.3405 35.4188C33.4294 35.4188 33.4768 35.479 33.5307 35.5328C33.8915 35.893 34.1592 36.3271 34.4783 36.7209C34.5335 36.7889 34.593 36.854 34.6642 36.9362C34.8933 36.6316 35.1111 36.3342 35.337 36.0449C35.4928 35.8452 35.6298 35.6107 35.8306 35.4723C36.0399 35.3278 36.3211 35.4659 36.57 35.4401C36.6631 35.4305 36.7577 35.4401 36.8753 35.4401C36.7662 35.6444 36.6341 35.8076 36.5098 35.9755C36.1341 36.4819 35.7584 36.9882 35.3766 37.4893C35.2555 37.6476 35.2669 37.7793 35.383 37.9337C35.866 38.5732 36.3423 39.2177 36.8207 39.8608C36.8398 39.8881 36.8568 39.9178 36.8951 39.9769Z" fill="#5A8CFE"/>
<path d="M18.0958 35.4731C18.1511 35.4295 18.1996 35.4465 18.2435 35.4465C19.3582 35.4437 20.4744 35.4437 21.5881 35.4394C21.6345 35.4363 21.681 35.4436 21.7243 35.4606C21.7676 35.4776 21.8065 35.504 21.8384 35.5379C22.0353 35.7411 22.2396 35.9373 22.4404 36.136C22.4868 36.1816 22.5343 36.2245 22.5332 36.2988C22.5286 36.6175 22.5686 36.9362 22.5116 37.2518C22.5011 37.3336 22.4649 37.41 22.4082 37.4699C22.2258 37.6547 22.042 37.8378 21.8629 38.0255C21.802 38.0892 21.7304 38.0938 21.6525 38.0938H20.7913L20.7651 38.1424L22.5753 39.9759H21.5098C21.4624 39.9759 21.439 39.9405 21.4089 39.9129L18.9025 37.4143C18.8915 37.3988 18.8818 37.3825 18.8735 37.3654C19.0728 37.353 19.263 37.3332 19.4524 37.33C19.9893 37.3244 20.5264 37.3151 21.0626 37.33C21.4362 37.3396 21.6068 37.0687 21.8168 36.8438C21.8269 36.8328 21.8325 36.8184 21.8325 36.8035C21.8325 36.7885 21.8269 36.7741 21.8168 36.7631C21.8069 36.7482 21.7945 36.7351 21.7857 36.7199C21.5994 36.3969 21.3632 36.2192 20.9468 36.2464C20.3009 36.2882 19.6497 36.2542 19.0009 36.2581C18.9486 36.261 18.8964 36.2519 18.8482 36.2313C18.8001 36.2107 18.7573 36.1793 18.7233 36.1395C18.5201 35.9146 18.3079 35.6951 18.0958 35.4731Z" fill="#5A8CFE"/>
<path d="M29.6191 10.6204C29.8128 10.8562 30.0441 11.0541 30.2693 11.2578C30.4729 11.4423 30.6662 11.6381 30.8645 11.8293L29.3341 13.3895C29.306 13.3833 29.2793 13.3719 29.2554 13.3559C28.8571 12.9547 28.4431 12.5687 28.0642 12.1477L29.6191 10.6204Z" fill="#2245B3"/>
<path d="M22.7171 3.99683C22.9929 4.32615 23.3219 4.6013 23.6289 4.89875C23.7352 5.00073 23.8322 5.11122 23.9331 5.21745L22.579 6.6339C22.5269 6.63107 22.4947 6.59566 22.4611 6.56308L21.3715 5.47029C21.3382 5.43665 21.3007 5.40478 21.3007 5.35272L22.7171 3.99683Z" fill="#2245B3"/>
<path d="M24.9498 6.26807C25.1236 6.34385 25.227 6.50036 25.351 6.63032C25.6251 6.91892 25.8885 7.2178 26.1562 7.51277L24.8074 8.89381C24.3846 8.51208 23.9961 8.09529 23.5942 7.69231C23.5794 7.67779 23.5772 7.65017 23.5691 7.62857L24.9498 6.26807Z" fill="#2245B3"/>
<path d="M10.4965 23.1948C10.2323 22.9307 9.96529 22.6686 9.70537 22.4013C9.56373 22.2554 9.42988 22.1006 9.29248 21.9501L10.6087 20.6045C11.0556 20.9487 11.4249 21.374 11.8205 21.7731C11.8371 21.7968 11.8498 21.8231 11.858 21.851L10.4965 23.1948Z" fill="#2245B3"/>
<path d="M27.1492 8.57178C27.5791 8.96614 27.9802 9.39087 28.3493 9.84268C27.9715 10.2294 27.5944 10.6163 27.2179 11.0035C27.1686 11.0537 27.1216 11.1062 27.0734 11.1575C26.6343 10.7496 26.2105 10.3263 25.8021 9.88766L27.1492 8.57178Z" fill="#2245B3"/>
<path d="M31.6762 13.0671C31.9357 13.3717 32.2463 13.6281 32.4984 13.9397C32.6128 14.0813 32.7367 14.2152 32.8561 14.3526C32.429 14.7879 32.0018 15.2232 31.5745 15.6585C31.1496 15.2765 30.7601 14.8586 30.355 14.4546C30.3404 14.44 30.3401 14.4114 30.333 14.3894L31.6762 13.0671Z" fill="#2245B3"/>
<path d="M17.3388 29.8904C17.3218 29.8858 17.2999 29.8868 17.2885 29.8766C16.8732 29.487 16.4698 29.0855 16.1338 28.6227L17.37 27.3645C17.4162 27.3738 17.4577 27.3988 17.4876 27.4353C17.8576 27.7958 18.2248 28.1591 18.5644 28.549C18.5839 28.5774 18.6001 28.6079 18.6126 28.64L17.3388 29.8904Z" fill="#2245B3"/>
<path d="M12.9136 25.2856C12.5382 25.0445 12.1813 24.7792 11.882 24.4449C11.7893 24.3415 11.6844 24.2456 11.6342 24.1107L12.8488 22.8713C12.8927 22.8486 12.9231 22.8652 12.955 22.8985C13.3473 23.2962 13.7663 23.6687 14.1147 24.1089L12.9136 25.2856Z" fill="#2245B3"/>
<path d="M15.2479 27.4794C14.7047 27.2092 14.3035 26.7811 13.9406 26.3108L15.1144 25.1118C15.5599 25.4698 15.9434 25.8909 16.3446 26.296C16.3609 26.3195 16.3736 26.3454 16.3822 26.3728L15.2479 27.4794Z" fill="#2245B3"/>
<path d="M8.41917 20.7568C7.93793 20.4137 7.52008 20.0132 7.2467 19.4792L8.37561 18.334C8.81895 18.7143 9.22734 19.1336 9.59588 19.5868C9.21202 19.9863 8.82391 20.3797 8.41917 20.7568Z" fill="#2245B3"/>
</svg>
