<svg width="40" height="40" viewBox="0 0 40 40" fill="none" xmlns="http://www.w3.org/2000/svg">
<path d="M17.6793 30.1759C17.6784 30.159 17.6791 29.8041 17.681 29.3872C17.6838 28.7452 17.6953 28.6102 17.7558 28.5052C17.8725 28.3028 18.055 28.2377 18.5056 28.2377C18.8481 28.2376 18.9177 28.2499 19.0389 28.3314C19.2432 28.4689 19.2994 28.6148 19.2957 28.9976C19.29 29.5892 19.1071 29.7529 18.4502 29.7546L18.0912 29.7555V29.9811V30.2067H17.8861C17.7733 30.2067 17.6802 30.1929 17.6793 30.1759ZM18.7886 29.3461C18.8345 29.3171 18.8501 29.228 18.8501 28.9965C18.8501 28.6281 18.8311 28.6081 18.4809 28.6081C18.1294 28.6081 18.1142 28.625 18.0973 29.0361L18.0828 29.3863L18.4049 29.3856C18.5821 29.3853 18.7548 29.3675 18.7886 29.3461ZM14.2426 29.7154C13.9085 29.635 13.8083 29.3776 13.8322 28.6614C13.8599 27.8305 13.9154 27.7863 14.9304 27.7863H15.6298V27.9461C15.6298 28.0538 15.6087 28.1138 15.5649 28.1307C15.5292 28.1444 15.2468 28.1556 14.9373 28.1556C14.5543 28.1556 14.3588 28.1713 14.3253 28.2048C14.2982 28.2319 14.2761 28.3242 14.2761 28.4099V28.5658H14.822C15.4371 28.5658 15.5227 28.5945 15.5 28.7934L15.4862 28.9145L14.8812 28.9258L14.2761 28.9372L14.2767 29.0899C14.2778 29.3595 14.2873 29.3635 14.9821 29.3863L15.6093 29.4068V29.5709V29.7349L14.994 29.7415C14.6555 29.7451 14.3174 29.7334 14.2426 29.7154ZM15.8839 29.5811L15.8965 29.4068L16.4213 29.3953C16.8533 29.3858 16.9505 29.3724 16.9708 29.3193C17.0102 29.2166 16.9046 29.1824 16.5453 29.1818C16.0692 29.1809 15.8897 29.0926 15.8486 28.8391C15.8081 28.5895 15.8651 28.4071 16.0115 28.3178C16.1258 28.2482 16.2203 28.2379 16.7477 28.2378L17.3528 28.2376V28.421V28.6044L16.8298 28.6158C16.3379 28.6266 16.3067 28.6322 16.3067 28.7094C16.3067 28.7849 16.3409 28.793 16.7374 28.8119C16.9792 28.8234 17.2095 28.856 17.2625 28.8862C17.4229 28.9777 17.4862 29.2869 17.3941 29.5291C17.3253 29.7101 17.1399 29.7555 16.4698 29.7555H15.8712L15.8839 29.5811ZM19.8581 29.6836C19.6275 29.566 19.551 29.4237 19.5337 29.0799C19.5155 28.7198 19.5675 28.5389 19.7357 28.3777C19.8568 28.2615 19.8741 28.2577 20.3398 28.2448C20.7859 28.2324 20.829 28.2381 20.9587 28.3269C21.1877 28.4835 21.2566 28.6562 21.242 29.0376C21.2311 29.3236 21.2147 29.3851 21.1142 29.5164C20.9651 29.7113 20.828 29.7555 20.3721 29.7554C20.0978 29.7554 19.9615 29.7363 19.8581 29.6836ZM20.7076 29.3224C20.7856 29.2678 20.7987 29.2207 20.7987 28.9971C20.7987 28.6497 20.7536 28.6068 20.3885 28.6068C20.0235 28.6068 19.9783 28.6498 19.9783 28.9965C19.9783 29.1789 19.9977 29.2767 20.0427 29.3218C20.1307 29.4098 20.5822 29.4102 20.7076 29.3224ZM21.4961 29.1238V28.4922L21.6411 28.3649C21.7837 28.2398 21.7935 28.2376 22.2178 28.2376H22.6495L22.6369 28.412L22.6243 28.5863L22.2961 28.6068L21.9679 28.6273L21.9563 29.1375C21.9497 29.4277 21.9255 29.6709 21.9 29.7016C21.8754 29.7312 21.7745 29.7555 21.6757 29.7555H21.4961V29.1238ZM23.2894 29.73C23.2733 29.7139 23.2601 29.4546 23.2601 29.1538V28.6068H23.0558C22.8738 28.6068 22.8487 28.5959 22.8265 28.5075C22.7758 28.3052 22.8139 28.2591 23.0428 28.2458L23.2554 28.2335L23.268 28.0817L23.2806 27.9299H23.4858H23.6909L23.7036 28.0838L23.7163 28.2376H23.9162C24.1416 28.2376 24.1966 28.3069 24.1237 28.4988C24.0877 28.5934 24.0596 28.6068 23.8982 28.6068H23.7137L23.7023 29.1709L23.6909 29.7349L23.5047 29.7471C23.4024 29.7538 23.3055 29.7461 23.2894 29.73ZM24.3443 29.6559C24.3306 29.6011 24.3315 29.518 24.3463 29.4713C24.3762 29.3771 24.3961 29.3743 24.9505 29.3856C25.3398 29.3936 25.4754 29.3682 25.4754 29.2871C25.4754 29.2496 25.3602 29.2275 25.0737 29.2101C24.5876 29.1805 24.4744 29.1414 24.3679 28.9668C24.2645 28.7971 24.2637 28.6229 24.3657 28.4556C24.491 28.2501 24.5554 28.2343 25.2183 28.2468L25.8241 28.2581L25.8367 28.4325L25.8493 28.6068H25.3161C24.7776 28.6068 24.6806 28.6331 24.7795 28.7522C24.816 28.7961 24.9237 28.8119 25.1871 28.8119C25.7632 28.8119 25.9266 28.9162 25.9266 29.2837C25.9266 29.5098 25.8418 29.6521 25.6717 29.7114C25.6021 29.7356 25.2806 29.7555 24.9573 29.7555H24.3693L24.3443 29.6559ZM10.7165 26.8085C10.6764 26.783 10.667 26.5559 10.6755 25.8143L10.6865 24.8532H10.8711H11.0557L11.0678 25.1506L11.0798 25.448H11.5685H12.0572L12.0693 25.1506L12.0813 24.8532L12.2619 24.8403C12.3785 24.8319 12.4545 24.8464 12.4766 24.8813C12.5332 24.9706 12.5205 26.7359 12.4628 26.7936C12.4103 26.8461 12.2326 26.859 12.1257 26.8179C12.0715 26.7971 12.0608 26.7121 12.0608 26.3038V25.8146L11.5788 25.8262L11.0968 25.8377L11.0851 26.308C11.0773 26.6209 11.0567 26.7888 11.0235 26.8099C10.9584 26.8513 10.7826 26.8505 10.7165 26.8085V26.8085ZM13.0249 26.7853C12.8415 26.7044 12.7509 26.5801 12.7282 26.3785C12.7027 26.1529 12.8055 25.9194 12.9668 25.8359C13.0459 25.795 13.2149 25.7762 13.5028 25.7762C14.097 25.7762 13.9708 25.6999 13.3524 25.6853L12.8608 25.6737V25.4891V25.3044H13.3941C14.2485 25.3044 14.3582 25.3961 14.3579 26.1092C14.3577 26.489 14.3477 26.5476 14.2656 26.65C14.2099 26.7195 14.1087 26.7799 14.0094 26.8029C13.7668 26.859 13.1676 26.8483 13.0249 26.7853ZM13.9069 26.4154C13.9069 26.406 13.9171 26.3715 13.9297 26.3387C13.9764 26.217 13.8331 26.1454 13.5426 26.1454C13.2269 26.1454 13.1161 26.2009 13.1533 26.3403C13.1766 26.4272 13.1992 26.4326 13.5424 26.4326C13.7429 26.4326 13.9069 26.4249 13.9069 26.4154ZM14.6553 26.7955C14.6212 26.7613 14.6046 26.6076 14.6052 26.3321C14.6065 25.7743 14.6465 25.6218 14.8341 25.4583C14.9851 25.3268 14.9927 25.325 15.4008 25.3251C16.0973 25.3254 16.2041 25.4529 16.2041 26.2842V26.8002L16.1016 26.826C16.0452 26.8401 15.9529 26.8401 15.8965 26.826C15.7947 26.8004 15.7939 26.7968 15.7939 26.3384C15.7939 25.7375 15.7677 25.6942 15.4043 25.6942C15.2398 25.6942 15.13 25.7132 15.1092 25.7454C15.0909 25.7736 15.0668 26.0275 15.0555 26.3095L15.035 26.8223L14.8707 26.8344C14.7785 26.8412 14.684 26.8241 14.6553 26.7955ZM16.8681 26.8044C16.6876 26.7588 16.5415 26.6157 16.4915 26.4356C16.4307 26.2169 16.4383 25.3855 16.5016 25.3356C16.5591 25.2902 16.6717 25.28 16.8092 25.3078C16.8989 25.326 16.9015 25.3407 16.9015 25.8303C16.9015 26.1675 16.9178 26.3504 16.9508 26.3834C17.0326 26.4652 17.3023 26.4449 17.3514 26.3532C17.3747 26.3096 17.3938 26.0624 17.3938 25.8038C17.3938 25.2943 17.3986 25.2839 17.6351 25.2839C17.8247 25.2839 17.8451 25.3419 17.8451 25.8826C17.8451 26.431 17.8461 26.4332 18.1048 26.432C18.344 26.4308 18.3572 26.4019 18.365 25.8609C18.3689 25.59 18.3822 25.352 18.3945 25.332C18.413 25.3022 18.6182 25.295 18.7609 25.3192C18.7795 25.3224 18.7887 25.5941 18.7814 25.9231L18.7681 26.5211L18.6199 26.6568C18.3984 26.8597 17.9401 26.9002 17.7063 26.7376C17.6423 26.6931 17.6141 26.6938 17.5414 26.7414C17.4309 26.8138 17.0471 26.8498 16.8681 26.8044ZM19.064 26.8174C19.0479 26.8013 19.0347 26.3472 19.0347 25.8083V24.8284L19.2501 24.8408L19.4655 24.8532L19.4776 25.0842L19.4898 25.3152L19.7443 25.295C20.0786 25.2684 20.3297 25.34 20.5 25.5103L20.6369 25.6472L20.6255 26.2348L20.6141 26.8223H20.4295H20.2449L20.2237 26.3252C20.1981 25.7245 20.1805 25.6939 19.8604 25.6948C19.5094 25.6958 19.5095 25.6955 19.486 26.2977L19.4655 26.8223L19.2794 26.8345C19.177 26.8411 19.0801 26.8334 19.064 26.8174ZM21.1808 26.8C20.9679 26.7344 20.8808 26.5857 20.8808 26.2877C20.8808 26.045 20.8888 26.0238 21.0258 25.9035C21.1692 25.7776 21.1757 25.7762 21.6231 25.7762C21.9141 25.7762 22.0663 25.7616 22.0499 25.7352C22.0354 25.7116 21.8198 25.6942 21.5429 25.6942C21.0108 25.6942 20.9628 25.6749 20.9628 25.4611C20.9628 25.2864 21.0268 25.2706 21.6495 25.2914C22.3832 25.3159 22.4784 25.3972 22.5123 26.0277C22.5343 26.4383 22.4805 26.6501 22.3288 26.7495C22.206 26.83 21.3939 26.8657 21.1808 26.8ZM22.0638 26.3142C22.0826 26.1809 22.0119 26.1468 21.7149 26.146C21.3847 26.1452 21.332 26.1686 21.332 26.3155V26.4358L21.691 26.4239C22.0342 26.4126 22.0506 26.4078 22.0638 26.3142ZM24.0592 26.8053C23.6691 26.7099 23.5883 26.4983 23.5883 25.5719C23.5883 25.1282 23.6035 24.916 23.6375 24.8819C23.6646 24.8548 23.7532 24.8327 23.8345 24.8327C23.9157 24.8327 24.0043 24.8548 24.0314 24.8819C24.0656 24.9162 24.0808 25.1375 24.0812 25.6101C24.0816 25.9835 24.0993 26.3167 24.1206 26.3505C24.1509 26.3986 24.2831 26.4166 24.7251 26.4326L25.2908 26.4531V26.6377V26.8223L24.737 26.8289C24.4324 26.8326 24.1274 26.8219 24.0592 26.8053ZM25.6292 26.7985C25.5653 26.7613 25.5574 26.6802 25.5574 26.06C25.5574 25.4805 25.5677 25.3595 25.6186 25.3399C25.67 25.3202 25.6664 25.2995 25.5958 25.2097C25.5079 25.098 25.516 24.9255 25.612 24.8645C25.6961 24.8109 25.9185 24.8304 25.9852 24.8971C26.0811 24.993 26.0666 25.1801 25.9574 25.2563C25.8799 25.3103 25.8766 25.321 25.9369 25.3228C26.0025 25.3248 26.0087 25.3881 26.0087 26.0586C26.0087 26.7847 26.0077 26.7925 25.9164 26.817C25.7869 26.8517 25.7123 26.8469 25.6292 26.7985ZM26.2976 26.7834C26.262 26.7405 26.2521 26.5101 26.2619 25.9527C26.2734 25.2922 26.2859 25.1658 26.3491 25.0727C26.4497 24.9245 26.6079 24.8674 26.939 24.8597L27.2189 24.8532V25.0173V25.1814L26.9964 25.2019C26.6724 25.2318 26.6692 25.325 26.9922 25.325H27.2441L27.2315 25.4993L27.2189 25.6737L26.9625 25.6859L26.7061 25.6981V26.2455C26.7061 26.7069 26.6959 26.7969 26.6412 26.8179C26.5258 26.8622 26.3482 26.8444 26.2976 26.7834ZM27.8596 26.8017C27.7833 26.7837 27.6633 26.7114 27.5929 26.6411C27.4677 26.516 27.4647 26.5038 27.4513 26.0699C27.4381 25.6421 27.4414 25.6221 27.545 25.499C27.604 25.4289 27.7181 25.3497 27.7985 25.3232C27.9923 25.2592 28.7471 25.2884 28.8653 25.3645C29.0052 25.4545 29.0854 25.6297 29.0854 25.8452C29.0854 26.2343 28.9061 26.3505 28.3056 26.3505C28.0396 26.3505 27.9 26.3652 27.9163 26.3916C27.931 26.4155 28.1614 26.4326 28.4681 26.4326C29.0408 26.4326 29.0444 26.4341 29.0444 26.6777C29.0444 26.745 29.0174 26.8034 28.9795 26.8179C28.8872 26.8533 28.0254 26.8408 27.8596 26.8017ZM28.6268 25.914C28.6475 25.8769 28.6555 25.8123 28.6445 25.7704C28.6272 25.7039 28.5815 25.6942 28.2889 25.6942C27.9427 25.6942 27.8419 25.7339 27.8857 25.853C27.9258 25.962 27.9833 25.98 28.2937 25.9807C28.5254 25.9812 28.5972 25.9668 28.6268 25.914ZM0 25.0996C0 25.0794 0.169246 24.8126 0.376102 24.5068C2.27401 21.7006 4.39821 19.7776 7.07649 18.4411C8.65999 17.651 10.4444 17.1313 12.389 16.894C13.1429 16.802 15.0229 16.7676 15.8806 16.8301C18.229 17.0013 20.7508 17.5654 23.2319 18.4743C23.4932 18.5701 23.5873 18.6227 23.5713 18.6643C23.5215 18.7941 21.202 22.639 21.1658 22.6517C21.1443 22.6592 20.9282 22.5604 20.6858 22.432C20.4433 22.3037 19.9126 22.046 19.5065 21.8593C13.5545 19.1241 8.16031 19.0499 3.83567 21.6436C2.57274 22.4011 1.1644 23.6328 0.348138 24.6937C0.00627971 25.138 0 25.1453 0 25.0996ZM35.5803 23.8789C34.195 22.1639 32.2624 20.1587 30.5815 18.692C25.892 14.6002 20.6574 11.8101 15.0945 10.437C13.8005 10.1176 12.9195 9.9669 11.0352 9.74274C10.7305 9.70648 10.7297 9.70608 10.9532 9.70084C11.5667 9.68646 13.8219 9.84857 14.8914 9.98394C21.1781 10.7796 27.2672 13.0679 33.0442 16.8055C34.9971 18.0691 37.2011 19.742 38.9515 21.2893C39.9094 22.1361 40.0195 22.2384 39.9976 22.2602C39.9863 22.2714 39.4417 22.5615 38.7874 22.9047C38.1331 23.248 37.254 23.7115 36.8339 23.9347C36.4138 24.1578 36.0437 24.3404 36.0116 24.3404C35.9794 24.3404 35.7853 24.1327 35.5803 23.8789ZM29.0239 20.7803C27.356 19.151 25.0048 17.6136 22.6243 16.5958C20.3424 15.6202 18.0113 15.0925 15.5273 14.9892C12.6222 14.8684 9.67831 15.3814 6.68149 16.5306C6.30631 16.6744 5.98205 16.7921 5.96093 16.7921C5.93981 16.7921 5.48748 16.2891 4.95577 15.6743C4.42406 15.0594 3.64555 14.1595 3.22576 13.6744C2.80598 13.1893 2.46226 12.7726 2.46195 12.7485C2.46082 12.6602 4.32625 12.2715 5.68325 12.0773C7.31846 11.8434 7.82507 11.8094 9.66095 11.8108C11.4595 11.8121 11.9588 11.845 13.4146 12.0575C18.3804 12.7826 22.9243 14.9646 26.9112 18.5384C27.7671 19.3056 29.6673 21.2666 29.5508 21.2624C29.5317 21.2617 29.2946 21.0448 29.0239 20.7803Z" fill="#CECFD0"/>
<path d="M17.6812 29.4209C17.6812 28.6354 17.6812 28.635 17.7891 28.4935C17.9375 28.299 18.1092 28.2376 18.505 28.2376C18.7681 28.2376 18.8716 28.2559 18.992 28.3235C19.2288 28.4566 19.2811 28.581 19.2811 29.0117C19.2811 29.3684 19.276 29.3892 19.1546 29.5274C19.0011 29.7023 18.8288 29.7549 18.4093 29.7552L18.0914 29.7555V29.9811V30.2067H17.8863H17.6812V29.4209ZM18.8284 29.3069C18.8517 29.2633 18.8708 29.1236 18.8708 28.9965C18.8708 28.6413 18.8383 28.6068 18.5031 28.6068C18.1234 28.6068 18.0914 28.6422 18.0914 29.061V29.3863H18.4386C18.74 29.3863 18.7915 29.3758 18.8284 29.3069ZM14.2924 29.7166C14.131 29.6781 13.9664 29.5571 13.9098 29.4356C13.8468 29.3002 13.8538 28.2025 13.9185 28.0747C13.9467 28.019 14.0328 27.9309 14.11 27.8789C14.2443 27.7884 14.2788 27.7849 14.9298 27.7957L15.6095 27.8069V27.9504V28.094L14.9858 28.1145C14.5774 28.128 14.345 28.1522 14.3126 28.1847C14.2853 28.212 14.2614 28.3136 14.2594 28.4103L14.2557 28.5863L14.8632 28.5977L15.4707 28.609L15.4581 28.7618L15.4454 28.9145L14.8506 28.935L14.2557 28.9555L14.2425 29.071C14.2352 29.1345 14.2587 29.2314 14.2947 29.2864C14.3589 29.3843 14.3715 29.3863 14.9302 29.3863C15.2437 29.3863 15.5294 29.3975 15.5651 29.4112C15.6418 29.4406 15.6521 29.6349 15.5808 29.7062C15.5257 29.7613 14.5136 29.7695 14.2924 29.7166ZM15.894 29.7018C15.8808 29.6674 15.876 29.587 15.8833 29.523L15.8966 29.4068L16.4505 29.3863C16.9994 29.3659 17.0133 29.3618 16.9899 29.2281C16.9865 29.2087 16.7876 29.1829 16.5479 29.1707C16.0471 29.1451 15.921 29.0848 15.8592 28.8412C15.8056 28.6297 15.8713 28.4426 16.039 28.3296C16.1706 28.2409 16.212 28.2361 16.7555 28.2468L17.3325 28.2581V28.4222V28.5863L16.8067 28.5978C16.29 28.6091 16.2812 28.6109 16.2939 28.7004C16.3061 28.7858 16.3323 28.7928 16.7171 28.813C16.9427 28.8249 17.1679 28.8574 17.2175 28.8851C17.4666 29.0246 17.5149 29.3776 17.3154 29.6009L17.1958 29.7348L16.5569 29.7495C16.0135 29.762 15.9144 29.7549 15.894 29.7018ZM19.9008 29.6918C19.6237 29.5716 19.5464 29.4085 19.5501 28.9523C19.5545 28.4057 19.7496 28.2378 20.3801 28.2377C21.0623 28.2375 21.2285 28.4042 21.2027 29.0626C21.1904 29.377 21.1761 29.4344 21.0861 29.5319C21.0297 29.593 20.9241 29.6683 20.8515 29.6992C20.674 29.7748 20.0814 29.7702 19.9008 29.6918ZM20.7564 29.3069C20.7798 29.2633 20.7989 29.1236 20.7989 28.9965C20.7989 28.6329 20.7715 28.6068 20.3887 28.6068C20.1091 28.6068 20.0574 28.618 20.0209 28.6862C19.9621 28.7961 19.9671 29.2764 20.0277 29.337C20.0575 29.3669 20.2024 29.3863 20.3954 29.3863C20.6684 29.3863 20.7201 29.3749 20.7564 29.3069ZM21.4963 29.1479C21.4963 28.6015 21.505 28.5248 21.577 28.4333C21.7018 28.2746 21.8531 28.233 22.2571 28.2462C22.6537 28.2591 22.6842 28.2807 22.6273 28.5075C22.6038 28.6013 22.5857 28.6068 22.3005 28.6068C22.1013 28.6068 21.9834 28.6251 21.9539 28.6607C21.9285 28.6914 21.9042 28.9346 21.8976 29.2248L21.886 29.735L21.6912 29.7475L21.4963 29.76V29.1479ZM23.284 29.6875C23.2688 29.6478 23.2595 29.393 23.2633 29.1213L23.2704 28.6273L23.0705 28.6068L22.8706 28.5863L22.8581 28.4142L22.8456 28.2421L23.0632 28.2296C23.2704 28.2177 23.2802 28.212 23.2685 28.111C23.2525 27.9731 23.3442 27.9006 23.514 27.9169C23.6384 27.9288 23.6511 27.9429 23.6626 28.0817L23.6752 28.2335L23.8883 28.2458L24.1013 28.2581V28.4222V28.5863L23.8871 28.5987L23.6728 28.611L23.6614 29.173L23.65 29.735L23.4809 29.7473C23.3499 29.7569 23.3055 29.7434 23.284 29.6875ZM24.3758 29.5811L24.3884 29.4068L24.9217 29.3863C25.4364 29.3665 25.4555 29.3625 25.4682 29.2734C25.4808 29.1846 25.4692 29.1811 25.1605 29.1794C24.508 29.1757 24.3269 29.0821 24.3269 28.7485C24.3269 28.2975 24.4473 28.2313 25.2398 28.2467L25.8243 28.2581V28.4222V28.5863L25.2909 28.6068C24.7918 28.626 24.7576 28.6326 24.7576 28.7094C24.7576 28.7849 24.7918 28.793 25.1905 28.8119C25.6983 28.836 25.816 28.8909 25.8902 29.1386C25.9296 29.2703 25.9278 29.3312 25.8806 29.4567C25.7853 29.7101 25.6443 29.7553 24.9501 29.7554L24.3632 29.7555L24.3758 29.5811ZM13.1189 26.8136C13.0577 26.8043 12.9516 26.7443 12.883 26.6802C12.7692 26.5739 12.7584 26.5409 12.7584 26.3002C12.7584 26.0792 12.7733 26.0231 12.8507 25.9526C13.015 25.8029 13.1155 25.7762 13.5146 25.7762C13.8949 25.7762 14.0209 25.7316 13.7985 25.6758C13.7388 25.6608 13.5194 25.652 13.311 25.6562C13.1025 25.6604 12.9114 25.6511 12.8862 25.6356C12.8275 25.5993 12.8265 25.3794 12.8848 25.3434C12.9092 25.3283 13.1612 25.319 13.4448 25.3226C14.2486 25.333 14.3378 25.4118 14.3378 26.1119C14.3378 26.5328 14.3327 26.5589 14.2314 26.6601C14.1729 26.7186 14.0529 26.7832 13.9648 26.8037C13.8057 26.8406 13.3325 26.8461 13.1189 26.8136H13.1189ZM13.8119 26.4485C13.9231 26.4187 13.9609 26.3282 13.9054 26.2245C13.8692 26.1567 13.8171 26.1454 13.5414 26.1454C13.3102 26.1454 13.2058 26.1622 13.1702 26.205C13.1079 26.2801 13.1502 26.4215 13.2423 26.4457C13.3488 26.4737 13.7111 26.4755 13.8119 26.4485ZM19.0802 26.7864C19.0474 26.7468 19.0367 26.4493 19.0444 25.7916L19.0554 24.8532H19.2605H19.4657L19.4779 25.0861L19.4901 25.3191H19.858C20.2711 25.3191 20.4333 25.385 20.563 25.6054C20.6645 25.7777 20.6702 26.7794 20.5699 26.8179C20.4629 26.859 20.3194 26.8462 20.2743 26.7915C20.251 26.7633 20.2257 26.5226 20.218 26.2567C20.2072 25.8825 20.1902 25.7643 20.1425 25.7343C20.1087 25.7129 19.9663 25.6951 19.8261 25.6948C19.5008 25.694 19.4862 25.72 19.4862 26.2986C19.4862 26.5906 19.4692 26.7613 19.4369 26.7936C19.37 26.8606 19.1378 26.8559 19.0802 26.7864ZM21.2228 26.7978C21.0097 26.7361 20.8807 26.5461 20.8823 26.2961C20.8837 26.0839 20.9268 25.9983 21.1031 25.8583C21.1568 25.8156 21.3202 25.79 21.6358 25.7749C22.04 25.7555 22.0782 25.7474 21.9757 25.7031C21.9094 25.6744 21.6778 25.6531 21.4321 25.6531H21.004V25.4891V25.325H21.5599C22.411 25.325 22.4809 25.3831 22.4809 26.0907C22.4809 26.5091 22.4724 26.5608 22.3886 26.6581C22.3375 26.7172 22.2229 26.782 22.1322 26.803C21.926 26.8506 21.3947 26.8476 21.2228 26.7978ZM22.0764 26.4022C22.1142 26.3644 22.1147 26.3283 22.0786 26.2491C22.0339 26.1511 22.0139 26.1454 21.7105 26.1454C21.3109 26.1454 21.1868 26.2402 21.3598 26.4133C21.4146 26.4681 21.4885 26.4788 21.7277 26.4668C21.8923 26.4584 22.0492 26.4294 22.0764 26.4022ZM24.1089 26.8031C23.9257 26.7677 23.753 26.6497 23.6809 26.5107C23.6442 26.4399 23.6326 26.1925 23.6399 25.6326L23.65 24.8532H23.8346H24.0192L24.0397 25.5752C24.0547 26.1021 24.0755 26.3155 24.1166 26.3649C24.1633 26.4211 24.2586 26.4326 24.6773 26.4326C24.9547 26.4326 25.2109 26.4438 25.2466 26.4575C25.336 26.4918 25.336 26.7836 25.2466 26.8179C25.1583 26.8518 24.303 26.8407 24.1089 26.8031ZM27.9072 26.8042C27.5579 26.7179 27.4445 26.524 27.4449 26.0134C27.4451 25.7467 27.4623 25.6478 27.5245 25.5534C27.6553 25.355 27.7476 25.328 28.3 25.3264L28.8066 25.325L28.9461 25.4644C29.069 25.5873 29.0856 25.6293 29.0856 25.8172C29.0856 26.0051 29.069 26.0472 28.9461 26.17L28.8066 26.3095H28.3513C27.9909 26.3095 27.8959 26.3214 27.8959 26.3663C27.8959 26.4501 28.0297 26.4724 28.5369 26.4731L28.9933 26.4736L29.0199 26.6068C29.0388 26.7012 29.0289 26.7528 28.9858 26.7844C28.9142 26.8367 28.0994 26.8517 27.9072 26.8042V26.8042ZM28.6261 25.9321C28.7001 25.8582 28.6854 25.7435 28.596 25.6956C28.5524 25.6723 28.4035 25.6531 28.2651 25.6531C27.8947 25.6531 27.7591 25.7566 27.9194 25.9169C27.9991 25.9966 28.5497 26.0085 28.6261 25.9321ZM10.6662 25.84V24.8737H10.8713H11.0764V25.1814V25.4891H11.5687H12.061V25.1814V24.8737H12.2661H12.4712V25.84V26.8063L12.2764 26.7938L12.0815 26.7813L12.0699 26.2993L12.0584 25.8172H11.5687H11.079L11.0675 26.2993L11.0559 26.7813L10.8611 26.7938L10.6662 26.8063V25.84ZM14.6454 26.2665C14.6454 25.6628 14.6795 25.5507 14.9057 25.411C15.019 25.3409 15.111 25.325 15.401 25.325C15.8059 25.325 15.942 25.3756 16.0883 25.5807C16.1765 25.7045 16.1838 25.7553 16.1838 26.248V26.7813L15.9923 26.7936L15.8009 26.806L15.7872 26.293C15.7784 25.9621 15.7559 25.7624 15.7237 25.7304C15.6963 25.703 15.5761 25.6725 15.4566 25.6626C15.2823 25.6482 15.2192 25.6609 15.1373 25.7272C15.0403 25.8057 15.0345 25.8347 15.0215 26.3058L15.0078 26.8018H14.8266H14.6454V26.2665ZM16.7324 26.7327C16.5234 26.603 16.4915 26.4903 16.4915 25.8827V25.325H16.6711H16.8508L16.8679 25.8376C16.8788 26.168 16.9029 26.3681 16.9355 26.4007C17.0018 26.467 17.2952 26.4658 17.3621 26.3989C17.3979 26.3632 17.4172 26.1876 17.423 25.846L17.4314 25.3455L17.6135 25.3331L17.7957 25.3208L17.8102 25.8336C17.82 26.179 17.8419 26.3637 17.8773 26.3991C17.942 26.4637 18.2437 26.4607 18.3098 26.3948C18.34 26.3647 18.3631 26.1549 18.3717 25.8337L18.3853 25.3207L18.5768 25.3331L18.7683 25.3455L18.7798 25.8494C18.793 26.4257 18.7473 26.5806 18.5232 26.7191C18.3489 26.8268 17.8713 26.836 17.7263 26.7344C17.637 26.6719 17.6218 26.6719 17.5159 26.7344C17.3615 26.8256 16.8805 26.8246 16.7324 26.7327ZM25.5986 26.0656C25.5986 25.5329 25.6119 25.325 25.646 25.325C25.6736 25.325 25.6639 25.2924 25.6226 25.2468C25.5776 25.197 25.5566 25.1189 25.565 25.0321C25.5753 24.925 25.603 24.887 25.6937 24.8553C25.9614 24.7617 26.1746 25.0773 25.9453 25.2275C25.8377 25.298 25.8373 25.2999 25.9233 25.3317C26.0086 25.3633 26.0105 25.3817 25.9996 26.0727L25.9883 26.7813L25.7935 26.7938L25.5986 26.8063V26.0656ZM26.296 25.9927C26.296 25.107 26.3075 25.0566 26.5363 24.9382C26.6293 24.8902 26.9598 24.8559 27.1907 24.8703C27.2274 24.8726 27.2404 24.9228 27.2318 25.0275C27.2191 25.181 27.2185 25.1814 27.015 25.1943C26.9027 25.2013 26.7843 25.229 26.7518 25.2558C26.7045 25.2947 26.7453 25.3085 26.9559 25.325C27.2096 25.3447 27.2195 25.3497 27.2325 25.4633C27.2512 25.627 27.1873 25.6734 26.9401 25.6755L26.7268 25.6774L26.7062 26.2293L26.6857 26.7813L26.4909 26.7938L26.296 26.8063V25.9927V25.9927ZM0.268583 24.7096C0.287453 24.6758 0.520452 24.3435 0.78636 23.9712C2.58249 21.4565 4.81517 19.5292 7.26127 18.3817C9.05245 17.5415 10.9235 17.049 12.984 16.8755C13.7088 16.8144 15.4237 16.8245 16.2248 16.8945C18.3264 17.0782 20.426 17.5431 22.7326 18.3355C23.1695 18.4855 23.5342 18.6146 23.5431 18.6223C23.5519 18.63 23.4246 18.8628 23.2601 19.1397C22.6265 20.2064 21.1965 22.5978 21.1823 22.6144C21.1741 22.624 20.766 22.436 20.2755 22.1967C17.3837 20.7856 15.0194 20.065 12.3481 19.7804C11.6359 19.7046 9.9475 19.7166 9.23038 19.8026C6.9324 20.0782 5.0017 20.7904 3.17947 22.0344C2.27316 22.6532 1.24033 23.5771 0.608316 24.3344C0.261747 24.7497 0.221354 24.7943 0.268583 24.7096ZM35.4153 23.6533C33.8488 21.7708 31.9826 19.8681 30.2342 18.3709C27.4658 16.0002 24.4918 14.0765 21.3524 12.6259C18.0705 11.1094 14.8465 10.1733 11.5482 9.77924C11.0234 9.71654 12.4172 9.76519 13.3105 9.84075C20.6433 10.461 27.8452 13.1598 34.4186 17.7508C36.1843 18.984 38.2661 20.651 39.7393 22.0114L39.9938 22.2464L39.7394 22.3861C39.3657 22.5912 36.0214 24.3404 36.0029 24.3404C35.9942 24.3404 35.7298 24.0312 35.4153 23.6533ZM28.8805 20.6223C26.3757 18.2927 23.1856 16.5222 19.9124 15.6448C15.5873 14.4855 11.21 14.7786 6.63112 16.5343C6.2507 16.6801 5.92606 16.784 5.9097 16.765C5.89334 16.7461 5.10873 15.8383 4.16613 14.7477C3.22135 13.6545 2.46819 12.7492 2.4877 12.7302C2.5414 12.678 4.10917 12.3396 4.94346 12.2003C6.71644 11.9042 7.86043 11.8096 9.66113 11.8102C11.939 11.811 13.8367 12.0384 15.8556 12.5526C19.8259 13.5638 23.351 15.4482 26.6751 18.3365C27.4141 18.9785 29.5124 21.1007 29.407 21.0994C29.3994 21.0993 29.1625 20.8846 28.8805 20.6223Z" fill="#B8BABD"/>
<path d="M17.7083 30.1794C17.6601 30.1312 17.6843 28.8012 17.7364 28.6283C17.819 28.3542 17.9792 28.2786 18.4767 28.2788C19.123 28.279 19.2808 28.4206 19.2808 28.9999C19.2808 29.2479 19.2626 29.3446 19.1951 29.4537C19.0702 29.6558 18.9797 29.6897 18.5014 29.7135L18.0706 29.735L18.0583 29.9708L18.046 30.2067H17.8908C17.8055 30.2067 17.7233 30.1944 17.7083 30.1794ZM18.7339 29.4023C18.8631 29.3676 18.9269 29.1773 18.8992 28.9092C18.8695 28.6212 18.8048 28.5688 18.477 28.5671C18.1424 28.5654 18.0787 28.6341 18.0569 29.0205C18.0361 29.3889 18.068 29.4274 18.3936 29.4267C18.5318 29.4264 18.685 29.4154 18.7339 29.4023ZM21.5144 29.7191C21.5043 29.709 21.4961 29.4436 21.4961 29.1292V28.5576L21.6355 28.4181L21.775 28.2786H22.1894H22.6037V28.4222V28.5658H22.3343C21.9046 28.5658 21.9063 28.5635 21.9063 29.1597C21.9063 29.5159 21.8913 29.6779 21.8562 29.6995C21.8012 29.7335 21.5436 29.7483 21.5144 29.7191ZM24.4805 29.7288C24.3841 29.7119 24.3677 29.6892 24.3677 29.5729C24.3677 29.4003 24.4119 29.3875 25.0138 29.3868L25.4753 29.3863V29.2837C25.4753 29.1832 25.4689 29.1811 25.1574 29.1802C24.7394 29.1789 24.5318 29.1272 24.419 28.9964C24.2574 28.8091 24.3208 28.407 24.5253 28.3223C24.595 28.2935 24.8581 28.2805 25.2303 28.2877L25.824 28.2991V28.4222V28.5453L25.3728 28.5554C24.7952 28.5683 24.7279 28.5839 24.7445 28.7003C24.7604 28.8117 24.8794 28.8414 25.336 28.8481C25.6283 28.8524 25.6815 28.8651 25.777 28.9536C25.8663 29.0363 25.8855 29.0903 25.8855 29.2579C25.8855 29.5233 25.8601 29.5812 25.7096 29.6591C25.5832 29.7244 24.7303 29.7728 24.4805 29.7288ZM14.1197 29.6313C13.8993 29.497 13.8561 29.3326 13.8725 28.6914C13.8886 28.0618 13.9228 27.97 14.1846 27.8524C14.3102 27.7959 14.4477 27.7857 14.9529 27.7952L15.5682 27.8069V27.9504V28.094L14.9734 28.1045C14.4258 28.1142 14.3729 28.1219 14.3068 28.2014C14.2657 28.2508 14.235 28.3555 14.235 28.4462V28.6046L14.8401 28.616L15.4451 28.6273L15.4579 28.7595L15.4707 28.8918L14.8631 28.9031L14.2555 28.9145L14.243 29.0866C14.2335 29.2168 14.251 29.2792 14.3148 29.343C14.3921 29.4203 14.4485 29.4273 14.9939 29.4273H15.5887V29.5709V29.7144L14.9221 29.7143C14.3258 29.7142 14.2411 29.7054 14.1197 29.6313V29.6313ZM15.9169 29.5709V29.4273L16.3784 29.4267C16.9207 29.4261 17.0245 29.4054 17.0245 29.2984C17.0245 29.185 16.8659 29.1403 16.4578 29.1388C15.9955 29.1371 15.8759 29.0459 15.8759 28.6949C15.8759 28.3248 15.9713 28.2786 16.7353 28.2786H17.3117V28.4209V28.5633L16.8136 28.5748C16.3948 28.5845 16.3083 28.5976 16.2709 28.657C16.1912 28.7836 16.3026 28.8297 16.7491 28.8551C17.2317 28.8824 17.2928 28.9025 17.3748 29.061C17.4917 29.2872 17.414 29.5726 17.2103 29.6654C17.1427 29.6962 16.8821 29.7144 16.5098 29.7144H15.9169V29.5709ZM19.8264 29.6341C19.6167 29.5062 19.5578 29.3469 19.5743 28.9528C19.5854 28.6868 19.6072 28.5876 19.6745 28.497C19.8113 28.3128 19.9196 28.2798 20.3884 28.2798C20.8572 28.2798 20.9656 28.3128 21.1022 28.4968C21.2166 28.6508 21.2466 29.1755 21.1538 29.3977C21.0488 29.6489 20.8911 29.7141 20.3884 29.7141C20.0334 29.7141 19.9346 29.7001 19.8264 29.6341ZM20.7466 29.3328C20.7984 29.2811 20.8138 29.1966 20.8098 28.9875C20.8031 28.6419 20.7314 28.5655 20.4147 28.5664C20.1243 28.5671 20.0368 28.5972 19.9832 28.7148C19.9238 28.8452 19.9241 29.1486 19.9838 29.2797C20.0387 29.4001 20.1207 29.4236 20.441 29.4108C20.5976 29.4046 20.7013 29.3781 20.7466 29.3328ZM23.292 29.1504L23.2806 28.5863L23.0652 28.5739L22.8498 28.5615V28.4201C22.8498 28.2829 22.8547 28.2786 23.0106 28.2786C23.253 28.2786 23.3011 28.2474 23.3011 28.0896C23.3011 27.9523 23.3035 27.9504 23.4832 27.9504C23.6641 27.9504 23.6654 27.9515 23.6781 28.1043C23.6906 28.2552 23.6944 28.2584 23.8754 28.271C24.098 28.2865 24.1343 28.3163 24.0994 28.4552C24.0761 28.5481 24.0484 28.5632 23.8817 28.574L23.6908 28.5863L23.6794 29.1504L23.668 29.7144H23.4857H23.3034L23.292 29.1504ZM10.6953 26.7764C10.6791 26.7603 10.666 26.3256 10.666 25.8104V24.8737H10.8488H11.0316L11.0436 25.1711L11.0557 25.4685H11.5685H12.0813L12.0859 25.1814L12.0905 24.8942L12.2815 24.8817L12.4725 24.8691L12.4615 25.8252L12.4505 26.7813L12.2774 26.7938L12.1044 26.8064L12.0928 26.3221L12.0813 25.8378H11.5685H11.0557L11.0352 26.3095L11.0146 26.7813L10.8696 26.7935C10.7898 26.8002 10.7114 26.7925 10.6953 26.7764ZM13.0198 26.7428C12.9494 26.7122 12.8617 26.6442 12.8249 26.5917C12.6902 26.3994 12.7717 25.9608 12.961 25.8595C13.0044 25.8362 13.2363 25.8172 13.4763 25.8172C13.8699 25.8172 13.9114 25.8102 13.899 25.7454C13.887 25.6825 13.8234 25.6722 13.3832 25.6621L12.8812 25.6506V25.4878V25.325H13.3727C14.2111 25.325 14.317 25.4134 14.317 26.1137C14.317 26.6012 14.2776 26.6927 14.0389 26.7589C13.8195 26.8199 13.1733 26.8097 13.0198 26.7428ZM13.9063 26.4126C13.9785 26.3256 13.9248 26.1598 13.8149 26.1304C13.6721 26.0921 13.3497 26.0999 13.2326 26.1444C13.1182 26.1879 13.0885 26.3363 13.1766 26.4244C13.2514 26.4993 13.8423 26.4897 13.9063 26.4126ZM14.6745 26.7764C14.6194 26.7213 14.642 25.8222 14.7021 25.6784C14.7965 25.4526 14.9784 25.3545 15.342 25.3335C15.5954 25.3188 15.6936 25.3312 15.8414 25.3966C16.1205 25.5201 16.1683 25.6547 16.1541 26.2774L16.1425 26.7813H15.9785H15.8144L15.8027 26.2907C15.7883 25.6839 15.7691 25.6531 15.4028 25.6531C15.0539 25.6531 15.0395 25.6765 15.0144 26.2848L14.9939 26.7813L14.8488 26.7935C14.7691 26.8002 14.6906 26.7925 14.6745 26.7764ZM16.8208 26.7482C16.739 26.72 16.6384 26.6393 16.5838 26.5582C16.495 26.426 16.4897 26.3832 16.5004 25.8813L16.5118 25.3455L16.6861 25.3329L16.8604 25.3202V25.8058C16.8604 26.3863 16.898 26.4736 17.1476 26.4736C17.397 26.4736 17.4348 26.3861 17.4348 25.8081V25.325H17.6194H17.804V25.8081C17.804 26.3837 17.8422 26.4736 18.0871 26.4736C18.3402 26.4736 18.3738 26.4023 18.3872 25.836L18.3988 25.3455L18.5732 25.3329L18.7475 25.3202L18.7469 25.8662C18.7463 26.4571 18.7211 26.5527 18.5291 26.6953C18.3791 26.8067 17.8776 26.8189 17.7306 26.7147C17.6433 26.6529 17.6259 26.6537 17.486 26.725C17.3157 26.8118 17.0341 26.8217 16.8208 26.7482H16.8208ZM19.0852 25.8275L19.0962 24.8532H19.2603H19.4244L19.4449 25.0954L19.4654 25.3376L19.8141 25.3301C20.2061 25.3216 20.3823 25.3843 20.5291 25.5843C20.6048 25.6875 20.614 25.7586 20.614 26.2407L20.6141 26.7813L20.4448 26.7936L20.2756 26.806L20.2578 26.306C20.2365 25.7081 20.2007 25.6531 19.8331 25.6531C19.6463 25.6531 19.6027 25.6687 19.5299 25.7612C19.4552 25.8562 19.4449 25.926 19.4449 26.3356V26.8018H19.2596H19.0742L19.0852 25.8275ZM21.1356 26.74C20.8519 26.6168 20.8013 26.131 21.0502 25.9216C21.1663 25.8238 21.2023 25.8172 21.6199 25.8172C21.865 25.8172 22.0757 25.8009 22.088 25.7809C22.1411 25.6949 21.9742 25.6552 21.514 25.6443L21.0243 25.6326V25.4891V25.3455L21.5488 25.334C22.3671 25.3161 22.4806 25.4072 22.4806 26.082C22.4806 26.541 22.426 26.6879 22.2296 26.7563C22.0398 26.8225 21.3001 26.8115 21.1356 26.74ZM22.0622 26.4244C22.0893 26.3973 22.1114 26.3322 22.1114 26.2798C22.1114 26.1615 21.9778 26.1044 21.7012 26.1044C21.4032 26.1044 21.291 26.1593 21.291 26.3051C21.291 26.3715 21.314 26.4351 21.3422 26.4464C21.4504 26.4901 22.0137 26.4728 22.0622 26.4244ZM24.0371 26.7634C23.6626 26.6479 23.6293 26.5538 23.6293 25.6134V24.8737H23.8344H24.0395V25.5887C24.0395 26.5122 23.9997 26.4665 24.8189 26.484L25.2907 26.4941V26.6377V26.7813L24.7164 26.7886C24.4005 26.7926 24.0948 26.7813 24.0371 26.7634ZM25.6277 26.7764C25.6116 26.7603 25.5984 26.4358 25.5984 26.0553C25.5984 25.4674 25.608 25.3597 25.6621 25.3389C25.7166 25.318 25.7132 25.3009 25.6383 25.2212C25.4608 25.0323 25.6499 24.7736 25.8958 24.869C25.989 24.9051 26.0086 24.9376 26.0086 25.0559C26.0086 25.1589 25.9847 25.2118 25.9232 25.2447C25.8464 25.2858 25.8444 25.2953 25.9037 25.3387C25.9606 25.3803 25.9681 25.4824 25.9584 26.0841L25.9471 26.7813L25.802 26.7935C25.7223 26.8002 25.6438 26.7925 25.6277 26.7764ZM26.3251 26.7764C26.309 26.7603 26.2958 26.4077 26.2958 25.993C26.2958 25.1464 26.3188 25.0536 26.5566 24.9408C26.6398 24.9013 26.8017 24.8737 26.9506 24.8737H27.2032L27.1905 25.0275C27.178 25.1781 27.1741 25.1815 27.0033 25.1873C26.6296 25.2 26.5832 25.325 26.9521 25.325H27.1983V25.4871V25.6492L26.9419 25.6614L26.6855 25.6737L26.665 26.2275L26.6445 26.7813L26.4994 26.7935C26.4196 26.8002 26.3412 26.7925 26.3251 26.7764ZM27.8319 26.7586C27.763 26.7382 27.6614 26.6736 27.6063 26.6149C27.5156 26.5185 27.5046 26.4674 27.4921 26.0848C27.4766 25.6125 27.5032 25.5271 27.7034 25.405C27.8947 25.2884 28.6802 25.2883 28.857 25.4048C29.0808 25.5523 29.1487 25.822 29.0231 26.0647C28.9232 26.258 28.7731 26.3095 28.3104 26.3095C28.085 26.3095 27.8904 26.3259 27.878 26.3459C27.8242 26.4329 27.9926 26.4716 28.4726 26.4825L28.9828 26.4941V26.6377V26.7813L28.47 26.7884C28.188 26.7924 27.9008 26.7789 27.8319 26.7586ZM28.6546 25.8172V25.6737L28.3122 25.6617C27.9578 25.6493 27.8547 25.6836 27.8547 25.8141C27.8547 25.9532 27.9441 25.9846 28.3053 25.9725L28.6546 25.9608V25.8172ZM35.415 23.6533C33.8486 21.7708 31.9823 19.8681 30.234 18.3709C27.4655 16.0002 24.4915 14.0765 21.3522 12.6259C18.0703 11.1094 14.8463 10.1733 11.5479 9.77924C11.0232 9.71654 12.417 9.76519 13.3102 9.84075C20.6431 10.461 27.845 13.1598 34.4184 17.7508C36.1841 18.984 38.2659 20.651 39.7391 22.0114L39.9935 22.2464L39.7391 22.3861C39.3654 22.5912 36.0211 24.3404 36.0026 24.3404C35.9939 24.3404 35.7295 24.0312 35.415 23.6533ZM28.8187 20.5393C27.9665 19.729 26.5804 18.6995 25.3133 17.9358C22.519 16.2518 19.3312 15.2181 16.2246 14.9888C15.4923 14.9348 13.9262 14.9341 13.2094 14.9876C11.0323 15.15 8.65746 15.7074 6.51242 16.5594L5.94842 16.7834L4.29717 14.8717C2.43293 12.7133 2.48504 12.7755 2.51545 12.7451C2.54779 12.7127 3.2737 12.544 4.08173 12.381C5.41057 12.113 6.56655 11.96 7.97095 11.8662C8.90827 11.8037 11.3106 11.8393 12.1838 11.9287C16.3253 12.3528 20.2268 13.7562 23.6908 16.068C25.2965 17.1397 26.6803 18.2871 28.1668 19.7793C28.8535 20.4687 29.2546 20.9002 29.2016 20.8925C29.1941 20.8914 29.0218 20.7325 28.8187 20.5393Z" fill="#F49456"/>
<path d="M17.7083 30.1795C17.6601 30.1314 17.6843 28.8014 17.7364 28.6284C17.819 28.3544 17.9792 28.2788 18.4767 28.279C19.123 28.2792 19.2808 28.4208 19.2808 29.0001C19.2808 29.2481 19.2626 29.3447 19.1951 29.4539C19.0702 29.656 18.9797 29.6899 18.5014 29.7137L18.0706 29.7351L18.0583 29.971L18.046 30.2069H17.8908C17.8055 30.2069 17.7233 30.1946 17.7083 30.1795ZM18.7339 29.4025C18.8631 29.3678 18.9269 29.1775 18.8992 28.9093C18.8695 28.6214 18.8048 28.569 18.477 28.5673C18.1424 28.5655 18.0787 28.6342 18.0569 29.0207C18.0361 29.3891 18.068 29.4276 18.3936 29.4269C18.5318 29.4266 18.685 29.4156 18.7339 29.4025ZM21.5144 29.7193C21.5043 29.7092 21.4961 29.4437 21.4961 29.1294V28.5578L21.6355 28.4183L21.775 28.2788H22.1894H22.6037V28.4224V28.566H22.3343C21.9046 28.566 21.9063 28.5636 21.9063 29.1598C21.9063 29.5161 21.8913 29.678 21.8562 29.6997C21.8012 29.7337 21.5436 29.7485 21.5144 29.7193ZM24.4805 29.729C24.3841 29.7121 24.3677 29.6894 24.3677 29.5731C24.3677 29.4005 24.4119 29.3877 25.0138 29.387L25.4753 29.3864V29.2839C25.4753 29.1834 25.4689 29.1813 25.1574 29.1803C24.7394 29.179 24.5318 29.1274 24.419 28.9966C24.2574 28.8093 24.3208 28.4072 24.5253 28.3225C24.595 28.2936 24.8581 28.2807 25.2303 28.2879L25.824 28.2993V28.4224V28.5455L25.3728 28.5556C24.7952 28.5685 24.7279 28.584 24.7445 28.7005C24.7604 28.8119 24.8794 28.8416 25.336 28.8483C25.6283 28.8525 25.6815 28.8653 25.777 28.9537C25.8663 29.0365 25.8855 29.0904 25.8855 29.258C25.8855 29.5234 25.8601 29.5814 25.7096 29.6592C25.5832 29.7246 24.7303 29.773 24.4805 29.729ZM14.1197 29.6315C13.8993 29.4971 13.8561 29.3328 13.8725 28.6916C13.8886 28.062 13.9228 27.9702 14.1846 27.8525C14.3102 27.7961 14.4477 27.7859 14.9529 27.7954L15.5682 27.807V27.9506V28.0942L14.9734 28.1047C14.4258 28.1144 14.3728 28.1221 14.3068 28.2016C14.2657 28.251 14.235 28.3557 14.235 28.4463V28.6048L14.8401 28.6161L15.4451 28.6275L15.4579 28.7597L15.4707 28.8919L14.8631 28.9033L14.2555 28.9147L14.243 29.0868C14.2335 29.217 14.251 29.2794 14.3148 29.3432C14.3921 29.4205 14.4485 29.4275 14.9939 29.4275H15.5887V29.571V29.7146L14.9221 29.7145C14.3258 29.7143 14.2411 29.7056 14.1197 29.6315V29.6315ZM15.9169 29.571V29.4275L16.3784 29.4269C16.9207 29.4262 17.0245 29.4056 17.0245 29.2986C17.0245 29.1851 16.8659 29.1405 16.4578 29.139C15.9955 29.1373 15.8759 29.046 15.8759 28.6951C15.8759 28.325 15.9713 28.2788 16.7353 28.2788H17.3117V28.4211V28.5634L16.8136 28.575C16.3948 28.5846 16.3083 28.5977 16.2709 28.6571C16.1912 28.7838 16.3026 28.8299 16.7491 28.8552C17.2317 28.8826 17.2928 28.9027 17.3748 29.0612C17.4917 29.2873 17.414 29.5728 17.2103 29.6656C17.1427 29.6964 16.8821 29.7146 16.5098 29.7146H15.9169V29.571ZM19.8264 29.6342C19.6167 29.5064 19.5578 29.3471 19.5743 28.953C19.5854 28.687 19.6072 28.5877 19.6745 28.4972C19.8113 28.3129 19.9196 28.28 20.3884 28.28C20.8572 28.28 20.9656 28.313 21.1022 28.4969C21.2166 28.651 21.2466 29.1757 21.1538 29.3979C21.0488 29.6491 20.8911 29.7143 20.3884 29.7143C20.0334 29.7143 19.9346 29.7002 19.8264 29.6342ZM20.7466 29.333C20.7984 29.2812 20.8138 29.1968 20.8098 28.9877C20.8031 28.642 20.7314 28.5657 20.4147 28.5665C20.1243 28.5673 20.0368 28.5974 19.9832 28.715C19.9238 28.8454 19.9241 29.1488 19.9838 29.2798C20.0387 29.4003 20.1207 29.4238 20.441 29.411C20.5976 29.4047 20.7013 29.3783 20.7466 29.333ZM23.292 29.1505L23.2806 28.5865L23.0652 28.5741L22.8498 28.5617V28.4202C22.8498 28.2831 22.8547 28.2788 23.0106 28.2788C23.253 28.2788 23.3011 28.2475 23.3011 28.0898C23.3011 27.9525 23.3035 27.9506 23.4832 27.9506C23.6641 27.9506 23.6654 27.9517 23.6781 28.1045C23.6906 28.2553 23.6944 28.2585 23.8754 28.2711C24.098 28.2866 24.1343 28.3164 24.0994 28.4554C24.0761 28.5483 24.0484 28.5634 23.8817 28.5741L23.6908 28.5865L23.6794 29.1505L23.668 29.7146H23.4857H23.3034L23.292 29.1505ZM10.6953 26.7766C10.6791 26.7605 10.666 26.3258 10.666 25.8106V24.8739H10.8488H11.0316L11.0436 25.1713L11.0557 25.4687H11.5685H12.0812L12.0859 25.1816L12.0905 24.8944L12.2815 24.8819L12.4725 24.8693L12.4615 25.8254L12.4505 26.7815L12.2774 26.794L12.1044 26.8066L12.0928 26.3222L12.0812 25.8379H11.5685H11.0557L11.0352 26.3097L11.0146 26.7815L10.8696 26.7937C10.7898 26.8004 10.7114 26.7927 10.6953 26.7766ZM13.0198 26.743C12.9494 26.7124 12.8617 26.6444 12.8249 26.5919C12.6902 26.3995 12.7717 25.961 12.961 25.8597C13.0044 25.8364 13.2363 25.8174 13.4763 25.8174C13.8699 25.8174 13.9114 25.8104 13.899 25.7456C13.887 25.6827 13.8234 25.6724 13.3832 25.6623L12.8812 25.6508V25.488V25.3251H13.3726C14.2111 25.3251 14.317 25.4136 14.317 26.1139C14.317 26.6014 14.2776 26.6928 14.0389 26.7591C13.8195 26.82 13.1733 26.8098 13.0198 26.743ZM13.9063 26.4128C13.9785 26.3258 13.9248 26.16 13.8149 26.1305C13.6721 26.0923 13.3497 26.1 13.2326 26.1446C13.1182 26.1881 13.0885 26.3365 13.1766 26.4246C13.2514 26.4994 13.8423 26.4899 13.9063 26.4128ZM14.6745 26.7766C14.6194 26.7215 14.642 25.8224 14.7021 25.6786C14.7965 25.4528 14.9784 25.3547 15.342 25.3336C15.5954 25.319 15.6936 25.3314 15.8414 25.3968C16.1205 25.5202 16.1683 25.6549 16.1541 26.2776L16.1425 26.7815H15.9784H15.8144L15.8027 26.2909C15.7883 25.6841 15.769 25.6533 15.4028 25.6533C15.0539 25.6533 15.0395 25.6766 15.0144 26.285L14.9939 26.7815L14.8488 26.7937C14.7691 26.8004 14.6906 26.7927 14.6745 26.7766ZM16.8208 26.7484C16.739 26.7202 16.6384 26.6395 16.5838 26.5583C16.495 26.4262 16.4897 26.3834 16.5004 25.8815L16.5118 25.3456L16.6861 25.333L16.8604 25.3204V25.8059C16.8604 26.3865 16.898 26.4738 17.1476 26.4738C17.397 26.4738 17.4348 26.3863 17.4348 25.8083V25.3251H17.6194H17.804V25.8083C17.804 26.3838 17.8422 26.4738 18.0871 26.4738C18.3402 26.4738 18.3738 26.4024 18.3872 25.8362L18.3988 25.3456L18.5732 25.333L18.7475 25.3204L18.7469 25.8663C18.7463 26.4572 18.7211 26.5529 18.5291 26.6955C18.3791 26.8068 17.8776 26.8191 17.7306 26.7149C17.6433 26.6531 17.6259 26.6538 17.486 26.7252C17.3157 26.812 17.0341 26.8218 16.8208 26.7484H16.8208ZM19.0852 25.8277L19.0962 24.8534H19.2603H19.4244L19.4449 25.0956L19.4654 25.3377L19.8141 25.3302C20.2061 25.3218 20.3823 25.3845 20.5291 25.5845C20.6048 25.6877 20.614 25.7588 20.614 26.2408L20.6141 26.7815L20.4448 26.7938L20.2756 26.8062L20.2578 26.3062C20.2365 25.7083 20.2007 25.6533 19.8331 25.6533C19.6463 25.6533 19.6027 25.6689 19.5299 25.7614C19.4552 25.8564 19.4449 25.9262 19.4449 26.3357V26.802H19.2596H19.0742L19.0852 25.8277ZM21.1356 26.7402C20.8519 26.6169 20.8013 26.1312 21.0502 25.9217C21.1663 25.824 21.2023 25.8174 21.6199 25.8174C21.865 25.8174 22.0757 25.801 22.088 25.781C22.1411 25.6951 21.9742 25.6554 21.514 25.6444L21.0243 25.6328V25.4892V25.3456L21.5488 25.3342C22.3671 25.3162 22.4806 25.4074 22.4806 26.0822C22.4806 26.5412 22.426 26.688 22.2296 26.7565C22.0398 26.8227 21.3001 26.8116 21.1356 26.7402ZM22.0622 26.4246C22.0893 26.3975 22.1114 26.3324 22.1114 26.28C22.1114 26.1617 21.9778 26.1046 21.7012 26.1046C21.4032 26.1046 21.2909 26.1595 21.2909 26.3053C21.2909 26.3716 21.314 26.4352 21.3422 26.4466C21.4504 26.4903 22.0137 26.473 22.0622 26.4246ZM24.0371 26.7636C23.6626 26.648 23.6293 26.554 23.6293 25.6136V24.8739H23.8344H24.0395V25.5889C24.0395 26.5124 23.9997 26.4667 24.8189 26.4842L25.2907 26.4943V26.6379V26.7815L24.7164 26.7887C24.4005 26.7927 24.0948 26.7814 24.0371 26.7636ZM25.6277 26.7766C25.6116 26.7605 25.5984 26.4359 25.5984 26.0554C25.5984 25.4676 25.608 25.3599 25.6621 25.3391C25.7166 25.3182 25.7132 25.3011 25.6382 25.2213C25.4608 25.0324 25.6499 24.7738 25.8958 24.8691C25.989 24.9053 26.0086 24.9378 26.0086 25.056C26.0086 25.1591 25.9847 25.212 25.9232 25.2449C25.8464 25.286 25.8444 25.2955 25.9037 25.3389C25.9606 25.3805 25.9681 25.4825 25.9584 26.0843L25.9471 26.7815L25.802 26.7937C25.7223 26.8004 25.6438 26.7927 25.6277 26.7766ZM26.3251 26.7766C26.309 26.7605 26.2958 26.4079 26.2958 25.9931C26.2958 25.1466 26.3188 25.0538 26.5566 24.9409C26.6398 24.9014 26.8017 24.8739 26.9506 24.8739H27.2032L27.1905 25.0277C27.178 25.1783 27.1741 25.1817 27.0033 25.1875C26.6296 25.2002 26.5832 25.3251 26.9521 25.3251H27.1983V25.4873V25.6494L26.9419 25.6616L26.6855 25.6738L26.665 26.2276L26.6445 26.7815L26.4994 26.7937C26.4196 26.8004 26.3412 26.7927 26.3251 26.7766ZM27.8319 26.7587C27.7629 26.7384 27.6614 26.6737 27.6063 26.6151C27.5156 26.5187 27.5046 26.4675 27.4921 26.0849C27.4766 25.6127 27.5032 25.5272 27.7034 25.4051C27.8947 25.2885 28.6801 25.2884 28.857 25.405C29.0808 25.5525 29.1487 25.8221 29.0231 26.0649C28.9232 26.2582 28.7731 26.3097 28.3104 26.3097C28.085 26.3097 27.8904 26.3261 27.878 26.3461C27.8242 26.4331 27.9926 26.4718 28.4726 26.4827L28.9828 26.4943V26.6379V26.7815L28.47 26.7886C28.188 26.7925 27.9008 26.7791 27.8319 26.7587ZM28.6546 25.8174V25.6738L28.3122 25.6619C27.9578 25.6495 27.8547 25.6838 27.8547 25.8142C27.8547 25.9534 27.9441 25.9848 28.3053 25.9727L28.6546 25.961V25.8174ZM35.3942 23.5946C30.5849 17.8222 24.8138 13.6863 18.3146 11.3546C16.4519 10.6863 14.3406 10.1509 12.512 9.8833C12.2751 9.84863 12.0259 9.81186 11.9582 9.80161C11.6343 9.75253 13.0397 9.83157 13.7632 9.90313C19.9168 10.5117 25.9323 12.5478 31.5467 15.9224C34.3921 17.6326 37.4074 19.8841 39.7195 22.0247L39.9549 22.2426L39.4121 22.5274C39.1136 22.684 38.2509 23.1366 37.4951 23.5331C36.7392 23.9297 36.0905 24.2656 36.0534 24.2796C36.003 24.2986 35.8374 24.1265 35.3942 23.5946ZM28.8187 20.5395C27.9665 19.7292 26.5804 18.6996 25.3133 17.936C22.519 16.2519 19.3312 15.2183 16.2246 14.989C15.4923 14.9349 13.9262 14.9343 13.2094 14.9878C11.0323 15.1502 8.65746 15.7076 6.51242 16.5596L5.94842 16.7836L4.29717 14.8718C2.43293 12.7135 2.48504 12.7757 2.51545 12.7453C2.54779 12.7129 3.2737 12.5442 4.08173 12.3812C5.41057 12.1131 6.56655 11.9601 7.97095 11.8664C8.90827 11.8039 11.3106 11.8395 12.1838 11.9289C16.3253 12.3529 20.2268 13.7564 23.6908 16.0682C25.2965 17.1399 26.6803 18.2873 28.1668 19.7795C28.8535 20.4689 29.2546 20.9004 29.2016 20.8926C29.1941 20.8915 29.0218 20.7326 28.8187 20.5395ZM11.5177 9.74833C11.5687 9.73852 11.6425 9.73889 11.6818 9.74916C11.721 9.75943 11.6792 9.76746 11.589 9.767C11.4987 9.76655 11.4666 9.75815 11.5177 9.74833Z" fill="#F27220"/>
<path d="M17.7083 30.1796C17.6601 30.1315 17.6843 28.8014 17.7364 28.6285C17.819 28.3544 17.9792 28.2788 18.4767 28.279C19.123 28.2792 19.2808 28.4208 19.2808 29.0001C19.2808 29.2481 19.2626 29.3448 19.1951 29.4539C19.0702 29.656 18.9797 29.6899 18.5014 29.7137L18.0706 29.7352L18.0583 29.971L18.046 30.2069H17.8908C17.8055 30.2069 17.7233 30.1946 17.7083 30.1796ZM18.7339 29.4025C18.8631 29.3679 18.9269 29.1775 18.8992 28.9094C18.8695 28.6214 18.8048 28.569 18.477 28.5673C18.1424 28.5656 18.0787 28.6343 18.0569 29.0207C18.0361 29.3892 18.068 29.4277 18.3936 29.4269C18.5318 29.4266 18.685 29.4156 18.7339 29.4025ZM21.5144 29.7193C21.5043 29.7092 21.4961 29.4438 21.4961 29.1294V28.5578L21.6355 28.4183L21.775 28.2788H22.1894H22.6037V28.4224V28.566H22.3343C21.9046 28.566 21.9063 28.5637 21.9063 29.1599C21.9063 29.5161 21.8913 29.6781 21.8562 29.6997C21.8012 29.7337 21.5436 29.7485 21.5144 29.7193ZM24.4805 29.7291C24.3841 29.7121 24.3677 29.6894 24.3677 29.5731C24.3677 29.4005 24.4119 29.3878 25.0138 29.387L25.4753 29.3865V29.2839C25.4753 29.1834 25.4689 29.1813 25.1574 29.1804C24.7394 29.1791 24.5318 29.1274 24.419 28.9966C24.2574 28.8093 24.3208 28.4072 24.5253 28.3226C24.595 28.2937 24.8581 28.2807 25.2303 28.2879L25.824 28.2994V28.4224V28.5455L25.3728 28.5556C24.7952 28.5686 24.7279 28.5841 24.7445 28.7005C24.7604 28.8119 24.8794 28.8416 25.336 28.8483C25.6283 28.8526 25.6815 28.8653 25.777 28.9538C25.8663 29.0365 25.8855 29.0905 25.8855 29.2581C25.8855 29.5235 25.8601 29.5814 25.7096 29.6593C25.5832 29.7246 24.7303 29.773 24.4805 29.7291ZM14.1197 29.6316C13.8993 29.4972 13.8561 29.3328 13.8725 28.6916C13.8886 28.062 13.9228 27.9702 14.1846 27.8526C14.3102 27.7961 14.4477 27.7859 14.9529 27.7955L15.5682 27.8071V27.9507V28.0942L14.9734 28.1048C14.4258 28.1144 14.3728 28.1221 14.3068 28.2016C14.2657 28.251 14.235 28.3557 14.235 28.4464V28.6048L14.8401 28.6162L15.4451 28.6275L15.4579 28.7598L15.4707 28.892L14.8631 28.9033L14.2555 28.9147L14.243 29.0868C14.2335 29.217 14.251 29.2794 14.3148 29.3432C14.3921 29.4205 14.4485 29.4275 14.9939 29.4275H15.5887V29.5711V29.7147L14.9221 29.7145C14.3258 29.7144 14.2411 29.7056 14.1197 29.6315V29.6316ZM15.9169 29.5711V29.4275L16.3784 29.4269C16.9207 29.4263 17.0245 29.4056 17.0245 29.2986C17.0245 29.1852 16.8659 29.1405 16.4578 29.139C15.9955 29.1373 15.8759 29.0461 15.8759 28.6951C15.8759 28.325 15.9713 28.2788 16.7353 28.2788H17.3117V28.4212V28.5635L16.8136 28.575C16.3948 28.5847 16.3083 28.5978 16.2709 28.6572C16.1912 28.7838 16.3026 28.83 16.7491 28.8553C17.2317 28.8826 17.2928 28.9028 17.3748 29.0612C17.4917 29.2874 17.414 29.5728 17.2103 29.6656C17.1427 29.6964 16.8821 29.7147 16.5098 29.7147H15.9169V29.5711ZM19.8264 29.6343C19.6167 29.5064 19.5578 29.3471 19.5743 28.953C19.5854 28.687 19.6072 28.5878 19.6745 28.4972C19.8113 28.313 19.9196 28.2801 20.3884 28.2801C20.8572 28.2801 20.9656 28.313 21.1022 28.497C21.2166 28.651 21.2466 29.1757 21.1538 29.3979C21.0488 29.6491 20.8911 29.7143 20.3884 29.7143C20.0334 29.7143 19.9346 29.7003 19.8264 29.6343ZM20.7466 29.333C20.7984 29.2813 20.8138 29.1969 20.8098 28.9877C20.8031 28.6421 20.7314 28.5657 20.4147 28.5666C20.1243 28.5673 20.0368 28.5975 19.9832 28.715C19.9238 28.8454 19.9241 29.1488 19.9838 29.2799C20.0387 29.4003 20.1207 29.4238 20.441 29.411C20.5976 29.4048 20.7013 29.3783 20.7466 29.333ZM23.292 29.1506L23.2806 28.5865L23.0652 28.5741L22.8498 28.5617V28.4203C22.8498 28.2831 22.8547 28.2788 23.0106 28.2788C23.253 28.2788 23.3011 28.2476 23.3011 28.0898C23.3011 27.9525 23.3035 27.9507 23.4832 27.9507C23.6641 27.9507 23.6654 27.9517 23.6781 28.1045C23.6906 28.2554 23.6944 28.2586 23.8754 28.2712C24.098 28.2867 24.1343 28.3165 24.0994 28.4554C24.0761 28.5483 24.0484 28.5634 23.8817 28.5742L23.6908 28.5865L23.6794 29.1506L23.668 29.7147H23.4857H23.3034L23.292 29.1506ZM10.6953 26.7766C10.6791 26.7605 10.666 26.3258 10.666 25.8106V24.8739H10.8488H11.0316L11.0436 25.1713L11.0557 25.4688H11.5685H12.0812L12.0859 25.1816L12.0905 24.8944L12.2815 24.8819L12.4725 24.8694L12.4615 25.8254L12.4505 26.7815L12.2774 26.794L12.1044 26.8066L12.0928 26.3223L12.0812 25.838H11.5685H11.0557L11.0352 26.3097L11.0146 26.7815L10.8696 26.7937C10.7898 26.8004 10.7114 26.7927 10.6953 26.7766ZM13.0198 26.7431C12.9494 26.7124 12.8617 26.6444 12.8249 26.592C12.6902 26.3996 12.7717 25.961 12.961 25.8597C13.0044 25.8365 13.2363 25.8175 13.4763 25.8175C13.8699 25.8175 13.9114 25.8104 13.899 25.7457C13.887 25.6827 13.8234 25.6725 13.3832 25.6624L12.8812 25.6508V25.488V25.3252H13.3726C14.2111 25.3252 14.317 25.4136 14.317 26.114C14.317 26.6014 14.2776 26.6929 14.0389 26.7592C13.8195 26.8201 13.1733 26.8099 13.0198 26.7431ZM13.9063 26.4128C13.9785 26.3259 13.9248 26.16 13.8149 26.1306C13.6721 26.0923 13.3497 26.1001 13.2326 26.1446C13.1182 26.1881 13.0885 26.3365 13.1766 26.4246C13.2514 26.4995 13.8423 26.4899 13.9063 26.4128ZM14.6745 26.7766C14.6194 26.7215 14.642 25.8224 14.7021 25.6787C14.7965 25.4528 14.9784 25.3547 15.342 25.3337C15.5954 25.319 15.6936 25.3314 15.8414 25.3968C16.1205 25.5203 16.1683 25.6549 16.1541 26.2776L16.1425 26.7815H15.9784H15.8144L15.8027 26.2909C15.7883 25.6841 15.769 25.6534 15.4028 25.6534C15.0539 25.6534 15.0395 25.6767 15.0144 26.285L14.9939 26.7815L14.8488 26.7937C14.7691 26.8004 14.6906 26.7927 14.6745 26.7766ZM16.8208 26.7484C16.739 26.7202 16.6384 26.6396 16.5838 26.5584C16.495 26.4262 16.4897 26.3834 16.5004 25.8815L16.5118 25.3457L16.6861 25.3331L16.8604 25.3205V25.806C16.8604 26.3866 16.898 26.4738 17.1476 26.4738C17.397 26.4738 17.4348 26.3863 17.4348 25.8083V25.3252H17.6194H17.804V25.8083C17.804 26.3839 17.8422 26.4738 18.0871 26.4738C18.3402 26.4738 18.3738 26.4025 18.3872 25.8363L18.3988 25.3457L18.5732 25.3331L18.7475 25.3205L18.7469 25.8664C18.7463 26.4573 18.7211 26.5529 18.5291 26.6955C18.3791 26.8069 17.8776 26.8191 17.7306 26.715C17.6433 26.6531 17.6259 26.6539 17.486 26.7252C17.3157 26.8121 17.0341 26.8219 16.8208 26.7484H16.8208ZM19.0852 25.8277L19.0962 24.8534H19.2603H19.4244L19.4449 25.0956L19.4654 25.3378L19.8141 25.3303C20.2061 25.3218 20.3823 25.3845 20.5291 25.5845C20.6048 25.6877 20.614 25.7589 20.614 26.2409L20.6141 26.7815L20.4448 26.7939L20.2756 26.8062L20.2578 26.3062C20.2365 25.7083 20.2007 25.6534 19.8331 25.6534C19.6463 25.6534 19.6027 25.6689 19.5299 25.7615C19.4552 25.8564 19.4449 25.9262 19.4449 26.3358V26.802H19.2596H19.0742L19.0852 25.8277ZM21.1356 26.7402C20.8519 26.617 20.8013 26.1312 21.0502 25.9218C21.1663 25.824 21.2023 25.8175 21.6199 25.8175C21.865 25.8175 22.0757 25.8011 22.088 25.7811C22.1411 25.6951 21.9742 25.6554 21.514 25.6445L21.0243 25.6328V25.4893V25.3457L21.5488 25.3342C22.3671 25.3163 22.4806 25.4074 22.4806 26.0822C22.4806 26.5412 22.426 26.6881 22.2296 26.7565C22.0398 26.8227 21.3001 26.8117 21.1356 26.7402ZM22.0622 26.4246C22.0893 26.3975 22.1114 26.3325 22.1114 26.28C22.1114 26.1617 21.9778 26.1046 21.7012 26.1046C21.4032 26.1046 21.2909 26.1595 21.2909 26.3053C21.2909 26.3717 21.314 26.4353 21.3422 26.4467C21.4504 26.4903 22.0137 26.473 22.0622 26.4246ZM24.0371 26.7637C23.6626 26.6481 23.6293 26.554 23.6293 25.6137V24.8739H23.8344H24.0395V25.5889C24.0395 26.5125 23.9997 26.4667 24.8189 26.4842L25.2907 26.4943V26.6379V26.7815L24.7164 26.7888C24.4005 26.7928 24.0948 26.7815 24.0371 26.7637ZM25.6277 26.7766C25.6116 26.7605 25.5984 26.436 25.5984 26.0555C25.5984 25.4676 25.608 25.3599 25.6621 25.3392C25.7166 25.3182 25.7132 25.3011 25.6382 25.2214C25.4608 25.0325 25.6499 24.7738 25.8958 24.8692C25.989 24.9053 26.0086 24.9379 26.0086 25.0561C26.0086 25.1591 25.9847 25.212 25.9232 25.2449C25.8464 25.286 25.8444 25.2956 25.9037 25.3389C25.9606 25.3805 25.9681 25.4826 25.9584 26.0843L25.9471 26.7815L25.802 26.7937C25.7223 26.8004 25.6438 26.7927 25.6277 26.7766ZM26.3251 26.7766C26.309 26.7605 26.2958 26.408 26.2958 25.9932C26.2958 25.1467 26.3188 25.0538 26.5566 24.941C26.6398 24.9015 26.8017 24.8739 26.9506 24.8739H27.2032L27.1905 25.0278C27.178 25.1783 27.1741 25.1817 27.0033 25.1875C26.6296 25.2002 26.5832 25.3252 26.9521 25.3252H27.1983V25.4873V25.6494L26.9419 25.6617L26.6855 25.6739L26.665 26.2277L26.6445 26.7815L26.4994 26.7937C26.4196 26.8004 26.3412 26.7927 26.3251 26.7766ZM27.8319 26.7588C27.7629 26.7384 27.6614 26.6738 27.6063 26.6151C27.5156 26.5187 27.5046 26.4676 27.4921 26.085C27.4766 25.6128 27.5032 25.5273 27.7034 25.4052C27.8947 25.2886 28.6801 25.2885 28.857 25.405C29.0808 25.5526 29.1487 25.8222 29.0231 26.0649C28.9232 26.2582 28.7731 26.3097 28.3104 26.3097C28.085 26.3097 27.8904 26.3261 27.878 26.3461C27.8242 26.4332 27.9926 26.4719 28.4726 26.4828L28.9828 26.4943V26.6379V26.7815L28.47 26.7886C28.188 26.7926 27.9008 26.7791 27.8319 26.7588ZM28.6546 25.8175V25.6739L28.3122 25.6619C27.9578 25.6495 27.8547 25.6838 27.8547 25.8143C27.8547 25.9534 27.9441 25.9849 28.3053 25.9727L28.6546 25.961V25.8175ZM28.8187 20.5396C27.9665 19.7292 26.5804 18.6997 25.3133 17.936C22.519 16.252 19.3312 15.2183 16.2246 14.989C15.4923 14.935 13.9262 14.9344 13.2094 14.9878C11.0323 15.1502 8.65746 15.7076 6.51242 16.5596L5.94842 16.7836L4.29717 14.8719C2.43293 12.7135 2.48504 12.7757 2.51545 12.7453C2.54779 12.713 3.2737 12.5442 4.08173 12.3812C5.41057 12.1132 6.56655 11.9602 7.97095 11.8665C8.90827 11.8039 11.3106 11.8395 12.1838 11.9289C16.3253 12.353 20.2268 13.7564 23.6908 16.0683C25.2965 17.1399 26.6803 18.2873 28.1668 19.7796C28.8535 20.4689 29.2546 20.9004 29.2016 20.8927C29.1941 20.8916 29.0218 20.7327 28.8187 20.5396Z" fill="#585858"/>
<path d="M17.7218 29.4058V28.6053L17.8622 28.452L18.0026 28.2988H18.4807H18.9588L19.0992 28.452C19.2384 28.6039 19.2396 28.6088 19.2396 28.9924C19.2396 29.3482 19.2311 29.3898 19.1344 29.5046C19.0022 29.6618 18.8175 29.7136 18.3884 29.7139L18.05 29.7141V29.9602V30.2064H17.8859H17.7218V29.4058ZM18.8476 29.3358C18.8883 29.2776 18.9115 29.1546 18.9115 28.9962C18.9115 28.6256 18.8538 28.5655 18.4989 28.5655C18.1018 28.5655 18.05 28.6215 18.05 29.0509C18.05 29.2276 18.0623 29.3845 18.0773 29.3996C18.0924 29.4146 18.2575 29.4269 18.4442 29.4269C18.7486 29.4269 18.7903 29.4175 18.8476 29.3358ZM14.2834 29.6741C13.9477 29.5932 13.8483 29.3443 13.8738 28.6475C13.8928 28.1297 13.9275 28.0272 14.1246 27.907C14.2399 27.8368 14.3342 27.8273 14.922 27.8272L15.5886 27.827V27.9463V28.0656L14.9752 28.0797C14.5793 28.0887 14.3449 28.1107 14.3139 28.1417C14.2464 28.2093 14.1991 28.5031 14.2431 28.5818C14.2741 28.6372 14.3699 28.6475 14.8522 28.6475H15.4245V28.7706V28.8936H14.8331C14.4127 28.8936 14.2369 28.9077 14.2254 28.9424C14.2036 29.0078 14.2552 29.3379 14.2932 29.3761C14.3098 29.3928 14.6034 29.4157 14.9457 29.4269L15.5681 29.4474V29.5705V29.6936L14.9937 29.7002C14.6779 29.7038 14.3582 29.6921 14.2834 29.6741ZM15.9168 29.5754V29.4293L16.4603 29.4179L17.0039 29.4064L17.0167 29.295C17.0324 29.1593 16.9914 29.1472 16.4614 29.1309C16.1311 29.1207 16.0712 29.1074 15.9896 29.0258C15.8557 28.8918 15.8557 28.5263 15.9896 28.3922C16.077 28.3047 16.1217 28.298 16.6972 28.2856L17.3116 28.2724V28.4177V28.563L16.7885 28.5745L16.2655 28.586L16.2526 28.6973C16.2369 28.8333 16.2777 28.8452 16.8126 28.8615C17.1748 28.8725 17.201 28.8794 17.2946 28.9882C17.4315 29.1474 17.4315 29.4193 17.2947 29.5785L17.1957 29.6936L16.5562 29.7075L15.9168 29.7215V29.5754ZM19.8989 29.6422C19.6744 29.5278 19.5931 29.3821 19.575 29.0618C19.5626 28.8428 19.5777 28.7395 19.6439 28.59C19.7558 28.337 19.8964 28.2783 20.391 28.2783C21.0329 28.2783 21.1867 28.4183 21.1877 29.0034C21.1881 29.2787 21.173 29.3597 21.1033 29.4547C20.9613 29.6482 20.7799 29.714 20.3883 29.714C20.1373 29.714 20.0002 29.6939 19.8989 29.6422ZM20.7575 29.3449C20.8227 29.2797 20.8395 29.2081 20.8395 28.9962C20.8395 28.623 20.7768 28.5655 20.3701 28.5655C19.9885 28.5655 19.937 28.6186 19.937 29.0123C19.937 29.3804 19.9861 29.4269 20.3741 29.4269C20.6208 29.4269 20.6903 29.412 20.7575 29.3449ZM21.5229 29.6833C21.5126 29.6664 21.502 29.431 21.4994 29.1603C21.492 28.3866 21.5798 28.2799 22.2241 28.2789L22.6035 28.2783V28.4219V28.5655H22.3022C21.8773 28.5655 21.8651 28.5835 21.8651 29.2148V29.7141H21.7035C21.6145 29.7141 21.5333 29.7003 21.5229 29.6833ZM23.3302 29.6887C23.3141 29.6726 23.3009 29.4133 23.3009 29.1124V28.5655H23.0958H22.8907V28.4219V28.2783H23.0958H23.3009V28.1118V27.9454L23.4753 27.958C23.6445 27.9702 23.65 27.9751 23.6624 28.1245L23.6751 28.2783H23.8803H24.0856L24.0727 28.4116C24.0604 28.5393 24.0517 28.5455 23.8661 28.5574L23.6724 28.5699L23.661 29.1317L23.6496 29.6936L23.5046 29.7058C23.4248 29.7125 23.3463 29.7048 23.3302 29.6887ZM24.3833 29.655C24.3708 29.6224 24.367 29.5624 24.3748 29.5216C24.3874 29.4559 24.4495 29.4451 24.9175 29.4269C25.3513 29.4101 25.4537 29.3942 25.489 29.3381C25.5201 29.2886 25.5171 29.2518 25.478 29.2047C25.4358 29.1539 25.3402 29.1398 25.0374 29.1398C24.6356 29.1398 24.4432 29.0841 24.393 28.9533C24.379 28.9168 24.3675 28.8069 24.3675 28.709C24.3675 28.3227 24.4561 28.2783 25.227 28.2783H25.8033V28.4219V28.5655H25.2956C24.7398 28.5655 24.6453 28.5996 24.7353 28.7679C24.7762 28.8444 24.8186 28.8526 25.171 28.8526C25.7237 28.8526 25.8854 28.9501 25.8854 29.2834C25.8854 29.6451 25.741 29.7141 24.9836 29.7141C24.5184 29.7141 24.4016 29.7026 24.3833 29.655ZM13.0451 26.7479C12.7366 26.6426 12.6653 26.1418 12.9275 25.9212C13.0438 25.8233 13.0792 25.8169 13.5026 25.8169C13.9101 25.8169 13.9523 25.81 13.9399 25.7451C13.928 25.6827 13.8596 25.6707 13.4139 25.6528L12.9016 25.6323V25.4887V25.3451L13.4349 25.3457C14.0231 25.3463 14.1074 25.3713 14.2369 25.5836C14.3011 25.6891 14.3166 25.7906 14.3167 26.1088C14.3169 26.5651 14.2571 26.6866 13.9971 26.7588C13.7936 26.8153 13.2237 26.8088 13.0451 26.7479V26.7479ZM13.8368 26.4764C13.9697 26.4259 14.0047 26.3192 13.9271 26.2008C13.8695 26.1129 13.8346 26.1041 13.5447 26.1041C13.1934 26.1041 13.1272 26.1381 13.1272 26.3187C13.1272 26.4009 13.1542 26.4458 13.2195 26.472C13.342 26.5213 13.7119 26.5239 13.8368 26.4764ZM17.9474 26.7611C17.8572 26.7469 17.7443 26.7105 17.6967 26.68C17.6226 26.6327 17.5962 26.6345 17.5132 26.6926C17.4447 26.7406 17.3292 26.7604 17.1185 26.7604C16.8514 26.7604 16.8076 26.7488 16.6947 26.6476C16.5362 26.5056 16.4933 26.3241 16.4921 25.7904L16.4911 25.3743L16.6573 25.3584C16.7487 25.3497 16.8318 25.3508 16.8419 25.3609C16.852 25.371 16.8603 25.6047 16.8603 25.8802C16.8603 26.4499 16.8807 26.4919 17.1566 26.4919C17.4044 26.4919 17.4346 26.422 17.4346 25.8501V25.3656H17.6151H17.7957L17.8012 25.8682C17.8075 26.4455 17.831 26.4949 18.0954 26.488C18.3662 26.4809 18.3965 26.4208 18.4132 25.8565L18.4278 25.3656H18.5876H18.7474V25.862C18.7474 26.4142 18.7009 26.5757 18.5108 26.6848C18.3698 26.7658 18.1592 26.7943 17.9474 26.7611ZM19.1048 26.7761C19.0887 26.7599 19.0755 26.3252 19.0755 25.8101V24.8734H19.2602H19.4448V25.1113V25.3492L19.8242 25.3472C20.1125 25.3456 20.2355 25.3626 20.3363 25.4176C20.5602 25.54 20.5974 25.666 20.5844 26.2582L20.5729 26.7809H20.4293H20.2857L20.2652 26.275C20.2411 25.6808 20.2227 25.6528 19.855 25.6528C19.4873 25.6528 19.4688 25.6808 19.4448 26.275L19.4242 26.7809L19.2792 26.7932C19.1994 26.7999 19.121 26.7922 19.1048 26.7761ZM21.2216 26.7562C21.0225 26.6986 20.9214 26.5422 20.9225 26.2934C20.9242 25.9104 21.0729 25.8169 21.6808 25.8169C22.0744 25.8169 22.1159 25.8098 22.1035 25.7451C22.0914 25.682 22.0271 25.6719 21.5711 25.6619C21.0243 25.6498 21.0091 25.6439 21.019 25.4474L21.0242 25.3451H21.5798C22.3887 25.3451 22.4539 25.4022 22.4576 26.1131C22.4603 26.6158 22.4203 26.6945 22.1277 26.7624C21.9249 26.8094 21.393 26.8058 21.2216 26.7562ZM22.006 26.4743C22.0847 26.4444 22.1113 26.405 22.1113 26.3184C22.1113 26.1389 22.0445 26.104 21.7031 26.1047C21.3754 26.1054 21.3213 26.1223 21.2788 26.2374C21.242 26.3372 21.2864 26.4327 21.3888 26.4741C21.5087 26.5225 21.8789 26.5226 22.006 26.4743V26.4743ZM24.0619 26.7558C23.8805 26.7127 23.7598 26.6203 23.7081 26.4852C23.689 26.4353 23.6711 26.0569 23.6682 25.6442L23.663 24.8939H23.8304H23.9978L24.0083 25.6052C24.0217 26.5138 23.9874 26.4733 24.7438 26.4733H25.275L25.2623 26.6271L25.2495 26.7809L24.7367 26.7877C24.4547 26.7914 24.151 26.777 24.0619 26.7558ZM27.8384 26.7469C27.5798 26.6689 27.5082 26.5323 27.4918 26.0859C27.4743 25.6115 27.5271 25.4855 27.7845 25.3872C27.9181 25.3362 28.0432 25.3245 28.2879 25.3404C28.4669 25.352 28.6564 25.3624 28.7089 25.3636C28.7614 25.3647 28.8583 25.4196 28.9243 25.4856C29.0252 25.5865 29.0442 25.6383 29.0442 25.8131C29.0442 25.9845 29.0233 26.0441 28.9246 26.1547L28.805 26.2887L28.3297 26.3025C27.9756 26.3127 27.8545 26.3298 27.8545 26.3693C27.8545 26.4735 28.0813 26.52 28.5251 26.5068L28.9603 26.4938L28.9861 26.6117C29.0032 26.69 28.9932 26.7415 28.9563 26.7649C28.8745 26.8168 28.0243 26.8031 27.8384 26.7469ZM28.641 25.9541C28.6822 25.9168 28.716 25.8559 28.716 25.8187C28.716 25.6865 28.6244 25.6528 28.2647 25.6528C27.82 25.6528 27.701 25.7454 27.8955 25.94C28.0053 26.0497 28.5245 26.0596 28.641 25.9541ZM10.7068 25.8169V24.8734H10.8692H11.0316L11.0435 25.1913L11.0555 25.5092H11.5683H12.0811L12.0931 25.1913L12.1051 24.8734H12.2674H12.4298V25.8169V26.7604H12.267H12.1042L12.0927 26.2784L12.0811 25.7964H11.5683H11.0555L11.044 26.2784L11.0324 26.7604H10.8696H10.7068V25.8169ZM14.6591 26.6968C14.6457 26.6618 14.6431 26.4357 14.6533 26.1943C14.6834 25.4859 14.7937 25.3655 15.4122 25.3658C16.0447 25.3661 16.1629 25.5111 16.1629 26.2873V26.7604H16.0022H15.8416L15.8279 26.2648C15.8116 25.6756 15.7958 25.6528 15.4025 25.6528C15.0354 25.6528 15.0143 25.687 15.0143 26.2816V26.7604H14.8489C14.7373 26.7604 14.6756 26.7397 14.6591 26.6968ZM25.638 26.7092C25.6224 26.0924 25.6438 25.3846 25.6783 25.3731C25.7425 25.3517 25.7302 25.2548 25.6598 25.2277C25.5745 25.195 25.5772 24.9312 25.6631 24.8983C25.9561 24.7859 26.1399 25.0549 25.8956 25.2385C25.7829 25.3232 25.7829 25.3233 25.8751 25.3493C25.9662 25.3749 25.9674 25.3846 25.9674 26.0678V26.7604H25.8033C25.7001 26.7604 25.6388 26.7414 25.638 26.7092ZM26.3366 25.966C26.3366 25.2268 26.3425 25.1642 26.4209 25.0645C26.5235 24.934 26.7457 24.8626 26.993 24.8805C27.1681 24.8932 27.1783 24.9008 27.1905 25.0272L27.2033 25.1605H27.002C26.8589 25.1605 26.7809 25.1823 26.7326 25.2357C26.6379 25.3403 26.6826 25.3656 26.9614 25.3656H27.2033L27.1905 25.499C27.1776 25.6323 27.1776 25.6323 26.9212 25.6445L26.6648 25.6567V26.2086V26.7604H26.5007H26.3366V25.966ZM28.7553 20.4594C28.527 20.2241 27.9166 19.7095 27.3987 19.3158C23.4948 16.3484 18.8772 14.8032 14.2553 14.9179C12.9051 14.9514 12.0154 15.0547 10.4607 15.3587C9.25133 15.5952 7.52221 16.1202 6.1649 16.6629L5.95093 16.7485L5.44509 16.1651C3.43887 13.8511 2.54321 12.8056 2.54321 12.7776C2.54321 12.7302 3.52012 12.5082 4.54388 12.3231C7.33875 11.8176 9.91054 11.7108 12.4503 11.9946C16.5126 12.4486 20.082 13.7381 23.5471 16.0034C25.3055 17.1531 27.3382 18.8626 28.6427 20.289C28.9922 20.6712 29.0596 20.7732 28.7553 20.4594Z" fill="#3F3F40"/>
<mask id="path-7-outside-1_383_2888" maskUnits="userSpaceOnUse" x="9.70715" y="23.8745" width="20" height="7" fill="black">
<rect fill="white" x="9.70715" y="23.8745" width="20" height="7"/>
<path d="M17.7514 30.1812C17.7353 30.1651 17.7221 29.8313 17.7221 29.4395C17.7221 28.4092 17.7779 28.3168 18.4188 28.2862C19.0427 28.2563 19.2396 28.4246 19.2398 28.9882C19.2401 29.5466 19.1063 29.6729 18.5139 29.6739C18.3153 29.6742 18.1309 29.6885 18.1041 29.7056C18.0772 29.7227 18.0495 29.8377 18.0425 29.9613C18.0302 30.1784 18.0255 30.1865 17.9052 30.1983C17.8367 30.205 17.7675 30.1973 17.7514 30.1812ZM18.8264 29.3891C18.9501 29.3108 18.9492 28.6815 18.8253 28.603C18.7939 28.5832 18.6357 28.5666 18.4737 28.5663C18.0742 28.5654 18.0503 28.5934 18.0503 29.0609V29.4272L18.4093 29.4265C18.6067 29.4262 18.7944 29.4093 18.8264 29.3891ZM15.9329 29.6552C15.9204 29.6226 15.9165 29.5627 15.9244 29.5218C15.9369 29.4562 15.9991 29.4453 16.467 29.4272C16.9009 29.4103 17.0032 29.3944 17.0385 29.3383C17.1183 29.2115 17.0026 29.14 16.7178 29.14C16.0741 29.14 15.9171 29.0587 15.9171 28.7255C15.9171 28.3303 16.018 28.2785 16.7873 28.2785H17.3171L17.3042 28.4118L17.2914 28.5452L16.7786 28.5657L16.2658 28.5862V28.7074C16.2658 28.8592 16.3423 28.8842 16.8253 28.8898C17.2925 28.8952 17.3734 28.9525 17.3734 29.2785C17.3734 29.4356 17.3524 29.5273 17.3056 29.574C17.2095 29.6702 16.9514 29.7105 16.4183 29.7125C16.0519 29.7139 15.9508 29.702 15.9329 29.6552ZM19.9889 29.6743C19.7024 29.6063 19.6092 29.4317 19.6092 28.963C19.6092 28.671 19.6229 28.6003 19.6981 28.5047C19.8284 28.3391 20.0134 28.2785 20.3886 28.2785C20.9974 28.2785 21.1677 28.4362 21.1679 29.0006C21.1681 29.4088 21.0767 29.581 20.8184 29.6588C20.6354 29.714 20.191 29.7223 19.9889 29.6743ZM20.7754 29.3627C20.8223 29.3158 20.8399 29.2161 20.8399 28.9964C20.8399 28.597 20.8073 28.5655 20.396 28.5663C20.2227 28.5666 20.0565 28.5824 20.0267 28.6013C19.8888 28.6887 19.8878 29.3035 20.0253 29.3907C20.0559 29.41 20.2227 29.4262 20.396 29.4265C20.6283 29.427 20.7279 29.4102 20.7754 29.3627ZM21.5373 29.141C21.5373 28.3386 21.5879 28.2785 22.2639 28.2785H22.6091L22.5962 28.4118L22.5834 28.5452L22.2691 28.5571C22.0781 28.5643 21.9378 28.5895 21.9115 28.6212C21.8876 28.6499 21.8629 28.903 21.8565 29.1836L21.8449 29.6938L21.6911 29.7065L21.5373 29.7193V29.141ZM23.4551 29.6823L23.3423 29.6678V29.1455C23.3423 28.7939 23.3262 28.607 23.2931 28.5739C23.266 28.5468 23.1645 28.5246 23.0674 28.5246C22.8995 28.5246 22.891 28.5189 22.891 28.4037C22.891 28.2868 22.8981 28.2824 23.1064 28.2704L23.3218 28.258L23.3237 28.1144C23.3255 27.9793 23.3344 27.9701 23.4749 27.9582C23.6208 27.946 23.6245 27.9492 23.6371 28.1018L23.65 28.258L23.8653 28.2704C24.0736 28.2824 24.0807 28.2868 24.0807 28.4037C24.0807 28.517 24.0706 28.5246 23.92 28.5246C23.6239 28.5246 23.6295 28.5131 23.6295 29.1214C23.6295 29.4223 23.6156 29.6748 23.5987 29.6826C23.5818 29.6904 23.5172 29.6902 23.4551 29.6823V29.6823ZM24.4089 29.5764V29.4295L24.9525 29.4181L25.496 29.4066V29.2836V29.1605L25.0272 29.1356C24.5832 29.112 24.5533 29.1049 24.4631 29C24.33 28.8453 24.3317 28.5713 24.4668 28.4141L24.5657 28.299L25.1875 28.2858L25.8093 28.2725L25.7963 28.4088L25.7832 28.5452L25.3319 28.5553C24.7824 28.5676 24.6961 28.5851 24.6961 28.6845C24.6961 28.8123 24.7819 28.842 25.2093 28.8616C25.4351 28.8719 25.6606 28.9022 25.7104 28.9289C25.9155 29.0386 25.9139 29.5269 25.7081 29.6414C25.6543 29.6713 25.3797 29.6973 25.014 29.7071L24.4089 29.7233V29.5764H24.4089ZM14.1636 29.6311C14.113 29.6107 14.0346 29.5334 13.9894 29.4593C13.9177 29.3418 13.9072 29.2525 13.9071 28.7585C13.9069 27.8669 13.9505 27.8272 14.9312 27.8272H15.5479V27.9503V28.0734H14.9781C14.2868 28.0734 14.2223 28.1033 14.2176 28.4263L14.2146 28.6272L14.8197 28.6386L15.4248 28.6499V28.7708V28.8917L14.8197 28.903L14.2146 28.9144L14.217 29.1058C14.2209 29.4191 14.2389 29.4272 14.9376 29.4272H15.5479V29.5502V29.6733L14.9018 29.6707C14.5464 29.6693 14.2142 29.6514 14.1636 29.6311V29.6311ZM10.7072 25.8376V24.9146H10.8712H11.0353V25.2223V25.5299H11.5686H12.1019V25.2223V24.9146H12.266H12.4301V25.8376V26.7606H12.266H12.1019V26.2671V25.7736L11.5789 25.7851L11.0559 25.7966L11.0443 26.2786L11.0327 26.7606H10.8699H10.7072V25.8376ZM12.9256 26.6544C12.8129 26.5596 12.7993 26.5241 12.7993 26.3236C12.7993 25.9038 12.9254 25.8171 13.5357 25.8171C13.8778 25.8171 13.948 25.8065 13.948 25.7546C13.948 25.653 13.7645 25.612 13.3095 25.612H12.8814V25.4889V25.3658H13.4128C13.7269 25.3658 13.9866 25.3852 14.048 25.4132C14.2155 25.4895 14.2879 25.6432 14.3086 25.9662C14.333 26.3458 14.295 26.5404 14.1728 26.6627C14.08 26.7555 14.0478 26.7606 13.5633 26.7606C13.0728 26.7606 13.0466 26.7563 12.9256 26.6544ZM13.9118 26.4367C13.9944 26.3699 14.0021 26.3426 13.9668 26.2419C13.9261 26.1259 13.9222 26.1247 13.5494 26.113C13.2011 26.1021 13.1696 26.1078 13.1263 26.1886C13.0666 26.3001 13.1063 26.4619 13.1993 26.4862C13.2388 26.4965 13.3937 26.5071 13.5435 26.5097C13.7546 26.5134 13.8374 26.497 13.9118 26.4367ZM14.687 26.2581C14.6877 25.7133 14.7155 25.6129 14.9048 25.4724C15.0584 25.3582 15.6217 25.327 15.8449 25.4203C16.0807 25.5188 16.1373 25.6714 16.1558 26.2581L16.1717 26.7606H16.0034H15.8351V26.287C15.8351 25.8388 15.8296 25.808 15.7344 25.7127C15.6537 25.632 15.5919 25.612 15.424 25.612C15.3087 25.612 15.1805 25.6301 15.1393 25.6521C15.0216 25.7151 14.9736 25.9191 14.9736 26.3565V26.7606H14.83H14.6864L14.687 26.2581H14.687ZM16.7991 26.7219C16.754 26.7034 16.6801 26.6473 16.635 26.5972C16.5629 26.5172 16.5513 26.4373 16.5396 25.936L16.5262 25.3658H16.6695H16.8127L16.8264 25.8618C16.8392 26.3253 16.8465 26.363 16.937 26.4362C16.9902 26.4793 17.0851 26.5145 17.1478 26.5145C17.2105 26.5145 17.3054 26.4793 17.3586 26.4362C17.4491 26.363 17.4564 26.3253 17.4692 25.8618L17.4829 25.3658H17.6196H17.7563L17.77 25.8618C17.7828 26.3253 17.79 26.363 17.8805 26.4362C17.9902 26.5249 18.1226 26.5359 18.2705 26.4685C18.4019 26.4086 18.4183 26.3355 18.419 25.8068L18.4195 25.3658H18.5789H18.7384L18.7447 25.7964C18.7523 26.318 18.705 26.5151 18.5387 26.6551C18.4293 26.7471 18.3753 26.7606 18.1178 26.7606C17.9102 26.7606 17.7938 26.7406 17.7262 26.6932C17.6369 26.6307 17.6217 26.6307 17.5159 26.6932C17.3937 26.7654 16.9489 26.7832 16.7991 26.7219ZM19.1053 25.8292L19.1143 24.8941H19.2694H19.4246L19.4365 25.1402L19.4484 25.3864L19.8262 25.3742C20.4716 25.3534 20.5937 25.4987 20.5937 26.2876V26.7606H20.4296H20.2656V26.2934C20.2656 25.6881 20.2302 25.6319 19.855 25.6423C19.4714 25.6529 19.4501 25.6845 19.4361 26.2633L19.4246 26.7401L19.2605 26.7523L19.0964 26.7644L19.1053 25.8292ZM21.0369 26.6358C20.9214 26.5203 20.9135 26.4939 20.9308 26.2844C20.9454 26.1086 20.9742 26.0333 21.0597 25.9478C21.1643 25.8431 21.193 25.8369 21.6407 25.8238C22.0166 25.8128 22.1116 25.7981 22.1116 25.751C22.1116 25.653 21.9234 25.612 21.4731 25.612H21.045V25.4889V25.3658H21.5803C22.3831 25.3658 22.4398 25.4162 22.4398 26.1286C22.4398 26.5311 22.4332 26.5658 22.3391 26.6599C22.2424 26.7566 22.2169 26.7606 21.7001 26.7606H21.1618L21.0369 26.6358ZM22.0755 26.4367C22.1581 26.3698 22.1657 26.3427 22.1303 26.2419L22.0891 26.1248H21.7049C21.282 26.1248 21.2143 26.1612 21.2646 26.3616C21.296 26.4866 21.3462 26.5034 21.7071 26.5097C21.9183 26.5134 22.001 26.497 22.0755 26.4367ZM23.8912 26.6823C23.6998 26.5656 23.6705 26.4228 23.6705 25.6076V24.877L23.8243 24.8856L23.9782 24.8941L23.9992 25.5915C24.0108 25.975 24.0354 26.3199 24.0538 26.3578C24.1092 26.4717 24.3142 26.5145 24.8047 26.5145H25.2704V26.6376V26.7606L24.6448 26.7605C24.1023 26.7604 24.0022 26.75 23.8912 26.6823V26.6823ZM25.6396 26.0676C25.6396 25.463 25.6482 25.3713 25.7069 25.3488C25.7439 25.3346 25.8085 25.3339 25.8505 25.3472C25.9209 25.3695 25.9268 25.425 25.9268 26.066V26.7606H25.7832H25.6396V26.0676ZM26.337 26.0044C26.337 25.5884 26.3547 25.2017 26.3762 25.1449C26.4347 24.9911 26.6203 24.9146 26.9346 24.9146C27.1982 24.9146 27.2072 24.9179 27.1833 25.0069C27.1697 25.0577 27.1583 25.113 27.158 25.13C27.1577 25.1469 27.0824 25.1607 26.9907 25.1607C26.7976 25.1607 26.6652 25.2197 26.6652 25.3058C26.6652 25.3521 26.7237 25.3658 26.9216 25.3658H27.178V25.4889C27.178 25.6109 27.1759 25.612 26.9503 25.612C26.8251 25.612 26.7005 25.6341 26.6734 25.6612C26.6402 25.6944 26.6242 25.8818 26.6242 26.2355V26.7606H26.4806H26.337V26.0044ZM27.6661 26.6212C27.5684 26.5234 27.5247 26.4405 27.5203 26.3443C27.5167 26.2687 27.5093 26.1514 27.5038 26.0838C27.4821 25.8178 27.5368 25.5955 27.6526 25.4797C27.764 25.3683 27.7767 25.3658 28.2434 25.3658C28.9013 25.3658 29.0445 25.455 29.0445 25.8641C29.0445 26.116 28.8784 26.2533 28.5282 26.2908C28.3807 26.3066 28.1798 26.3104 28.0818 26.2994C27.839 26.272 27.762 26.3258 27.8902 26.4333C27.9748 26.5042 28.0486 26.5145 28.4747 26.5145H28.9625V26.6376V26.7606H28.384H27.8056L27.6661 26.6212ZM28.6671 25.973C28.7451 25.895 28.7269 25.7026 28.637 25.6545C28.5038 25.5832 27.9759 25.6011 27.8888 25.6799C27.7968 25.7632 27.7926 25.8721 27.8783 25.9578C27.9588 26.0382 28.5897 26.0504 28.6671 25.973ZM25.6478 25.1936C25.6207 25.1665 25.5986 25.1056 25.5986 25.0582C25.5986 24.8721 25.8144 24.8088 25.9474 24.9558C26.0089 25.0237 26.0137 25.0558 25.9752 25.1404C25.9239 25.253 25.7375 25.2832 25.6478 25.1936Z"/>
</mask>
<path d="M17.7514 30.1812C17.7353 30.1651 17.7221 29.8313 17.7221 29.4395C17.7221 28.4092 17.7779 28.3168 18.4188 28.2862C19.0427 28.2563 19.2396 28.4246 19.2398 28.9882C19.2401 29.5466 19.1063 29.6729 18.5139 29.6739C18.3153 29.6742 18.1309 29.6885 18.1041 29.7056C18.0772 29.7227 18.0495 29.8377 18.0425 29.9613C18.0302 30.1784 18.0255 30.1865 17.9052 30.1983C17.8367 30.205 17.7675 30.1973 17.7514 30.1812ZM18.8264 29.3891C18.9501 29.3108 18.9492 28.6815 18.8253 28.603C18.7939 28.5832 18.6357 28.5666 18.4737 28.5663C18.0742 28.5654 18.0503 28.5934 18.0503 29.0609V29.4272L18.4093 29.4265C18.6067 29.4262 18.7944 29.4093 18.8264 29.3891ZM15.9329 29.6552C15.9204 29.6226 15.9165 29.5627 15.9244 29.5218C15.9369 29.4562 15.9991 29.4453 16.467 29.4272C16.9009 29.4103 17.0032 29.3944 17.0385 29.3383C17.1183 29.2115 17.0026 29.14 16.7178 29.14C16.0741 29.14 15.9171 29.0587 15.9171 28.7255C15.9171 28.3303 16.018 28.2785 16.7873 28.2785H17.3171L17.3042 28.4118L17.2914 28.5452L16.7786 28.5657L16.2658 28.5862V28.7074C16.2658 28.8592 16.3423 28.8842 16.8253 28.8898C17.2925 28.8952 17.3734 28.9525 17.3734 29.2785C17.3734 29.4356 17.3524 29.5273 17.3056 29.574C17.2095 29.6702 16.9514 29.7105 16.4183 29.7125C16.0519 29.7139 15.9508 29.702 15.9329 29.6552ZM19.9889 29.6743C19.7024 29.6063 19.6092 29.4317 19.6092 28.963C19.6092 28.671 19.6229 28.6003 19.6981 28.5047C19.8284 28.3391 20.0134 28.2785 20.3886 28.2785C20.9974 28.2785 21.1677 28.4362 21.1679 29.0006C21.1681 29.4088 21.0767 29.581 20.8184 29.6588C20.6354 29.714 20.191 29.7223 19.9889 29.6743ZM20.7754 29.3627C20.8223 29.3158 20.8399 29.2161 20.8399 28.9964C20.8399 28.597 20.8073 28.5655 20.396 28.5663C20.2227 28.5666 20.0565 28.5824 20.0267 28.6013C19.8888 28.6887 19.8878 29.3035 20.0253 29.3907C20.0559 29.41 20.2227 29.4262 20.396 29.4265C20.6283 29.427 20.7279 29.4102 20.7754 29.3627ZM21.5373 29.141C21.5373 28.3386 21.5879 28.2785 22.2639 28.2785H22.6091L22.5962 28.4118L22.5834 28.5452L22.2691 28.5571C22.0781 28.5643 21.9378 28.5895 21.9115 28.6212C21.8876 28.6499 21.8629 28.903 21.8565 29.1836L21.8449 29.6938L21.6911 29.7065L21.5373 29.7193V29.141ZM23.4551 29.6823L23.3423 29.6678V29.1455C23.3423 28.7939 23.3262 28.607 23.2931 28.5739C23.266 28.5468 23.1645 28.5246 23.0674 28.5246C22.8995 28.5246 22.891 28.5189 22.891 28.4037C22.891 28.2868 22.8981 28.2824 23.1064 28.2704L23.3218 28.258L23.3237 28.1144C23.3255 27.9793 23.3344 27.9701 23.4749 27.9582C23.6208 27.946 23.6245 27.9492 23.6371 28.1018L23.65 28.258L23.8653 28.2704C24.0736 28.2824 24.0807 28.2868 24.0807 28.4037C24.0807 28.517 24.0706 28.5246 23.92 28.5246C23.6239 28.5246 23.6295 28.5131 23.6295 29.1214C23.6295 29.4223 23.6156 29.6748 23.5987 29.6826C23.5818 29.6904 23.5172 29.6902 23.4551 29.6823V29.6823ZM24.4089 29.5764V29.4295L24.9525 29.4181L25.496 29.4066V29.2836V29.1605L25.0272 29.1356C24.5832 29.112 24.5533 29.1049 24.4631 29C24.33 28.8453 24.3317 28.5713 24.4668 28.4141L24.5657 28.299L25.1875 28.2858L25.8093 28.2725L25.7963 28.4088L25.7832 28.5452L25.3319 28.5553C24.7824 28.5676 24.6961 28.5851 24.6961 28.6845C24.6961 28.8123 24.7819 28.842 25.2093 28.8616C25.4351 28.8719 25.6606 28.9022 25.7104 28.9289C25.9155 29.0386 25.9139 29.5269 25.7081 29.6414C25.6543 29.6713 25.3797 29.6973 25.014 29.7071L24.4089 29.7233V29.5764H24.4089ZM14.1636 29.6311C14.113 29.6107 14.0346 29.5334 13.9894 29.4593C13.9177 29.3418 13.9072 29.2525 13.9071 28.7585C13.9069 27.8669 13.9505 27.8272 14.9312 27.8272H15.5479V27.9503V28.0734H14.9781C14.2868 28.0734 14.2223 28.1033 14.2176 28.4263L14.2146 28.6272L14.8197 28.6386L15.4248 28.6499V28.7708V28.8917L14.8197 28.903L14.2146 28.9144L14.217 29.1058C14.2209 29.4191 14.2389 29.4272 14.9376 29.4272H15.5479V29.5502V29.6733L14.9018 29.6707C14.5464 29.6693 14.2142 29.6514 14.1636 29.6311V29.6311ZM10.7072 25.8376V24.9146H10.8712H11.0353V25.2223V25.5299H11.5686H12.1019V25.2223V24.9146H12.266H12.4301V25.8376V26.7606H12.266H12.1019V26.2671V25.7736L11.5789 25.7851L11.0559 25.7966L11.0443 26.2786L11.0327 26.7606H10.8699H10.7072V25.8376ZM12.9256 26.6544C12.8129 26.5596 12.7993 26.5241 12.7993 26.3236C12.7993 25.9038 12.9254 25.8171 13.5357 25.8171C13.8778 25.8171 13.948 25.8065 13.948 25.7546C13.948 25.653 13.7645 25.612 13.3095 25.612H12.8814V25.4889V25.3658H13.4128C13.7269 25.3658 13.9866 25.3852 14.048 25.4132C14.2155 25.4895 14.2879 25.6432 14.3086 25.9662C14.333 26.3458 14.295 26.5404 14.1728 26.6627C14.08 26.7555 14.0478 26.7606 13.5633 26.7606C13.0728 26.7606 13.0466 26.7563 12.9256 26.6544ZM13.9118 26.4367C13.9944 26.3699 14.0021 26.3426 13.9668 26.2419C13.9261 26.1259 13.9222 26.1247 13.5494 26.113C13.2011 26.1021 13.1696 26.1078 13.1263 26.1886C13.0666 26.3001 13.1063 26.4619 13.1993 26.4862C13.2388 26.4965 13.3937 26.5071 13.5435 26.5097C13.7546 26.5134 13.8374 26.497 13.9118 26.4367ZM14.687 26.2581C14.6877 25.7133 14.7155 25.6129 14.9048 25.4724C15.0584 25.3582 15.6217 25.327 15.8449 25.4203C16.0807 25.5188 16.1373 25.6714 16.1558 26.2581L16.1717 26.7606H16.0034H15.8351V26.287C15.8351 25.8388 15.8296 25.808 15.7344 25.7127C15.6537 25.632 15.5919 25.612 15.424 25.612C15.3087 25.612 15.1805 25.6301 15.1393 25.6521C15.0216 25.7151 14.9736 25.9191 14.9736 26.3565V26.7606H14.83H14.6864L14.687 26.2581H14.687ZM16.7991 26.7219C16.754 26.7034 16.6801 26.6473 16.635 26.5972C16.5629 26.5172 16.5513 26.4373 16.5396 25.936L16.5262 25.3658H16.6695H16.8127L16.8264 25.8618C16.8392 26.3253 16.8465 26.363 16.937 26.4362C16.9902 26.4793 17.0851 26.5145 17.1478 26.5145C17.2105 26.5145 17.3054 26.4793 17.3586 26.4362C17.4491 26.363 17.4564 26.3253 17.4692 25.8618L17.4829 25.3658H17.6196H17.7563L17.77 25.8618C17.7828 26.3253 17.79 26.363 17.8805 26.4362C17.9902 26.5249 18.1226 26.5359 18.2705 26.4685C18.4019 26.4086 18.4183 26.3355 18.419 25.8068L18.4195 25.3658H18.5789H18.7384L18.7447 25.7964C18.7523 26.318 18.705 26.5151 18.5387 26.6551C18.4293 26.7471 18.3753 26.7606 18.1178 26.7606C17.9102 26.7606 17.7938 26.7406 17.7262 26.6932C17.6369 26.6307 17.6217 26.6307 17.5159 26.6932C17.3937 26.7654 16.9489 26.7832 16.7991 26.7219ZM19.1053 25.8292L19.1143 24.8941H19.2694H19.4246L19.4365 25.1402L19.4484 25.3864L19.8262 25.3742C20.4716 25.3534 20.5937 25.4987 20.5937 26.2876V26.7606H20.4296H20.2656V26.2934C20.2656 25.6881 20.2302 25.6319 19.855 25.6423C19.4714 25.6529 19.4501 25.6845 19.4361 26.2633L19.4246 26.7401L19.2605 26.7523L19.0964 26.7644L19.1053 25.8292ZM21.0369 26.6358C20.9214 26.5203 20.9135 26.4939 20.9308 26.2844C20.9454 26.1086 20.9742 26.0333 21.0597 25.9478C21.1643 25.8431 21.193 25.8369 21.6407 25.8238C22.0166 25.8128 22.1116 25.7981 22.1116 25.751C22.1116 25.653 21.9234 25.612 21.4731 25.612H21.045V25.4889V25.3658H21.5803C22.3831 25.3658 22.4398 25.4162 22.4398 26.1286C22.4398 26.5311 22.4332 26.5658 22.3391 26.6599C22.2424 26.7566 22.2169 26.7606 21.7001 26.7606H21.1618L21.0369 26.6358ZM22.0755 26.4367C22.1581 26.3698 22.1657 26.3427 22.1303 26.2419L22.0891 26.1248H21.7049C21.282 26.1248 21.2143 26.1612 21.2646 26.3616C21.296 26.4866 21.3462 26.5034 21.7071 26.5097C21.9183 26.5134 22.001 26.497 22.0755 26.4367ZM23.8912 26.6823C23.6998 26.5656 23.6705 26.4228 23.6705 25.6076V24.877L23.8243 24.8856L23.9782 24.8941L23.9992 25.5915C24.0108 25.975 24.0354 26.3199 24.0538 26.3578C24.1092 26.4717 24.3142 26.5145 24.8047 26.5145H25.2704V26.6376V26.7606L24.6448 26.7605C24.1023 26.7604 24.0022 26.75 23.8912 26.6823V26.6823ZM25.6396 26.0676C25.6396 25.463 25.6482 25.3713 25.7069 25.3488C25.7439 25.3346 25.8085 25.3339 25.8505 25.3472C25.9209 25.3695 25.9268 25.425 25.9268 26.066V26.7606H25.7832H25.6396V26.0676ZM26.337 26.0044C26.337 25.5884 26.3547 25.2017 26.3762 25.1449C26.4347 24.9911 26.6203 24.9146 26.9346 24.9146C27.1982 24.9146 27.2072 24.9179 27.1833 25.0069C27.1697 25.0577 27.1583 25.113 27.158 25.13C27.1577 25.1469 27.0824 25.1607 26.9907 25.1607C26.7976 25.1607 26.6652 25.2197 26.6652 25.3058C26.6652 25.3521 26.7237 25.3658 26.9216 25.3658H27.178V25.4889C27.178 25.6109 27.1759 25.612 26.9503 25.612C26.8251 25.612 26.7005 25.6341 26.6734 25.6612C26.6402 25.6944 26.6242 25.8818 26.6242 26.2355V26.7606H26.4806H26.337V26.0044ZM27.6661 26.6212C27.5684 26.5234 27.5247 26.4405 27.5203 26.3443C27.5167 26.2687 27.5093 26.1514 27.5038 26.0838C27.4821 25.8178 27.5368 25.5955 27.6526 25.4797C27.764 25.3683 27.7767 25.3658 28.2434 25.3658C28.9013 25.3658 29.0445 25.455 29.0445 25.8641C29.0445 26.116 28.8784 26.2533 28.5282 26.2908C28.3807 26.3066 28.1798 26.3104 28.0818 26.2994C27.839 26.272 27.762 26.3258 27.8902 26.4333C27.9748 26.5042 28.0486 26.5145 28.4747 26.5145H28.9625V26.6376V26.7606H28.384H27.8056L27.6661 26.6212ZM28.6671 25.973C28.7451 25.895 28.7269 25.7026 28.637 25.6545C28.5038 25.5832 27.9759 25.6011 27.8888 25.6799C27.7968 25.7632 27.7926 25.8721 27.8783 25.9578C27.9588 26.0382 28.5897 26.0504 28.6671 25.973ZM25.6478 25.1936C25.6207 25.1665 25.5986 25.1056 25.5986 25.0582C25.5986 24.8721 25.8144 24.8088 25.9474 24.9558C26.0089 25.0237 26.0137 25.0558 25.9752 25.1404C25.9239 25.253 25.7375 25.2832 25.6478 25.1936Z" fill="white" fill-opacity="0.95"/>
<path d="M17.7514 30.1812C17.7353 30.1651 17.7221 29.8313 17.7221 29.4395C17.7221 28.4092 17.7779 28.3168 18.4188 28.2862C19.0427 28.2563 19.2396 28.4246 19.2398 28.9882C19.2401 29.5466 19.1063 29.6729 18.5139 29.6739C18.3153 29.6742 18.1309 29.6885 18.1041 29.7056C18.0772 29.7227 18.0495 29.8377 18.0425 29.9613C18.0302 30.1784 18.0255 30.1865 17.9052 30.1983C17.8367 30.205 17.7675 30.1973 17.7514 30.1812ZM18.8264 29.3891C18.9501 29.3108 18.9492 28.6815 18.8253 28.603C18.7939 28.5832 18.6357 28.5666 18.4737 28.5663C18.0742 28.5654 18.0503 28.5934 18.0503 29.0609V29.4272L18.4093 29.4265C18.6067 29.4262 18.7944 29.4093 18.8264 29.3891ZM15.9329 29.6552C15.9204 29.6226 15.9165 29.5627 15.9244 29.5218C15.9369 29.4562 15.9991 29.4453 16.467 29.4272C16.9009 29.4103 17.0032 29.3944 17.0385 29.3383C17.1183 29.2115 17.0026 29.14 16.7178 29.14C16.0741 29.14 15.9171 29.0587 15.9171 28.7255C15.9171 28.3303 16.018 28.2785 16.7873 28.2785H17.3171L17.3042 28.4118L17.2914 28.5452L16.7786 28.5657L16.2658 28.5862V28.7074C16.2658 28.8592 16.3423 28.8842 16.8253 28.8898C17.2925 28.8952 17.3734 28.9525 17.3734 29.2785C17.3734 29.4356 17.3524 29.5273 17.3056 29.574C17.2095 29.6702 16.9514 29.7105 16.4183 29.7125C16.0519 29.7139 15.9508 29.702 15.9329 29.6552ZM19.9889 29.6743C19.7024 29.6063 19.6092 29.4317 19.6092 28.963C19.6092 28.671 19.6229 28.6003 19.6981 28.5047C19.8284 28.3391 20.0134 28.2785 20.3886 28.2785C20.9974 28.2785 21.1677 28.4362 21.1679 29.0006C21.1681 29.4088 21.0767 29.581 20.8184 29.6588C20.6354 29.714 20.191 29.7223 19.9889 29.6743ZM20.7754 29.3627C20.8223 29.3158 20.8399 29.2161 20.8399 28.9964C20.8399 28.597 20.8073 28.5655 20.396 28.5663C20.2227 28.5666 20.0565 28.5824 20.0267 28.6013C19.8888 28.6887 19.8878 29.3035 20.0253 29.3907C20.0559 29.41 20.2227 29.4262 20.396 29.4265C20.6283 29.427 20.7279 29.4102 20.7754 29.3627ZM21.5373 29.141C21.5373 28.3386 21.5879 28.2785 22.2639 28.2785H22.6091L22.5962 28.4118L22.5834 28.5452L22.2691 28.5571C22.0781 28.5643 21.9378 28.5895 21.9115 28.6212C21.8876 28.6499 21.8629 28.903 21.8565 29.1836L21.8449 29.6938L21.6911 29.7065L21.5373 29.7193V29.141ZM23.4551 29.6823L23.3423 29.6678V29.1455C23.3423 28.7939 23.3262 28.607 23.2931 28.5739C23.266 28.5468 23.1645 28.5246 23.0674 28.5246C22.8995 28.5246 22.891 28.5189 22.891 28.4037C22.891 28.2868 22.8981 28.2824 23.1064 28.2704L23.3218 28.258L23.3237 28.1144C23.3255 27.9793 23.3344 27.9701 23.4749 27.9582C23.6208 27.946 23.6245 27.9492 23.6371 28.1018L23.65 28.258L23.8653 28.2704C24.0736 28.2824 24.0807 28.2868 24.0807 28.4037C24.0807 28.517 24.0706 28.5246 23.92 28.5246C23.6239 28.5246 23.6295 28.5131 23.6295 29.1214C23.6295 29.4223 23.6156 29.6748 23.5987 29.6826C23.5818 29.6904 23.5172 29.6902 23.4551 29.6823V29.6823ZM24.4089 29.5764V29.4295L24.9525 29.4181L25.496 29.4066V29.2836V29.1605L25.0272 29.1356C24.5832 29.112 24.5533 29.1049 24.4631 29C24.33 28.8453 24.3317 28.5713 24.4668 28.4141L24.5657 28.299L25.1875 28.2858L25.8093 28.2725L25.7963 28.4088L25.7832 28.5452L25.3319 28.5553C24.7824 28.5676 24.6961 28.5851 24.6961 28.6845C24.6961 28.8123 24.7819 28.842 25.2093 28.8616C25.4351 28.8719 25.6606 28.9022 25.7104 28.9289C25.9155 29.0386 25.9139 29.5269 25.7081 29.6414C25.6543 29.6713 25.3797 29.6973 25.014 29.7071L24.4089 29.7233V29.5764H24.4089ZM14.1636 29.6311C14.113 29.6107 14.0346 29.5334 13.9894 29.4593C13.9177 29.3418 13.9072 29.2525 13.9071 28.7585C13.9069 27.8669 13.9505 27.8272 14.9312 27.8272H15.5479V27.9503V28.0734H14.9781C14.2868 28.0734 14.2223 28.1033 14.2176 28.4263L14.2146 28.6272L14.8197 28.6386L15.4248 28.6499V28.7708V28.8917L14.8197 28.903L14.2146 28.9144L14.217 29.1058C14.2209 29.4191 14.2389 29.4272 14.9376 29.4272H15.5479V29.5502V29.6733L14.9018 29.6707C14.5464 29.6693 14.2142 29.6514 14.1636 29.6311V29.6311ZM10.7072 25.8376V24.9146H10.8712H11.0353V25.2223V25.5299H11.5686H12.1019V25.2223V24.9146H12.266H12.4301V25.8376V26.7606H12.266H12.1019V26.2671V25.7736L11.5789 25.7851L11.0559 25.7966L11.0443 26.2786L11.0327 26.7606H10.8699H10.7072V25.8376ZM12.9256 26.6544C12.8129 26.5596 12.7993 26.5241 12.7993 26.3236C12.7993 25.9038 12.9254 25.8171 13.5357 25.8171C13.8778 25.8171 13.948 25.8065 13.948 25.7546C13.948 25.653 13.7645 25.612 13.3095 25.612H12.8814V25.4889V25.3658H13.4128C13.7269 25.3658 13.9866 25.3852 14.048 25.4132C14.2155 25.4895 14.2879 25.6432 14.3086 25.9662C14.333 26.3458 14.295 26.5404 14.1728 26.6627C14.08 26.7555 14.0478 26.7606 13.5633 26.7606C13.0728 26.7606 13.0466 26.7563 12.9256 26.6544ZM13.9118 26.4367C13.9944 26.3699 14.0021 26.3426 13.9668 26.2419C13.9261 26.1259 13.9222 26.1247 13.5494 26.113C13.2011 26.1021 13.1696 26.1078 13.1263 26.1886C13.0666 26.3001 13.1063 26.4619 13.1993 26.4862C13.2388 26.4965 13.3937 26.5071 13.5435 26.5097C13.7546 26.5134 13.8374 26.497 13.9118 26.4367ZM14.687 26.2581C14.6877 25.7133 14.7155 25.6129 14.9048 25.4724C15.0584 25.3582 15.6217 25.327 15.8449 25.4203C16.0807 25.5188 16.1373 25.6714 16.1558 26.2581L16.1717 26.7606H16.0034H15.8351V26.287C15.8351 25.8388 15.8296 25.808 15.7344 25.7127C15.6537 25.632 15.5919 25.612 15.424 25.612C15.3087 25.612 15.1805 25.6301 15.1393 25.6521C15.0216 25.7151 14.9736 25.9191 14.9736 26.3565V26.7606H14.83H14.6864L14.687 26.2581H14.687ZM16.7991 26.7219C16.754 26.7034 16.6801 26.6473 16.635 26.5972C16.5629 26.5172 16.5513 26.4373 16.5396 25.936L16.5262 25.3658H16.6695H16.8127L16.8264 25.8618C16.8392 26.3253 16.8465 26.363 16.937 26.4362C16.9902 26.4793 17.0851 26.5145 17.1478 26.5145C17.2105 26.5145 17.3054 26.4793 17.3586 26.4362C17.4491 26.363 17.4564 26.3253 17.4692 25.8618L17.4829 25.3658H17.6196H17.7563L17.77 25.8618C17.7828 26.3253 17.79 26.363 17.8805 26.4362C17.9902 26.5249 18.1226 26.5359 18.2705 26.4685C18.4019 26.4086 18.4183 26.3355 18.419 25.8068L18.4195 25.3658H18.5789H18.7384L18.7447 25.7964C18.7523 26.318 18.705 26.5151 18.5387 26.6551C18.4293 26.7471 18.3753 26.7606 18.1178 26.7606C17.9102 26.7606 17.7938 26.7406 17.7262 26.6932C17.6369 26.6307 17.6217 26.6307 17.5159 26.6932C17.3937 26.7654 16.9489 26.7832 16.7991 26.7219ZM19.1053 25.8292L19.1143 24.8941H19.2694H19.4246L19.4365 25.1402L19.4484 25.3864L19.8262 25.3742C20.4716 25.3534 20.5937 25.4987 20.5937 26.2876V26.7606H20.4296H20.2656V26.2934C20.2656 25.6881 20.2302 25.6319 19.855 25.6423C19.4714 25.6529 19.4501 25.6845 19.4361 26.2633L19.4246 26.7401L19.2605 26.7523L19.0964 26.7644L19.1053 25.8292ZM21.0369 26.6358C20.9214 26.5203 20.9135 26.4939 20.9308 26.2844C20.9454 26.1086 20.9742 26.0333 21.0597 25.9478C21.1643 25.8431 21.193 25.8369 21.6407 25.8238C22.0166 25.8128 22.1116 25.7981 22.1116 25.751C22.1116 25.653 21.9234 25.612 21.4731 25.612H21.045V25.4889V25.3658H21.5803C22.3831 25.3658 22.4398 25.4162 22.4398 26.1286C22.4398 26.5311 22.4332 26.5658 22.3391 26.6599C22.2424 26.7566 22.2169 26.7606 21.7001 26.7606H21.1618L21.0369 26.6358ZM22.0755 26.4367C22.1581 26.3698 22.1657 26.3427 22.1303 26.2419L22.0891 26.1248H21.7049C21.282 26.1248 21.2143 26.1612 21.2646 26.3616C21.296 26.4866 21.3462 26.5034 21.7071 26.5097C21.9183 26.5134 22.001 26.497 22.0755 26.4367ZM23.8912 26.6823C23.6998 26.5656 23.6705 26.4228 23.6705 25.6076V24.877L23.8243 24.8856L23.9782 24.8941L23.9992 25.5915C24.0108 25.975 24.0354 26.3199 24.0538 26.3578C24.1092 26.4717 24.3142 26.5145 24.8047 26.5145H25.2704V26.6376V26.7606L24.6448 26.7605C24.1023 26.7604 24.0022 26.75 23.8912 26.6823V26.6823ZM25.6396 26.0676C25.6396 25.463 25.6482 25.3713 25.7069 25.3488C25.7439 25.3346 25.8085 25.3339 25.8505 25.3472C25.9209 25.3695 25.9268 25.425 25.9268 26.066V26.7606H25.7832H25.6396V26.0676ZM26.337 26.0044C26.337 25.5884 26.3547 25.2017 26.3762 25.1449C26.4347 24.9911 26.6203 24.9146 26.9346 24.9146C27.1982 24.9146 27.2072 24.9179 27.1833 25.0069C27.1697 25.0577 27.1583 25.113 27.158 25.13C27.1577 25.1469 27.0824 25.1607 26.9907 25.1607C26.7976 25.1607 26.6652 25.2197 26.6652 25.3058C26.6652 25.3521 26.7237 25.3658 26.9216 25.3658H27.178V25.4889C27.178 25.6109 27.1759 25.612 26.9503 25.612C26.8251 25.612 26.7005 25.6341 26.6734 25.6612C26.6402 25.6944 26.6242 25.8818 26.6242 26.2355V26.7606H26.4806H26.337V26.0044ZM27.6661 26.6212C27.5684 26.5234 27.5247 26.4405 27.5203 26.3443C27.5167 26.2687 27.5093 26.1514 27.5038 26.0838C27.4821 25.8178 27.5368 25.5955 27.6526 25.4797C27.764 25.3683 27.7767 25.3658 28.2434 25.3658C28.9013 25.3658 29.0445 25.455 29.0445 25.8641C29.0445 26.116 28.8784 26.2533 28.5282 26.2908C28.3807 26.3066 28.1798 26.3104 28.0818 26.2994C27.839 26.272 27.762 26.3258 27.8902 26.4333C27.9748 26.5042 28.0486 26.5145 28.4747 26.5145H28.9625V26.6376V26.7606H28.384H27.8056L27.6661 26.6212ZM28.6671 25.973C28.7451 25.895 28.7269 25.7026 28.637 25.6545C28.5038 25.5832 27.9759 25.6011 27.8888 25.6799C27.7968 25.7632 27.7926 25.8721 27.8783 25.9578C27.9588 26.0382 28.5897 26.0504 28.6671 25.973ZM25.6478 25.1936C25.6207 25.1665 25.5986 25.1056 25.5986 25.0582C25.5986 24.8721 25.8144 24.8088 25.9474 24.9558C26.0089 25.0237 26.0137 25.0558 25.9752 25.1404C25.9239 25.253 25.7375 25.2832 25.6478 25.1936Z" stroke="white" stroke-opacity="0.95" stroke-width="0.4" mask="url(#path-7-outside-1_383_2888)"/>
</svg>
