<svg width="18" height="18" viewBox="0 0 18 18" fill="none" xmlns="http://www.w3.org/2000/svg">
<g clip-path="url(#clip0_120_9733)">
<path d="M6.00072 9.00036C6.00072 7.3435 7.3435 6 9.00036 6C10.6572 6 12.0007 7.3435 12.0007 9.00036C12.0007 10.6572 10.6572 12.0007 9.00036 12.0007C7.3435 12.0007 6.00072 10.6572 6.00072 9.00036ZM4.37878 9.00036C4.37878 11.5529 6.44786 13.6219 9.00036 13.6219C11.5529 13.6219 13.6219 11.5529 13.6219 9.00036C13.6219 6.44786 11.5529 4.37878 9.00036 4.37878C6.44786 4.37878 4.37878 6.44772 4.37878 9.00036ZM12.7249 4.19554C12.7248 4.40915 12.7881 4.61799 12.9067 4.79565C13.0253 4.97331 13.1939 5.11181 13.3913 5.19363C13.5886 5.27546 13.8057 5.29693 14.0153 5.25534C14.2248 5.21375 14.4173 5.11097 14.5684 4.95998C14.7195 4.80899 14.8224 4.61659 14.8642 4.4071C14.9059 4.19761 14.8846 3.98044 14.803 3.78305C14.7213 3.58567 14.5829 3.41693 14.4054 3.29819C14.2278 3.17944 14.019 3.11601 13.8054 3.11593C13.5191 3.11606 13.2441 3.22983 13.0416 3.43226C12.8391 3.63468 12.7252 3.90921 12.7249 4.19554ZM5.36421 16.3265C4.48672 16.2865 4.00977 16.1404 3.69281 16.0169C3.2726 15.8533 2.97278 15.6585 2.65755 15.3437C2.34233 15.0289 2.1472 14.7293 1.98433 14.3091C1.86077 13.9923 1.7146 13.5152 1.67471 12.6377C1.63108 11.689 1.62237 11.404 1.62237 9.00051C1.62237 6.59698 1.6318 6.31278 1.67471 5.36328C1.71468 4.48578 1.86192 4.00962 1.98433 3.69188C2.14792 3.27167 2.34276 2.97185 2.65755 2.65662C2.97235 2.34139 3.27188 2.14626 3.69281 1.98339C4.00962 1.85983 4.48672 1.71367 5.36421 1.67378C6.31292 1.63015 6.59791 1.62143 9.00036 1.62143C11.4028 1.62143 11.6881 1.63072 12.6376 1.67392C13.5151 1.71388 13.9912 1.86113 14.309 1.98354C14.7292 2.14641 15.029 2.34197 15.3442 2.65676C15.6595 2.97156 15.8539 3.27181 16.0175 3.69202C16.141 4.00883 16.2872 4.48592 16.3271 5.36342C16.3707 6.31293 16.3794 6.59712 16.3794 9.00065C16.3794 11.4042 16.3707 11.6884 16.3271 12.6379C16.2871 13.5154 16.1402 13.9923 16.0175 14.3093C15.8539 14.7295 15.659 15.0293 15.3442 15.3438C15.0294 15.6583 14.7292 15.8535 14.309 16.017C13.9922 16.1406 13.5151 16.2868 12.6376 16.3267C11.6889 16.3703 11.4039 16.379 9.00036 16.379C6.59683 16.379 6.31264 16.3701 5.36421 16.3265ZM5.28969 0.0545062C4.33155 0.09814 3.67683 0.250066 3.10505 0.472555C2.51326 0.702316 2.01162 1.01056 1.51069 1.51069C1.00977 2.01082 0.702316 2.51254 0.472555 3.10505C0.250066 3.67719 0.09814 4.33155 0.0545062 5.28969C0.0101525 6.24935 0 6.55615 0 9.00036C0 11.4446 0.0101525 11.7514 0.0545062 12.711C0.09814 13.6692 0.250066 14.3235 0.472555 14.8957C0.702316 15.4875 1.00984 15.9901 1.51069 16.49C2.01154 16.9899 2.51254 17.2978 3.10505 17.5282C3.67791 17.7507 4.33155 17.9026 5.28969 17.9462C6.24985 17.9898 6.55615 18.0007 9.00036 18.0007C11.4446 18.0007 11.7514 17.9906 12.711 17.9462C13.6692 17.9026 14.3235 17.7507 14.8957 17.5282C15.4875 17.2978 15.9891 16.9902 16.49 16.49C16.991 15.9899 17.2978 15.4875 17.5282 14.8957C17.7507 14.3235 17.9033 13.6692 17.9462 12.711C17.9898 11.7507 18 11.4446 18 9.00036C18 6.55615 17.9898 6.24935 17.9462 5.28969C17.9026 4.33148 17.7507 3.67683 17.5282 3.10505C17.2978 2.51326 16.9902 2.01162 16.49 1.51069C15.9899 1.00977 15.4875 0.702316 14.8964 0.472555C14.3235 0.250066 13.6692 0.09742 12.7117 0.0545062C11.752 0.0106565 11.4453 0 9.00144 0C6.55759 0 6.24985 0.0101525 5.28969 0.0545062Z" fill="white"/>
</g>
<defs>
<clipPath id="clip0_120_9733">
<rect width="18" height="18" fill="white"/>
</clipPath>
</defs>
</svg>
