<svg width="24" height="12" viewBox="0 0 24 12" fill="none" xmlns="http://www.w3.org/2000/svg">
<path d="M0.0186792 0.683603C0.0093396 0.696056 0 0.714736 0 0.727188C0 0.736528 2.43141 2.5453 5.40452 4.74322C8.37762 6.93802 10.8153 8.75302 10.8246 8.77481C10.8308 8.79349 10.5475 9.36632 10.1957 10.045C9.84394 10.7237 9.56375 11.2934 9.57309 11.309C9.58243 11.3276 9.60422 11.3401 9.61979 11.3401C9.63224 11.3401 10.1646 10.9541 10.8028 10.484C11.441 10.0139 11.9734 9.62783 11.9889 9.62783C12.0045 9.62783 12.5275 10.0076 13.1564 10.4715C13.7821 10.9323 14.3114 11.3183 14.3363 11.3276C14.3581 11.337 14.3861 11.3276 14.3986 11.3121C14.4079 11.2934 14.1308 10.7206 13.779 10.0388C13.4241 9.36009 13.1439 8.78726 13.1502 8.7717C13.1564 8.75302 15.6002 6.94114 18.5796 4.7401C21.562 2.53907 23.9997 0.730302 23.9997 0.720962C24.0028 0.708509 23.9841 0.692944 23.9654 0.686717C23.9187 0.668037 13.8537 3.04652 13.8195 3.08077C13.8039 3.09633 13.3899 3.88709 12.8949 4.84284L11.992 6.58L11.8675 6.35274C11.799 6.22821 11.3912 5.43746 10.9585 4.60001C10.5257 3.75945 10.1677 3.07143 10.1677 3.06831C10.1646 3.0652 7.9013 2.52973 5.13678 1.87596C2.37226 1.2253 0.093396 0.683603 0.0716036 0.677378C0.0529244 0.671151 0.0280188 0.674264 0.0186792 0.683603Z" fill="#F3F3F3"/>
</svg>
