<svg width="24" height="24" viewBox="0 0 24 24" fill="none" xmlns="http://www.w3.org/2000/svg">
<path d="M0 20.4644C0.381828 19.2276 1.42216 18.5751 2.35044 17.8192C3.03997 17.2581 3.71571 16.6798 4.40352 16.1169C5.60244 15.1369 6.80912 14.1681 7.99942 13.1873C9.01907 12.3486 10.0223 11.491 11.042 10.6524C12.0487 9.82496 13.0709 9.01476 14.0794 8.18905C14.7879 7.60812 15.4808 7.00822 16.1893 6.42643C17.04 5.72656 17.9028 5.04134 18.7544 4.34232C19.4629 3.76139 20.161 3.16753 20.8669 2.58316C21.8926 1.7359 22.914 0.893805 23.9983 0C23.9793 0.373209 23.7052 0.492153 23.5673 0.675741C23.0502 1.36527 22.477 2.00826 21.9297 2.67366C21.0747 3.70795 20.2265 4.75173 19.3698 5.78775C18.7949 6.48246 18.2071 7.16682 17.6322 7.86324C16.9142 8.73291 16.2074 9.61293 15.4877 10.4817C14.9042 11.1876 14.3078 11.8806 13.7199 12.5839C13.0184 13.4329 12.328 14.2905 11.6272 15.1404C11.0437 15.8463 10.449 16.5427 9.86547 17.2486C9.01907 18.2726 8.18129 19.3069 7.33317 20.3334C6.74017 21.0497 6.13597 21.7556 5.53866 22.4684C5.1077 22.9855 4.70002 23.5311 4.04238 23.7957C3.87689 23.8621 3.71226 23.9319 3.54678 24H2.22719C1.00413 23.7888 0.263746 23.07 0 21.8625V20.4644Z" fill="#F3F3F3"/>
<path d="M0.929946 15.1577C-0.0448788 10.7481 0.962699 6.89537 4.30951 3.93469C7.95541 0.702516 12.1788 0.25863 16.7366 2.16346C16.0169 2.75473 15.3041 3.25981 14.6939 3.86746C14.2258 4.33376 13.794 4.24412 13.2372 4.13638C12.0903 3.9195 10.9095 3.96161 9.78094 4.25964C8.23768 4.64175 6.83942 5.46579 5.75753 6.63076C4.70735 7.73928 3.99565 9.12471 3.70617 10.624C3.59498 11.186 3.50104 11.7445 3.56137 12.3099C3.61653 12.8271 3.43725 13.1615 3.0356 13.4649C2.334 13.9915 1.66861 14.5586 0.929946 15.1577Z" fill="#F3F3F3"/>
<path d="M21.9013 7.38306C23.6398 11.6676 23.3252 15.6161 20.499 19.2051C18.4451 21.8201 15.6671 23.1854 12.3255 23.369C11.31 23.419 10.2924 23.332 9.30015 23.1104C9.04158 23.0561 8.95538 23.0156 9.16224 22.7725C9.74835 22.083 10.3181 21.3814 10.8861 20.6798C10.9331 20.6147 10.9971 20.5638 11.0712 20.5326C11.1452 20.5014 11.2264 20.4912 11.3058 20.5031C15.8067 20.7944 19.7767 17.3054 20.0611 12.8321C20.1185 11.9574 20.0438 11.079 19.8396 10.2265C19.8069 10.0921 19.7578 9.96794 19.8629 9.83865C20.5188 9.05431 21.1713 8.2648 21.9013 7.38306Z" fill="#F3F3F3"/>
</svg>
