<svg width="251" height="250" viewBox="0 0 251 250" fill="none" xmlns="http://www.w3.org/2000/svg">
<ellipse cx="125.5" cy="125" rx="125.5" ry="125" fill="#C13631"/>
<path fill-rule="evenodd" clip-rule="evenodd" d="M38.5335 109.638C44.1443 101.814 118.206 52.636 129.428 45.9299C140.649 39.2238 194.513 52.6359 204.612 61.5774C214.075 69.9552 219.597 115.618 221.178 128.697C221.285 129.577 221.374 130.31 221.444 130.874C222.094 136.049 210.336 144.221 199.881 151.487C192.275 156.773 185.358 161.58 184.413 164.404C183.308 167.706 184.38 171.822 185.35 175.549C186.351 179.391 187.244 182.82 185.535 184.522C183.828 186.223 181.544 185.624 178.828 184.911C176.19 184.219 173.144 183.421 169.825 184.522C166.195 185.727 164.849 190.831 163.675 195.279C162.671 199.082 161.794 202.405 159.726 202.405C157.607 202.405 154.987 199.914 152.222 197.283C149.13 194.343 145.855 191.228 142.894 191.228C140.216 191.228 139.838 195.047 139.444 199.039C139.011 203.412 138.558 207.994 135.039 207.994C131.672 207.994 129.708 203.802 127.745 199.611C125.781 195.42 123.817 191.228 120.451 191.228C117.214 191.228 117.089 195.103 116.96 199.127C116.82 203.473 116.674 207.994 112.596 207.994C107.762 207.994 105.478 200.799 103.39 194.222C102.085 190.111 100.856 186.242 99.1297 184.522C97.2306 182.631 86.091 181.74 73.7002 180.748H73.7C56.805 179.397 37.584 177.859 36.2892 173.346C34.0449 165.522 32.9228 117.461 38.5335 109.638ZM144.016 140.933C139.528 137.58 139.528 77.2252 144.016 71.6368C148.505 66.0483 168.704 62.6951 186.658 71.6366C204.613 80.578 203.49 123.05 197.88 130.874C192.269 138.697 182.17 152.11 173.192 152.11C165.498 152.11 161.101 147.183 158.588 144.367C158.169 143.898 157.803 143.487 157.482 143.168C156.479 142.169 154.578 142.286 152.382 142.422C149.666 142.591 146.498 142.787 144.016 140.933ZM55.3665 119.697C62.5482 105.391 81.9389 96.807 92.2807 92.2289C94.8662 91.0844 96.8861 90.1902 98.0083 89.5196C103.619 86.1665 114.84 80.578 121.573 88.4018C128.306 96.2257 128.306 152.11 121.573 157.698C117.48 161.096 111.312 160.775 106.097 160.504C102.734 160.329 99.7679 160.175 98.0083 161.051C98.0083 161.051 93.5197 164.404 90.1532 165.522C90.1532 165.522 62.0993 168.875 57.6107 164.404C53.1221 159.933 46.3893 137.58 55.3665 119.697ZM133.63 169.358C132.406 173.428 131.046 177.944 129.428 181.169C130.457 180.759 131.764 180.213 133.262 179.587C139.926 176.802 150.351 172.445 156.765 171.533C159.009 171.533 139.527 157.698 137.283 159.933C136.117 161.094 134.952 164.965 133.63 169.358Z" fill="#F6F2F2"/>
</svg>
