<svg width="40" height="40" viewBox="0 0 40 40" fill="none" xmlns="http://www.w3.org/2000/svg">
<path d="M12.3846 21.489C13.5729 23.1125 15.0624 23.1962 15.0624 23.1962H17.6566L18.8281 21.489H12.3846Z" fill="#E2012D"/>
<path d="M9.13794 18.9282C10.3262 20.5517 11.8157 20.6354 11.8157 20.6354H19.414L20.5856 18.9282H9.13794Z" fill="#E2012D"/>
<path d="M5.90796 16.3677C7.09623 17.9912 8.58576 18.0748 8.58576 18.0748H21.1715L22.343 16.3677H5.90796Z" fill="#E2012D"/>
<path d="M0 12.1001C2.3933 15.3469 5.35561 15.5143 5.35561 15.5143H23.9659L17.7903 24.5016C16.5518 26.2924 19.5811 27.9157 19.5811 27.9157L28.1166 15.5143C28.1166 15.5143 31.0789 15.3469 33.4722 12.1001H0Z" fill="#E2012D"/>
<path d="M40 12.1001H35.8494C33.4561 15.3469 30.4938 15.5143 30.4938 15.5143H33.5063L27.3307 24.5016C26.0922 26.2924 29.1215 27.9157 29.1215 27.9157L40 12.1001Z" fill="#E2012D"/>
</svg>
