<svg width="30" height="30" viewBox="0 0 30 30" fill="none" xmlns="http://www.w3.org/2000/svg">
<path fill-rule="evenodd" clip-rule="evenodd" d="M22.9412 11.4706C26.0603 11.4706 30 7.94115 30 7.94115H20.2941L17.6471 10.5882L19.4118 16.7647L23.8235 15L21.1765 11.4706H22.9412ZM19.4118 4.41174L18.3768 2.64703H11.5253L10.5882 4.41174L15 9.70586L19.4118 4.41174ZM15 12.3529L14.1176 11.4706L11.4706 24.7059L15 27.3529L18.5294 24.7059L15.8824 11.4706L15 12.3529ZM9.70588 7.94115H0C0 7.94115 3.93971 11.4706 7.05882 11.4706H8.82353L6.17647 15L10.5882 16.7647L12.3529 10.5882L9.70588 7.94115Z" fill="#F3F3F3"/>
</svg>
